G04 Layer_Color=32896*
%FSLAX44Y44*%
%MOMM*%
G71*
G01*
G75*
%ADD51C,0.2540*%
D51*
X858000Y637235D02*
Y622000D01*
X863078Y627078D01*
X868157Y622000D01*
Y637235D01*
X883392D02*
X873235D01*
Y622000D01*
X883392D01*
X873235Y629618D02*
X878314D01*
X888470Y637235D02*
Y622000D01*
X896088D01*
X898627Y624539D01*
Y627078D01*
X896088Y629618D01*
X888470D01*
X896088D01*
X898627Y632157D01*
Y634696D01*
X896088Y637235D01*
X888470D01*
X913862Y634696D02*
X911323Y637235D01*
X906244D01*
X903705Y634696D01*
Y632157D01*
X906244Y629618D01*
X911323D01*
X913862Y627078D01*
Y624539D01*
X911323Y622000D01*
X906244D01*
X903705Y624539D01*
X918940Y637235D02*
X924019D01*
X921479D01*
Y622000D01*
X918940D01*
X924019D01*
X931636Y637235D02*
X941793D01*
X936715D01*
Y622000D01*
X957028Y637235D02*
X946871D01*
Y622000D01*
X957028D01*
X946871Y629618D02*
X951950D01*
X962106Y632157D02*
X964645D01*
Y629618D01*
X962106D01*
Y632157D01*
Y624539D02*
X964645D01*
Y622000D01*
X962106D01*
Y624539D01*
X990037Y637235D02*
Y622000D01*
Y629618D01*
X992577Y632157D01*
X997655D01*
X1000194Y629618D01*
Y622000D01*
X1007812Y634696D02*
Y632157D01*
X1005272D01*
X1010351D01*
X1007812D01*
Y624539D01*
X1010351Y622000D01*
X1020508Y634696D02*
Y632157D01*
X1017968D01*
X1023047D01*
X1020508D01*
Y624539D01*
X1023047Y622000D01*
X1030664Y616922D02*
Y632157D01*
X1038282D01*
X1040821Y629618D01*
Y624539D01*
X1038282Y622000D01*
X1030664D01*
X1045899Y632157D02*
X1048438D01*
Y629618D01*
X1045899D01*
Y632157D01*
Y624539D02*
X1048438D01*
Y622000D01*
X1045899D01*
Y624539D01*
X1058595Y622000D02*
X1068752Y632157D01*
X1073830Y622000D02*
X1083987Y632157D01*
X1089065D02*
Y624539D01*
X1091604Y622000D01*
X1094144Y624539D01*
X1096683Y622000D01*
X1099222Y624539D01*
Y632157D01*
X1104300D02*
Y624539D01*
X1106840Y622000D01*
X1109379Y624539D01*
X1111918Y622000D01*
X1114457Y624539D01*
Y632157D01*
X1119535D02*
Y624539D01*
X1122075Y622000D01*
X1124614Y624539D01*
X1127153Y622000D01*
X1129692Y624539D01*
Y632157D01*
X1134771Y622000D02*
Y624539D01*
X1137310D01*
Y622000D01*
X1134771D01*
X1157623D02*
X1147466D01*
X1157623Y632157D01*
Y634696D01*
X1155084Y637235D01*
X1150005D01*
X1147466Y634696D01*
X1162701D02*
X1165241Y637235D01*
X1170319D01*
X1172858Y634696D01*
Y632157D01*
X1170319Y629618D01*
X1172858Y627078D01*
Y624539D01*
X1170319Y622000D01*
X1165241D01*
X1162701Y624539D01*
Y627078D01*
X1165241Y629618D01*
X1162701Y632157D01*
Y634696D01*
X1165241Y629618D02*
X1170319D01*
X1177936Y616922D02*
Y632157D01*
X1185554D01*
X1188093Y629618D01*
Y624539D01*
X1185554Y622000D01*
X1177936D01*
X1193172D02*
X1198250D01*
X1195711D01*
Y632157D01*
X1193172D01*
X1205867Y622000D02*
Y632157D01*
X1213485D01*
X1216024Y629618D01*
Y622000D01*
X1221103D02*
X1228720D01*
X1231259Y624539D01*
X1228720Y627078D01*
X1223642D01*
X1221103Y629618D01*
X1223642Y632157D01*
X1231259D01*
X1236338Y622000D02*
Y624539D01*
X1238877D01*
Y622000D01*
X1236338D01*
X1259190Y632157D02*
X1251573D01*
X1249034Y629618D01*
Y624539D01*
X1251573Y622000D01*
X1259190D01*
X1266808D02*
X1271886D01*
X1274425Y624539D01*
Y629618D01*
X1271886Y632157D01*
X1266808D01*
X1264269Y629618D01*
Y624539D01*
X1266808Y622000D01*
X1279504D02*
Y632157D01*
X1282043D01*
X1284582Y629618D01*
Y622000D01*
Y629618D01*
X1287121Y632157D01*
X1289660Y629618D01*
Y622000D01*
X856000Y-143765D02*
Y-159000D01*
X863618D01*
X866157Y-156461D01*
Y-153922D01*
X863618Y-151383D01*
X856000D01*
X863618D01*
X866157Y-148843D01*
Y-146304D01*
X863618Y-143765D01*
X856000D01*
X873774Y-148843D02*
X878853D01*
X881392Y-151383D01*
Y-159000D01*
X873774D01*
X871235Y-156461D01*
X873774Y-153922D01*
X881392D01*
X886470Y-159000D02*
X894088D01*
X896627Y-156461D01*
X894088Y-153922D01*
X889009D01*
X886470Y-151383D01*
X889009Y-148843D01*
X896627D01*
X909323Y-159000D02*
X904244D01*
X901705Y-156461D01*
Y-151383D01*
X904244Y-148843D01*
X909323D01*
X911862Y-151383D01*
Y-153922D01*
X901705D01*
X927097Y-143765D02*
Y-159000D01*
X919480D01*
X916940Y-156461D01*
Y-151383D01*
X919480Y-148843D01*
X927097D01*
X949950Y-159000D02*
X955028D01*
X957567Y-156461D01*
Y-151383D01*
X955028Y-148843D01*
X949950D01*
X947410Y-151383D01*
Y-156461D01*
X949950Y-159000D01*
X962645D02*
Y-148843D01*
X970263D01*
X972802Y-151383D01*
Y-159000D01*
X993116D02*
Y-148843D01*
X998194Y-143765D01*
X1003272Y-148843D01*
Y-159000D01*
Y-151383D01*
X993116D01*
X1008351Y-148843D02*
Y-159000D01*
Y-153922D01*
X1010890Y-151383D01*
X1013429Y-148843D01*
X1015968D01*
X1033743Y-143765D02*
Y-159000D01*
X1026125D01*
X1023586Y-156461D01*
Y-151383D01*
X1026125Y-148843D01*
X1033743D01*
X1038821D02*
Y-156461D01*
X1041360Y-159000D01*
X1048978D01*
Y-148843D01*
X1054056Y-159000D02*
X1059134D01*
X1056595D01*
Y-148843D01*
X1054056D01*
X1066752Y-159000D02*
Y-148843D01*
X1074369D01*
X1076909Y-151383D01*
Y-159000D01*
X1084526D02*
X1089604D01*
X1092144Y-156461D01*
Y-151383D01*
X1089604Y-148843D01*
X1084526D01*
X1081987Y-151383D01*
Y-156461D01*
X1084526Y-159000D01*
X1097222Y-148843D02*
X1099761D01*
Y-151383D01*
X1097222D01*
Y-148843D01*
Y-156461D02*
X1099761D01*
Y-159000D01*
X1097222D01*
Y-156461D01*
X1125153Y-143765D02*
Y-159000D01*
Y-151383D01*
X1127692Y-148843D01*
X1132770D01*
X1135310Y-151383D01*
Y-159000D01*
X1142927Y-146304D02*
Y-148843D01*
X1140388D01*
X1145466D01*
X1142927D01*
Y-156461D01*
X1145466Y-159000D01*
X1155623Y-146304D02*
Y-148843D01*
X1153084D01*
X1158162D01*
X1155623D01*
Y-156461D01*
X1158162Y-159000D01*
X1165780Y-164078D02*
Y-148843D01*
X1173397D01*
X1175937Y-151383D01*
Y-156461D01*
X1173397Y-159000D01*
X1165780D01*
X1181015Y-148843D02*
X1183554D01*
Y-151383D01*
X1181015D01*
Y-148843D01*
Y-156461D02*
X1183554D01*
Y-159000D01*
X1181015D01*
Y-156461D01*
X1193711Y-159000D02*
X1203867Y-148843D01*
X1208946Y-159000D02*
X1219102Y-148843D01*
X1224181D02*
Y-156461D01*
X1226720Y-159000D01*
X1229259Y-156461D01*
X1231798Y-159000D01*
X1234338Y-156461D01*
Y-148843D01*
X1239416D02*
Y-156461D01*
X1241955Y-159000D01*
X1244494Y-156461D01*
X1247033Y-159000D01*
X1249573Y-156461D01*
Y-148843D01*
X1254651D02*
Y-156461D01*
X1257190Y-159000D01*
X1259729Y-156461D01*
X1262269Y-159000D01*
X1264808Y-156461D01*
Y-148843D01*
X1269886Y-159000D02*
Y-156461D01*
X1272425D01*
Y-159000D01*
X1269886D01*
X1285121Y-148843D02*
X1290199D01*
X1292739Y-151383D01*
Y-159000D01*
X1285121D01*
X1282582Y-156461D01*
X1285121Y-153922D01*
X1292739D01*
X1297817Y-148843D02*
Y-159000D01*
Y-153922D01*
X1300356Y-151383D01*
X1302895Y-148843D01*
X1305435D01*
X1323209Y-143765D02*
Y-159000D01*
X1315591D01*
X1313052Y-156461D01*
Y-151383D01*
X1315591Y-148843D01*
X1323209D01*
X1328287D02*
Y-156461D01*
X1330826Y-159000D01*
X1338444D01*
Y-148843D01*
X1343522Y-159000D02*
X1348601D01*
X1346062D01*
Y-148843D01*
X1343522D01*
X1356218Y-159000D02*
Y-148843D01*
X1363836D01*
X1366375Y-151383D01*
Y-159000D01*
X1373992D02*
X1379071D01*
X1381610Y-156461D01*
Y-151383D01*
X1379071Y-148843D01*
X1373992D01*
X1371453Y-151383D01*
Y-156461D01*
X1373992Y-159000D01*
X1386688D02*
Y-156461D01*
X1389227D01*
Y-159000D01*
X1386688D01*
X1409541Y-148843D02*
X1401923D01*
X1399384Y-151383D01*
Y-156461D01*
X1401923Y-159000D01*
X1409541D01*
X1424776Y-148843D02*
X1417159D01*
X1414619Y-151383D01*
Y-156461D01*
X1417159Y-159000D01*
X1424776D01*
X1429854D02*
X1440011Y-148843D01*
X858000Y512235D02*
Y509696D01*
X863078Y504618D01*
X868157Y509696D01*
Y512235D01*
X863078Y504618D02*
Y497000D01*
X875774D02*
X880853D01*
X883392Y499539D01*
Y504618D01*
X880853Y507157D01*
X875774D01*
X873235Y504618D01*
Y499539D01*
X875774Y497000D01*
X888470Y507157D02*
Y499539D01*
X891009Y497000D01*
X898627D01*
Y507157D01*
X921479D02*
X926558D01*
X929097Y504618D01*
Y497000D01*
X921479D01*
X918940Y499539D01*
X921479Y502078D01*
X929097D01*
X934175Y507157D02*
Y497000D01*
Y502078D01*
X936715Y504618D01*
X939254Y507157D01*
X941793D01*
X957028Y497000D02*
X951950D01*
X949410Y499539D01*
Y504618D01*
X951950Y507157D01*
X957028D01*
X959567Y504618D01*
Y502078D01*
X949410D01*
X982420Y497000D02*
Y509696D01*
Y504618D01*
X979881D01*
X984959D01*
X982420D01*
Y509696D01*
X984959Y512235D01*
X992577Y507157D02*
Y497000D01*
Y502078D01*
X995116Y504618D01*
X997655Y507157D01*
X1000194D01*
X1015429Y497000D02*
X1010351D01*
X1007812Y499539D01*
Y504618D01*
X1010351Y507157D01*
X1015429D01*
X1017968Y504618D01*
Y502078D01*
X1007812D01*
X1030664Y497000D02*
X1025586D01*
X1023047Y499539D01*
Y504618D01*
X1025586Y507157D01*
X1030664D01*
X1033203Y504618D01*
Y502078D01*
X1023047D01*
X1056056Y509696D02*
Y507157D01*
X1053517D01*
X1058595D01*
X1056056D01*
Y499539D01*
X1058595Y497000D01*
X1068752D02*
X1073830D01*
X1076369Y499539D01*
Y504618D01*
X1073830Y507157D01*
X1068752D01*
X1066213Y504618D01*
Y499539D01*
X1068752Y497000D01*
X1081448Y507157D02*
X1083987D01*
Y504618D01*
X1081448D01*
Y507157D01*
Y499539D02*
X1083987D01*
Y497000D01*
X1081448D01*
Y499539D01*
X868697Y210921D02*
X866158Y213460D01*
X861079D01*
X858540Y210921D01*
Y208382D01*
X861079Y205842D01*
X866158D01*
X868697Y203303D01*
Y200764D01*
X866158Y198225D01*
X861079D01*
X858540Y200764D01*
X873775Y213460D02*
Y198225D01*
Y205842D01*
X876314Y208382D01*
X881393D01*
X883932Y205842D01*
Y198225D01*
X891549Y208382D02*
X896628D01*
X899167Y205842D01*
Y198225D01*
X891549D01*
X889010Y200764D01*
X891549Y203303D01*
X899167D01*
X904245Y208382D02*
Y198225D01*
Y203303D01*
X906784Y205842D01*
X909324Y208382D01*
X911863D01*
X927098Y198225D02*
X922020D01*
X919480Y200764D01*
Y205842D01*
X922020Y208382D01*
X927098D01*
X929637Y205842D01*
Y203303D01*
X919480D01*
X934715Y198225D02*
Y208382D01*
X939794Y213460D01*
X944872Y208382D01*
Y198225D01*
Y205842D01*
X934715D01*
X949950Y198225D02*
X955029D01*
X952490D01*
Y213460D01*
X949950D01*
X962646Y198225D02*
X967725D01*
X965185D01*
Y208382D01*
X962646D01*
X975342Y198225D02*
Y213460D01*
Y203303D02*
X982960Y208382D01*
X975342Y203303D02*
X982960Y198225D01*
X998195D02*
X993117D01*
X990577Y200764D01*
Y205842D01*
X993117Y208382D01*
X998195D01*
X1000734Y205842D01*
Y203303D01*
X990577D01*
X1021047Y205842D02*
X1031204D01*
X1051518Y213460D02*
X1056596D01*
X1054057D01*
Y198225D01*
X1051518D01*
X1056596D01*
X1066753D02*
Y210921D01*
Y205842D01*
X1064213D01*
X1069292D01*
X1066753D01*
Y210921D01*
X1069292Y213460D01*
X1092144Y208382D02*
Y200764D01*
X1094684Y198225D01*
X1102301D01*
Y195686D01*
X1099762Y193147D01*
X1097223D01*
X1102301Y198225D02*
Y208382D01*
X1109919Y198225D02*
X1114997D01*
X1117536Y200764D01*
Y205842D01*
X1114997Y208382D01*
X1109919D01*
X1107380Y205842D01*
Y200764D01*
X1109919Y198225D01*
X1122615Y208382D02*
Y200764D01*
X1125154Y198225D01*
X1132771D01*
Y208382D01*
X1153085D02*
Y198225D01*
Y203303D01*
X1155624Y205842D01*
X1158163Y208382D01*
X1160702D01*
X1175937Y198225D02*
X1170859D01*
X1168320Y200764D01*
Y205842D01*
X1170859Y208382D01*
X1175937D01*
X1178476Y205842D01*
Y203303D01*
X1168320D01*
X1183555Y198225D02*
Y208382D01*
X1186094D01*
X1188633Y205842D01*
Y198225D01*
Y205842D01*
X1191172Y208382D01*
X1193712Y205842D01*
Y198225D01*
X1198790D02*
X1203868D01*
X1201329D01*
Y208382D01*
X1198790D01*
X1211486D02*
X1221643Y198225D01*
X1216564Y203303D01*
X1221643Y208382D01*
X1211486Y198225D01*
X1229260Y195686D02*
X1231799Y198225D01*
Y200764D01*
X1229260D01*
Y198225D01*
X1231799D01*
X1229260Y195686D01*
X1226721Y193147D01*
X1259730Y210921D02*
Y208382D01*
X1257191D01*
X1262269D01*
X1259730D01*
Y200764D01*
X1262269Y198225D01*
X1269887Y208382D02*
Y198225D01*
Y203303D01*
X1272426Y205842D01*
X1274965Y208382D01*
X1277505D01*
X1287661D02*
X1292740D01*
X1295279Y205842D01*
Y198225D01*
X1287661D01*
X1285122Y200764D01*
X1287661Y203303D01*
X1295279D01*
X1300357Y198225D02*
Y208382D01*
X1307975D01*
X1310514Y205842D01*
Y198225D01*
X1315592D02*
X1323210D01*
X1325749Y200764D01*
X1323210Y203303D01*
X1318131D01*
X1315592Y205842D01*
X1318131Y208382D01*
X1325749D01*
X1333366Y198225D02*
Y210921D01*
Y205842D01*
X1330827D01*
X1335906D01*
X1333366D01*
Y210921D01*
X1335906Y213460D01*
X1346062Y198225D02*
X1351141D01*
X1353680Y200764D01*
Y205842D01*
X1351141Y208382D01*
X1346062D01*
X1343523Y205842D01*
Y200764D01*
X1346062Y198225D01*
X1358758Y208382D02*
Y198225D01*
Y203303D01*
X1361297Y205842D01*
X1363837Y208382D01*
X1366376D01*
X1373993Y198225D02*
Y208382D01*
X1376532D01*
X1379072Y205842D01*
Y198225D01*
Y205842D01*
X1381611Y208382D01*
X1384150Y205842D01*
Y198225D01*
X1391767Y195686D02*
X1394307Y198225D01*
Y200764D01*
X1391767D01*
Y198225D01*
X1394307D01*
X1391767Y195686D01*
X1389228Y193147D01*
X1422238Y198225D02*
X1427316D01*
X1429855Y200764D01*
Y205842D01*
X1427316Y208382D01*
X1422238D01*
X1419698Y205842D01*
Y200764D01*
X1422238Y198225D01*
X1434933Y208382D02*
Y198225D01*
Y203303D01*
X1437473Y205842D01*
X1440012Y208382D01*
X1442551D01*
X1465404Y213460D02*
Y198225D01*
X1473021D01*
X1475560Y200764D01*
Y203303D01*
Y205842D01*
X1473021Y208382D01*
X1465404D01*
X1480639D02*
Y200764D01*
X1483178Y198225D01*
X1490795D01*
Y208382D01*
X1495874Y198225D02*
X1500952D01*
X1498413D01*
Y208382D01*
X1495874D01*
X1508570Y198225D02*
X1513648D01*
X1511109D01*
Y213460D01*
X1508570D01*
X1531422D02*
Y198225D01*
X1523805D01*
X1521266Y200764D01*
Y205842D01*
X1523805Y208382D01*
X1531422D01*
X1551736D02*
Y200764D01*
X1554275Y198225D01*
X1561893D01*
Y208382D01*
X1566971Y193147D02*
Y208382D01*
X1574588D01*
X1577128Y205842D01*
Y200764D01*
X1574588Y198225D01*
X1566971D01*
X1584745D02*
X1589823D01*
X1592363Y200764D01*
Y205842D01*
X1589823Y208382D01*
X1584745D01*
X1582206Y205842D01*
Y200764D01*
X1584745Y198225D01*
X1597441D02*
Y208382D01*
X1605058D01*
X1607598Y205842D01*
Y198225D01*
X1630450Y210921D02*
Y208382D01*
X1627911D01*
X1632989D01*
X1630450D01*
Y200764D01*
X1632989Y198225D01*
X1640607Y213460D02*
Y198225D01*
Y205842D01*
X1643146Y208382D01*
X1648224D01*
X1650764Y205842D01*
Y198225D01*
X1663460D02*
X1658381D01*
X1655842Y200764D01*
Y205842D01*
X1658381Y208382D01*
X1663460D01*
X1665999Y205842D01*
Y203303D01*
X1655842D01*
X1686312Y198225D02*
Y208382D01*
X1688851D01*
X1691391Y205842D01*
Y198225D01*
Y205842D01*
X1693930Y208382D01*
X1696469Y205842D01*
Y198225D01*
X1704086Y208382D02*
X1709165D01*
X1711704Y205842D01*
Y198225D01*
X1704086D01*
X1701547Y200764D01*
X1704086Y203303D01*
X1711704D01*
X1719321Y210921D02*
Y208382D01*
X1716782D01*
X1721861D01*
X1719321D01*
Y200764D01*
X1721861Y198225D01*
X1737096D02*
X1732017D01*
X1729478Y200764D01*
Y205842D01*
X1732017Y208382D01*
X1737096D01*
X1739635Y205842D01*
Y203303D01*
X1729478D01*
X1744713Y208382D02*
Y198225D01*
Y203303D01*
X1747253Y205842D01*
X1749792Y208382D01*
X1752331D01*
X1759948Y198225D02*
X1765027D01*
X1762488D01*
Y208382D01*
X1759948D01*
X1775183D02*
X1780262D01*
X1782801Y205842D01*
Y198225D01*
X1775183D01*
X1772644Y200764D01*
X1775183Y203303D01*
X1782801D01*
X1787879Y198225D02*
X1792958D01*
X1790419D01*
Y213460D01*
X1787879D01*
X1803114Y195686D02*
X1805654Y198225D01*
Y200764D01*
X1803114D01*
Y198225D01*
X1805654D01*
X1803114Y195686D01*
X1800575Y193147D01*
X1831045Y208382D02*
Y200764D01*
X1833584Y198225D01*
X1841202D01*
Y195686D01*
X1838663Y193147D01*
X1836124D01*
X1841202Y198225D02*
Y208382D01*
X1848820Y198225D02*
X1853898D01*
X1856437Y200764D01*
Y205842D01*
X1853898Y208382D01*
X1848820D01*
X1846280Y205842D01*
Y200764D01*
X1848820Y198225D01*
X1861516Y208382D02*
Y200764D01*
X1864055Y198225D01*
X1871672D01*
Y208382D01*
X1891986Y198225D02*
Y208382D01*
X1894525D01*
X1897064Y205842D01*
Y198225D01*
Y205842D01*
X1899603Y208382D01*
X1902142Y205842D01*
Y198225D01*
X1907221Y208382D02*
Y200764D01*
X1909760Y198225D01*
X1917377D01*
Y208382D01*
X1922456Y198225D02*
X1930073D01*
X1932612Y200764D01*
X1930073Y203303D01*
X1924995D01*
X1922456Y205842D01*
X1924995Y208382D01*
X1932612D01*
X1940230Y210921D02*
Y208382D01*
X1937691D01*
X1942769D01*
X1940230D01*
Y200764D01*
X1942769Y198225D01*
X1975779Y213460D02*
Y198225D01*
X1968161D01*
X1965622Y200764D01*
Y205842D01*
X1968161Y208382D01*
X1975779D01*
X1980857Y198225D02*
X1985935D01*
X1983396D01*
Y208382D01*
X1980857D01*
X1993553Y198225D02*
X2001170D01*
X2003710Y200764D01*
X2001170Y203303D01*
X1996092D01*
X1993553Y205842D01*
X1996092Y208382D01*
X2003710D01*
X2011327Y210921D02*
Y208382D01*
X2008788D01*
X2013866D01*
X2011327D01*
Y200764D01*
X2013866Y198225D01*
X2021484Y208382D02*
Y198225D01*
Y203303D01*
X2024023Y205842D01*
X2026562Y208382D01*
X2029101D01*
X2036719Y198225D02*
X2041797D01*
X2039258D01*
Y208382D01*
X2036719D01*
X2049415Y213460D02*
Y198225D01*
X2057032D01*
X2059571Y200764D01*
Y203303D01*
Y205842D01*
X2057032Y208382D01*
X2049415D01*
X2064650D02*
Y200764D01*
X2067189Y198225D01*
X2074807D01*
Y208382D01*
X2082424Y210921D02*
Y208382D01*
X2079885D01*
X2084963D01*
X2082424D01*
Y200764D01*
X2084963Y198225D01*
X2100198D02*
X2095120D01*
X2092581Y200764D01*
Y205842D01*
X2095120Y208382D01*
X2100198D01*
X2102737Y205842D01*
Y203303D01*
X2092581D01*
X2123051Y208382D02*
Y200764D01*
X2125590Y198225D01*
X2133208D01*
Y195686D01*
X2130668Y193147D01*
X2128129D01*
X2133208Y198225D02*
Y208382D01*
X2140825Y198225D02*
X2145903D01*
X2148443Y200764D01*
Y205842D01*
X2145903Y208382D01*
X2140825D01*
X2138286Y205842D01*
Y200764D01*
X2140825Y198225D01*
X2153521Y208382D02*
Y200764D01*
X2156060Y198225D01*
X2163678D01*
Y208382D01*
X2168756D02*
Y198225D01*
Y203303D01*
X2171295Y205842D01*
X2173834Y208382D01*
X2176374D01*
X868697Y183382D02*
X861079D01*
X858540Y180842D01*
Y175764D01*
X861079Y173225D01*
X868697D01*
X876314D02*
X881393D01*
X883932Y175764D01*
Y180842D01*
X881393Y183382D01*
X876314D01*
X873775Y180842D01*
Y175764D01*
X876314Y173225D01*
X889010D02*
Y183382D01*
X896628D01*
X899167Y180842D01*
Y173225D01*
X906784Y185921D02*
Y183382D01*
X904245D01*
X909324D01*
X906784D01*
Y175764D01*
X909324Y173225D01*
X916941Y183382D02*
Y173225D01*
Y178303D01*
X919480Y180842D01*
X922020Y183382D01*
X924559D01*
X932176Y173225D02*
X937254D01*
X934715D01*
Y183382D01*
X932176D01*
X944872Y188460D02*
Y173225D01*
X952490D01*
X955029Y175764D01*
Y178303D01*
Y180842D01*
X952490Y183382D01*
X944872D01*
X960107D02*
Y175764D01*
X962646Y173225D01*
X970264D01*
Y183382D01*
X977881Y185921D02*
Y183382D01*
X975342D01*
X980421D01*
X977881D01*
Y175764D01*
X980421Y173225D01*
X988038D02*
X993117D01*
X990577D01*
Y183382D01*
X988038D01*
X1003273Y173225D02*
X1008352D01*
X1010891Y175764D01*
Y180842D01*
X1008352Y183382D01*
X1003273D01*
X1000734Y180842D01*
Y175764D01*
X1003273Y173225D01*
X1015969D02*
Y183382D01*
X1023587D01*
X1026126Y180842D01*
Y173225D01*
X1031204D02*
X1038822D01*
X1041361Y175764D01*
X1038822Y178303D01*
X1033743D01*
X1031204Y180842D01*
X1033743Y183382D01*
X1041361D01*
X1061674D02*
Y175764D01*
X1064213Y173225D01*
X1071831D01*
Y183382D01*
X1076909Y173225D02*
Y183382D01*
X1084527D01*
X1087066Y180842D01*
Y173225D01*
X1102301Y188460D02*
Y173225D01*
X1094684D01*
X1092144Y175764D01*
Y180842D01*
X1094684Y183382D01*
X1102301D01*
X1114997Y173225D02*
X1109919D01*
X1107380Y175764D01*
Y180842D01*
X1109919Y183382D01*
X1114997D01*
X1117536Y180842D01*
Y178303D01*
X1107380D01*
X1122615Y183382D02*
Y173225D01*
Y178303D01*
X1125154Y180842D01*
X1127693Y183382D01*
X1130232D01*
X1155624Y185921D02*
Y183382D01*
X1153085D01*
X1158163D01*
X1155624D01*
Y175764D01*
X1158163Y173225D01*
X1165781Y188460D02*
Y173225D01*
Y180842D01*
X1168320Y183382D01*
X1173398D01*
X1175937Y180842D01*
Y173225D01*
X1188633D02*
X1183555D01*
X1181016Y175764D01*
Y180842D01*
X1183555Y183382D01*
X1188633D01*
X1191172Y180842D01*
Y178303D01*
X1181016D01*
X1211486Y173225D02*
X1219103D01*
X1221643Y175764D01*
X1219103Y178303D01*
X1214025D01*
X1211486Y180842D01*
X1214025Y183382D01*
X1221643D01*
X1229260D02*
X1234338D01*
X1236878Y180842D01*
Y173225D01*
X1229260D01*
X1226721Y175764D01*
X1229260Y178303D01*
X1236878D01*
X1241956Y173225D02*
Y183382D01*
X1244495D01*
X1247034Y180842D01*
Y173225D01*
Y180842D01*
X1249574Y183382D01*
X1252113Y180842D01*
Y173225D01*
X1264809D02*
X1259730D01*
X1257191Y175764D01*
Y180842D01*
X1259730Y183382D01*
X1264809D01*
X1267348Y180842D01*
Y178303D01*
X1257191D01*
X1287661Y173225D02*
X1292740D01*
X1290200D01*
Y188460D01*
X1287661D01*
X1300357Y173225D02*
X1305435D01*
X1302896D01*
Y183382D01*
X1300357D01*
X1323210D02*
X1315592D01*
X1313053Y180842D01*
Y175764D01*
X1315592Y173225D01*
X1323210D01*
X1335906D02*
X1330827D01*
X1328288Y175764D01*
Y180842D01*
X1330827Y183382D01*
X1335906D01*
X1338445Y180842D01*
Y178303D01*
X1328288D01*
X1343523Y173225D02*
Y183382D01*
X1351141D01*
X1353680Y180842D01*
Y173225D01*
X1358758D02*
X1366376D01*
X1368915Y175764D01*
X1366376Y178303D01*
X1361297D01*
X1358758Y180842D01*
X1361297Y183382D01*
X1368915D01*
X1381611Y173225D02*
X1376532D01*
X1373993Y175764D01*
Y180842D01*
X1376532Y183382D01*
X1381611D01*
X1384150Y180842D01*
Y178303D01*
X1373993D01*
X1407003Y183382D02*
X1412081D01*
X1414620Y180842D01*
Y173225D01*
X1407003D01*
X1404463Y175764D01*
X1407003Y178303D01*
X1414620D01*
X1419698Y173225D02*
X1427316D01*
X1429855Y175764D01*
X1427316Y178303D01*
X1422238D01*
X1419698Y180842D01*
X1422238Y183382D01*
X1429855D01*
X1452708Y185921D02*
Y183382D01*
X1450169D01*
X1455247D01*
X1452708D01*
Y175764D01*
X1455247Y173225D01*
X1462865Y188460D02*
Y173225D01*
Y180842D01*
X1465404Y183382D01*
X1470482D01*
X1473021Y180842D01*
Y173225D01*
X1485717D02*
X1480639D01*
X1478100Y175764D01*
Y180842D01*
X1480639Y183382D01*
X1485717D01*
X1488256Y180842D01*
Y178303D01*
X1478100D01*
X1511109Y173225D02*
X1516187D01*
X1518726Y175764D01*
Y180842D01*
X1516187Y183382D01*
X1511109D01*
X1508570Y180842D01*
Y175764D01*
X1511109Y173225D01*
X1523805Y183382D02*
Y173225D01*
Y178303D01*
X1526344Y180842D01*
X1528883Y183382D01*
X1531422D01*
X1539040Y173225D02*
X1544118D01*
X1541579D01*
Y183382D01*
X1539040D01*
X1556814Y168147D02*
X1559353D01*
X1561893Y170686D01*
Y183382D01*
X1554275D01*
X1551736Y180842D01*
Y175764D01*
X1554275Y173225D01*
X1561893D01*
X1566971D02*
X1572049D01*
X1569510D01*
Y183382D01*
X1566971D01*
X1579667Y173225D02*
Y183382D01*
X1587284D01*
X1589823Y180842D01*
Y173225D01*
X1597441Y183382D02*
X1602519D01*
X1605058Y180842D01*
Y173225D01*
X1597441D01*
X1594902Y175764D01*
X1597441Y178303D01*
X1605058D01*
X1610137Y173225D02*
X1615215D01*
X1612676D01*
Y188460D01*
X1610137D01*
X1622833Y173225D02*
Y175764D01*
X1625372D01*
Y173225D01*
X1622833D01*
X856000Y-98843D02*
Y-106461D01*
X858539Y-109000D01*
X866157D01*
Y-98843D01*
X871235Y-109000D02*
X878853D01*
X881392Y-106461D01*
X878853Y-103922D01*
X873774D01*
X871235Y-101383D01*
X873774Y-98843D01*
X881392D01*
X894088Y-109000D02*
X889009D01*
X886470Y-106461D01*
Y-101383D01*
X889009Y-98843D01*
X894088D01*
X896627Y-101383D01*
Y-103922D01*
X886470D01*
X919480Y-96304D02*
Y-98843D01*
X916940D01*
X922019D01*
X919480D01*
Y-106461D01*
X922019Y-109000D01*
X929636Y-93765D02*
Y-109000D01*
Y-101383D01*
X932175Y-98843D01*
X937254D01*
X939793Y-101383D01*
Y-109000D01*
X952489D02*
X947410D01*
X944871Y-106461D01*
Y-101383D01*
X947410Y-98843D01*
X952489D01*
X955028Y-101383D01*
Y-103922D01*
X944871D01*
X975341Y-109000D02*
Y-98843D01*
X977881D01*
X980420Y-101383D01*
Y-109000D01*
Y-101383D01*
X982959Y-98843D01*
X985498Y-101383D01*
Y-109000D01*
X993116Y-98843D02*
X998194D01*
X1000733Y-101383D01*
Y-109000D01*
X993116D01*
X990576Y-106461D01*
X993116Y-103922D01*
X1000733D01*
X1008351Y-96304D02*
Y-98843D01*
X1005812D01*
X1010890D01*
X1008351D01*
Y-106461D01*
X1010890Y-109000D01*
X1026125D02*
X1021047D01*
X1018507Y-106461D01*
Y-101383D01*
X1021047Y-98843D01*
X1026125D01*
X1028664Y-101383D01*
Y-103922D01*
X1018507D01*
X1033743Y-98843D02*
Y-109000D01*
Y-103922D01*
X1036282Y-101383D01*
X1038821Y-98843D01*
X1041360D01*
X1048978Y-109000D02*
X1054056D01*
X1051517D01*
Y-98843D01*
X1048978D01*
X1064213D02*
X1069291D01*
X1071830Y-101383D01*
Y-109000D01*
X1064213D01*
X1061674Y-106461D01*
X1064213Y-103922D01*
X1071830D01*
X1076908Y-109000D02*
X1081987D01*
X1079448D01*
Y-93765D01*
X1076908D01*
X1089604Y-109000D02*
Y-106461D01*
X1092144D01*
Y-109000D01*
X1089604D01*
X856000Y-84000D02*
X861078D01*
X858539D01*
Y-73843D01*
X856000D01*
X868696Y-84000D02*
Y-73843D01*
X876313D01*
X878853Y-76382D01*
Y-84000D01*
X886470Y-71304D02*
Y-73843D01*
X883931D01*
X889009D01*
X886470D01*
Y-81461D01*
X889009Y-84000D01*
X904244D02*
X899166D01*
X896627Y-81461D01*
Y-76382D01*
X899166Y-73843D01*
X904244D01*
X906784Y-76382D01*
Y-78922D01*
X896627D01*
X911862Y-84000D02*
Y-73843D01*
X919480D01*
X922019Y-76382D01*
Y-84000D01*
X937254Y-68765D02*
Y-84000D01*
X929636D01*
X927097Y-81461D01*
Y-76382D01*
X929636Y-73843D01*
X937254D01*
X949950Y-84000D02*
X944871D01*
X942332Y-81461D01*
Y-76382D01*
X944871Y-73843D01*
X949950D01*
X952489Y-76382D01*
Y-78922D01*
X942332D01*
X967724Y-68765D02*
Y-84000D01*
X960106D01*
X957567Y-81461D01*
Y-76382D01*
X960106Y-73843D01*
X967724D01*
X988037D02*
Y-81461D01*
X990576Y-84000D01*
X998194D01*
Y-73843D01*
X1003272Y-84000D02*
X1010890D01*
X1013429Y-81461D01*
X1010890Y-78922D01*
X1005812D01*
X1003272Y-76382D01*
X1005812Y-73843D01*
X1013429D01*
X1026125Y-84000D02*
X1021047D01*
X1018507Y-81461D01*
Y-76382D01*
X1021047Y-73843D01*
X1026125D01*
X1028664Y-76382D01*
Y-78922D01*
X1018507D01*
X1033743Y-84000D02*
Y-81461D01*
X1036282D01*
Y-84000D01*
X1033743D01*
X1071830Y-68765D02*
X1061674D01*
Y-76382D01*
X1066752D01*
X1061674D01*
Y-84000D01*
X1079448D02*
X1084526D01*
X1087065Y-81461D01*
Y-76382D01*
X1084526Y-73843D01*
X1079448D01*
X1076908Y-76382D01*
Y-81461D01*
X1079448Y-84000D01*
X1092144Y-73843D02*
Y-84000D01*
Y-78922D01*
X1094683Y-76382D01*
X1097222Y-73843D01*
X1099761D01*
X1130231Y-84000D02*
X1125153D01*
X1122614Y-81461D01*
Y-76382D01*
X1125153Y-73843D01*
X1130231D01*
X1132770Y-76382D01*
Y-78922D01*
X1122614D01*
X1137849Y-73843D02*
X1148006Y-84000D01*
X1142927Y-78922D01*
X1148006Y-73843D01*
X1137849Y-84000D01*
X1155623Y-73843D02*
X1160701D01*
X1163241Y-76382D01*
Y-84000D01*
X1155623D01*
X1153084Y-81461D01*
X1155623Y-78922D01*
X1163241D01*
X1168319Y-84000D02*
Y-73843D01*
X1170858D01*
X1173397Y-76382D01*
Y-84000D01*
Y-76382D01*
X1175937Y-73843D01*
X1178476Y-76382D01*
Y-84000D01*
X1183554Y-89078D02*
Y-73843D01*
X1191172D01*
X1193711Y-76382D01*
Y-81461D01*
X1191172Y-84000D01*
X1183554D01*
X1198789D02*
X1203867D01*
X1201328D01*
Y-68765D01*
X1198789D01*
X1219102Y-84000D02*
X1214024D01*
X1211485Y-81461D01*
Y-76382D01*
X1214024Y-73843D01*
X1219102D01*
X1221642Y-76382D01*
Y-78922D01*
X1211485D01*
X1229259Y-86539D02*
X1231798Y-84000D01*
Y-81461D01*
X1229259D01*
Y-84000D01*
X1231798D01*
X1229259Y-86539D01*
X1226720Y-89078D01*
X1259729Y-84000D02*
X1264808D01*
X1267347Y-81461D01*
Y-76382D01*
X1264808Y-73843D01*
X1259729D01*
X1257190Y-76382D01*
Y-81461D01*
X1259729Y-84000D01*
X1274965Y-71304D02*
Y-73843D01*
X1272425D01*
X1277504D01*
X1274965D01*
Y-81461D01*
X1277504Y-84000D01*
X1285121Y-68765D02*
Y-84000D01*
Y-76382D01*
X1287660Y-73843D01*
X1292739D01*
X1295278Y-76382D01*
Y-84000D01*
X1307974D02*
X1302895D01*
X1300356Y-81461D01*
Y-76382D01*
X1302895Y-73843D01*
X1307974D01*
X1310513Y-76382D01*
Y-78922D01*
X1300356D01*
X1315591Y-73843D02*
Y-84000D01*
Y-78922D01*
X1318130Y-76382D01*
X1320670Y-73843D01*
X1323209D01*
X1346062D02*
Y-84000D01*
Y-78922D01*
X1348601Y-76382D01*
X1351140Y-73843D01*
X1353679D01*
X1361297Y-84000D02*
X1366375D01*
X1363836D01*
Y-73843D01*
X1361297D01*
X1379071Y-89078D02*
X1381610D01*
X1384149Y-86539D01*
Y-73843D01*
X1376532D01*
X1373992Y-76382D01*
Y-81461D01*
X1376532Y-84000D01*
X1384149D01*
X1389227Y-68765D02*
Y-84000D01*
Y-76382D01*
X1391767Y-73843D01*
X1396845D01*
X1399384Y-76382D01*
Y-84000D01*
X1407002Y-71304D02*
Y-73843D01*
X1404463D01*
X1409541D01*
X1407002D01*
Y-81461D01*
X1409541Y-84000D01*
X1417159D02*
X1424776D01*
X1427315Y-81461D01*
X1424776Y-78922D01*
X1419698D01*
X1417159Y-76382D01*
X1419698Y-73843D01*
X1427315D01*
X1447629Y-84000D02*
X1455246D01*
X1457785Y-81461D01*
X1455246Y-78922D01*
X1450168D01*
X1447629Y-76382D01*
X1450168Y-73843D01*
X1457785D01*
X1462864D02*
Y-81461D01*
X1465403Y-84000D01*
X1473020D01*
Y-73843D01*
X1488255D02*
X1480638D01*
X1478099Y-76382D01*
Y-81461D01*
X1480638Y-84000D01*
X1488255D01*
X1493334Y-68765D02*
Y-84000D01*
Y-76382D01*
X1495873Y-73843D01*
X1500951D01*
X1503490Y-76382D01*
Y-84000D01*
X1526343Y-73843D02*
X1531422D01*
X1533961Y-76382D01*
Y-84000D01*
X1526343D01*
X1523804Y-81461D01*
X1526343Y-78922D01*
X1533961D01*
X1539039Y-84000D02*
X1546657D01*
X1549196Y-81461D01*
X1546657Y-78922D01*
X1541578D01*
X1539039Y-76382D01*
X1541578Y-73843D01*
X1549196D01*
X1569509Y-89078D02*
Y-73843D01*
X1577127D01*
X1579666Y-76382D01*
Y-81461D01*
X1577127Y-84000D01*
X1569509D01*
X1584744Y-73843D02*
Y-81461D01*
X1587283Y-84000D01*
X1594901D01*
Y-73843D01*
X1599979Y-68765D02*
Y-84000D01*
X1607597D01*
X1610136Y-81461D01*
Y-78922D01*
Y-76382D01*
X1607597Y-73843D01*
X1599979D01*
X1615214Y-84000D02*
X1620293D01*
X1617754D01*
Y-68765D01*
X1615214D01*
X1627910Y-84000D02*
X1632989D01*
X1630450D01*
Y-73843D01*
X1627910D01*
X1650763D02*
X1643145D01*
X1640606Y-76382D01*
Y-81461D01*
X1643145Y-84000D01*
X1650763D01*
X1655841D02*
X1660920D01*
X1658380D01*
Y-73843D01*
X1655841D01*
X1671076Y-71304D02*
Y-73843D01*
X1668537D01*
X1673616D01*
X1671076D01*
Y-81461D01*
X1673616Y-84000D01*
X1681233Y-73843D02*
Y-81461D01*
X1683772Y-84000D01*
X1691390D01*
Y-86539D01*
X1688851Y-89078D01*
X1686311D01*
X1691390Y-84000D02*
Y-73843D01*
X1699007Y-86539D02*
X1701546Y-84000D01*
Y-81461D01*
X1699007D01*
Y-84000D01*
X1701546D01*
X1699007Y-86539D01*
X1696468Y-89078D01*
X1726938D02*
Y-73843D01*
X1734556D01*
X1737095Y-76382D01*
Y-81461D01*
X1734556Y-84000D01*
X1726938D01*
X1742173Y-73843D02*
Y-84000D01*
Y-78922D01*
X1744713Y-76382D01*
X1747252Y-73843D01*
X1749791D01*
X1757408Y-84000D02*
X1762487D01*
X1759948D01*
Y-73843D01*
X1757408D01*
X1770104D02*
X1775183Y-84000D01*
X1780261Y-73843D01*
X1787879D02*
X1792957D01*
X1795496Y-76382D01*
Y-84000D01*
X1787879D01*
X1785339Y-81461D01*
X1787879Y-78922D01*
X1795496D01*
X1810731Y-73843D02*
X1803114D01*
X1800574Y-76382D01*
Y-81461D01*
X1803114Y-84000D01*
X1810731D01*
X1815809Y-73843D02*
Y-81461D01*
X1818349Y-84000D01*
X1825966D01*
Y-86539D01*
X1823427Y-89078D01*
X1820888D01*
X1825966Y-84000D02*
Y-73843D01*
X1833584Y-86539D02*
X1836123Y-84000D01*
Y-81461D01*
X1833584D01*
Y-84000D01*
X1836123D01*
X1833584Y-86539D01*
X1831044Y-89078D01*
X1864054Y-84000D02*
X1869132D01*
X1871671Y-81461D01*
Y-76382D01*
X1869132Y-73843D01*
X1864054D01*
X1861515Y-76382D01*
Y-81461D01*
X1864054Y-84000D01*
X1876750Y-73843D02*
Y-84000D01*
Y-78922D01*
X1879289Y-76382D01*
X1881828Y-73843D01*
X1884367D01*
X1907220Y-84000D02*
Y-73843D01*
X1909759D01*
X1912298Y-76382D01*
Y-84000D01*
Y-76382D01*
X1914837Y-73843D01*
X1917377Y-76382D01*
Y-84000D01*
X1924994D02*
X1930072D01*
X1932612Y-81461D01*
Y-76382D01*
X1930072Y-73843D01*
X1924994D01*
X1922455Y-76382D01*
Y-81461D01*
X1924994Y-84000D01*
X1937690Y-73843D02*
Y-84000D01*
Y-78922D01*
X1940229Y-76382D01*
X1942768Y-73843D01*
X1945308D01*
X1955464D02*
X1960543D01*
X1963082Y-76382D01*
Y-84000D01*
X1955464D01*
X1952925Y-81461D01*
X1955464Y-78922D01*
X1963082D01*
X1968160Y-84000D02*
X1973239D01*
X1970699D01*
Y-68765D01*
X1968160D01*
X1996091Y-73843D02*
Y-84000D01*
Y-78922D01*
X1998630Y-76382D01*
X2001169Y-73843D01*
X2003709D01*
X2011326Y-84000D02*
X2016405D01*
X2013865D01*
Y-73843D01*
X2011326D01*
X2029100Y-89078D02*
X2031640D01*
X2034179Y-86539D01*
Y-73843D01*
X2026561D01*
X2024022Y-76382D01*
Y-81461D01*
X2026561Y-84000D01*
X2034179D01*
X2039257Y-68765D02*
Y-84000D01*
Y-76382D01*
X2041796Y-73843D01*
X2046875D01*
X2049414Y-76382D01*
Y-84000D01*
X2057031Y-71304D02*
Y-73843D01*
X2054492D01*
X2059571D01*
X2057031D01*
Y-81461D01*
X2059571Y-84000D01*
X2067188D02*
X2074806D01*
X2077345Y-81461D01*
X2074806Y-78922D01*
X2069727D01*
X2067188Y-76382D01*
X2069727Y-73843D01*
X2077345D01*
X2097658Y-84000D02*
Y-73843D01*
X2100197D01*
X2102737Y-76382D01*
Y-84000D01*
Y-76382D01*
X2105276Y-73843D01*
X2107815Y-76382D01*
Y-84000D01*
X2115432Y-73843D02*
X2120511D01*
X2123050Y-76382D01*
Y-84000D01*
X2115432D01*
X2112893Y-81461D01*
X2115432Y-78922D01*
X2123050D01*
X2128128Y-73843D02*
Y-81461D01*
X2130668Y-84000D01*
X2138285D01*
Y-86539D01*
X2135746Y-89078D01*
X2133207D01*
X2138285Y-84000D02*
Y-73843D01*
X2158599Y-84000D02*
X2163677D01*
X2161138D01*
Y-68765D01*
X2158599D01*
X2171295Y-84000D02*
X2176373D01*
X2173834D01*
Y-73843D01*
X2171295D01*
X2183990Y-84000D02*
Y-73843D01*
X2186530D01*
X2189069Y-76382D01*
Y-84000D01*
Y-76382D01*
X2191608Y-73843D01*
X2194147Y-76382D01*
Y-84000D01*
X2199225D02*
X2204304D01*
X2201765D01*
Y-73843D01*
X2199225D01*
X2214460Y-71304D02*
Y-73843D01*
X2211921D01*
X2217000D01*
X2214460D01*
Y-81461D01*
X2217000Y-84000D01*
X2239852Y-68765D02*
Y-84000D01*
Y-76382D01*
X2242392Y-73843D01*
X2247470D01*
X2250009Y-76382D01*
Y-84000D01*
X2257626D02*
X2262705D01*
X2265244Y-81461D01*
Y-76382D01*
X2262705Y-73843D01*
X2257626D01*
X2255087Y-76382D01*
Y-81461D01*
X2257626Y-84000D01*
X2270322Y-73843D02*
Y-81461D01*
X2272862Y-84000D01*
X2275401Y-81461D01*
X2277940Y-84000D01*
X2280479Y-81461D01*
Y-73843D01*
X2300793D02*
Y-81461D01*
X2303332Y-84000D01*
X2310949D01*
Y-86539D01*
X2308410Y-89078D01*
X2305871D01*
X2310949Y-84000D02*
Y-73843D01*
X2318567Y-84000D02*
X2323645D01*
X2326184Y-81461D01*
Y-76382D01*
X2323645Y-73843D01*
X2318567D01*
X2316028Y-76382D01*
Y-81461D01*
X2318567Y-84000D01*
X2331263Y-73843D02*
Y-81461D01*
X2333802Y-84000D01*
X2341419D01*
Y-73843D01*
X856000Y-59000D02*
Y-43765D01*
X866157Y-59000D01*
Y-43765D01*
X873774Y-59000D02*
X878853D01*
X881392Y-56461D01*
Y-51382D01*
X878853Y-48843D01*
X873774D01*
X871235Y-51382D01*
Y-56461D01*
X873774Y-59000D01*
X901705Y-48843D02*
Y-56461D01*
X904244Y-59000D01*
X906784Y-56461D01*
X909323Y-59000D01*
X911862Y-56461D01*
Y-48843D01*
X919480D02*
X924558D01*
X927097Y-51382D01*
Y-59000D01*
X919480D01*
X916940Y-56461D01*
X919480Y-53922D01*
X927097D01*
X932175Y-48843D02*
Y-59000D01*
Y-53922D01*
X934715Y-51382D01*
X937254Y-48843D01*
X939793D01*
X947410D02*
Y-59000D01*
Y-53922D01*
X949950Y-51382D01*
X952489Y-48843D01*
X955028D01*
X965185D02*
X970263D01*
X972802Y-51382D01*
Y-59000D01*
X965185D01*
X962645Y-56461D01*
X965185Y-53922D01*
X972802D01*
X977881Y-59000D02*
Y-48843D01*
X985498D01*
X988037Y-51382D01*
Y-59000D01*
X995655Y-46304D02*
Y-48843D01*
X993116D01*
X998194D01*
X995655D01*
Y-56461D01*
X998194Y-59000D01*
X1005812D02*
X1010890D01*
X1008351D01*
Y-48843D01*
X1005812D01*
X1026125Y-59000D02*
X1021047D01*
X1018507Y-56461D01*
Y-51382D01*
X1021047Y-48843D01*
X1026125D01*
X1028664Y-51382D01*
Y-53922D01*
X1018507D01*
X1033743Y-59000D02*
X1041360D01*
X1043899Y-56461D01*
X1041360Y-53922D01*
X1036282D01*
X1033743Y-51382D01*
X1036282Y-48843D01*
X1043899D01*
X1066752D02*
X1071830D01*
X1074369Y-51382D01*
Y-59000D01*
X1066752D01*
X1064213Y-56461D01*
X1066752Y-53922D01*
X1074369D01*
X1079448Y-48843D02*
Y-59000D01*
Y-53922D01*
X1081987Y-51382D01*
X1084526Y-48843D01*
X1087065D01*
X1102300Y-59000D02*
X1097222D01*
X1094683Y-56461D01*
Y-51382D01*
X1097222Y-48843D01*
X1102300D01*
X1104839Y-51382D01*
Y-53922D01*
X1094683D01*
X1130231Y-64078D02*
X1132770D01*
X1135310Y-61539D01*
Y-48843D01*
X1127692D01*
X1125153Y-51382D01*
Y-56461D01*
X1127692Y-59000D01*
X1135310D01*
X1140388D02*
X1145466D01*
X1142927D01*
Y-48843D01*
X1140388D01*
X1153084D02*
X1158162Y-59000D01*
X1163241Y-48843D01*
X1175937Y-59000D02*
X1170858D01*
X1168319Y-56461D01*
Y-51382D01*
X1170858Y-48843D01*
X1175937D01*
X1178476Y-51382D01*
Y-53922D01*
X1168319D01*
X1183554Y-59000D02*
Y-48843D01*
X1191172D01*
X1193711Y-51382D01*
Y-59000D01*
X1198789D02*
Y-56461D01*
X1201328D01*
Y-59000D01*
X1198789D01*
X1226720Y-43765D02*
X1236877D01*
X1231798D01*
Y-59000D01*
X1241955Y-43765D02*
Y-59000D01*
Y-51382D01*
X1244494Y-48843D01*
X1249573D01*
X1252112Y-51382D01*
Y-59000D01*
X1264808D02*
X1259729D01*
X1257190Y-56461D01*
Y-51382D01*
X1259729Y-48843D01*
X1264808D01*
X1267347Y-51382D01*
Y-53922D01*
X1257190D01*
X1287660Y-59000D02*
X1292739D01*
X1290200D01*
Y-43765D01*
X1287660D01*
X1300356Y-59000D02*
X1305435D01*
X1302895D01*
Y-48843D01*
X1300356D01*
X1323209D02*
X1315591D01*
X1313052Y-51382D01*
Y-56461D01*
X1315591Y-59000D01*
X1323209D01*
X1335905D02*
X1330826D01*
X1328287Y-56461D01*
Y-51382D01*
X1330826Y-48843D01*
X1335905D01*
X1338444Y-51382D01*
Y-53922D01*
X1328287D01*
X1343522Y-59000D02*
Y-48843D01*
X1351140D01*
X1353679Y-51382D01*
Y-59000D01*
X1358757D02*
X1366375D01*
X1368914Y-56461D01*
X1366375Y-53922D01*
X1361297D01*
X1358757Y-51382D01*
X1361297Y-48843D01*
X1368914D01*
X1381610Y-59000D02*
X1376532D01*
X1373992Y-56461D01*
Y-51382D01*
X1376532Y-48843D01*
X1381610D01*
X1384149Y-51382D01*
Y-53922D01*
X1373992D01*
X1404463Y-59000D02*
Y-48843D01*
X1407002D01*
X1409541Y-51382D01*
Y-59000D01*
Y-51382D01*
X1412080Y-48843D01*
X1414619Y-51382D01*
Y-59000D01*
X1422237Y-48843D02*
X1427315D01*
X1429854Y-51382D01*
Y-59000D01*
X1422237D01*
X1419698Y-56461D01*
X1422237Y-53922D01*
X1429854D01*
X1434933Y-48843D02*
Y-56461D01*
X1437472Y-59000D01*
X1445089D01*
Y-61539D01*
X1442550Y-64078D01*
X1440011D01*
X1445089Y-59000D02*
Y-48843D01*
X1465403Y-59000D02*
Y-48843D01*
X1473020D01*
X1475560Y-51382D01*
Y-59000D01*
X1483177D02*
X1488255D01*
X1490795Y-56461D01*
Y-51382D01*
X1488255Y-48843D01*
X1483177D01*
X1480638Y-51382D01*
Y-56461D01*
X1483177Y-59000D01*
X1498412Y-46304D02*
Y-48843D01*
X1495873D01*
X1500951D01*
X1498412D01*
Y-56461D01*
X1500951Y-59000D01*
X1528882Y-64078D02*
X1531422D01*
X1533961Y-61539D01*
Y-48843D01*
X1526343D01*
X1523804Y-51382D01*
Y-56461D01*
X1526343Y-59000D01*
X1533961D01*
X1539039D02*
X1544117D01*
X1541578D01*
Y-48843D01*
X1539039D01*
X1551735D02*
X1556813Y-59000D01*
X1561892Y-48843D01*
X1574588Y-59000D02*
X1569509D01*
X1566970Y-56461D01*
Y-51382D01*
X1569509Y-48843D01*
X1574588D01*
X1577127Y-51382D01*
Y-53922D01*
X1566970D01*
X1597440Y-48843D02*
Y-56461D01*
X1599979Y-59000D01*
X1607597D01*
Y-61539D01*
X1605058Y-64078D01*
X1602518D01*
X1607597Y-59000D02*
Y-48843D01*
X1615214Y-59000D02*
X1620293D01*
X1622832Y-56461D01*
Y-51382D01*
X1620293Y-48843D01*
X1615214D01*
X1612675Y-51382D01*
Y-56461D01*
X1615214Y-59000D01*
X1627910Y-48843D02*
Y-56461D01*
X1630450Y-59000D01*
X1638067D01*
Y-48843D01*
X1660920D02*
X1665998D01*
X1668537Y-51382D01*
Y-59000D01*
X1660920D01*
X1658380Y-56461D01*
X1660920Y-53922D01*
X1668537D01*
X1673616Y-59000D02*
X1678694D01*
X1676155D01*
Y-43765D01*
X1673616D01*
X1686311Y-59000D02*
X1691390D01*
X1688851D01*
Y-43765D01*
X1686311D01*
X1716781Y-59000D02*
X1721860D01*
X1724399Y-56461D01*
Y-51382D01*
X1721860Y-48843D01*
X1716781D01*
X1714242Y-51382D01*
Y-56461D01*
X1716781Y-59000D01*
X1732017D02*
Y-46304D01*
Y-51382D01*
X1729477D01*
X1734556D01*
X1732017D01*
Y-46304D01*
X1734556Y-43765D01*
X1759948Y-46304D02*
Y-48843D01*
X1757408D01*
X1762487D01*
X1759948D01*
Y-56461D01*
X1762487Y-59000D01*
X1770104Y-43765D02*
Y-59000D01*
Y-51382D01*
X1772643Y-48843D01*
X1777722D01*
X1780261Y-51382D01*
Y-59000D01*
X1792957D02*
X1787879D01*
X1785339Y-56461D01*
Y-51382D01*
X1787879Y-48843D01*
X1792957D01*
X1795496Y-51382D01*
Y-53922D01*
X1785339D01*
X1815809Y-64078D02*
Y-48843D01*
X1823427D01*
X1825966Y-51382D01*
Y-56461D01*
X1823427Y-59000D01*
X1815809D01*
X1838662D02*
X1833584D01*
X1831044Y-56461D01*
Y-51382D01*
X1833584Y-48843D01*
X1838662D01*
X1841201Y-51382D01*
Y-53922D01*
X1831044D01*
X1846280Y-48843D02*
Y-59000D01*
Y-53922D01*
X1848819Y-51382D01*
X1851358Y-48843D01*
X1853897D01*
X1861515Y-59000D02*
Y-48843D01*
X1864054D01*
X1866593Y-51382D01*
Y-59000D01*
Y-51382D01*
X1869132Y-48843D01*
X1871671Y-51382D01*
Y-59000D01*
X1876750D02*
X1881828D01*
X1879289D01*
Y-48843D01*
X1876750D01*
X1889446Y-59000D02*
X1897063D01*
X1899602Y-56461D01*
X1897063Y-53922D01*
X1891985D01*
X1889446Y-51382D01*
X1891985Y-48843D01*
X1899602D01*
X1904681Y-59000D02*
X1912298D01*
X1914837Y-56461D01*
X1912298Y-53922D01*
X1907220D01*
X1904681Y-51382D01*
X1907220Y-48843D01*
X1914837D01*
X1919916Y-59000D02*
X1924994D01*
X1922455D01*
Y-48843D01*
X1919916D01*
X1935151Y-59000D02*
X1940229D01*
X1942768Y-56461D01*
Y-51382D01*
X1940229Y-48843D01*
X1935151D01*
X1932612Y-51382D01*
Y-56461D01*
X1935151Y-59000D01*
X1947847D02*
Y-48843D01*
X1955464D01*
X1958004Y-51382D01*
Y-59000D01*
X1963082D02*
X1970699D01*
X1973239Y-56461D01*
X1970699Y-53922D01*
X1965621D01*
X1963082Y-51382D01*
X1965621Y-48843D01*
X1973239D01*
X1993552Y-59000D02*
Y-48843D01*
X2001169D01*
X2003709Y-51382D01*
Y-59000D01*
X2016405D02*
X2011326D01*
X2008787Y-56461D01*
Y-51382D01*
X2011326Y-48843D01*
X2016405D01*
X2018944Y-51382D01*
Y-53922D01*
X2008787D01*
X2034179Y-48843D02*
X2026561D01*
X2024022Y-51382D01*
Y-56461D01*
X2026561Y-59000D01*
X2034179D01*
X2046875D02*
X2041796D01*
X2039257Y-56461D01*
Y-51382D01*
X2041796Y-48843D01*
X2046875D01*
X2049414Y-51382D01*
Y-53922D01*
X2039257D01*
X2054492Y-59000D02*
X2062110D01*
X2064649Y-56461D01*
X2062110Y-53922D01*
X2057031D01*
X2054492Y-51382D01*
X2057031Y-48843D01*
X2064649D01*
X2069727Y-59000D02*
X2077345D01*
X2079884Y-56461D01*
X2077345Y-53922D01*
X2072267D01*
X2069727Y-51382D01*
X2072267Y-48843D01*
X2079884D01*
X2087502D02*
X2092580D01*
X2095119Y-51382D01*
Y-59000D01*
X2087502D01*
X2084962Y-56461D01*
X2087502Y-53922D01*
X2095119D01*
X2100197Y-48843D02*
Y-59000D01*
Y-53922D01*
X2102737Y-51382D01*
X2105276Y-48843D01*
X2107815D01*
X2115432D02*
Y-56461D01*
X2117972Y-59000D01*
X2125589D01*
Y-61539D01*
X2123050Y-64078D01*
X2120511D01*
X2125589Y-59000D02*
Y-48843D01*
X2148442Y-59000D02*
Y-46304D01*
Y-51382D01*
X2145903D01*
X2150981D01*
X2148442D01*
Y-46304D01*
X2150981Y-43765D01*
X2161138Y-59000D02*
X2166216D01*
X2168755Y-56461D01*
Y-51382D01*
X2166216Y-48843D01*
X2161138D01*
X2158599Y-51382D01*
Y-56461D01*
X2161138Y-59000D01*
X2173834Y-48843D02*
Y-59000D01*
Y-53922D01*
X2176373Y-51382D01*
X2178912Y-48843D01*
X2181451D01*
X2204304D02*
Y-56461D01*
X2206843Y-59000D01*
X2214460D01*
Y-61539D01*
X2211921Y-64078D01*
X2209382D01*
X2214460Y-59000D02*
Y-48843D01*
X2222078Y-59000D02*
X2227156D01*
X2229696Y-56461D01*
Y-51382D01*
X2227156Y-48843D01*
X2222078D01*
X2219539Y-51382D01*
Y-56461D01*
X2222078Y-59000D01*
X2234774Y-48843D02*
Y-56461D01*
X2237313Y-59000D01*
X2244931D01*
Y-48843D01*
X2250009D02*
Y-59000D01*
Y-53922D01*
X2252548Y-51382D01*
X2255087Y-48843D01*
X2257626D01*
X856000Y1157D02*
Y-6461D01*
X858539Y-9000D01*
X866157D01*
Y-11539D01*
X863618Y-14078D01*
X861078D01*
X866157Y-9000D02*
Y1157D01*
X873774Y-9000D02*
X878853D01*
X881392Y-6461D01*
Y-1382D01*
X878853Y1157D01*
X873774D01*
X871235Y-1382D01*
Y-6461D01*
X873774Y-9000D01*
X886470Y1157D02*
Y-6461D01*
X889009Y-9000D01*
X896627D01*
Y1157D01*
X901705D02*
Y-9000D01*
Y-3922D01*
X904244Y-1382D01*
X906784Y1157D01*
X909323D01*
X932175D02*
Y-6461D01*
X934715Y-9000D01*
X942332D01*
Y1157D01*
X947410Y-9000D02*
X955028D01*
X957567Y-6461D01*
X955028Y-3922D01*
X949950D01*
X947410Y-1382D01*
X949950Y1157D01*
X957567D01*
X970263Y-9000D02*
X965185D01*
X962645Y-6461D01*
Y-1382D01*
X965185Y1157D01*
X970263D01*
X972802Y-1382D01*
Y-3922D01*
X962645D01*
X993116Y-9000D02*
X998194D01*
X995655D01*
Y1157D01*
X993116D01*
X1005812Y-9000D02*
X1013429D01*
X1015968Y-6461D01*
X1013429Y-3922D01*
X1008351D01*
X1005812Y-1382D01*
X1008351Y1157D01*
X1015968D01*
X1036282Y-14078D02*
Y1157D01*
X1043899D01*
X1046438Y-1382D01*
Y-6461D01*
X1043899Y-9000D01*
X1036282D01*
X1059134D02*
X1054056D01*
X1051517Y-6461D01*
Y-1382D01*
X1054056Y1157D01*
X1059134D01*
X1061674Y-1382D01*
Y-3922D01*
X1051517D01*
X1066752Y1157D02*
Y-9000D01*
Y-3922D01*
X1069291Y-1382D01*
X1071830Y1157D01*
X1074369D01*
X1081987Y-9000D02*
Y1157D01*
X1084526D01*
X1087065Y-1382D01*
Y-9000D01*
Y-1382D01*
X1089604Y1157D01*
X1092144Y-1382D01*
Y-9000D01*
X1097222D02*
X1102300D01*
X1099761D01*
Y1157D01*
X1097222D01*
X1112457Y3696D02*
Y1157D01*
X1109918D01*
X1114996D01*
X1112457D01*
Y-6461D01*
X1114996Y-9000D01*
X1125153Y3696D02*
Y1157D01*
X1122614D01*
X1127692D01*
X1125153D01*
Y-6461D01*
X1127692Y-9000D01*
X1142927D02*
X1137849D01*
X1135310Y-6461D01*
Y-1382D01*
X1137849Y1157D01*
X1142927D01*
X1145466Y-1382D01*
Y-3922D01*
X1135310D01*
X1160701Y6235D02*
Y-9000D01*
X1153084D01*
X1150545Y-6461D01*
Y-1382D01*
X1153084Y1157D01*
X1160701D01*
X1181015Y6235D02*
Y-9000D01*
X1188632D01*
X1191172Y-6461D01*
Y-3922D01*
Y-1382D01*
X1188632Y1157D01*
X1181015D01*
X1196250D02*
Y-6461D01*
X1198789Y-9000D01*
X1206407D01*
Y-11539D01*
X1203867Y-14078D01*
X1201328D01*
X1206407Y-9000D02*
Y1157D01*
X1229259D02*
X1234338D01*
X1236877Y-1382D01*
Y-9000D01*
X1229259D01*
X1226720Y-6461D01*
X1229259Y-3922D01*
X1236877D01*
X1241955Y-9000D02*
Y1157D01*
X1249573D01*
X1252112Y-1382D01*
Y-9000D01*
X1274965Y1157D02*
X1280043D01*
X1282582Y-1382D01*
Y-9000D01*
X1274965D01*
X1272425Y-6461D01*
X1274965Y-3922D01*
X1282582D01*
X1287660Y-14078D02*
Y1157D01*
X1295278D01*
X1297817Y-1382D01*
Y-6461D01*
X1295278Y-9000D01*
X1287660D01*
X1302895Y-14078D02*
Y1157D01*
X1310513D01*
X1313052Y-1382D01*
Y-6461D01*
X1310513Y-9000D01*
X1302895D01*
X1318130D02*
X1323209D01*
X1320670D01*
Y6235D01*
X1318130D01*
X1330826Y-9000D02*
X1335905D01*
X1333366D01*
Y1157D01*
X1330826D01*
X1353679D02*
X1346062D01*
X1343522Y-1382D01*
Y-6461D01*
X1346062Y-9000D01*
X1353679D01*
X1361297Y1157D02*
X1366375D01*
X1368914Y-1382D01*
Y-9000D01*
X1361297D01*
X1358757Y-6461D01*
X1361297Y-3922D01*
X1368914D01*
X1373992Y6235D02*
Y-9000D01*
X1381610D01*
X1384149Y-6461D01*
Y-3922D01*
Y-1382D01*
X1381610Y1157D01*
X1373992D01*
X1389227Y-9000D02*
X1394306D01*
X1391767D01*
Y6235D01*
X1389227D01*
X1409541Y-9000D02*
X1404463D01*
X1401923Y-6461D01*
Y-1382D01*
X1404463Y1157D01*
X1409541D01*
X1412080Y-1382D01*
Y-3922D01*
X1401923D01*
X1440011Y-9000D02*
X1434933D01*
X1432393Y-6461D01*
Y-1382D01*
X1434933Y1157D01*
X1440011D01*
X1442550Y-1382D01*
Y-3922D01*
X1432393D01*
X1447629Y1157D02*
X1457785Y-9000D01*
X1452707Y-3922D01*
X1457785Y1157D01*
X1447629Y-9000D01*
X1473020Y1157D02*
X1465403D01*
X1462864Y-1382D01*
Y-6461D01*
X1465403Y-9000D01*
X1473020D01*
X1485716D02*
X1480638D01*
X1478099Y-6461D01*
Y-1382D01*
X1480638Y1157D01*
X1485716D01*
X1488255Y-1382D01*
Y-3922D01*
X1478099D01*
X1493334Y-14078D02*
Y1157D01*
X1500951D01*
X1503490Y-1382D01*
Y-6461D01*
X1500951Y-9000D01*
X1493334D01*
X1511108Y3696D02*
Y1157D01*
X1508569D01*
X1513647D01*
X1511108D01*
Y-6461D01*
X1513647Y-9000D01*
X1521265D02*
X1526343D01*
X1523804D01*
Y1157D01*
X1521265D01*
X1536500Y-9000D02*
X1541578D01*
X1544117Y-6461D01*
Y-1382D01*
X1541578Y1157D01*
X1536500D01*
X1533961Y-1382D01*
Y-6461D01*
X1536500Y-9000D01*
X1549196D02*
Y1157D01*
X1556813D01*
X1559353Y-1382D01*
Y-9000D01*
X1582205D02*
X1587283D01*
X1589823Y-6461D01*
Y-1382D01*
X1587283Y1157D01*
X1582205D01*
X1579666Y-1382D01*
Y-6461D01*
X1582205Y-9000D01*
X1594901Y1157D02*
Y-9000D01*
Y-3922D01*
X1597440Y-1382D01*
X1599979Y1157D01*
X1602518D01*
X1625371Y-9000D02*
X1630449D01*
X1627910D01*
Y6235D01*
X1625371D01*
X1638067Y-9000D02*
X1643145D01*
X1640606D01*
Y1157D01*
X1638067D01*
X1650763Y-9000D02*
Y1157D01*
X1653302D01*
X1655841Y-1382D01*
Y-9000D01*
Y-1382D01*
X1658380Y1157D01*
X1660920Y-1382D01*
Y-9000D01*
X1665998D02*
X1671076D01*
X1668537D01*
Y1157D01*
X1665998D01*
X1681233Y3696D02*
Y1157D01*
X1678694D01*
X1683772D01*
X1681233D01*
Y-6461D01*
X1683772Y-9000D01*
X1693929Y1157D02*
X1699007D01*
X1701546Y-1382D01*
Y-9000D01*
X1693929D01*
X1691390Y-6461D01*
X1693929Y-3922D01*
X1701546D01*
X1709164Y3696D02*
Y1157D01*
X1706625D01*
X1711703D01*
X1709164D01*
Y-6461D01*
X1711703Y-9000D01*
X1719321D02*
X1724399D01*
X1721860D01*
Y1157D01*
X1719321D01*
X1734556Y-9000D02*
X1739634D01*
X1742173Y-6461D01*
Y-1382D01*
X1739634Y1157D01*
X1734556D01*
X1732017Y-1382D01*
Y-6461D01*
X1734556Y-9000D01*
X1747252D02*
Y1157D01*
X1754869D01*
X1757408Y-1382D01*
Y-9000D01*
X1762487D02*
Y-6461D01*
X1765026D01*
Y-9000D01*
X1762487D01*
X856000Y31235D02*
Y28696D01*
X861078Y23617D01*
X866157Y28696D01*
Y31235D01*
X861078Y23617D02*
Y16000D01*
X873774D02*
X878853D01*
X881392Y18539D01*
Y23617D01*
X878853Y26157D01*
X873774D01*
X871235Y23617D01*
Y18539D01*
X873774Y16000D01*
X886470Y26157D02*
Y18539D01*
X889009Y16000D01*
X896627D01*
Y26157D01*
X927097Y31235D02*
Y16000D01*
X919480D01*
X916940Y18539D01*
Y23617D01*
X919480Y26157D01*
X927097D01*
X934715Y16000D02*
X939793D01*
X942332Y18539D01*
Y23617D01*
X939793Y26157D01*
X934715D01*
X932175Y23617D01*
Y18539D01*
X934715Y16000D01*
X962645D02*
Y26157D01*
X970263D01*
X972802Y23617D01*
Y16000D01*
X980420D02*
X985498D01*
X988037Y18539D01*
Y23617D01*
X985498Y26157D01*
X980420D01*
X977881Y23617D01*
Y18539D01*
X980420Y16000D01*
X995655Y28696D02*
Y26157D01*
X993116D01*
X998194D01*
X995655D01*
Y18539D01*
X998194Y16000D01*
X1021047Y31235D02*
Y16000D01*
Y23617D01*
X1023586Y26157D01*
X1028664D01*
X1031203Y23617D01*
Y16000D01*
X1038821Y26157D02*
X1043899D01*
X1046438Y23617D01*
Y16000D01*
X1038821D01*
X1036282Y18539D01*
X1038821Y21078D01*
X1046438D01*
X1051517Y26157D02*
X1056595Y16000D01*
X1061674Y26157D01*
X1074369Y16000D02*
X1069291D01*
X1066752Y18539D01*
Y23617D01*
X1069291Y26157D01*
X1074369D01*
X1076909Y23617D01*
Y21078D01*
X1066752D01*
X1099761Y28696D02*
Y26157D01*
X1097222D01*
X1102300D01*
X1099761D01*
Y18539D01*
X1102300Y16000D01*
X1112457D02*
X1117535D01*
X1120075Y18539D01*
Y23617D01*
X1117535Y26157D01*
X1112457D01*
X1109918Y23617D01*
Y18539D01*
X1112457Y16000D01*
X1150545Y26157D02*
X1142927D01*
X1140388Y23617D01*
Y18539D01*
X1142927Y16000D01*
X1150545D01*
X1158162D02*
X1163241D01*
X1165780Y18539D01*
Y23617D01*
X1163241Y26157D01*
X1158162D01*
X1155623Y23617D01*
Y18539D01*
X1158162Y16000D01*
X1170858D02*
Y26157D01*
X1173397D01*
X1175937Y23617D01*
Y16000D01*
Y23617D01*
X1178476Y26157D01*
X1181015Y23617D01*
Y16000D01*
X1186093Y10922D02*
Y26157D01*
X1193711D01*
X1196250Y23617D01*
Y18539D01*
X1193711Y16000D01*
X1186093D01*
X1201328D02*
X1206407D01*
X1203867D01*
Y31235D01*
X1201328D01*
X1214024Y26157D02*
Y18539D01*
X1216563Y16000D01*
X1224181D01*
Y13461D01*
X1221642Y10922D01*
X1219102D01*
X1224181Y16000D02*
Y26157D01*
X1244494D02*
Y18539D01*
X1247033Y16000D01*
X1249573Y18539D01*
X1252112Y16000D01*
X1254651Y18539D01*
Y26157D01*
X1259729Y16000D02*
X1264808D01*
X1262269D01*
Y26157D01*
X1259729D01*
X1274965Y28696D02*
Y26157D01*
X1272425D01*
X1277504D01*
X1274965D01*
Y18539D01*
X1277504Y16000D01*
X1285121Y31235D02*
Y16000D01*
Y23617D01*
X1287660Y26157D01*
X1292739D01*
X1295278Y23617D01*
Y16000D01*
X1318130Y28696D02*
Y26157D01*
X1315591D01*
X1320670D01*
X1318130D01*
Y18539D01*
X1320670Y16000D01*
X1328287Y31235D02*
Y16000D01*
Y23617D01*
X1330826Y26157D01*
X1335905D01*
X1338444Y23617D01*
Y16000D01*
X1351140D02*
X1346062D01*
X1343522Y18539D01*
Y23617D01*
X1346062Y26157D01*
X1351140D01*
X1353679Y23617D01*
Y21078D01*
X1343522D01*
X1373992Y16000D02*
X1379071D01*
X1376532D01*
Y31235D01*
X1373992D01*
X1386688Y16000D02*
X1391767D01*
X1389227D01*
Y26157D01*
X1386688D01*
X1409541D02*
X1401923D01*
X1399384Y23617D01*
Y18539D01*
X1401923Y16000D01*
X1409541D01*
X1422237D02*
X1417159D01*
X1414619Y18539D01*
Y23617D01*
X1417159Y26157D01*
X1422237D01*
X1424776Y23617D01*
Y21078D01*
X1414619D01*
X1429854Y16000D02*
Y26157D01*
X1437472D01*
X1440011Y23617D01*
Y16000D01*
X1445089D02*
X1452707D01*
X1455246Y18539D01*
X1452707Y21078D01*
X1447629D01*
X1445089Y23617D01*
X1447629Y26157D01*
X1455246D01*
X1467942Y16000D02*
X1462864D01*
X1460325Y18539D01*
Y23617D01*
X1462864Y26157D01*
X1467942D01*
X1470481Y23617D01*
Y21078D01*
X1460325D01*
X1493334Y16000D02*
Y28696D01*
Y23617D01*
X1490795D01*
X1495873D01*
X1493334D01*
Y28696D01*
X1495873Y31235D01*
X1506030Y16000D02*
X1511108D01*
X1513647Y18539D01*
Y23617D01*
X1511108Y26157D01*
X1506030D01*
X1503490Y23617D01*
Y18539D01*
X1506030Y16000D01*
X1518726Y26157D02*
Y16000D01*
Y21078D01*
X1521265Y23617D01*
X1523804Y26157D01*
X1526343D01*
X1556813Y16000D02*
X1551735D01*
X1549196Y18539D01*
Y23617D01*
X1551735Y26157D01*
X1556813D01*
X1559353Y23617D01*
Y21078D01*
X1549196D01*
X1564431Y16000D02*
X1569509D01*
X1566970D01*
Y31235D01*
X1564431D01*
X1584744Y16000D02*
X1579666D01*
X1577127Y18539D01*
Y23617D01*
X1579666Y26157D01*
X1584744D01*
X1587283Y23617D01*
Y21078D01*
X1577127D01*
X1592362Y16000D02*
Y26157D01*
X1594901D01*
X1597440Y23617D01*
Y16000D01*
Y23617D01*
X1599979Y26157D01*
X1602518Y23617D01*
Y16000D01*
X1615214D02*
X1610136D01*
X1607597Y18539D01*
Y23617D01*
X1610136Y26157D01*
X1615214D01*
X1617754Y23617D01*
Y21078D01*
X1607597D01*
X1622832Y16000D02*
Y26157D01*
X1630449D01*
X1632989Y23617D01*
Y16000D01*
X1640606Y28696D02*
Y26157D01*
X1638067D01*
X1643145D01*
X1640606D01*
Y18539D01*
X1643145Y16000D01*
X1650763D02*
X1658380D01*
X1660920Y18539D01*
X1658380Y21078D01*
X1653302D01*
X1650763Y23617D01*
X1653302Y26157D01*
X1660920D01*
X1683772Y16000D02*
X1688851D01*
X1691390Y18539D01*
Y23617D01*
X1688851Y26157D01*
X1683772D01*
X1681233Y23617D01*
Y18539D01*
X1683772Y16000D01*
X1699007D02*
Y28696D01*
Y23617D01*
X1696468D01*
X1701546D01*
X1699007D01*
Y28696D01*
X1701546Y31235D01*
X1726938Y28696D02*
Y26157D01*
X1724399D01*
X1729477D01*
X1726938D01*
Y18539D01*
X1729477Y16000D01*
X1737095Y31235D02*
Y16000D01*
Y23617D01*
X1739634Y26157D01*
X1744713D01*
X1747252Y23617D01*
Y16000D01*
X1759948D02*
X1754869D01*
X1752330Y18539D01*
Y23617D01*
X1754869Y26157D01*
X1759948D01*
X1762487Y23617D01*
Y21078D01*
X1752330D01*
X1782800Y16000D02*
Y26157D01*
X1785339D01*
X1787879Y23617D01*
Y16000D01*
Y23617D01*
X1790418Y26157D01*
X1792957Y23617D01*
Y16000D01*
X1800574Y26157D02*
X1805653D01*
X1808192Y23617D01*
Y16000D01*
X1800574D01*
X1798035Y18539D01*
X1800574Y21078D01*
X1808192D01*
X1815809Y28696D02*
Y26157D01*
X1813270D01*
X1818349D01*
X1815809D01*
Y18539D01*
X1818349Y16000D01*
X1833584D02*
X1828505D01*
X1825966Y18539D01*
Y23617D01*
X1828505Y26157D01*
X1833584D01*
X1836123Y23617D01*
Y21078D01*
X1825966D01*
X1841201Y26157D02*
Y16000D01*
Y21078D01*
X1843740Y23617D01*
X1846280Y26157D01*
X1848819D01*
X1856436Y16000D02*
X1861515D01*
X1858976D01*
Y26157D01*
X1856436D01*
X1871671D02*
X1876750D01*
X1879289Y23617D01*
Y16000D01*
X1871671D01*
X1869132Y18539D01*
X1871671Y21078D01*
X1879289D01*
X1884367Y16000D02*
X1889446D01*
X1886906D01*
Y31235D01*
X1884367D01*
X1912298Y16000D02*
X1917377D01*
X1914837D01*
Y26157D01*
X1912298D01*
X1924994Y16000D02*
Y26157D01*
X1932612D01*
X1935151Y23617D01*
Y16000D01*
X1958003Y28696D02*
Y26157D01*
X1955464D01*
X1960543D01*
X1958003D01*
Y18539D01*
X1960543Y16000D01*
X1968160Y31235D02*
Y16000D01*
Y23617D01*
X1970699Y26157D01*
X1975778D01*
X1978317Y23617D01*
Y16000D01*
X1991013D02*
X1985934D01*
X1983395Y18539D01*
Y23617D01*
X1985934Y26157D01*
X1991013D01*
X1993552Y23617D01*
Y21078D01*
X1983395D01*
X2013865Y10922D02*
Y26157D01*
X2021483D01*
X2024022Y23617D01*
Y18539D01*
X2021483Y16000D01*
X2013865D01*
X2029100Y26157D02*
Y18539D01*
X2031640Y16000D01*
X2039257D01*
Y26157D01*
X2044335Y31235D02*
Y16000D01*
X2051953D01*
X2054492Y18539D01*
Y21078D01*
Y23617D01*
X2051953Y26157D01*
X2044335D01*
X2059571Y16000D02*
X2064649D01*
X2062110D01*
Y31235D01*
X2059571D01*
X2072267Y16000D02*
X2077345D01*
X2074806D01*
Y26157D01*
X2072267D01*
X2095119D02*
X2087502D01*
X2084962Y23617D01*
Y18539D01*
X2087502Y16000D01*
X2095119D01*
X2125589Y31235D02*
Y16000D01*
X2117972D01*
X2115432Y18539D01*
Y23617D01*
X2117972Y26157D01*
X2125589D01*
X2133207Y16000D02*
X2138285D01*
X2140824Y18539D01*
Y23617D01*
X2138285Y26157D01*
X2133207D01*
X2130668Y23617D01*
Y18539D01*
X2133207Y16000D01*
X2145903D02*
Y26157D01*
X2148442D01*
X2150981Y23617D01*
Y16000D01*
Y23617D01*
X2153520Y26157D01*
X2156059Y23617D01*
Y16000D01*
X2163677Y26157D02*
X2168755D01*
X2171294Y23617D01*
Y16000D01*
X2163677D01*
X2161138Y18539D01*
X2163677Y21078D01*
X2171294D01*
X2176373Y16000D02*
X2181451D01*
X2178912D01*
Y26157D01*
X2176373D01*
X2189069Y16000D02*
Y26157D01*
X2196686D01*
X2199225Y23617D01*
Y16000D01*
X2222078D02*
X2227156D01*
X2229695Y18539D01*
Y23617D01*
X2227156Y26157D01*
X2222078D01*
X2219539Y23617D01*
Y18539D01*
X2222078Y16000D01*
X2234774Y26157D02*
Y16000D01*
Y21078D01*
X2237313Y23617D01*
X2239852Y26157D01*
X2242391D01*
X2265244D02*
Y18539D01*
X2267783Y16000D01*
X2270322Y18539D01*
X2272862Y16000D01*
X2275401Y18539D01*
Y26157D01*
X2280479Y31235D02*
Y16000D01*
Y23617D01*
X2283018Y26157D01*
X2288097D01*
X2290636Y23617D01*
Y16000D01*
X2303332D02*
X2298253D01*
X2295714Y18539D01*
Y23617D01*
X2298253Y26157D01*
X2303332D01*
X2305871Y23617D01*
Y21078D01*
X2295714D01*
X2310949Y26157D02*
Y16000D01*
Y21078D01*
X2313488Y23617D01*
X2316028Y26157D01*
X2318567D01*
X2333802Y16000D02*
X2328723D01*
X2326184Y18539D01*
Y23617D01*
X2328723Y26157D01*
X2333802D01*
X2336341Y23617D01*
Y21078D01*
X2326184D01*
X856000Y41000D02*
Y56235D01*
X866157Y41000D01*
Y56235D01*
X873774Y41000D02*
X878853D01*
X881392Y43539D01*
Y48618D01*
X878853Y51157D01*
X873774D01*
X871235Y48618D01*
Y43539D01*
X873774Y41000D01*
X889009Y53696D02*
Y51157D01*
X886470D01*
X891548D01*
X889009D01*
Y43539D01*
X891548Y41000D01*
X899166D02*
X904244D01*
X901705D01*
Y51157D01*
X899166D01*
X922019D02*
X914401D01*
X911862Y48618D01*
Y43539D01*
X914401Y41000D01*
X922019D01*
X934715D02*
X929636D01*
X927097Y43539D01*
Y48618D01*
X929636Y51157D01*
X934715D01*
X937254Y48618D01*
Y46078D01*
X927097D01*
X942332Y41000D02*
X949950D01*
X952489Y43539D01*
X949950Y46078D01*
X944871D01*
X942332Y48618D01*
X944871Y51157D01*
X952489D01*
X957567D02*
X960106D01*
Y48618D01*
X957567D01*
Y51157D01*
Y43539D02*
X960106D01*
Y41000D01*
X957567D01*
Y43539D01*
X858539Y103696D02*
Y101157D01*
X856000D01*
X861078D01*
X858539D01*
Y93539D01*
X861078Y91000D01*
X868696Y106235D02*
Y91000D01*
Y98617D01*
X871235Y101157D01*
X876313D01*
X878853Y98617D01*
Y91000D01*
X886470Y101157D02*
X891548D01*
X894088Y98617D01*
Y91000D01*
X886470D01*
X883931Y93539D01*
X886470Y96078D01*
X894088D01*
X901705Y103696D02*
Y101157D01*
X899166D01*
X904244D01*
X901705D01*
Y93539D01*
X904244Y91000D01*
X927097D02*
X932175D01*
X929636D01*
Y106235D01*
X927097D01*
X947410Y91000D02*
X942332D01*
X939793Y93539D01*
Y98617D01*
X942332Y101157D01*
X947410D01*
X949950Y98617D01*
Y96078D01*
X939793D01*
X960106Y85922D02*
X962645D01*
X965185Y88461D01*
Y101157D01*
X957567D01*
X955028Y98617D01*
Y93539D01*
X957567Y91000D01*
X965185D01*
X972802Y101157D02*
X977881D01*
X980420Y98617D01*
Y91000D01*
X972802D01*
X970263Y93539D01*
X972802Y96078D01*
X980420D01*
X985498Y91000D02*
X990576D01*
X988037D01*
Y106235D01*
X985498D01*
X998194Y91000D02*
X1003272D01*
X1000733D01*
Y106235D01*
X998194D01*
X1010890Y101157D02*
Y93539D01*
X1013429Y91000D01*
X1021047D01*
Y88461D01*
X1018507Y85922D01*
X1015968D01*
X1021047Y91000D02*
Y101157D01*
X1041360D02*
Y91000D01*
Y96078D01*
X1043899Y98617D01*
X1046438Y101157D01*
X1048978D01*
X1064213Y91000D02*
X1059134D01*
X1056595Y93539D01*
Y98617D01*
X1059134Y101157D01*
X1064213D01*
X1066752Y98617D01*
Y96078D01*
X1056595D01*
X1071830Y91000D02*
X1079448D01*
X1081987Y93539D01*
X1079448Y96078D01*
X1074369D01*
X1071830Y98617D01*
X1074369Y101157D01*
X1081987D01*
X1089604Y103696D02*
Y101157D01*
X1087065D01*
X1092144D01*
X1089604D01*
Y93539D01*
X1092144Y91000D01*
X1099761Y101157D02*
Y91000D01*
Y96078D01*
X1102300Y98617D01*
X1104839Y101157D01*
X1107379D01*
X1114996Y91000D02*
X1120074D01*
X1117535D01*
Y101157D01*
X1114996D01*
X1137849D02*
X1130231D01*
X1127692Y98617D01*
Y93539D01*
X1130231Y91000D01*
X1137849D01*
X1145466Y103696D02*
Y101157D01*
X1142927D01*
X1148006D01*
X1145466D01*
Y93539D01*
X1148006Y91000D01*
X1173397D02*
X1178476D01*
X1181015Y93539D01*
Y98617D01*
X1178476Y101157D01*
X1173397D01*
X1170858Y98617D01*
Y93539D01*
X1173397Y91000D01*
X1188632Y103696D02*
Y101157D01*
X1186093D01*
X1191171D01*
X1188632D01*
Y93539D01*
X1191171Y91000D01*
X1198789Y106235D02*
Y91000D01*
Y98617D01*
X1201328Y101157D01*
X1206407D01*
X1208946Y98617D01*
Y91000D01*
X1221642D02*
X1216563D01*
X1214024Y93539D01*
Y98617D01*
X1216563Y101157D01*
X1221642D01*
X1224181Y98617D01*
Y96078D01*
X1214024D01*
X1229259Y101157D02*
Y91000D01*
Y96078D01*
X1231798Y98617D01*
X1234338Y101157D01*
X1236877D01*
X1244494Y91000D02*
X1252112D01*
X1254651Y93539D01*
X1252112Y96078D01*
X1247033D01*
X1244494Y98617D01*
X1247033Y101157D01*
X1254651D01*
X1277504Y91000D02*
Y103696D01*
Y98617D01*
X1274964D01*
X1280043D01*
X1277504D01*
Y103696D01*
X1280043Y106235D01*
X1287660Y101157D02*
Y91000D01*
Y96078D01*
X1290199Y98617D01*
X1292739Y101157D01*
X1295278D01*
X1305435Y91000D02*
X1310513D01*
X1313052Y93539D01*
Y98617D01*
X1310513Y101157D01*
X1305435D01*
X1302895Y98617D01*
Y93539D01*
X1305435Y91000D01*
X1318130D02*
Y101157D01*
X1320670D01*
X1323209Y98617D01*
Y91000D01*
Y98617D01*
X1325748Y101157D01*
X1328287Y98617D01*
Y91000D01*
X1358757Y106235D02*
Y91000D01*
X1351140D01*
X1348601Y93539D01*
Y98617D01*
X1351140Y101157D01*
X1358757D01*
X1366375Y91000D02*
X1371453D01*
X1373992Y93539D01*
Y98617D01*
X1371453Y101157D01*
X1366375D01*
X1363836Y98617D01*
Y93539D01*
X1366375Y91000D01*
X1379071D02*
X1384149D01*
X1381610D01*
Y101157D01*
X1379071D01*
X1391767Y91000D02*
Y101157D01*
X1399384D01*
X1401923Y98617D01*
Y91000D01*
X1412080Y85922D02*
X1414619D01*
X1417158Y88461D01*
Y101157D01*
X1409541D01*
X1407002Y98617D01*
Y93539D01*
X1409541Y91000D01*
X1417158D01*
X1440011Y101157D02*
X1445089D01*
X1447629Y98617D01*
Y91000D01*
X1440011D01*
X1437472Y93539D01*
X1440011Y96078D01*
X1447629D01*
X1452707Y91000D02*
Y101157D01*
X1460325D01*
X1462864Y98617D01*
Y91000D01*
X1467942Y101157D02*
Y93539D01*
X1470481Y91000D01*
X1478099D01*
Y88461D01*
X1475560Y85922D01*
X1473020D01*
X1478099Y91000D02*
Y101157D01*
X1485716Y103696D02*
Y101157D01*
X1483177D01*
X1488255D01*
X1485716D01*
Y93539D01*
X1488255Y91000D01*
X1495873Y106235D02*
Y91000D01*
Y98617D01*
X1498412Y101157D01*
X1503490D01*
X1506030Y98617D01*
Y91000D01*
X1511108D02*
X1516186D01*
X1513647D01*
Y101157D01*
X1511108D01*
X1523804Y91000D02*
Y101157D01*
X1531421D01*
X1533961Y98617D01*
Y91000D01*
X1544117Y85922D02*
X1546656D01*
X1549196Y88461D01*
Y101157D01*
X1541578D01*
X1539039Y98617D01*
Y93539D01*
X1541578Y91000D01*
X1549196D01*
X1572048Y103696D02*
Y101157D01*
X1569509D01*
X1574588D01*
X1572048D01*
Y93539D01*
X1574588Y91000D01*
X1582205Y106235D02*
Y91000D01*
Y98617D01*
X1584744Y101157D01*
X1589823D01*
X1592362Y98617D01*
Y91000D01*
X1605058D02*
X1599979D01*
X1597440Y93539D01*
Y98617D01*
X1599979Y101157D01*
X1605058D01*
X1607597Y98617D01*
Y96078D01*
X1597440D01*
X1627910Y91000D02*
X1632989D01*
X1630449D01*
Y106235D01*
X1627910D01*
X1640606Y91000D02*
X1645685D01*
X1643145D01*
Y101157D01*
X1640606D01*
X1663459D02*
X1655841D01*
X1653302Y98617D01*
Y93539D01*
X1655841Y91000D01*
X1663459D01*
X1676155D02*
X1671076D01*
X1668537Y93539D01*
Y98617D01*
X1671076Y101157D01*
X1676155D01*
X1678694Y98617D01*
Y96078D01*
X1668537D01*
X1683772Y91000D02*
Y101157D01*
X1691390D01*
X1693929Y98617D01*
Y91000D01*
X1699007D02*
X1706625D01*
X1709164Y93539D01*
X1706625Y96078D01*
X1701546D01*
X1699007Y98617D01*
X1701546Y101157D01*
X1709164D01*
X1721860Y91000D02*
X1716781D01*
X1714242Y93539D01*
Y98617D01*
X1716781Y101157D01*
X1721860D01*
X1724399Y98617D01*
Y96078D01*
X1714242D01*
X1744712Y85922D02*
Y101157D01*
X1752330D01*
X1754869Y98617D01*
Y93539D01*
X1752330Y91000D01*
X1744712D01*
X1767565D02*
X1762487D01*
X1759948Y93539D01*
Y98617D01*
X1762487Y101157D01*
X1767565D01*
X1770104Y98617D01*
Y96078D01*
X1759948D01*
X1775183Y101157D02*
Y91000D01*
Y96078D01*
X1777722Y98617D01*
X1780261Y101157D01*
X1782800D01*
X1790418Y91000D02*
Y101157D01*
X1792957D01*
X1795496Y98617D01*
Y91000D01*
Y98617D01*
X1798035Y101157D01*
X1800574Y98617D01*
Y91000D01*
X1805653D02*
X1810731D01*
X1808192D01*
Y101157D01*
X1805653D01*
X1820888Y103696D02*
Y101157D01*
X1818349D01*
X1823427D01*
X1820888D01*
Y93539D01*
X1823427Y91000D01*
X1831044D02*
X1838662D01*
X1841201Y93539D01*
X1838662Y96078D01*
X1833584D01*
X1831044Y98617D01*
X1833584Y101157D01*
X1841201D01*
X1846280Y91000D02*
Y93539D01*
X1848819D01*
Y91000D01*
X1846280D01*
X856000Y116000D02*
Y131235D01*
X866157Y116000D01*
Y131235D01*
X873774Y116000D02*
X878853D01*
X881392Y118539D01*
Y123617D01*
X878853Y126157D01*
X873774D01*
X871235Y123617D01*
Y118539D01*
X873774Y116000D01*
X904244Y126157D02*
X909323D01*
X911862Y123617D01*
Y116000D01*
X904244D01*
X901705Y118539D01*
X904244Y121078D01*
X911862D01*
X927097Y131235D02*
Y116000D01*
X919480D01*
X916940Y118539D01*
Y123617D01*
X919480Y126157D01*
X927097D01*
X942332Y131235D02*
Y116000D01*
X934715D01*
X932175Y118539D01*
Y123617D01*
X934715Y126157D01*
X942332D01*
X947410Y116000D02*
X952489D01*
X949950D01*
Y126157D01*
X947410D01*
X962645Y128696D02*
Y126157D01*
X960106D01*
X965185D01*
X962645D01*
Y118539D01*
X965185Y116000D01*
X972802D02*
X977881D01*
X975341D01*
Y126157D01*
X972802D01*
X988037Y116000D02*
X993116D01*
X995655Y118539D01*
Y123617D01*
X993116Y126157D01*
X988037D01*
X985498Y123617D01*
Y118539D01*
X988037Y116000D01*
X1000733D02*
Y126157D01*
X1008351D01*
X1010890Y123617D01*
Y116000D01*
X1018507Y126157D02*
X1023586D01*
X1026125Y123617D01*
Y116000D01*
X1018507D01*
X1015968Y118539D01*
X1018507Y121078D01*
X1026125D01*
X1031203Y116000D02*
X1036282D01*
X1033743D01*
Y131235D01*
X1031203D01*
X1059134Y126157D02*
Y116000D01*
Y121078D01*
X1061674Y123617D01*
X1064213Y126157D01*
X1066752D01*
X1081987Y116000D02*
X1076908D01*
X1074369Y118539D01*
Y123617D01*
X1076908Y126157D01*
X1081987D01*
X1084526Y123617D01*
Y121078D01*
X1074369D01*
X1089604Y116000D02*
X1097222D01*
X1099761Y118539D01*
X1097222Y121078D01*
X1092144D01*
X1089604Y123617D01*
X1092144Y126157D01*
X1099761D01*
X1107379Y128696D02*
Y126157D01*
X1104839D01*
X1109918D01*
X1107379D01*
Y118539D01*
X1109918Y116000D01*
X1117535Y126157D02*
Y116000D01*
Y121078D01*
X1120075Y123617D01*
X1122614Y126157D01*
X1125153D01*
X1132770Y116000D02*
X1137849D01*
X1135310D01*
Y126157D01*
X1132770D01*
X1155623D02*
X1148006D01*
X1145466Y123617D01*
Y118539D01*
X1148006Y116000D01*
X1155623D01*
X1163241Y128696D02*
Y126157D01*
X1160701D01*
X1165780D01*
X1163241D01*
Y118539D01*
X1165780Y116000D01*
X1173397D02*
X1178476D01*
X1175937D01*
Y126157D01*
X1173397D01*
X1188632Y116000D02*
X1193711D01*
X1196250Y118539D01*
Y123617D01*
X1193711Y126157D01*
X1188632D01*
X1186093Y123617D01*
Y118539D01*
X1188632Y116000D01*
X1201328D02*
Y126157D01*
X1208946D01*
X1211485Y123617D01*
Y116000D01*
X1216563D02*
X1224181D01*
X1226720Y118539D01*
X1224181Y121078D01*
X1219102D01*
X1216563Y123617D01*
X1219102Y126157D01*
X1226720D01*
X1247033Y123617D02*
X1257190D01*
X1277504Y131235D02*
Y128696D01*
X1282582Y123617D01*
X1287660Y128696D01*
Y131235D01*
X1282582Y123617D02*
Y116000D01*
X1295278D02*
X1300356D01*
X1302895Y118539D01*
Y123617D01*
X1300356Y126157D01*
X1295278D01*
X1292739Y123617D01*
Y118539D01*
X1295278Y116000D01*
X1307974Y126157D02*
Y118539D01*
X1310513Y116000D01*
X1318130D01*
Y126157D01*
X1338444Y116000D02*
Y126157D01*
X1340983D01*
X1343522Y123617D01*
Y116000D01*
Y123617D01*
X1346061Y126157D01*
X1348601Y123617D01*
Y116000D01*
X1356218Y126157D02*
X1361297D01*
X1363836Y123617D01*
Y116000D01*
X1356218D01*
X1353679Y118539D01*
X1356218Y121078D01*
X1363836D01*
X1368914Y126157D02*
Y118539D01*
X1371453Y116000D01*
X1379071D01*
Y113461D01*
X1376532Y110922D01*
X1373992D01*
X1379071Y116000D02*
Y126157D01*
X1399384Y116000D02*
Y126157D01*
X1407002D01*
X1409541Y123617D01*
Y116000D01*
X1417159D02*
X1422237D01*
X1424776Y118539D01*
Y123617D01*
X1422237Y126157D01*
X1417159D01*
X1414619Y123617D01*
Y118539D01*
X1417159Y116000D01*
X1432393Y128696D02*
Y126157D01*
X1429854D01*
X1434933D01*
X1432393D01*
Y118539D01*
X1434933Y116000D01*
X1460325Y126157D02*
X1465403D01*
X1467942Y123617D01*
Y116000D01*
X1460325D01*
X1457785Y118539D01*
X1460325Y121078D01*
X1467942D01*
X1473020Y110922D02*
Y126157D01*
X1480638D01*
X1483177Y123617D01*
Y118539D01*
X1480638Y116000D01*
X1473020D01*
X1488255Y110922D02*
Y126157D01*
X1495873D01*
X1498412Y123617D01*
Y118539D01*
X1495873Y116000D01*
X1488255D01*
X1503490D02*
X1508569D01*
X1506030D01*
Y131235D01*
X1503490D01*
X1516186Y126157D02*
Y118539D01*
X1518726Y116000D01*
X1526343D01*
Y113461D01*
X1523804Y110922D01*
X1521265D01*
X1526343Y116000D02*
Y126157D01*
X1546656Y116000D02*
X1551735D01*
X1549196D01*
Y131235D01*
X1546656D01*
X1566970Y116000D02*
X1561892D01*
X1559352Y118539D01*
Y123617D01*
X1561892Y126157D01*
X1566970D01*
X1569509Y123617D01*
Y121078D01*
X1559352D01*
X1579666Y110922D02*
X1582205D01*
X1584744Y113461D01*
Y126157D01*
X1577127D01*
X1574588Y123617D01*
Y118539D01*
X1577127Y116000D01*
X1584744D01*
X1592362Y126157D02*
X1597440D01*
X1599979Y123617D01*
Y116000D01*
X1592362D01*
X1589823Y118539D01*
X1592362Y121078D01*
X1599979D01*
X1605058Y116000D02*
X1610136D01*
X1607597D01*
Y131235D01*
X1605058D01*
X1635528Y128696D02*
Y126157D01*
X1632989D01*
X1638067D01*
X1635528D01*
Y118539D01*
X1638067Y116000D01*
X1653302D02*
X1648224D01*
X1645685Y118539D01*
Y123617D01*
X1648224Y126157D01*
X1653302D01*
X1655841Y123617D01*
Y121078D01*
X1645685D01*
X1660920Y126157D02*
Y116000D01*
Y121078D01*
X1663459Y123617D01*
X1665998Y126157D01*
X1668537D01*
X1676155Y116000D02*
Y126157D01*
X1678694D01*
X1681233Y123617D01*
Y116000D01*
Y123617D01*
X1683772Y126157D01*
X1686311Y123617D01*
Y116000D01*
X1691390D02*
X1699007D01*
X1701546Y118539D01*
X1699007Y121078D01*
X1693929D01*
X1691390Y123617D01*
X1693929Y126157D01*
X1701546D01*
X1724399Y116000D02*
X1729477D01*
X1732017Y118539D01*
Y123617D01*
X1729477Y126157D01*
X1724399D01*
X1721860Y123617D01*
Y118539D01*
X1724399Y116000D01*
X1737095Y126157D02*
Y116000D01*
Y121078D01*
X1739634Y123617D01*
X1742173Y126157D01*
X1744713D01*
X1770104Y128696D02*
Y126157D01*
X1767565D01*
X1772643D01*
X1770104D01*
Y118539D01*
X1772643Y116000D01*
X1787879D02*
X1782800D01*
X1780261Y118539D01*
Y123617D01*
X1782800Y126157D01*
X1787879D01*
X1790418Y123617D01*
Y121078D01*
X1780261D01*
X1805653Y126157D02*
X1798035D01*
X1795496Y123617D01*
Y118539D01*
X1798035Y116000D01*
X1805653D01*
X1810731Y131235D02*
Y116000D01*
Y123617D01*
X1813270Y126157D01*
X1818349D01*
X1820888Y123617D01*
Y116000D01*
X1825966D02*
Y126157D01*
X1833584D01*
X1836123Y123617D01*
Y116000D01*
X1843740D02*
X1848819D01*
X1851358Y118539D01*
Y123617D01*
X1848819Y126157D01*
X1843740D01*
X1841201Y123617D01*
Y118539D01*
X1843740Y116000D01*
X1856436D02*
X1861515D01*
X1858976D01*
Y131235D01*
X1856436D01*
X1871671Y116000D02*
X1876750D01*
X1879289Y118539D01*
Y123617D01*
X1876750Y126157D01*
X1871671D01*
X1869132Y123617D01*
Y118539D01*
X1871671Y116000D01*
X1889446Y110922D02*
X1891985D01*
X1894524Y113461D01*
Y126157D01*
X1886906D01*
X1884367Y123617D01*
Y118539D01*
X1886906Y116000D01*
X1894524D01*
X1899602D02*
X1904681D01*
X1902142D01*
Y126157D01*
X1899602D01*
X1922455D02*
X1914837D01*
X1912298Y123617D01*
Y118539D01*
X1914837Y116000D01*
X1922455D01*
X1930072Y126157D02*
X1935151D01*
X1937690Y123617D01*
Y116000D01*
X1930072D01*
X1927533Y118539D01*
X1930072Y121078D01*
X1937690D01*
X1942768Y116000D02*
X1947847D01*
X1945308D01*
Y131235D01*
X1942768D01*
X1970699Y116000D02*
Y126157D01*
X1973239D01*
X1975778Y123617D01*
Y116000D01*
Y123617D01*
X1978317Y126157D01*
X1980856Y123617D01*
Y116000D01*
X1993552D02*
X1988474D01*
X1985934Y118539D01*
Y123617D01*
X1988474Y126157D01*
X1993552D01*
X1996091Y123617D01*
Y121078D01*
X1985934D01*
X2003709Y126157D02*
X2008787D01*
X2011326Y123617D01*
Y116000D01*
X2003709D01*
X2001169Y118539D01*
X2003709Y121078D01*
X2011326D01*
X2016405Y116000D02*
X2024022D01*
X2026561Y118539D01*
X2024022Y121078D01*
X2018944D01*
X2016405Y123617D01*
X2018944Y126157D01*
X2026561D01*
X2031640D02*
Y118539D01*
X2034179Y116000D01*
X2041796D01*
Y126157D01*
X2046875D02*
Y116000D01*
Y121078D01*
X2049414Y123617D01*
X2051953Y126157D01*
X2054492D01*
X2069727Y116000D02*
X2064649D01*
X2062110Y118539D01*
Y123617D01*
X2064649Y126157D01*
X2069727D01*
X2072267Y123617D01*
Y121078D01*
X2062110D01*
X2077345Y116000D02*
X2084962D01*
X2087502Y118539D01*
X2084962Y121078D01*
X2079884D01*
X2077345Y123617D01*
X2079884Y126157D01*
X2087502D01*
X858000Y257157D02*
Y249539D01*
X860539Y247000D01*
X863078Y249539D01*
X865618Y247000D01*
X868157Y249539D01*
Y257157D01*
X875774D02*
X880853D01*
X883392Y254618D01*
Y247000D01*
X875774D01*
X873235Y249539D01*
X875774Y252078D01*
X883392D01*
X888470Y257157D02*
Y249539D01*
X891009Y247000D01*
X898627D01*
Y244461D01*
X896088Y241922D01*
X893549D01*
X898627Y247000D02*
Y257157D01*
X921479Y259696D02*
Y257157D01*
X918940D01*
X924019D01*
X921479D01*
Y249539D01*
X924019Y247000D01*
X931636Y262235D02*
Y247000D01*
Y254618D01*
X934175Y257157D01*
X939254D01*
X941793Y254618D01*
Y247000D01*
X949410Y257157D02*
X954489D01*
X957028Y254618D01*
Y247000D01*
X949410D01*
X946871Y249539D01*
X949410Y252078D01*
X957028D01*
X964645Y259696D02*
Y257157D01*
X962106D01*
X967185D01*
X964645D01*
Y249539D01*
X967185Y247000D01*
X990037D02*
X997655D01*
X1000194Y249539D01*
X997655Y252078D01*
X992577D01*
X990037Y254618D01*
X992577Y257157D01*
X1000194D01*
X1005272D02*
Y249539D01*
X1007812Y247000D01*
X1015429D01*
Y257157D01*
X1025586Y241922D02*
X1028125D01*
X1030664Y244461D01*
Y257157D01*
X1023047D01*
X1020508Y254618D01*
Y249539D01*
X1023047Y247000D01*
X1030664D01*
X1040821Y241922D02*
X1043360D01*
X1045899Y244461D01*
Y257157D01*
X1038282D01*
X1035742Y254618D01*
Y249539D01*
X1038282Y247000D01*
X1045899D01*
X1058595D02*
X1053517D01*
X1050978Y249539D01*
Y254618D01*
X1053517Y257157D01*
X1058595D01*
X1061134Y254618D01*
Y252078D01*
X1050978D01*
X1066213Y247000D02*
X1073830D01*
X1076369Y249539D01*
X1073830Y252078D01*
X1068752D01*
X1066213Y254618D01*
X1068752Y257157D01*
X1076369D01*
X1083987Y259696D02*
Y257157D01*
X1081448D01*
X1086526D01*
X1083987D01*
Y249539D01*
X1086526Y247000D01*
X1094144D02*
X1101761D01*
X1104300Y249539D01*
X1101761Y252078D01*
X1096683D01*
X1094144Y254618D01*
X1096683Y257157D01*
X1104300D01*
X1127153Y259696D02*
Y257157D01*
X1124614D01*
X1129692D01*
X1127153D01*
Y249539D01*
X1129692Y247000D01*
X1137310Y262235D02*
Y247000D01*
Y254618D01*
X1139849Y257157D01*
X1144927D01*
X1147466Y254618D01*
Y247000D01*
X1160162D02*
X1155084D01*
X1152545Y249539D01*
Y254618D01*
X1155084Y257157D01*
X1160162D01*
X1162701Y254618D01*
Y252078D01*
X1152545D01*
X1183015Y247000D02*
X1188093D01*
X1185554D01*
Y262235D01*
X1183015D01*
X1195711Y247000D02*
X1200789D01*
X1198250D01*
Y257157D01*
X1195711D01*
X1218563D02*
X1210946D01*
X1208407Y254618D01*
Y249539D01*
X1210946Y247000D01*
X1218563D01*
X1231259D02*
X1226181D01*
X1223642Y249539D01*
Y254618D01*
X1226181Y257157D01*
X1231259D01*
X1233798Y254618D01*
Y252078D01*
X1223642D01*
X1238877Y247000D02*
Y257157D01*
X1246494D01*
X1249034Y254618D01*
Y247000D01*
X1254112D02*
X1261729D01*
X1264269Y249539D01*
X1261729Y252078D01*
X1256651D01*
X1254112Y254618D01*
X1256651Y257157D01*
X1264269D01*
X1271886Y247000D02*
X1276964D01*
X1279504Y249539D01*
Y254618D01*
X1276964Y257157D01*
X1271886D01*
X1269347Y254618D01*
Y249539D01*
X1271886Y247000D01*
X1284582Y257157D02*
Y247000D01*
Y252078D01*
X1287121Y254618D01*
X1289660Y257157D01*
X1292200D01*
X1322670Y247000D02*
X1317591D01*
X1315052Y249539D01*
Y254618D01*
X1317591Y257157D01*
X1322670D01*
X1325209Y254618D01*
Y252078D01*
X1315052D01*
X1330287Y247000D02*
Y257157D01*
X1337905D01*
X1340444Y254618D01*
Y247000D01*
X1355679Y262235D02*
Y247000D01*
X1348062D01*
X1345522Y249539D01*
Y254618D01*
X1348062Y257157D01*
X1355679D01*
X1363297Y247000D02*
X1368375D01*
X1370914Y249539D01*
Y254618D01*
X1368375Y257157D01*
X1363297D01*
X1360757Y254618D01*
Y249539D01*
X1363297Y247000D01*
X1375992Y257157D02*
Y247000D01*
Y252078D01*
X1378532Y254618D01*
X1381071Y257157D01*
X1383610D01*
X1391228Y247000D02*
X1398845D01*
X1401384Y249539D01*
X1398845Y252078D01*
X1393767D01*
X1391228Y254618D01*
X1393767Y257157D01*
X1401384D01*
X1414080Y247000D02*
X1409002D01*
X1406463Y249539D01*
Y254618D01*
X1409002Y257157D01*
X1414080D01*
X1416619Y254618D01*
Y252078D01*
X1406463D01*
X1421698Y247000D02*
X1429315D01*
X1431854Y249539D01*
X1429315Y252078D01*
X1424237D01*
X1421698Y254618D01*
X1424237Y257157D01*
X1431854D01*
X1452168D02*
Y249539D01*
X1454707Y247000D01*
X1462325D01*
Y244461D01*
X1459785Y241922D01*
X1457246D01*
X1462325Y247000D02*
Y257157D01*
X1469942Y247000D02*
X1475020D01*
X1477560Y249539D01*
Y254618D01*
X1475020Y257157D01*
X1469942D01*
X1467403Y254618D01*
Y249539D01*
X1469942Y247000D01*
X1482638Y257157D02*
Y249539D01*
X1485177Y247000D01*
X1492795D01*
Y257157D01*
X1515647Y247000D02*
X1520726D01*
X1523265Y249539D01*
Y254618D01*
X1520726Y257157D01*
X1515647D01*
X1513108Y254618D01*
Y249539D01*
X1515647Y247000D01*
X1528343Y257157D02*
Y247000D01*
Y252078D01*
X1530882Y254618D01*
X1533421Y257157D01*
X1535961D01*
X1558813D02*
Y249539D01*
X1561353Y247000D01*
X1568970D01*
Y244461D01*
X1566431Y241922D01*
X1563892D01*
X1568970Y247000D02*
Y257157D01*
X1576588Y247000D02*
X1581666D01*
X1584205Y249539D01*
Y254618D01*
X1581666Y257157D01*
X1576588D01*
X1574048Y254618D01*
Y249539D01*
X1576588Y247000D01*
X1589283Y257157D02*
Y249539D01*
X1591823Y247000D01*
X1599440D01*
Y257157D01*
X1604518D02*
Y247000D01*
Y252078D01*
X1607058Y254618D01*
X1609597Y257157D01*
X1612136D01*
X1634989D02*
Y249539D01*
X1637528Y247000D01*
X1645145D01*
Y257157D01*
X1650224Y247000D02*
X1657841D01*
X1660381Y249539D01*
X1657841Y252078D01*
X1652763D01*
X1650224Y254618D01*
X1652763Y257157D01*
X1660381D01*
X1673076Y247000D02*
X1667998D01*
X1665459Y249539D01*
Y254618D01*
X1667998Y257157D01*
X1673076D01*
X1675616Y254618D01*
Y252078D01*
X1665459D01*
X1680694Y247000D02*
Y249539D01*
X1683233D01*
Y247000D01*
X1680694D01*
X858000Y272000D02*
X863078D01*
X860539D01*
Y282157D01*
X858000D01*
X870696Y272000D02*
Y282157D01*
X878314D01*
X880853Y279618D01*
Y272000D01*
X896088Y287235D02*
Y272000D01*
X888470D01*
X885931Y274539D01*
Y279618D01*
X888470Y282157D01*
X896088D01*
X901166Y272000D02*
X906244D01*
X903705D01*
Y282157D01*
X901166D01*
X924019D02*
X916401D01*
X913862Y279618D01*
Y274539D01*
X916401Y272000D01*
X924019D01*
X931636Y282157D02*
X936715D01*
X939254Y279618D01*
Y272000D01*
X931636D01*
X929097Y274539D01*
X931636Y277078D01*
X939254D01*
X946871Y284696D02*
Y282157D01*
X944332D01*
X949410D01*
X946871D01*
Y274539D01*
X949410Y272000D01*
X964645D02*
X959567D01*
X957028Y274539D01*
Y279618D01*
X959567Y282157D01*
X964645D01*
X967185Y279618D01*
Y277078D01*
X957028D01*
X987498Y272000D02*
X992577D01*
X990037D01*
Y282157D01*
X987498D01*
X1002733Y272000D02*
Y284696D01*
Y279618D01*
X1000194D01*
X1005272D01*
X1002733D01*
Y284696D01*
X1005272Y287235D01*
X1038282Y282157D02*
X1030664D01*
X1028125Y279618D01*
Y274539D01*
X1030664Y272000D01*
X1038282D01*
X1043360Y287235D02*
Y272000D01*
Y279618D01*
X1045899Y282157D01*
X1050978D01*
X1053517Y279618D01*
Y272000D01*
X1061134Y282157D02*
X1066213D01*
X1068752Y279618D01*
Y272000D01*
X1061134D01*
X1058595Y274539D01*
X1061134Y277078D01*
X1068752D01*
X1073830Y272000D02*
Y282157D01*
X1081448D01*
X1083987Y279618D01*
Y272000D01*
X1094144Y266922D02*
X1096683D01*
X1099222Y269461D01*
Y282157D01*
X1091604D01*
X1089065Y279618D01*
Y274539D01*
X1091604Y272000D01*
X1099222D01*
X1111918D02*
X1106840D01*
X1104300Y274539D01*
Y279618D01*
X1106840Y282157D01*
X1111918D01*
X1114457Y279618D01*
Y277078D01*
X1104300D01*
X1119535Y272000D02*
X1127153D01*
X1129692Y274539D01*
X1127153Y277078D01*
X1122075D01*
X1119535Y279618D01*
X1122075Y282157D01*
X1129692D01*
X1150005D02*
Y274539D01*
X1152545Y272000D01*
X1155084Y274539D01*
X1157623Y272000D01*
X1160162Y274539D01*
Y282157D01*
X1172858Y272000D02*
X1167780D01*
X1165241Y274539D01*
Y279618D01*
X1167780Y282157D01*
X1172858D01*
X1175397Y279618D01*
Y277078D01*
X1165241D01*
X1180476Y282157D02*
Y272000D01*
Y277078D01*
X1183015Y279618D01*
X1185554Y282157D01*
X1188093D01*
X1203328Y272000D02*
X1198250D01*
X1195711Y274539D01*
Y279618D01*
X1198250Y282157D01*
X1203328D01*
X1205867Y279618D01*
Y277078D01*
X1195711D01*
X1226181Y272000D02*
Y282157D01*
X1228720D01*
X1231259Y279618D01*
Y272000D01*
Y279618D01*
X1233798Y282157D01*
X1236338Y279618D01*
Y272000D01*
X1243955Y282157D02*
X1249034D01*
X1251573Y279618D01*
Y272000D01*
X1243955D01*
X1241416Y274539D01*
X1243955Y277078D01*
X1251573D01*
X1266808Y287235D02*
Y272000D01*
X1259190D01*
X1256651Y274539D01*
Y279618D01*
X1259190Y282157D01*
X1266808D01*
X1279504Y272000D02*
X1274425D01*
X1271886Y274539D01*
Y279618D01*
X1274425Y282157D01*
X1279504D01*
X1282043Y279618D01*
Y277078D01*
X1271886D01*
X1287121Y272000D02*
Y274539D01*
X1289660D01*
Y272000D01*
X1287121D01*
X1315052Y287235D02*
Y284696D01*
X1320130Y279618D01*
X1325209Y284696D01*
Y287235D01*
X1320130Y279618D02*
Y272000D01*
X1332826D02*
X1337905D01*
X1340444Y274539D01*
Y279618D01*
X1337905Y282157D01*
X1332826D01*
X1330287Y279618D01*
Y274539D01*
X1332826Y272000D01*
X1345522Y282157D02*
Y274539D01*
X1348062Y272000D01*
X1355679D01*
Y282157D01*
X1375992Y272000D02*
Y282157D01*
X1378532D01*
X1381071Y279618D01*
Y272000D01*
Y279618D01*
X1383610Y282157D01*
X1386149Y279618D01*
Y272000D01*
X1393767Y282157D02*
X1398845D01*
X1401384Y279618D01*
Y272000D01*
X1393767D01*
X1391228Y274539D01*
X1393767Y277078D01*
X1401384D01*
X1406463Y282157D02*
Y274539D01*
X1409002Y272000D01*
X1416619D01*
Y269461D01*
X1414080Y266922D01*
X1411541D01*
X1416619Y272000D02*
Y282157D01*
X1447090Y287235D02*
Y272000D01*
X1439472D01*
X1436933Y274539D01*
Y279618D01*
X1439472Y282157D01*
X1447090D01*
X1454707Y272000D02*
X1459785D01*
X1462325Y274539D01*
Y279618D01*
X1459785Y282157D01*
X1454707D01*
X1452168Y279618D01*
Y274539D01*
X1454707Y272000D01*
X1482638D02*
X1490255D01*
X1492795Y274539D01*
X1490255Y277078D01*
X1485177D01*
X1482638Y279618D01*
X1485177Y282157D01*
X1492795D01*
X1500412Y272000D02*
X1505491D01*
X1508030Y274539D01*
Y279618D01*
X1505491Y282157D01*
X1500412D01*
X1497873Y279618D01*
Y274539D01*
X1500412Y272000D01*
X1528343D02*
X1533421D01*
X1530882D01*
Y282157D01*
X1528343D01*
X1541039Y272000D02*
Y282157D01*
X1548657D01*
X1551196Y279618D01*
Y272000D01*
X1574048Y282157D02*
X1579127D01*
X1581666Y279618D01*
Y272000D01*
X1574048D01*
X1571509Y274539D01*
X1574048Y277078D01*
X1581666D01*
X1586744Y272000D02*
Y282157D01*
X1594362D01*
X1596901Y279618D01*
Y272000D01*
X1601979Y282157D02*
Y274539D01*
X1604518Y272000D01*
X1612136D01*
Y269461D01*
X1609597Y266922D01*
X1607058D01*
X1612136Y272000D02*
Y282157D01*
X1632449D02*
Y272000D01*
Y277078D01*
X1634989Y279618D01*
X1637528Y282157D01*
X1640067D01*
X1655302Y272000D02*
X1650224D01*
X1647685Y274539D01*
Y279618D01*
X1650224Y282157D01*
X1655302D01*
X1657841Y279618D01*
Y277078D01*
X1647685D01*
X1665459Y282157D02*
X1670537D01*
X1673076Y279618D01*
Y272000D01*
X1665459D01*
X1662920Y274539D01*
X1665459Y277078D01*
X1673076D01*
X1678155Y272000D02*
X1685772D01*
X1688311Y274539D01*
X1685772Y277078D01*
X1680694D01*
X1678155Y279618D01*
X1680694Y282157D01*
X1688311D01*
X1695929Y272000D02*
X1701007D01*
X1703546Y274539D01*
Y279618D01*
X1701007Y282157D01*
X1695929D01*
X1693390Y279618D01*
Y274539D01*
X1695929Y272000D01*
X1708625D02*
Y282157D01*
X1716242D01*
X1718782Y279618D01*
Y272000D01*
X1726399Y282157D02*
X1731478D01*
X1734017Y279618D01*
Y272000D01*
X1726399D01*
X1723860Y274539D01*
X1726399Y277078D01*
X1734017D01*
X1739095Y287235D02*
Y272000D01*
X1746712D01*
X1749252Y274539D01*
Y277078D01*
Y279618D01*
X1746712Y282157D01*
X1739095D01*
X1754330Y272000D02*
X1759408D01*
X1756869D01*
Y287235D01*
X1754330D01*
X1774644Y272000D02*
X1769565D01*
X1767026Y274539D01*
Y279618D01*
X1769565Y282157D01*
X1774644D01*
X1777183Y279618D01*
Y277078D01*
X1767026D01*
X1797496Y272000D02*
Y282157D01*
X1800035D01*
X1802574Y279618D01*
Y272000D01*
Y279618D01*
X1805114Y282157D01*
X1807653Y279618D01*
Y272000D01*
X1815270Y282157D02*
X1820349D01*
X1822888Y279618D01*
Y272000D01*
X1815270D01*
X1812731Y274539D01*
X1815270Y277078D01*
X1822888D01*
X1827966Y272000D02*
Y282157D01*
X1835584D01*
X1838123Y279618D01*
Y272000D01*
X1843201D02*
Y282157D01*
X1850819D01*
X1853358Y279618D01*
Y272000D01*
X1866054D02*
X1860976D01*
X1858436Y274539D01*
Y279618D01*
X1860976Y282157D01*
X1866054D01*
X1868593Y279618D01*
Y277078D01*
X1858436D01*
X1873672Y282157D02*
Y272000D01*
Y277078D01*
X1876211Y279618D01*
X1878750Y282157D01*
X1881289D01*
X1891446Y269461D02*
X1893985Y272000D01*
Y274539D01*
X1891446D01*
Y272000D01*
X1893985D01*
X1891446Y269461D01*
X1888907Y266922D01*
X1919377Y287235D02*
Y272000D01*
X1926994D01*
X1929533Y274539D01*
Y277078D01*
Y279618D01*
X1926994Y282157D01*
X1919377D01*
X1934612D02*
Y274539D01*
X1937151Y272000D01*
X1944769D01*
Y282157D01*
X1952386Y284696D02*
Y282157D01*
X1949847D01*
X1954925D01*
X1952386D01*
Y274539D01*
X1954925Y272000D01*
X1977778D02*
Y282157D01*
X1985395D01*
X1987935Y279618D01*
Y272000D01*
X1995552D02*
X2000630D01*
X2003170Y274539D01*
Y279618D01*
X2000630Y282157D01*
X1995552D01*
X1993013Y279618D01*
Y274539D01*
X1995552Y272000D01*
X2010787Y284696D02*
Y282157D01*
X2008248D01*
X2013326D01*
X2010787D01*
Y274539D01*
X2013326Y272000D01*
X2036179D02*
X2041257D01*
X2038718D01*
Y282157D01*
X2036179D01*
X2048875Y272000D02*
Y282157D01*
X2056492D01*
X2059032Y279618D01*
Y272000D01*
X2081884Y282157D02*
X2086962D01*
X2089502Y279618D01*
Y272000D01*
X2081884D01*
X2079345Y274539D01*
X2081884Y277078D01*
X2089502D01*
X2094580Y272000D02*
Y282157D01*
X2102198D01*
X2104737Y279618D01*
Y272000D01*
X2109815Y282157D02*
Y274539D01*
X2112354Y272000D01*
X2119972D01*
Y269461D01*
X2117433Y266922D01*
X2114893D01*
X2119972Y272000D02*
Y282157D01*
X858000Y297000D02*
Y307157D01*
X863078Y312235D01*
X868157Y307157D01*
Y297000D01*
Y304618D01*
X858000D01*
X875774Y309696D02*
Y307157D01*
X873235D01*
X878314D01*
X875774D01*
Y299539D01*
X878314Y297000D01*
X888470Y309696D02*
Y307157D01*
X885931D01*
X891009D01*
X888470D01*
Y299539D01*
X891009Y297000D01*
X898627Y307157D02*
Y297000D01*
Y302078D01*
X901166Y304618D01*
X903705Y307157D01*
X906244D01*
X913862Y297000D02*
X918940D01*
X916401D01*
Y307157D01*
X913862D01*
X926558Y312235D02*
Y297000D01*
X934175D01*
X936715Y299539D01*
Y302078D01*
Y304618D01*
X934175Y307157D01*
X926558D01*
X941793D02*
Y299539D01*
X944332Y297000D01*
X951950D01*
Y307157D01*
X959567Y309696D02*
Y307157D01*
X957028D01*
X962106D01*
X959567D01*
Y299539D01*
X962106Y297000D01*
X969724D02*
X974802D01*
X972263D01*
Y307157D01*
X969724D01*
X984959Y297000D02*
X990037D01*
X992577Y299539D01*
Y304618D01*
X990037Y307157D01*
X984959D01*
X982420Y304618D01*
Y299539D01*
X984959Y297000D01*
X997655D02*
Y307157D01*
X1005272D01*
X1007812Y304618D01*
Y297000D01*
X1028125Y304618D02*
X1038282D01*
X1058595Y312235D02*
Y309696D01*
X1063673Y304618D01*
X1068752Y309696D01*
Y312235D01*
X1063673Y304618D02*
Y297000D01*
X1076369D02*
X1081448D01*
X1083987Y299539D01*
Y304618D01*
X1081448Y307157D01*
X1076369D01*
X1073830Y304618D01*
Y299539D01*
X1076369Y297000D01*
X1089065Y307157D02*
Y299539D01*
X1091604Y297000D01*
X1099222D01*
Y307157D01*
X1119535Y297000D02*
Y307157D01*
X1122075D01*
X1124614Y304618D01*
Y297000D01*
Y304618D01*
X1127153Y307157D01*
X1129692Y304618D01*
Y297000D01*
X1134771Y307157D02*
Y299539D01*
X1137310Y297000D01*
X1144927D01*
Y307157D01*
X1150005Y297000D02*
X1157623D01*
X1160162Y299539D01*
X1157623Y302078D01*
X1152545D01*
X1150005Y304618D01*
X1152545Y307157D01*
X1160162D01*
X1167780Y309696D02*
Y307157D01*
X1165241D01*
X1170319D01*
X1167780D01*
Y299539D01*
X1170319Y297000D01*
X1198250Y291922D02*
X1200789D01*
X1203328Y294461D01*
Y307157D01*
X1195711D01*
X1193172Y304618D01*
Y299539D01*
X1195711Y297000D01*
X1203328D01*
X1208407D02*
X1213485D01*
X1210946D01*
Y307157D01*
X1208407D01*
X1221103D02*
X1226181Y297000D01*
X1231259Y307157D01*
X1243955Y297000D02*
X1238877D01*
X1236338Y299539D01*
Y304618D01*
X1238877Y307157D01*
X1243955D01*
X1246494Y304618D01*
Y302078D01*
X1236338D01*
X1269347Y307157D02*
X1274425D01*
X1276964Y304618D01*
Y297000D01*
X1269347D01*
X1266808Y299539D01*
X1269347Y302078D01*
X1276964D01*
X1282043Y291922D02*
Y307157D01*
X1289660D01*
X1292200Y304618D01*
Y299539D01*
X1289660Y297000D01*
X1282043D01*
X1297278Y291922D02*
Y307157D01*
X1304895D01*
X1307435Y304618D01*
Y299539D01*
X1304895Y297000D01*
X1297278D01*
X1312513Y307157D02*
Y297000D01*
Y302078D01*
X1315052Y304618D01*
X1317591Y307157D01*
X1320130D01*
X1330287Y297000D02*
X1335366D01*
X1337905Y299539D01*
Y304618D01*
X1335366Y307157D01*
X1330287D01*
X1327748Y304618D01*
Y299539D01*
X1330287Y297000D01*
X1342983Y291922D02*
Y307157D01*
X1350601D01*
X1353140Y304618D01*
Y299539D01*
X1350601Y297000D01*
X1342983D01*
X1358218Y307157D02*
Y297000D01*
Y302078D01*
X1360757Y304618D01*
X1363297Y307157D01*
X1365836D01*
X1373453Y297000D02*
X1378532D01*
X1375992D01*
Y307157D01*
X1373453D01*
X1388688D02*
X1393767D01*
X1396306Y304618D01*
Y297000D01*
X1388688D01*
X1386149Y299539D01*
X1388688Y302078D01*
X1396306D01*
X1403923Y309696D02*
Y307157D01*
X1401384D01*
X1406463D01*
X1403923D01*
Y299539D01*
X1406463Y297000D01*
X1421698D02*
X1416619D01*
X1414080Y299539D01*
Y304618D01*
X1416619Y307157D01*
X1421698D01*
X1424237Y304618D01*
Y302078D01*
X1414080D01*
X1454707Y307157D02*
X1447089D01*
X1444550Y304618D01*
Y299539D01*
X1447089Y297000D01*
X1454707D01*
X1459785Y307157D02*
Y297000D01*
Y302078D01*
X1462325Y304618D01*
X1464864Y307157D01*
X1467403D01*
X1482638Y297000D02*
X1477560D01*
X1475020Y299539D01*
Y304618D01*
X1477560Y307157D01*
X1482638D01*
X1485177Y304618D01*
Y302078D01*
X1475020D01*
X1500412Y312235D02*
Y297000D01*
X1492795D01*
X1490255Y299539D01*
Y304618D01*
X1492795Y307157D01*
X1500412D01*
X1505491Y297000D02*
X1510569D01*
X1508030D01*
Y307157D01*
X1505491D01*
X1520726Y309696D02*
Y307157D01*
X1518186D01*
X1523265D01*
X1520726D01*
Y299539D01*
X1523265Y297000D01*
X1533421Y294461D02*
X1535961Y297000D01*
Y299539D01*
X1533421D01*
Y297000D01*
X1535961D01*
X1533421Y294461D01*
X1530882Y291922D01*
X1561353D02*
Y307157D01*
X1568970D01*
X1571509Y304618D01*
Y299539D01*
X1568970Y297000D01*
X1561353D01*
X1576588Y307157D02*
Y297000D01*
Y302078D01*
X1579127Y304618D01*
X1581666Y307157D01*
X1584205D01*
X1594362Y297000D02*
X1599440D01*
X1601979Y299539D01*
Y304618D01*
X1599440Y307157D01*
X1594362D01*
X1591823Y304618D01*
Y299539D01*
X1594362Y297000D01*
X1607058Y307157D02*
X1612136Y297000D01*
X1617214Y307157D01*
X1622293Y297000D02*
X1627371D01*
X1624832D01*
Y307157D01*
X1622293D01*
X1645145Y312235D02*
Y297000D01*
X1637528D01*
X1634989Y299539D01*
Y304618D01*
X1637528Y307157D01*
X1645145D01*
X1657841Y297000D02*
X1652763D01*
X1650224Y299539D01*
Y304618D01*
X1652763Y307157D01*
X1657841D01*
X1660380Y304618D01*
Y302078D01*
X1650224D01*
X1683233Y307157D02*
X1688311D01*
X1690851Y304618D01*
Y297000D01*
X1683233D01*
X1680694Y299539D01*
X1683233Y302078D01*
X1690851D01*
X1711164Y297000D02*
X1716242D01*
X1713703D01*
Y312235D01*
X1711164D01*
X1723860Y297000D02*
X1728938D01*
X1726399D01*
Y307157D01*
X1723860D01*
X1736556Y297000D02*
Y307157D01*
X1744173D01*
X1746712Y304618D01*
Y297000D01*
X1751791D02*
Y312235D01*
Y302078D02*
X1759408Y307157D01*
X1751791Y302078D02*
X1759408Y297000D01*
X1784800Y309696D02*
Y307157D01*
X1782261D01*
X1787339D01*
X1784800D01*
Y299539D01*
X1787339Y297000D01*
X1797496D02*
X1802574D01*
X1805114Y299539D01*
Y304618D01*
X1802574Y307157D01*
X1797496D01*
X1794957Y304618D01*
Y299539D01*
X1797496Y297000D01*
X1827966Y309696D02*
Y307157D01*
X1825427D01*
X1830505D01*
X1827966D01*
Y299539D01*
X1830505Y297000D01*
X1838123Y312235D02*
Y297000D01*
Y304618D01*
X1840662Y307157D01*
X1845740D01*
X1848280Y304618D01*
Y297000D01*
X1860975D02*
X1855897D01*
X1853358Y299539D01*
Y304618D01*
X1855897Y307157D01*
X1860975D01*
X1863515Y304618D01*
Y302078D01*
X1853358D01*
X1883828Y297000D02*
X1888907D01*
X1886367D01*
Y312235D01*
X1883828D01*
X1896524Y297000D02*
X1901602D01*
X1899063D01*
Y307157D01*
X1896524D01*
X1919377D02*
X1911759D01*
X1909220Y304618D01*
Y299539D01*
X1911759Y297000D01*
X1919377D01*
X1932072D02*
X1926994D01*
X1924455Y299539D01*
Y304618D01*
X1926994Y307157D01*
X1932072D01*
X1934612Y304618D01*
Y302078D01*
X1924455D01*
X1939690Y297000D02*
Y307157D01*
X1947308D01*
X1949847Y304618D01*
Y297000D01*
X1954925D02*
X1962543D01*
X1965082Y299539D01*
X1962543Y302078D01*
X1957464D01*
X1954925Y304618D01*
X1957464Y307157D01*
X1965082D01*
X1977778Y297000D02*
X1972699D01*
X1970160Y299539D01*
Y304618D01*
X1972699Y307157D01*
X1977778D01*
X1980317Y304618D01*
Y302078D01*
X1970160D01*
X1987934Y294461D02*
X1990474Y297000D01*
Y299539D01*
X1987934D01*
Y297000D01*
X1990474D01*
X1987934Y294461D01*
X1985395Y291922D01*
X2018405Y307157D02*
X2023483D01*
X2026022Y304618D01*
Y297000D01*
X2018405D01*
X2015865Y299539D01*
X2018405Y302078D01*
X2026022D01*
X2031100Y297000D02*
Y307157D01*
X2038718D01*
X2041257Y304618D01*
Y297000D01*
X2056492Y312235D02*
Y297000D01*
X2048875D01*
X2046335Y299539D01*
Y304618D01*
X2048875Y307157D01*
X2056492D01*
X858000Y337235D02*
Y324539D01*
X860539Y322000D01*
X865618D01*
X868157Y324539D01*
Y337235D01*
X873235Y322000D02*
Y332157D01*
X880853D01*
X883392Y329618D01*
Y322000D01*
X898627Y337235D02*
Y322000D01*
X891009D01*
X888470Y324539D01*
Y329618D01*
X891009Y332157D01*
X898627D01*
X911323Y322000D02*
X906244D01*
X903705Y324539D01*
Y329618D01*
X906244Y332157D01*
X911323D01*
X913862Y329618D01*
Y327078D01*
X903705D01*
X918940Y332157D02*
Y322000D01*
Y327078D01*
X921479Y329618D01*
X924019Y332157D01*
X926558D01*
X951950Y334696D02*
Y332157D01*
X949410D01*
X954489D01*
X951950D01*
Y324539D01*
X954489Y322000D01*
X962106Y337235D02*
Y322000D01*
Y329618D01*
X964645Y332157D01*
X969724D01*
X972263Y329618D01*
Y322000D01*
X984959D02*
X979881D01*
X977341Y324539D01*
Y329618D01*
X979881Y332157D01*
X984959D01*
X987498Y329618D01*
Y327078D01*
X977341D01*
X1010351Y322000D02*
Y334696D01*
Y329618D01*
X1007812D01*
X1012890D01*
X1010351D01*
Y334696D01*
X1012890Y337235D01*
X1023047Y322000D02*
X1028125D01*
X1030664Y324539D01*
Y329618D01*
X1028125Y332157D01*
X1023047D01*
X1020508Y329618D01*
Y324539D01*
X1023047Y322000D01*
X1035742D02*
X1040821D01*
X1038282D01*
Y337235D01*
X1035742D01*
X1048438Y322000D02*
X1053517D01*
X1050978D01*
Y337235D01*
X1048438D01*
X1063673Y322000D02*
X1068752D01*
X1071291Y324539D01*
Y329618D01*
X1068752Y332157D01*
X1063673D01*
X1061134Y329618D01*
Y324539D01*
X1063673Y322000D01*
X1076369Y332157D02*
Y324539D01*
X1078909Y322000D01*
X1081448Y324539D01*
X1083987Y322000D01*
X1086526Y324539D01*
Y332157D01*
X1091604Y322000D02*
X1096683D01*
X1094144D01*
Y332157D01*
X1091604D01*
X1104300Y322000D02*
Y332157D01*
X1111918D01*
X1114457Y329618D01*
Y322000D01*
X1124614Y316922D02*
X1127153D01*
X1129692Y319461D01*
Y332157D01*
X1122075D01*
X1119535Y329618D01*
Y324539D01*
X1122075Y322000D01*
X1129692D01*
X1152545Y334696D02*
Y332157D01*
X1150005D01*
X1155084D01*
X1152545D01*
Y324539D01*
X1155084Y322000D01*
X1170319D02*
X1165241D01*
X1162701Y324539D01*
Y329618D01*
X1165241Y332157D01*
X1170319D01*
X1172858Y329618D01*
Y327078D01*
X1162701D01*
X1177936Y332157D02*
Y322000D01*
Y327078D01*
X1180476Y329618D01*
X1183015Y332157D01*
X1185554D01*
X1193172Y322000D02*
Y332157D01*
X1195711D01*
X1198250Y329618D01*
Y322000D01*
Y329618D01*
X1200789Y332157D01*
X1203328Y329618D01*
Y322000D01*
X1208407D02*
X1216024D01*
X1218563Y324539D01*
X1216024Y327078D01*
X1210946D01*
X1208407Y329618D01*
X1210946Y332157D01*
X1218563D01*
X1223642D02*
X1226181D01*
Y329618D01*
X1223642D01*
Y332157D01*
Y324539D02*
X1226181D01*
Y322000D01*
X1223642D01*
Y324539D01*
X858000Y387235D02*
X868157D01*
X863078D01*
Y372000D01*
X873235Y387235D02*
Y372000D01*
Y379618D01*
X875774Y382157D01*
X880853D01*
X883392Y379618D01*
Y372000D01*
X896088D02*
X891009D01*
X888470Y374539D01*
Y379618D01*
X891009Y382157D01*
X896088D01*
X898627Y379618D01*
Y377078D01*
X888470D01*
X918940Y372000D02*
X924019D01*
X921479D01*
Y387235D01*
X918940D01*
X931636Y372000D02*
X936715D01*
X934175D01*
Y382157D01*
X931636D01*
X954489D02*
X946871D01*
X944332Y379618D01*
Y374539D01*
X946871Y372000D01*
X954489D01*
X967185D02*
X962106D01*
X959567Y374539D01*
Y379618D01*
X962106Y382157D01*
X967185D01*
X969724Y379618D01*
Y377078D01*
X959567D01*
X974802Y372000D02*
Y382157D01*
X982420D01*
X984959Y379618D01*
Y372000D01*
X990037D02*
X997655D01*
X1000194Y374539D01*
X997655Y377078D01*
X992577D01*
X990037Y379618D01*
X992577Y382157D01*
X1000194D01*
X1007812Y372000D02*
X1012890D01*
X1015429Y374539D01*
Y379618D01*
X1012890Y382157D01*
X1007812D01*
X1005272Y379618D01*
Y374539D01*
X1007812Y372000D01*
X1020508Y382157D02*
Y372000D01*
Y377078D01*
X1023047Y379618D01*
X1025586Y382157D01*
X1028125D01*
X1061134D02*
X1053517D01*
X1050978Y379618D01*
Y374539D01*
X1053517Y372000D01*
X1061134D01*
X1068752Y382157D02*
X1073830D01*
X1076369Y379618D01*
Y372000D01*
X1068752D01*
X1066213Y374539D01*
X1068752Y377078D01*
X1076369D01*
X1081448Y372000D02*
Y382157D01*
X1089065D01*
X1091605Y379618D01*
Y372000D01*
X1096683D02*
Y382157D01*
X1104300D01*
X1106840Y379618D01*
Y372000D01*
X1114457D02*
X1119535D01*
X1122075Y374539D01*
Y379618D01*
X1119535Y382157D01*
X1114457D01*
X1111918Y379618D01*
Y374539D01*
X1114457Y372000D01*
X1129692Y384696D02*
Y382157D01*
X1127153D01*
X1132231D01*
X1129692D01*
Y374539D01*
X1132231Y372000D01*
X1155084Y382157D02*
Y372000D01*
Y377078D01*
X1157623Y379618D01*
X1160162Y382157D01*
X1162701D01*
X1177936Y372000D02*
X1172858D01*
X1170319Y374539D01*
Y379618D01*
X1172858Y382157D01*
X1177936D01*
X1180476Y379618D01*
Y377078D01*
X1170319D01*
X1185554Y382157D02*
X1190632Y372000D01*
X1195711Y382157D01*
X1203328Y372000D02*
X1208407D01*
X1210946Y374539D01*
Y379618D01*
X1208407Y382157D01*
X1203328D01*
X1200789Y379618D01*
Y374539D01*
X1203328Y372000D01*
X1216024D02*
Y387235D01*
Y377078D02*
X1223642Y382157D01*
X1216024Y377078D02*
X1223642Y372000D01*
X1238877D02*
X1233799D01*
X1231259Y374539D01*
Y379618D01*
X1233799Y382157D01*
X1238877D01*
X1241416Y379618D01*
Y377078D01*
X1231259D01*
X1264269Y384696D02*
Y382157D01*
X1261729D01*
X1266808D01*
X1264269D01*
Y374539D01*
X1266808Y372000D01*
X1274425Y387235D02*
Y372000D01*
Y379618D01*
X1276964Y382157D01*
X1282043D01*
X1284582Y379618D01*
Y372000D01*
X1297278D02*
X1292200D01*
X1289660Y374539D01*
Y379618D01*
X1292200Y382157D01*
X1297278D01*
X1299817Y379618D01*
Y377078D01*
X1289660D01*
X1304895Y372000D02*
X1312513D01*
X1315052Y374539D01*
X1312513Y377078D01*
X1307435D01*
X1304895Y379618D01*
X1307435Y382157D01*
X1315052D01*
X1327748Y372000D02*
X1322670D01*
X1320130Y374539D01*
Y379618D01*
X1322670Y382157D01*
X1327748D01*
X1330287Y379618D01*
Y377078D01*
X1320130D01*
X1353140Y372000D02*
Y384696D01*
Y379618D01*
X1350601D01*
X1355679D01*
X1353140D01*
Y384696D01*
X1355679Y387235D01*
X1363297Y382157D02*
Y372000D01*
Y377078D01*
X1365836Y379618D01*
X1368375Y382157D01*
X1370914D01*
X1386149Y372000D02*
X1381071D01*
X1378532Y374539D01*
Y379618D01*
X1381071Y382157D01*
X1386149D01*
X1388688Y379618D01*
Y377078D01*
X1378532D01*
X1401384Y372000D02*
X1396306D01*
X1393767Y374539D01*
Y379618D01*
X1396306Y382157D01*
X1401384D01*
X1403923Y379618D01*
Y377078D01*
X1393767D01*
X1419158Y387235D02*
Y372000D01*
X1411541D01*
X1409002Y374539D01*
Y379618D01*
X1411541Y382157D01*
X1419158D01*
X1426776Y372000D02*
X1431854D01*
X1434394Y374539D01*
Y379618D01*
X1431854Y382157D01*
X1426776D01*
X1424237Y379618D01*
Y374539D01*
X1426776Y372000D01*
X1439472D02*
Y382157D01*
X1442011D01*
X1444550Y379618D01*
Y372000D01*
Y379618D01*
X1447090Y382157D01*
X1449629Y379618D01*
Y372000D01*
X1454707D02*
X1462325D01*
X1464864Y374539D01*
X1462325Y377078D01*
X1457246D01*
X1454707Y379618D01*
X1457246Y382157D01*
X1464864D01*
X1487716D02*
X1492795D01*
X1495334Y379618D01*
Y372000D01*
X1487716D01*
X1485177Y374539D01*
X1487716Y377078D01*
X1495334D01*
X1500412Y372000D02*
X1508030D01*
X1510569Y374539D01*
X1508030Y377078D01*
X1502951D01*
X1500412Y379618D01*
X1502951Y382157D01*
X1510569D01*
X1530882Y372000D02*
X1535961D01*
X1533421D01*
Y387235D01*
X1530882D01*
X1546117Y372000D02*
X1551196D01*
X1553735Y374539D01*
Y379618D01*
X1551196Y382157D01*
X1546117D01*
X1543578Y379618D01*
Y374539D01*
X1546117Y372000D01*
X1558813D02*
Y382157D01*
X1566431D01*
X1568970Y379618D01*
Y372000D01*
X1579127Y366922D02*
X1581666D01*
X1584205Y369461D01*
Y382157D01*
X1576588D01*
X1574048Y379618D01*
Y374539D01*
X1576588Y372000D01*
X1584205D01*
X1607058Y382157D02*
X1612136D01*
X1614675Y379618D01*
Y372000D01*
X1607058D01*
X1604518Y374539D01*
X1607058Y377078D01*
X1614675D01*
X1619754Y372000D02*
X1627371D01*
X1629910Y374539D01*
X1627371Y377078D01*
X1622293D01*
X1619754Y379618D01*
X1622293Y382157D01*
X1629910D01*
X1650224D02*
Y374539D01*
X1652763Y372000D01*
X1660381D01*
Y369461D01*
X1657841Y366922D01*
X1655302D01*
X1660381Y372000D02*
Y382157D01*
X1667998Y372000D02*
X1673076D01*
X1675616Y374539D01*
Y379618D01*
X1673076Y382157D01*
X1667998D01*
X1665459Y379618D01*
Y374539D01*
X1667998Y372000D01*
X1680694Y382157D02*
Y374539D01*
X1683233Y372000D01*
X1690851D01*
Y382157D01*
X1713703Y372000D02*
Y384696D01*
Y379618D01*
X1711164D01*
X1716242D01*
X1713703D01*
Y384696D01*
X1716242Y387235D01*
X1726399Y372000D02*
X1731478D01*
X1734017Y374539D01*
Y379618D01*
X1731478Y382157D01*
X1726399D01*
X1723860Y379618D01*
Y374539D01*
X1726399Y372000D01*
X1739095D02*
X1744173D01*
X1741634D01*
Y387235D01*
X1739095D01*
X1751791Y372000D02*
X1756869D01*
X1754330D01*
Y387235D01*
X1751791D01*
X1767026Y372000D02*
X1772104D01*
X1774644Y374539D01*
Y379618D01*
X1772104Y382157D01*
X1767026D01*
X1764487Y379618D01*
Y374539D01*
X1767026Y372000D01*
X1779722Y382157D02*
Y374539D01*
X1782261Y372000D01*
X1784800Y374539D01*
X1787339Y372000D01*
X1789879Y374539D01*
Y382157D01*
X1812731Y384696D02*
Y382157D01*
X1810192D01*
X1815270D01*
X1812731D01*
Y374539D01*
X1815270Y372000D01*
X1822888Y387235D02*
Y372000D01*
Y379618D01*
X1825427Y382157D01*
X1830505D01*
X1833045Y379618D01*
Y372000D01*
X1845741D02*
X1840662D01*
X1838123Y374539D01*
Y379618D01*
X1840662Y382157D01*
X1845741D01*
X1848280Y379618D01*
Y377078D01*
X1838123D01*
X1868593Y372000D02*
X1873671D01*
X1871132D01*
Y387235D01*
X1868593D01*
X1881289Y372000D02*
X1886367D01*
X1883828D01*
Y382157D01*
X1881289D01*
X1904142D02*
X1896524D01*
X1893985Y379618D01*
Y374539D01*
X1896524Y372000D01*
X1904142D01*
X1916837D02*
X1911759D01*
X1909220Y374539D01*
Y379618D01*
X1911759Y382157D01*
X1916837D01*
X1919377Y379618D01*
Y377078D01*
X1909220D01*
X1924455Y372000D02*
Y382157D01*
X1932072D01*
X1934612Y379618D01*
Y372000D01*
X1939690D02*
X1947308D01*
X1949847Y374539D01*
X1947308Y377078D01*
X1942229D01*
X1939690Y379618D01*
X1942229Y382157D01*
X1949847D01*
X1962543Y372000D02*
X1957464D01*
X1954925Y374539D01*
Y379618D01*
X1957464Y382157D01*
X1962543D01*
X1965082Y379618D01*
Y377078D01*
X1954925D01*
X1987935Y384696D02*
Y382157D01*
X1985395D01*
X1990474D01*
X1987935D01*
Y374539D01*
X1990474Y372000D01*
X2005709D02*
X2000630D01*
X1998091Y374539D01*
Y379618D01*
X2000630Y382157D01*
X2005709D01*
X2008248Y379618D01*
Y377078D01*
X1998091D01*
X2013326Y382157D02*
Y372000D01*
Y377078D01*
X2015865Y379618D01*
X2018405Y382157D01*
X2020944D01*
X2028561Y372000D02*
Y382157D01*
X2031100D01*
X2033640Y379618D01*
Y372000D01*
Y379618D01*
X2036179Y382157D01*
X2038718Y379618D01*
Y372000D01*
X2043796D02*
X2051414D01*
X2053953Y374539D01*
X2051414Y377078D01*
X2046336D01*
X2043796Y379618D01*
X2046336Y382157D01*
X2053953D01*
X2059032Y372000D02*
Y374539D01*
X2061571D01*
Y372000D01*
X2059032D01*
X860539Y422000D02*
Y434696D01*
Y429618D01*
X858000D01*
X863078D01*
X860539D01*
Y434696D01*
X863078Y437235D01*
X873235Y422000D02*
X878314D01*
X880853Y424539D01*
Y429618D01*
X878314Y432157D01*
X873235D01*
X870696Y429618D01*
Y424539D01*
X873235Y422000D01*
X885931Y432157D02*
Y422000D01*
Y427078D01*
X888470Y429618D01*
X891009Y432157D01*
X893549D01*
X918940D02*
X924019D01*
X926558Y429618D01*
Y422000D01*
X918940D01*
X916401Y424539D01*
X918940Y427078D01*
X926558D01*
X931636Y422000D02*
Y432157D01*
X939254D01*
X941793Y429618D01*
Y422000D01*
X946871Y432157D02*
Y424539D01*
X949410Y422000D01*
X957028D01*
Y419461D01*
X954489Y416922D01*
X951950D01*
X957028Y422000D02*
Y432157D01*
X977341Y416922D02*
Y432157D01*
X984959D01*
X987498Y429618D01*
Y424539D01*
X984959Y422000D01*
X977341D01*
X992577Y432157D02*
Y424539D01*
X995116Y422000D01*
X1002733D01*
Y432157D01*
X1007812D02*
Y422000D01*
Y427078D01*
X1010351Y429618D01*
X1012890Y432157D01*
X1015429D01*
X1023047Y416922D02*
Y432157D01*
X1030664D01*
X1033203Y429618D01*
Y424539D01*
X1030664Y422000D01*
X1023047D01*
X1040821D02*
X1045899D01*
X1048438Y424539D01*
Y429618D01*
X1045899Y432157D01*
X1040821D01*
X1038282Y429618D01*
Y424539D01*
X1040821Y422000D01*
X1053517D02*
X1061134D01*
X1063673Y424539D01*
X1061134Y427078D01*
X1056056D01*
X1053517Y429618D01*
X1056056Y432157D01*
X1063673D01*
X1076369Y422000D02*
X1071291D01*
X1068752Y424539D01*
Y429618D01*
X1071291Y432157D01*
X1076369D01*
X1078909Y429618D01*
Y427078D01*
X1068752D01*
X1086526Y419461D02*
X1089065Y422000D01*
Y424539D01*
X1086526D01*
Y422000D01*
X1089065D01*
X1086526Y419461D01*
X1083987Y416922D01*
X1122075Y422000D02*
X1116996D01*
X1114457Y424539D01*
Y429618D01*
X1116996Y432157D01*
X1122075D01*
X1124614Y429618D01*
Y427078D01*
X1114457D01*
X1129692Y432157D02*
X1134771Y422000D01*
X1139849Y432157D01*
X1152545Y422000D02*
X1147466D01*
X1144927Y424539D01*
Y429618D01*
X1147466Y432157D01*
X1152545D01*
X1155084Y429618D01*
Y427078D01*
X1144927D01*
X1160162Y422000D02*
Y432157D01*
X1167780D01*
X1170319Y429618D01*
Y422000D01*
X1200789Y432157D02*
X1193172D01*
X1190632Y429618D01*
Y424539D01*
X1193172Y422000D01*
X1200789D01*
X1208407D02*
X1213485D01*
X1216024Y424539D01*
Y429618D01*
X1213485Y432157D01*
X1208407D01*
X1205867Y429618D01*
Y424539D01*
X1208407Y422000D01*
X1221103D02*
Y432157D01*
X1223642D01*
X1226181Y429618D01*
Y422000D01*
Y429618D01*
X1228720Y432157D01*
X1231259Y429618D01*
Y422000D01*
X1236338D02*
Y432157D01*
X1238877D01*
X1241416Y429618D01*
Y422000D01*
Y429618D01*
X1243955Y432157D01*
X1246494Y429618D01*
Y422000D01*
X1259190D02*
X1254112D01*
X1251573Y424539D01*
Y429618D01*
X1254112Y432157D01*
X1259190D01*
X1261730Y429618D01*
Y427078D01*
X1251573D01*
X1266808Y432157D02*
Y422000D01*
Y427078D01*
X1269347Y429618D01*
X1271886Y432157D01*
X1274425D01*
X1292200D02*
X1284582D01*
X1282043Y429618D01*
Y424539D01*
X1284582Y422000D01*
X1292200D01*
X1297278D02*
X1302356D01*
X1299817D01*
Y432157D01*
X1297278D01*
X1312513D02*
X1317591D01*
X1320131Y429618D01*
Y422000D01*
X1312513D01*
X1309974Y424539D01*
X1312513Y427078D01*
X1320131D01*
X1325209Y422000D02*
X1330287D01*
X1327748D01*
Y437235D01*
X1325209D01*
X1337905Y422000D02*
X1342983D01*
X1340444D01*
Y437235D01*
X1337905D01*
X1350601Y432157D02*
Y424539D01*
X1353140Y422000D01*
X1360757D01*
Y419461D01*
X1358218Y416922D01*
X1355679D01*
X1360757Y422000D02*
Y432157D01*
X1365836Y422000D02*
Y424539D01*
X1368375D01*
Y422000D01*
X1365836D01*
X858000Y447000D02*
Y457157D01*
X863078Y462235D01*
X868157Y457157D01*
Y447000D01*
Y454618D01*
X858000D01*
X883392Y462235D02*
Y447000D01*
X875774D01*
X873235Y449539D01*
Y454618D01*
X875774Y457157D01*
X883392D01*
X891009D02*
X896088D01*
X898627Y454618D01*
Y447000D01*
X891009D01*
X888470Y449539D01*
X891009Y452078D01*
X898627D01*
X903705Y441922D02*
Y457157D01*
X911323D01*
X913862Y454618D01*
Y449539D01*
X911323Y447000D01*
X903705D01*
X921479Y459696D02*
Y457157D01*
X918940D01*
X924019D01*
X921479D01*
Y449539D01*
X924019Y447000D01*
X946871Y454618D02*
X957028D01*
X977341Y457157D02*
Y447000D01*
Y452078D01*
X979881Y454618D01*
X982420Y457157D01*
X984959D01*
X1000194Y447000D02*
X995116D01*
X992577Y449539D01*
Y454618D01*
X995116Y457157D01*
X1000194D01*
X1002733Y454618D01*
Y452078D01*
X992577D01*
X1007812Y447000D02*
Y457157D01*
X1010351D01*
X1012890Y454618D01*
Y447000D01*
Y454618D01*
X1015429Y457157D01*
X1017968Y454618D01*
Y447000D01*
X1023047D02*
X1028125D01*
X1025586D01*
Y457157D01*
X1023047D01*
X1035742D02*
X1045899Y447000D01*
X1040821Y452078D01*
X1045899Y457157D01*
X1035742Y447000D01*
X1053517Y444461D02*
X1056056Y447000D01*
Y449539D01*
X1053517D01*
Y447000D01*
X1056056D01*
X1053517Y444461D01*
X1050978Y441922D01*
X1083987Y459696D02*
Y457157D01*
X1081448D01*
X1086526D01*
X1083987D01*
Y449539D01*
X1086526Y447000D01*
X1094144Y457157D02*
Y447000D01*
Y452078D01*
X1096683Y454618D01*
X1099222Y457157D01*
X1101761D01*
X1111918D02*
X1116996D01*
X1119535Y454618D01*
Y447000D01*
X1111918D01*
X1109379Y449539D01*
X1111918Y452078D01*
X1119535D01*
X1124614Y447000D02*
Y457157D01*
X1132231D01*
X1134771Y454618D01*
Y447000D01*
X1139849D02*
X1147466D01*
X1150006Y449539D01*
X1147466Y452078D01*
X1142388D01*
X1139849Y454618D01*
X1142388Y457157D01*
X1150006D01*
X1157623Y447000D02*
Y459696D01*
Y454618D01*
X1155084D01*
X1160162D01*
X1157623D01*
Y459696D01*
X1160162Y462235D01*
X1170319Y447000D02*
X1175397D01*
X1177936Y449539D01*
Y454618D01*
X1175397Y457157D01*
X1170319D01*
X1167780Y454618D01*
Y449539D01*
X1170319Y447000D01*
X1183015Y457157D02*
Y447000D01*
Y452078D01*
X1185554Y454618D01*
X1188093Y457157D01*
X1190632D01*
X1198250Y447000D02*
Y457157D01*
X1200789D01*
X1203328Y454618D01*
Y447000D01*
Y454618D01*
X1205867Y457157D01*
X1208407Y454618D01*
Y447000D01*
X1216024Y444461D02*
X1218563Y447000D01*
Y449539D01*
X1216024D01*
Y447000D01*
X1218563D01*
X1216024Y444461D01*
X1213485Y441922D01*
X1246494Y457157D02*
X1251573D01*
X1254112Y454618D01*
Y447000D01*
X1246494D01*
X1243955Y449539D01*
X1246494Y452078D01*
X1254112D01*
X1259190Y447000D02*
Y457157D01*
X1266808D01*
X1269347Y454618D01*
Y447000D01*
X1284582Y462235D02*
Y447000D01*
X1276964D01*
X1274425Y449539D01*
Y454618D01*
X1276964Y457157D01*
X1284582D01*
X1304895Y462235D02*
Y447000D01*
X1312513D01*
X1315052Y449539D01*
Y452078D01*
Y454618D01*
X1312513Y457157D01*
X1304895D01*
X1320130D02*
Y449539D01*
X1322670Y447000D01*
X1330287D01*
Y457157D01*
X1335366Y447000D02*
X1340444D01*
X1337905D01*
Y457157D01*
X1335366D01*
X1348062Y447000D02*
X1353140D01*
X1350601D01*
Y462235D01*
X1348062D01*
X1370914D02*
Y447000D01*
X1363297D01*
X1360757Y449539D01*
Y454618D01*
X1363297Y457157D01*
X1370914D01*
X1391228D02*
Y449539D01*
X1393767Y447000D01*
X1401384D01*
Y457157D01*
X1406463Y441922D02*
Y457157D01*
X1414080D01*
X1416619Y454618D01*
Y449539D01*
X1414080Y447000D01*
X1406463D01*
X1424237D02*
X1429315D01*
X1431854Y449539D01*
Y454618D01*
X1429315Y457157D01*
X1424237D01*
X1421698Y454618D01*
Y449539D01*
X1424237Y447000D01*
X1436933D02*
Y457157D01*
X1444550D01*
X1447090Y454618D01*
Y447000D01*
X1469942Y459696D02*
Y457157D01*
X1467403D01*
X1472481D01*
X1469942D01*
Y449539D01*
X1472481Y447000D01*
X1480099Y462235D02*
Y447000D01*
Y454618D01*
X1482638Y457157D01*
X1487716D01*
X1490255Y454618D01*
Y447000D01*
X1502951D02*
X1497873D01*
X1495334Y449539D01*
Y454618D01*
X1497873Y457157D01*
X1502951D01*
X1505491Y454618D01*
Y452078D01*
X1495334D01*
X1525804Y447000D02*
Y457157D01*
X1528343D01*
X1530882Y454618D01*
Y447000D01*
Y454618D01*
X1533421Y457157D01*
X1535961Y454618D01*
Y447000D01*
X1543578Y457157D02*
X1548657D01*
X1551196Y454618D01*
Y447000D01*
X1543578D01*
X1541039Y449539D01*
X1543578Y452078D01*
X1551196D01*
X1558813Y459696D02*
Y457157D01*
X1556274D01*
X1561353D01*
X1558813D01*
Y449539D01*
X1561353Y447000D01*
X1576588D02*
X1571509D01*
X1568970Y449539D01*
Y454618D01*
X1571509Y457157D01*
X1576588D01*
X1579127Y454618D01*
Y452078D01*
X1568970D01*
X1584205Y457157D02*
Y447000D01*
Y452078D01*
X1586744Y454618D01*
X1589283Y457157D01*
X1591823D01*
X1599440Y447000D02*
X1604518D01*
X1601979D01*
Y457157D01*
X1599440D01*
X1614675D02*
X1619754D01*
X1622293Y454618D01*
Y447000D01*
X1614675D01*
X1612136Y449539D01*
X1614675Y452078D01*
X1622293D01*
X1627371Y447000D02*
X1632449D01*
X1629910D01*
Y462235D01*
X1627371D01*
X868157Y484696D02*
X865618Y487235D01*
X860539D01*
X858000Y484696D01*
Y482157D01*
X860539Y479618D01*
X865618D01*
X868157Y477078D01*
Y474539D01*
X865618Y472000D01*
X860539D01*
X858000Y474539D01*
X873235Y487235D02*
Y472000D01*
Y479618D01*
X875774Y482157D01*
X880853D01*
X883392Y479618D01*
Y472000D01*
X891009Y482157D02*
X896088D01*
X898627Y479618D01*
Y472000D01*
X891009D01*
X888470Y474539D01*
X891009Y477078D01*
X898627D01*
X903705Y482157D02*
Y472000D01*
Y477078D01*
X906244Y479618D01*
X908784Y482157D01*
X911323D01*
X926558Y472000D02*
X921479D01*
X918940Y474539D01*
Y479618D01*
X921479Y482157D01*
X926558D01*
X929097Y479618D01*
Y477078D01*
X918940D01*
X949410Y479618D02*
X959567D01*
X990037Y482157D02*
X982420D01*
X979881Y479618D01*
Y474539D01*
X982420Y472000D01*
X990037D01*
X997655D02*
X1002733D01*
X1005272Y474539D01*
Y479618D01*
X1002733Y482157D01*
X997655D01*
X995116Y479618D01*
Y474539D01*
X997655Y472000D01*
X1010351Y466922D02*
Y482157D01*
X1017968D01*
X1020508Y479618D01*
Y474539D01*
X1017968Y472000D01*
X1010351D01*
X1025586Y482157D02*
Y474539D01*
X1028125Y472000D01*
X1035743D01*
Y469461D01*
X1033203Y466922D01*
X1030664D01*
X1035743Y472000D02*
Y482157D01*
X1058595D02*
X1063673D01*
X1066213Y479618D01*
Y472000D01*
X1058595D01*
X1056056Y474539D01*
X1058595Y477078D01*
X1066213D01*
X1071291Y472000D02*
Y482157D01*
X1078909D01*
X1081448Y479618D01*
Y472000D01*
X1096683Y487235D02*
Y472000D01*
X1089065D01*
X1086526Y474539D01*
Y479618D01*
X1089065Y482157D01*
X1096683D01*
X1116996D02*
Y472000D01*
Y477078D01*
X1119536Y479618D01*
X1122075Y482157D01*
X1124614D01*
X1139849Y472000D02*
X1134771D01*
X1132231Y474539D01*
Y479618D01*
X1134771Y482157D01*
X1139849D01*
X1142388Y479618D01*
Y477078D01*
X1132231D01*
X1157623Y487235D02*
Y472000D01*
X1150006D01*
X1147466Y474539D01*
Y479618D01*
X1150006Y482157D01*
X1157623D01*
X1162701Y472000D02*
X1167780D01*
X1165241D01*
Y482157D01*
X1162701D01*
X1175397Y472000D02*
X1183015D01*
X1185554Y474539D01*
X1183015Y477078D01*
X1177937D01*
X1175397Y479618D01*
X1177937Y482157D01*
X1185554D01*
X1193172Y484696D02*
Y482157D01*
X1190632D01*
X1195711D01*
X1193172D01*
Y474539D01*
X1195711Y472000D01*
X1203328Y482157D02*
Y472000D01*
Y477078D01*
X1205867Y479618D01*
X1208407Y482157D01*
X1210946D01*
X1218563Y472000D02*
X1223642D01*
X1221103D01*
Y482157D01*
X1218563D01*
X1231259Y487235D02*
Y472000D01*
X1238877D01*
X1241416Y474539D01*
Y477078D01*
Y479618D01*
X1238877Y482157D01*
X1231259D01*
X1246494D02*
Y474539D01*
X1249034Y472000D01*
X1256651D01*
Y482157D01*
X1264269Y484696D02*
Y482157D01*
X1261729D01*
X1266808D01*
X1264269D01*
Y474539D01*
X1266808Y472000D01*
X1282043D02*
X1276964D01*
X1274425Y474539D01*
Y479618D01*
X1276964Y482157D01*
X1282043D01*
X1284582Y479618D01*
Y477078D01*
X1274425D01*
X1307435Y484696D02*
Y482157D01*
X1304895D01*
X1309974D01*
X1307435D01*
Y474539D01*
X1309974Y472000D01*
X1317591Y487235D02*
Y472000D01*
Y479618D01*
X1320130Y482157D01*
X1325209D01*
X1327748Y479618D01*
Y472000D01*
X1340444D02*
X1335366D01*
X1332826Y474539D01*
Y479618D01*
X1335366Y482157D01*
X1340444D01*
X1342983Y479618D01*
Y477078D01*
X1332826D01*
X1363297Y472000D02*
Y482157D01*
X1365836D01*
X1368375Y479618D01*
Y472000D01*
Y479618D01*
X1370914Y482157D01*
X1373453Y479618D01*
Y472000D01*
X1381071Y482157D02*
X1386149D01*
X1388688Y479618D01*
Y472000D01*
X1381071D01*
X1378532Y474539D01*
X1381071Y477078D01*
X1388688D01*
X1396306Y484696D02*
Y482157D01*
X1393767D01*
X1398845D01*
X1396306D01*
Y474539D01*
X1398845Y472000D01*
X1414080D02*
X1409002D01*
X1406463Y474539D01*
Y479618D01*
X1409002Y482157D01*
X1414080D01*
X1416619Y479618D01*
Y477078D01*
X1406463D01*
X1421698Y482157D02*
Y472000D01*
Y477078D01*
X1424237Y479618D01*
X1426776Y482157D01*
X1429315D01*
X1436933Y472000D02*
X1442011D01*
X1439472D01*
Y482157D01*
X1436933D01*
X1452168D02*
X1457246D01*
X1459785Y479618D01*
Y472000D01*
X1452168D01*
X1449629Y474539D01*
X1452168Y477078D01*
X1459785D01*
X1464864Y472000D02*
X1469942D01*
X1467403D01*
Y487235D01*
X1464864D01*
X1492795Y472000D02*
X1497873D01*
X1495334D01*
Y482157D01*
X1492795D01*
X1505491Y472000D02*
Y482157D01*
X1513108D01*
X1515647Y479618D01*
Y472000D01*
X1538500Y482157D02*
X1543578D01*
X1546117Y479618D01*
Y472000D01*
X1538500D01*
X1535961Y474539D01*
X1538500Y477078D01*
X1546117D01*
X1551196Y472000D02*
Y482157D01*
X1558813D01*
X1561353Y479618D01*
Y472000D01*
X1566431Y482157D02*
Y474539D01*
X1568970Y472000D01*
X1576588D01*
Y469461D01*
X1574048Y466922D01*
X1571509D01*
X1576588Y472000D02*
Y482157D01*
X1596901Y472000D02*
Y482157D01*
X1599440D01*
X1601979Y479618D01*
Y472000D01*
Y479618D01*
X1604518Y482157D01*
X1607058Y479618D01*
Y472000D01*
X1619754D02*
X1614675D01*
X1612136Y474539D01*
Y479618D01*
X1614675Y482157D01*
X1619754D01*
X1622293Y479618D01*
Y477078D01*
X1612136D01*
X1637528Y487235D02*
Y472000D01*
X1629910D01*
X1627371Y474539D01*
Y479618D01*
X1629910Y482157D01*
X1637528D01*
X1642606Y472000D02*
X1647684D01*
X1645145D01*
Y482157D01*
X1642606D01*
X1655302D02*
Y474539D01*
X1657841Y472000D01*
X1665459D01*
Y482157D01*
X1670537Y472000D02*
Y482157D01*
X1673076D01*
X1675616Y479618D01*
Y472000D01*
Y479618D01*
X1678155Y482157D01*
X1680694Y479618D01*
Y472000D01*
X1703546D02*
X1708625D01*
X1711164Y474539D01*
Y479618D01*
X1708625Y482157D01*
X1703546D01*
X1701007Y479618D01*
Y474539D01*
X1703546Y472000D01*
X1716242Y482157D02*
Y472000D01*
Y477078D01*
X1718782Y479618D01*
X1721321Y482157D01*
X1723860D01*
X1749252Y472000D02*
Y484696D01*
Y479618D01*
X1746712D01*
X1751791D01*
X1749252D01*
Y484696D01*
X1751791Y487235D01*
X1761948Y472000D02*
X1767026D01*
X1769565Y474539D01*
Y479618D01*
X1767026Y482157D01*
X1761948D01*
X1759408Y479618D01*
Y474539D01*
X1761948Y472000D01*
X1774644Y482157D02*
Y472000D01*
Y477078D01*
X1777183Y479618D01*
X1779722Y482157D01*
X1782261D01*
X1789879Y472000D02*
Y482157D01*
X1792418D01*
X1794957Y479618D01*
Y472000D01*
Y479618D01*
X1797496Y482157D01*
X1800035Y479618D01*
Y472000D01*
X1807653Y482157D02*
X1812731D01*
X1815270Y479618D01*
Y472000D01*
X1807653D01*
X1805114Y474539D01*
X1807653Y477078D01*
X1815270D01*
X1822888Y484696D02*
Y482157D01*
X1820349D01*
X1825427D01*
X1822888D01*
Y474539D01*
X1825427Y472000D01*
X858000Y562235D02*
Y547000D01*
Y554618D01*
X860539Y557157D01*
X865618D01*
X868157Y554618D01*
Y547000D01*
X875774Y559696D02*
Y557157D01*
X873235D01*
X878314D01*
X875774D01*
Y549539D01*
X878314Y547000D01*
X888470Y559696D02*
Y557157D01*
X885931D01*
X891009D01*
X888470D01*
Y549539D01*
X891009Y547000D01*
X898627Y541922D02*
Y557157D01*
X906244D01*
X908784Y554618D01*
Y549539D01*
X906244Y547000D01*
X898627D01*
X913862D02*
X921479D01*
X924019Y549539D01*
X921479Y552078D01*
X916401D01*
X913862Y554618D01*
X916401Y557157D01*
X924019D01*
X929097D02*
X931636D01*
Y554618D01*
X929097D01*
Y557157D01*
Y549539D02*
X931636D01*
Y547000D01*
X929097D01*
Y549539D01*
X941793Y547000D02*
X951950Y557157D01*
X957028Y547000D02*
X967185Y557157D01*
X982420D02*
X974802D01*
X972263Y554618D01*
Y549539D01*
X974802Y547000D01*
X982420D01*
X987498Y557157D02*
Y547000D01*
Y552078D01*
X990037Y554618D01*
X992577Y557157D01*
X995116D01*
X1010351Y547000D02*
X1005272D01*
X1002733Y549539D01*
Y554618D01*
X1005272Y557157D01*
X1010351D01*
X1012890Y554618D01*
Y552078D01*
X1002733D01*
X1020508Y557157D02*
X1025586D01*
X1028125Y554618D01*
Y547000D01*
X1020508D01*
X1017968Y549539D01*
X1020508Y552078D01*
X1028125D01*
X1035742Y559696D02*
Y557157D01*
X1033203D01*
X1038282D01*
X1035742D01*
Y549539D01*
X1038282Y547000D01*
X1045899D02*
X1050978D01*
X1048438D01*
Y557157D01*
X1045899D01*
X1058595D02*
X1063673Y547000D01*
X1068752Y557157D01*
X1081448Y547000D02*
X1076369D01*
X1073830Y549539D01*
Y554618D01*
X1076369Y557157D01*
X1081448D01*
X1083987Y554618D01*
Y552078D01*
X1073830D01*
X1099222Y557157D02*
X1091604D01*
X1089065Y554618D01*
Y549539D01*
X1091604Y547000D01*
X1099222D01*
X1106840D02*
X1111918D01*
X1114457Y549539D01*
Y554618D01*
X1111918Y557157D01*
X1106840D01*
X1104300Y554618D01*
Y549539D01*
X1106840Y547000D01*
X1119535D02*
Y557157D01*
X1122075D01*
X1124614Y554618D01*
Y547000D01*
Y554618D01*
X1127153Y557157D01*
X1129692Y554618D01*
Y547000D01*
X1134771D02*
Y557157D01*
X1137310D01*
X1139849Y554618D01*
Y547000D01*
Y554618D01*
X1142388Y557157D01*
X1144927Y554618D01*
Y547000D01*
X1152545D02*
X1157623D01*
X1160162Y549539D01*
Y554618D01*
X1157623Y557157D01*
X1152545D01*
X1150005Y554618D01*
Y549539D01*
X1152545Y547000D01*
X1165241D02*
Y557157D01*
X1172858D01*
X1175397Y554618D01*
Y547000D01*
X1180476D02*
X1188093D01*
X1190632Y549539D01*
X1188093Y552078D01*
X1183015D01*
X1180476Y554618D01*
X1183015Y557157D01*
X1190632D01*
X1195711Y547000D02*
Y549539D01*
X1198250D01*
Y547000D01*
X1195711D01*
X1210946D02*
X1216024D01*
X1218563Y549539D01*
Y554618D01*
X1216024Y557157D01*
X1210946D01*
X1208407Y554618D01*
Y549539D01*
X1210946Y547000D01*
X1223642Y557157D02*
Y547000D01*
Y552078D01*
X1226181Y554618D01*
X1228720Y557157D01*
X1231259D01*
X1243955Y541922D02*
X1246494D01*
X1249034Y544461D01*
Y557157D01*
X1241416D01*
X1238877Y554618D01*
Y549539D01*
X1241416Y547000D01*
X1249034D01*
X1254112D02*
X1264269Y557157D01*
X1269347Y547000D02*
X1274425D01*
X1271886D01*
Y562235D01*
X1269347D01*
X1282043Y547000D02*
X1287121D01*
X1284582D01*
Y557157D01*
X1282043D01*
X1304895D02*
X1297278D01*
X1294739Y554618D01*
Y549539D01*
X1297278Y547000D01*
X1304895D01*
X1317591D02*
X1312513D01*
X1309974Y549539D01*
Y554618D01*
X1312513Y557157D01*
X1317591D01*
X1320130Y554618D01*
Y552078D01*
X1309974D01*
X1325209Y547000D02*
Y557157D01*
X1332826D01*
X1335366Y554618D01*
Y547000D01*
X1340444D02*
X1348062D01*
X1350601Y549539D01*
X1348062Y552078D01*
X1342983D01*
X1340444Y554618D01*
X1342983Y557157D01*
X1350601D01*
X1363297Y547000D02*
X1358218D01*
X1355679Y549539D01*
Y554618D01*
X1358218Y557157D01*
X1363297D01*
X1365836Y554618D01*
Y552078D01*
X1355679D01*
X1370914Y547000D02*
X1378532D01*
X1381071Y549539D01*
X1378532Y552078D01*
X1373453D01*
X1370914Y554618D01*
X1373453Y557157D01*
X1381071D01*
X1386149Y547000D02*
X1396306Y557157D01*
X1401384Y562235D02*
Y547000D01*
X1409002D01*
X1411541Y549539D01*
Y552078D01*
Y554618D01*
X1409002Y557157D01*
X1401384D01*
X1416619D02*
Y549539D01*
X1419158Y547000D01*
X1426776D01*
Y544461D01*
X1424237Y541922D01*
X1421698D01*
X1426776Y547000D02*
Y557157D01*
X1431854Y554618D02*
X1442011D01*
X1447089Y547000D02*
X1454707D01*
X1457246Y549539D01*
X1454707Y552078D01*
X1449629D01*
X1447089Y554618D01*
X1449629Y557157D01*
X1457246D01*
X1464864D02*
X1469942D01*
X1472481Y554618D01*
Y547000D01*
X1464864D01*
X1462325Y549539D01*
X1464864Y552078D01*
X1472481D01*
X1477560Y547000D02*
X1487716Y557157D01*
X1492795Y559696D02*
X1495334Y562235D01*
X1500412D01*
X1502951Y559696D01*
Y557157D01*
X1500412Y554618D01*
X1497873D01*
X1500412D01*
X1502951Y552078D01*
Y549539D01*
X1500412Y547000D01*
X1495334D01*
X1492795Y549539D01*
X1508030Y547000D02*
Y549539D01*
X1510569D01*
Y547000D01*
X1508030D01*
X1520726Y559696D02*
X1523265Y562235D01*
X1528343D01*
X1530882Y559696D01*
Y549539D01*
X1528343Y547000D01*
X1523265D01*
X1520726Y549539D01*
Y559696D01*
X1535961Y547000D02*
X1546117Y557157D01*
X1551196Y547000D02*
X1556274D01*
X1553735D01*
Y562235D01*
X1551196D01*
X1571509Y547000D02*
X1566431D01*
X1563892Y549539D01*
Y554618D01*
X1566431Y557157D01*
X1571509D01*
X1574048Y554618D01*
Y552078D01*
X1563892D01*
X1584205Y541922D02*
X1586744D01*
X1589283Y544461D01*
Y557157D01*
X1581666D01*
X1579127Y554618D01*
Y549539D01*
X1581666Y547000D01*
X1589283D01*
X1596901Y557157D02*
X1601979D01*
X1604518Y554618D01*
Y547000D01*
X1596901D01*
X1594362Y549539D01*
X1596901Y552078D01*
X1604518D01*
X1609597Y547000D02*
X1614675D01*
X1612136D01*
Y562235D01*
X1609597D01*
X1632449Y557157D02*
X1624832D01*
X1622293Y554618D01*
Y549539D01*
X1624832Y547000D01*
X1632449D01*
X1640067D02*
X1645145D01*
X1647684Y549539D01*
Y554618D01*
X1645145Y557157D01*
X1640067D01*
X1637528Y554618D01*
Y549539D01*
X1640067Y547000D01*
X1662920Y562235D02*
Y547000D01*
X1655302D01*
X1652763Y549539D01*
Y554618D01*
X1655302Y557157D01*
X1662920D01*
X1675616Y547000D02*
X1670537D01*
X1667998Y549539D01*
Y554618D01*
X1670537Y557157D01*
X1675616D01*
X1678155Y554618D01*
Y552078D01*
X1667998D01*
X858000Y587235D02*
X868157D01*
X863078D01*
Y572000D01*
X873235Y587235D02*
Y572000D01*
Y579618D01*
X875774Y582157D01*
X880853D01*
X883392Y579618D01*
Y572000D01*
X888470D02*
X893549D01*
X891009D01*
Y582157D01*
X888470D01*
X901166Y572000D02*
X908784D01*
X911323Y574539D01*
X908784Y577078D01*
X903705D01*
X901166Y579618D01*
X903705Y582157D01*
X911323D01*
X931636Y572000D02*
X936715D01*
X934175D01*
Y582157D01*
X931636D01*
X944332Y572000D02*
X951950D01*
X954489Y574539D01*
X951950Y577078D01*
X946871D01*
X944332Y579618D01*
X946871Y582157D01*
X954489D01*
X977341D02*
X982420D01*
X984959Y579618D01*
Y572000D01*
X977341D01*
X974802Y574539D01*
X977341Y577078D01*
X984959D01*
X1005272Y587235D02*
Y572000D01*
Y579618D01*
X1007812Y582157D01*
X1012890D01*
X1015429Y579618D01*
Y572000D01*
X1020508Y582157D02*
Y574539D01*
X1023047Y572000D01*
X1030664D01*
Y582157D01*
X1035742Y572000D02*
Y582157D01*
X1038282D01*
X1040821Y579618D01*
Y572000D01*
Y579618D01*
X1043360Y582157D01*
X1045899Y579618D01*
Y572000D01*
X1053517Y582157D02*
X1058595D01*
X1061134Y579618D01*
Y572000D01*
X1053517D01*
X1050978Y574539D01*
X1053517Y577078D01*
X1061134D01*
X1066213Y572000D02*
Y582157D01*
X1073830D01*
X1076369Y579618D01*
Y572000D01*
X1081448Y579618D02*
X1091605D01*
X1096683Y582157D02*
Y572000D01*
Y577078D01*
X1099222Y579618D01*
X1101761Y582157D01*
X1104300D01*
X1119535Y572000D02*
X1114457D01*
X1111918Y574539D01*
Y579618D01*
X1114457Y582157D01*
X1119535D01*
X1122075Y579618D01*
Y577078D01*
X1111918D01*
X1129692Y582157D02*
X1134771D01*
X1137310Y579618D01*
Y572000D01*
X1129692D01*
X1127153Y574539D01*
X1129692Y577078D01*
X1137310D01*
X1152545Y587235D02*
Y572000D01*
X1144927D01*
X1142388Y574539D01*
Y579618D01*
X1144927Y582157D01*
X1152545D01*
X1160162D02*
X1165241D01*
X1167780Y579618D01*
Y572000D01*
X1160162D01*
X1157623Y574539D01*
X1160162Y577078D01*
X1167780D01*
X1172858Y587235D02*
Y572000D01*
X1180476D01*
X1183015Y574539D01*
Y577078D01*
Y579618D01*
X1180476Y582157D01*
X1172858D01*
X1188093Y572000D02*
X1193172D01*
X1190632D01*
Y587235D01*
X1188093D01*
X1208407Y572000D02*
X1203328D01*
X1200789Y574539D01*
Y579618D01*
X1203328Y582157D01*
X1208407D01*
X1210946Y579618D01*
Y577078D01*
X1200789D01*
X1231259Y572000D02*
X1238877D01*
X1241416Y574539D01*
X1238877Y577078D01*
X1233799D01*
X1231259Y579618D01*
X1233799Y582157D01*
X1241416D01*
X1246494D02*
Y574539D01*
X1249034Y572000D01*
X1256651D01*
Y582157D01*
X1261729Y572000D02*
Y582157D01*
X1264269D01*
X1266808Y579618D01*
Y572000D01*
Y579618D01*
X1269347Y582157D01*
X1271886Y579618D01*
Y572000D01*
X1276964D02*
Y582157D01*
X1279504D01*
X1282043Y579618D01*
Y572000D01*
Y579618D01*
X1284582Y582157D01*
X1287121Y579618D01*
Y572000D01*
X1294739Y582157D02*
X1299817D01*
X1302356Y579618D01*
Y572000D01*
X1294739D01*
X1292200Y574539D01*
X1294739Y577078D01*
X1302356D01*
X1307435Y582157D02*
Y572000D01*
Y577078D01*
X1309974Y579618D01*
X1312513Y582157D01*
X1315052D01*
X1322670D02*
Y574539D01*
X1325209Y572000D01*
X1332826D01*
Y569461D01*
X1330287Y566922D01*
X1327748D01*
X1332826Y572000D02*
Y582157D01*
X1355679Y572000D02*
X1360757D01*
X1363297Y574539D01*
Y579618D01*
X1360757Y582157D01*
X1355679D01*
X1353140Y579618D01*
Y574539D01*
X1355679Y572000D01*
X1370914D02*
Y584696D01*
Y579618D01*
X1368375D01*
X1373453D01*
X1370914D01*
Y584696D01*
X1373453Y587235D01*
X1398845Y584696D02*
Y582157D01*
X1396306D01*
X1401384D01*
X1398845D01*
Y574539D01*
X1401384Y572000D01*
X1409002Y587235D02*
Y572000D01*
Y579618D01*
X1411541Y582157D01*
X1416619D01*
X1419158Y579618D01*
Y572000D01*
X1431854D02*
X1426776D01*
X1424237Y574539D01*
Y579618D01*
X1426776Y582157D01*
X1431854D01*
X1434394Y579618D01*
Y577078D01*
X1424237D01*
X1454707Y572000D02*
X1459785D01*
X1457246D01*
Y587235D01*
X1454707D01*
X1467403Y572000D02*
X1472481D01*
X1469942D01*
Y582157D01*
X1467403D01*
X1490255D02*
X1482638D01*
X1480099Y579618D01*
Y574539D01*
X1482638Y572000D01*
X1490255D01*
X1502951D02*
X1497873D01*
X1495334Y574539D01*
Y579618D01*
X1497873Y582157D01*
X1502951D01*
X1505491Y579618D01*
Y577078D01*
X1495334D01*
X1510569Y572000D02*
Y582157D01*
X1518186D01*
X1520726Y579618D01*
Y572000D01*
X1535961Y582157D02*
X1528343D01*
X1525804Y579618D01*
Y574539D01*
X1528343Y572000D01*
X1535961D01*
X1548657D02*
X1543578D01*
X1541039Y574539D01*
Y579618D01*
X1543578Y582157D01*
X1548657D01*
X1551196Y579618D01*
Y577078D01*
X1541039D01*
X1556274Y572000D02*
Y574539D01*
X1558813D01*
Y572000D01*
X1556274D01*
X1584205D02*
Y587235D01*
X1591823D01*
X1594362Y584696D01*
Y579618D01*
X1591823Y577078D01*
X1584205D01*
X1589283D02*
X1594362Y572000D01*
X1607058D02*
X1601979D01*
X1599440Y574539D01*
Y579618D01*
X1601979Y582157D01*
X1607058D01*
X1609597Y579618D01*
Y577078D01*
X1599440D01*
X1617214Y582157D02*
X1622293D01*
X1624832Y579618D01*
Y572000D01*
X1617214D01*
X1614675Y574539D01*
X1617214Y577078D01*
X1624832D01*
X1640067Y587235D02*
Y572000D01*
X1632449D01*
X1629910Y574539D01*
Y579618D01*
X1632449Y582157D01*
X1640067D01*
X1662920Y572000D02*
Y584696D01*
Y579618D01*
X1660380D01*
X1665459D01*
X1662920D01*
Y584696D01*
X1665459Y587235D01*
X1673076Y582157D02*
Y574539D01*
X1675616Y572000D01*
X1683233D01*
Y582157D01*
X1688311Y572000D02*
X1693390D01*
X1690851D01*
Y587235D01*
X1688311D01*
X1701007Y572000D02*
X1706086D01*
X1703546D01*
Y587235D01*
X1701007D01*
X1728938Y572000D02*
X1734017D01*
X1731477D01*
Y587235D01*
X1728938D01*
X1741634Y572000D02*
X1746712D01*
X1744173D01*
Y582157D01*
X1741634D01*
X1764487D02*
X1756869D01*
X1754330Y579618D01*
Y574539D01*
X1756869Y572000D01*
X1764487D01*
X1777183D02*
X1772104D01*
X1769565Y574539D01*
Y579618D01*
X1772104Y582157D01*
X1777183D01*
X1779722Y579618D01*
Y577078D01*
X1769565D01*
X1784800Y572000D02*
Y582157D01*
X1792418D01*
X1794957Y579618D01*
Y572000D01*
X1810192Y582157D02*
X1802574D01*
X1800035Y579618D01*
Y574539D01*
X1802574Y572000D01*
X1810192D01*
X1822888D02*
X1817809D01*
X1815270Y574539D01*
Y579618D01*
X1817809Y582157D01*
X1822888D01*
X1825427Y579618D01*
Y577078D01*
X1815270D01*
X1848280Y582157D02*
X1853358D01*
X1855897Y579618D01*
Y572000D01*
X1848280D01*
X1845741Y574539D01*
X1848280Y577078D01*
X1855897D01*
X1863515Y584696D02*
Y582157D01*
X1860975D01*
X1866054D01*
X1863515D01*
Y574539D01*
X1866054Y572000D01*
X1873671Y582157D02*
X1876211D01*
Y579618D01*
X1873671D01*
Y582157D01*
Y574539D02*
X1876211D01*
Y572000D01*
X1873671D01*
Y574539D01*
X858000Y647000D02*
Y657157D01*
X863078Y662235D01*
X868157Y657157D01*
Y647000D01*
Y654617D01*
X858000D01*
X873235Y662235D02*
Y649539D01*
X875774Y647000D01*
X880853D01*
X883392Y649539D01*
Y662235D01*
X888470D02*
X898627D01*
X893549D01*
Y647000D01*
X903705Y662235D02*
Y647000D01*
Y654617D01*
X913862D01*
Y662235D01*
Y647000D01*
X926558Y662235D02*
X921479D01*
X918940Y659696D01*
Y649539D01*
X921479Y647000D01*
X926558D01*
X929097Y649539D01*
Y659696D01*
X926558Y662235D01*
X934175Y647000D02*
Y662235D01*
X941793D01*
X944332Y659696D01*
Y654617D01*
X941793Y652078D01*
X934175D01*
X939254D02*
X944332Y647000D01*
X949410Y657157D02*
X951950D01*
Y654617D01*
X949410D01*
Y657157D01*
Y649539D02*
X951950D01*
Y647000D01*
X949410D01*
Y649539D01*
X977341Y662235D02*
X987498D01*
Y659696D01*
X977341Y649539D01*
Y647000D01*
X987498D01*
X995116Y657157D02*
X1000194D01*
X1002733Y654617D01*
Y647000D01*
X995116D01*
X992577Y649539D01*
X995116Y652078D01*
X1002733D01*
X1007812Y647000D02*
Y662235D01*
Y652078D02*
X1015429Y657157D01*
X1007812Y652078D02*
X1015429Y647000D01*
X1025586Y657157D02*
X1030664D01*
X1033203Y654617D01*
Y647000D01*
X1025586D01*
X1023047Y649539D01*
X1025586Y652078D01*
X1033203D01*
X1038282Y657157D02*
Y647000D01*
Y652078D01*
X1040821Y654617D01*
X1043360Y657157D01*
X1045899D01*
X1053517Y647000D02*
X1058595D01*
X1056056D01*
Y657157D01*
X1053517D01*
X1068752D02*
X1073830D01*
X1076369Y654617D01*
Y647000D01*
X1068752D01*
X1066213Y649539D01*
X1068752Y652078D01*
X1076369D01*
X1106840Y662235D02*
X1096683D01*
Y647000D01*
X1106840D01*
X1096683Y654617D02*
X1101761D01*
X1111918Y662235D02*
Y647000D01*
X1122075D01*
X1142388Y662235D02*
Y647000D01*
Y652078D01*
X1152545Y662235D01*
X1144927Y654617D01*
X1152545Y647000D01*
X1157623Y662235D02*
Y647000D01*
Y654617D01*
X1167780D01*
Y662235D01*
Y647000D01*
X1172858D02*
Y657157D01*
X1177936Y662235D01*
X1183015Y657157D01*
Y647000D01*
Y654617D01*
X1172858D01*
X1198250Y659696D02*
X1195711Y662235D01*
X1190632D01*
X1188093Y659696D01*
Y649539D01*
X1190632Y647000D01*
X1195711D01*
X1198250Y649539D01*
X1203328Y662235D02*
Y647000D01*
Y654617D01*
X1213485D01*
Y662235D01*
Y647000D01*
X1218563Y662235D02*
X1223642D01*
X1221103D01*
Y647000D01*
X1218563D01*
X1223642D01*
X1231259D02*
Y662235D01*
X1241416Y647000D01*
Y662235D01*
X856000Y707235D02*
Y692000D01*
X866157D01*
X871235Y707235D02*
X876313D01*
X873774D01*
Y692000D01*
X871235D01*
X876313D01*
X894088Y704696D02*
X891548Y707235D01*
X886470D01*
X883931Y704696D01*
Y694539D01*
X886470Y692000D01*
X891548D01*
X894088Y694539D01*
X909323Y707235D02*
X899166D01*
Y692000D01*
X909323D01*
X899166Y699617D02*
X904244D01*
X914401Y692000D02*
Y707235D01*
X924558Y692000D01*
Y707235D01*
X939793Y704696D02*
X937254Y707235D01*
X932175D01*
X929636Y704696D01*
Y694539D01*
X932175Y692000D01*
X937254D01*
X939793Y694539D01*
X955028Y707235D02*
X944871D01*
Y692000D01*
X955028D01*
X944871Y699617D02*
X949950D01*
M02*
