G04 Layer_Color=16711935*
%FSLAX44Y44*%
%MOMM*%
G71*
G01*
G75*
%ADD37C,1.9000*%
%ADD38R,1.9000X1.9000*%
%ADD60R,2.1000X2.1000*%
%ADD75C,2.1000*%
%ADD76R,2.1000X2.1000*%
%ADD77O,2.2000X1.8000*%
%ADD78R,2.2000X1.8000*%
%ADD79O,1.8000X2.2000*%
%ADD80R,1.8000X2.2000*%
%ADD81C,4.2000*%
G04:AMPARAMS|DCode=82|XSize=2.2mm|YSize=1.4mm|CornerRadius=0.46mm|HoleSize=0mm|Usage=FLASHONLY|Rotation=0.000|XOffset=0mm|YOffset=0mm|HoleType=Round|Shape=RoundedRectangle|*
%AMROUNDEDRECTD82*
21,1,2.2000,0.4800,0,0,0.0*
21,1,1.2800,1.4000,0,0,0.0*
1,1,0.9200,0.6400,-0.2400*
1,1,0.9200,-0.6400,-0.2400*
1,1,0.9200,-0.6400,0.2400*
1,1,0.9200,0.6400,0.2400*
%
%ADD82ROUNDEDRECTD82*%
%ADD83C,3.4000*%
%ADD84C,7.6000*%
D37*
X28300Y348400D02*
D03*
X53700Y323000D02*
D03*
X28300D02*
D03*
X76200Y411480D02*
D03*
X50800D02*
D03*
X25400D02*
D03*
X76200Y386080D02*
D03*
X50800D02*
D03*
X76200Y497840D02*
D03*
X50800D02*
D03*
X25400D02*
D03*
X76200Y472440D02*
D03*
X50800D02*
D03*
D38*
X53700Y348400D02*
D03*
X25400Y386080D02*
D03*
Y472440D02*
D03*
D60*
X243500Y82250D02*
D03*
D75*
X198500D02*
D03*
Y17250D02*
D03*
X243500D02*
D03*
X598250Y263000D02*
D03*
Y308000D02*
D03*
X663250D02*
D03*
D76*
Y263000D02*
D03*
D77*
X146000Y395200D02*
D03*
Y420600D02*
D03*
Y369800D02*
D03*
X662000Y418200D02*
D03*
Y443600D02*
D03*
D78*
X146000Y446000D02*
D03*
X662000Y469000D02*
D03*
D79*
X118450Y83250D02*
D03*
X143850D02*
D03*
X187960Y508000D02*
D03*
X213360D02*
D03*
X238760D02*
D03*
X264160D02*
D03*
X289560D02*
D03*
X314960D02*
D03*
X340360D02*
D03*
X365760D02*
D03*
X391160D02*
D03*
X457200D02*
D03*
X482600D02*
D03*
X508000D02*
D03*
X533400D02*
D03*
X558800D02*
D03*
X584200D02*
D03*
X609600D02*
D03*
X635000Y25400D02*
D03*
X609600D02*
D03*
X584200D02*
D03*
X558800D02*
D03*
X533400D02*
D03*
X457200D02*
D03*
X431800D02*
D03*
X406400D02*
D03*
X381000D02*
D03*
X355600D02*
D03*
X330200D02*
D03*
X304800D02*
D03*
X595250Y201930D02*
D03*
X569850D02*
D03*
X544450D02*
D03*
X519050D02*
D03*
X493650D02*
D03*
X468250D02*
D03*
X442850D02*
D03*
X417450D02*
D03*
X392050D02*
D03*
X366650D02*
D03*
X341250D02*
D03*
X315850D02*
D03*
X290450D02*
D03*
X620650Y125730D02*
D03*
X595250D02*
D03*
X569850D02*
D03*
X544450D02*
D03*
X519050D02*
D03*
X493650D02*
D03*
X468250D02*
D03*
X442850D02*
D03*
X417450D02*
D03*
X392050D02*
D03*
X366650D02*
D03*
X341250D02*
D03*
X315850D02*
D03*
X290450D02*
D03*
D80*
X169250Y83250D02*
D03*
X416560Y508000D02*
D03*
X635000D02*
D03*
X508000Y25400D02*
D03*
X279400D02*
D03*
X620650Y201930D02*
D03*
D81*
X21000Y23000D02*
D03*
X23000Y138000D02*
D03*
D82*
X21995Y168000D02*
D03*
Y234000D02*
D03*
D83*
X152400Y508000D02*
D03*
D84*
X660400Y355600D02*
D03*
Y76200D02*
D03*
X139700Y25400D02*
D03*
M02*
