G04 Layer_Color=65535*
%FSLAX44Y44*%
%MOMM*%
G71*
G01*
G75*
%ADD33C,0.2000*%
%ADD35C,0.4000*%
%ADD51C,0.2540*%
%ADD52C,0.2500*%
D33*
X633350Y170180D02*
G03*
X633350Y157480I0J-6350D01*
G01*
X115821Y502435D02*
G03*
X186460Y493547I36579J5565D01*
G01*
X2750Y276000D02*
Y312000D01*
Y276000D02*
X16750D01*
Y312000D01*
X599000Y251250D02*
X635000D01*
Y237250D02*
Y251250D01*
X599000Y237250D02*
X635000D01*
X228160Y212220D02*
Y247780D01*
X207840Y212220D02*
X228160D01*
X207840D02*
Y247780D01*
X228160D01*
X184840Y212220D02*
X205160D01*
Y247780D01*
X184840D02*
X205160D01*
X184840Y212220D02*
Y247780D01*
X226160Y293220D02*
Y328780D01*
X205840Y293220D02*
X226160D01*
X205840D02*
Y328780D01*
X226160D01*
X161840Y212220D02*
X182160D01*
Y247780D01*
X161840D02*
X182160D01*
X161840Y212220D02*
Y247780D01*
X119720Y228090D02*
X155280D01*
X119720D02*
Y248410D01*
X155280D01*
Y228090D02*
Y248410D01*
X12840Y459780D02*
X33160D01*
X12840Y424220D02*
Y459780D01*
Y424220D02*
X33160D01*
Y459780D01*
X230220Y334840D02*
X265780D01*
X230220D02*
Y355160D01*
X265780D01*
Y334840D02*
Y355160D01*
X266780Y226840D02*
Y247160D01*
X231220D02*
X266780D01*
X231220Y226840D02*
Y247160D01*
Y226840D02*
X266780D01*
X625590Y445970D02*
Y481530D01*
X645910D01*
Y445970D02*
Y481530D01*
X625590Y445970D02*
X645910D01*
X103840Y138780D02*
X124160D01*
X103840Y103220D02*
Y138780D01*
Y103220D02*
X124160D01*
Y138780D01*
X372220Y39840D02*
X407780D01*
X372220D02*
Y60160D01*
X407780D01*
Y39840D02*
Y60160D01*
X294840Y76780D02*
X315160D01*
X294840Y41220D02*
Y76780D01*
Y41220D02*
X315160D01*
Y76780D01*
X367160Y39720D02*
Y75280D01*
X346840Y39720D02*
X367160D01*
X346840D02*
Y75280D01*
X367160D01*
X575220Y320840D02*
Y341160D01*
Y320840D02*
X610780D01*
Y341160D01*
X575220D02*
X610780D01*
X12220Y511840D02*
X47780D01*
X12220D02*
Y532160D01*
X47780D01*
Y511840D02*
Y532160D01*
X232220Y472840D02*
Y493160D01*
Y472840D02*
X267780D01*
Y493160D01*
X232220D02*
X267780D01*
X454220Y65840D02*
X489780D01*
X454220D02*
Y86160D01*
X489780D01*
Y65840D02*
Y86160D01*
X439220Y219840D02*
Y240160D01*
Y219840D02*
X474780D01*
Y240160D01*
X439220D02*
X474780D01*
X392220Y65840D02*
X427780D01*
X392220D02*
Y86160D01*
X427780D01*
Y65840D02*
Y86160D01*
X392220Y88840D02*
Y109160D01*
Y88840D02*
X427780D01*
Y109160D01*
X392220D02*
X427780D01*
X430220Y88840D02*
X465780D01*
X430220D02*
Y109160D01*
X465780D01*
Y88840D02*
Y109160D01*
X401220Y242840D02*
Y263160D01*
Y242840D02*
X436780D01*
Y263160D01*
X401220D02*
X436780D01*
X439720Y242590D02*
X475280D01*
X439720D02*
Y262910D01*
X475280D01*
Y242590D02*
Y262910D01*
X205840Y423220D02*
X226160D01*
Y458780D01*
X205840D02*
X226160D01*
X205840Y423220D02*
Y458780D01*
X240160Y174220D02*
Y209780D01*
X219840Y174220D02*
X240160D01*
X219840D02*
Y209780D01*
X240160D01*
X222840Y100220D02*
X243160D01*
Y135780D01*
X222840D02*
X243160D01*
X222840Y100220D02*
Y135780D01*
X43220Y288340D02*
X78780D01*
X43220D02*
Y308660D01*
X78780D01*
Y288340D02*
Y308660D01*
X677780Y115840D02*
Y136160D01*
X642220D02*
X677780D01*
X642220Y115840D02*
Y136160D01*
Y115840D02*
X677780D01*
X75470Y249410D02*
X111030D01*
Y229090D02*
Y249410D01*
X75470Y229090D02*
X111030D01*
X75470D02*
Y249410D01*
X637840Y214780D02*
X658160D01*
X637840Y179220D02*
Y214780D01*
Y179220D02*
X658160D01*
Y214780D01*
X220160Y100220D02*
Y135780D01*
X199840Y100220D02*
X220160D01*
X199840D02*
Y135780D01*
X220160D01*
X196840Y174220D02*
X217160D01*
Y209780D01*
X196840D02*
X217160D01*
X196840Y174220D02*
Y209780D01*
X454220Y63160D02*
X489780D01*
Y42840D02*
Y63160D01*
X454220Y42840D02*
X489780D01*
X454220D02*
Y63160D01*
X430840Y50220D02*
X451160D01*
Y85780D01*
X430840D02*
X451160D01*
X430840Y50220D02*
Y85780D01*
X592160Y453490D02*
Y486510D01*
X571840D02*
X592160D01*
X571840Y453490D02*
Y486510D01*
Y453490D02*
X592160D01*
X596840D02*
X617160D01*
X596840D02*
Y486510D01*
X617160D01*
Y453490D02*
Y486510D01*
X182160Y385490D02*
Y418510D01*
X161840D02*
X182160D01*
X161840Y385490D02*
Y418510D01*
Y385490D02*
X182160D01*
X278490Y437840D02*
Y458160D01*
X311510D01*
Y437840D02*
Y458160D01*
X278490Y437840D02*
X311510D01*
X278490Y415840D02*
X311510D01*
Y436160D01*
X278490D02*
X311510D01*
X278490Y415840D02*
Y436160D01*
X115490Y204840D02*
Y225160D01*
X148510D01*
Y204840D02*
Y225160D01*
X115490Y204840D02*
X148510D01*
X80840Y255490D02*
Y288510D01*
Y255490D02*
X101160D01*
Y288510D01*
X80840D02*
X101160D01*
X113510Y340840D02*
Y361160D01*
X80490Y340840D02*
X113510D01*
X80490D02*
Y361160D01*
X113510D01*
X79490Y203840D02*
X112510D01*
Y224160D01*
X79490D02*
X112510D01*
X79490Y203840D02*
Y224160D01*
Y180840D02*
Y201160D01*
X112510D01*
Y180840D02*
Y201160D01*
X79490Y180840D02*
X112510D01*
X79490Y157840D02*
X112510D01*
Y178160D01*
X79490D02*
X112510D01*
X79490Y157840D02*
Y178160D01*
X205840Y257490D02*
X226160D01*
X205840D02*
Y290510D01*
X226160D01*
Y257490D02*
Y290510D01*
X646160Y405490D02*
Y438510D01*
X625840D02*
X646160D01*
X625840Y405490D02*
Y438510D01*
Y405490D02*
X646160D01*
X318840Y94010D02*
X339160D01*
Y60990D02*
Y94010D01*
X318840Y60990D02*
X339160D01*
X318840D02*
Y94010D01*
Y40490D02*
Y73510D01*
Y40490D02*
X339160D01*
Y73510D01*
X318840D02*
X339160D01*
X389510Y88840D02*
Y109160D01*
X356490Y88840D02*
X389510D01*
X356490D02*
Y109160D01*
X389510D01*
X600240Y217340D02*
X633260D01*
Y237660D01*
X600240D02*
X633260D01*
X600240Y217340D02*
Y237660D01*
X608510Y343840D02*
Y364160D01*
X575490Y343840D02*
X608510D01*
X575490D02*
Y364160D01*
X608510D01*
X403490Y240160D02*
X436510D01*
X403490Y219840D02*
Y240160D01*
Y219840D02*
X436510D01*
Y240160D01*
X262510Y441840D02*
Y462160D01*
X229490Y441840D02*
X262510D01*
X229490D02*
Y462160D01*
X262510D01*
X261840Y43490D02*
Y76510D01*
Y43490D02*
X282160D01*
Y76510D01*
X261840D02*
X282160D01*
X241840Y138490D02*
X262160D01*
X241840D02*
Y171510D01*
X262160D01*
Y138490D02*
Y171510D01*
X260490Y99160D02*
X293510D01*
X260490Y78840D02*
Y99160D01*
Y78840D02*
X293510D01*
Y99160D01*
X19590Y273740D02*
X39910D01*
X19590D02*
Y306760D01*
X39910D01*
Y273740D02*
Y306760D01*
X4990Y247840D02*
X38010D01*
Y268160D01*
X4990D02*
X38010D01*
X4990Y247840D02*
Y268160D01*
X659840Y250510D02*
X680160D01*
Y217490D02*
Y250510D01*
X659840Y217490D02*
X680160D01*
X659840D02*
Y250510D01*
X680160Y181490D02*
Y214510D01*
X659840D02*
X680160D01*
X659840Y181490D02*
Y214510D01*
Y181490D02*
X680160D01*
X637840Y250510D02*
X658160D01*
Y217490D02*
Y250510D01*
X637840Y217490D02*
X658160D01*
X637840D02*
Y250510D01*
X251000Y29750D02*
Y69750D01*
X191000Y29750D02*
Y69750D01*
X212000Y79750D02*
X230000D01*
X212000Y19750D02*
X230000D01*
X600750Y276500D02*
Y294500D01*
X660750Y276500D02*
Y294500D01*
X610750Y315500D02*
X650750D01*
X610750Y255500D02*
X650750D01*
X133300Y357100D02*
Y458700D01*
X158700D01*
Y357100D02*
Y458700D01*
X133300Y357100D02*
X158700D01*
X66400Y310300D02*
Y359830D01*
X15600D02*
X66400D01*
X15600Y310300D02*
Y359830D01*
Y310300D02*
X66400D01*
X649300Y405500D02*
Y481700D01*
X674700D01*
Y405500D02*
Y481700D01*
X649300Y405500D02*
X674700D01*
X105750Y95950D02*
X181950D01*
Y70550D02*
Y95950D01*
X105750Y70550D02*
X181950D01*
X105750D02*
Y95950D01*
X7370Y162000D02*
Y241000D01*
X51370Y218000D02*
Y222000D01*
Y180000D02*
Y184000D01*
X34370Y240000D02*
X36370D01*
X34370Y162000D02*
X36370D01*
X-5630Y241000D02*
X10370D01*
X-5630Y162000D02*
Y241000D01*
Y162000D02*
X10370D01*
X370D02*
Y241000D01*
X-14630Y146000D02*
Y256000D01*
X-27630Y146000D02*
X-14630D01*
X-26630Y256000D02*
X-14630D01*
X-26630Y201000D02*
X-14630D01*
X-15630D02*
X-14630D01*
X-20630Y196000D02*
X-15630Y201000D01*
X-20630Y196000D02*
X-15630Y201000D01*
X-20630Y206000D02*
X-15630Y201000D01*
X12700Y424180D02*
X88900D01*
Y374650D02*
Y424180D01*
X12700Y374650D02*
X88900D01*
X12700D02*
Y424180D01*
Y510540D02*
X88900D01*
Y461010D02*
Y510540D01*
X12700Y461010D02*
X88900D01*
X12700D02*
Y510540D01*
X431800Y495300D02*
Y510540D01*
X172720Y495300D02*
X431800D01*
X172720D02*
Y520700D01*
X187960D01*
X190500D01*
X431800D01*
Y508000D02*
Y520700D01*
X650240Y495300D02*
Y510540D01*
X442500Y520700D02*
X650240D01*
Y508000D02*
Y520700D01*
X442500Y507300D02*
Y520500D01*
Y495300D02*
Y507300D01*
Y495300D02*
X650240D01*
X492760Y22860D02*
Y38100D01*
Y12700D02*
X650240D01*
X492760D02*
Y25400D01*
Y38100D02*
X650240D01*
Y12700D02*
Y38100D01*
X264160Y22860D02*
Y38100D01*
Y12700D02*
X471900D01*
X264160D02*
Y25400D01*
X471900Y12900D02*
Y26100D01*
Y38100D01*
X264160D02*
X471900D01*
X74870Y174530D02*
Y202470D01*
X59630D02*
X74870D01*
X59630Y174530D02*
Y202470D01*
Y174530D02*
X74870D01*
X59380Y203780D02*
Y231720D01*
Y203780D02*
X74620D01*
Y231720D01*
X59380D02*
X74620D01*
X393000Y266000D02*
X475000D01*
Y304000D01*
X393000D02*
X475000D01*
X393000Y266000D02*
Y304000D01*
X230000Y250000D02*
Y332000D01*
Y250000D02*
X268000D01*
Y332000D01*
X230000D02*
X268000D01*
X657000Y149000D02*
X663000D01*
X644000D02*
Y167000D01*
X676000Y149000D02*
Y167000D01*
X57500Y276750D02*
X63500D01*
X76500Y258750D02*
Y276750D01*
X44500Y258750D02*
Y276750D01*
X228000Y152000D02*
Y158000D01*
X210000Y139000D02*
X228000D01*
X210000Y171000D02*
X228000D01*
X192000Y437000D02*
Y443000D01*
X174000Y424000D02*
X192000D01*
X174000Y456000D02*
X192000D01*
X633550Y170180D02*
Y215830D01*
Y111830D02*
Y157480D01*
X277750Y111830D02*
X633350D01*
X277750D02*
Y215830D01*
X633350D01*
X127000Y128000D02*
Y166000D01*
X140000D01*
X195000Y128000D02*
Y166000D01*
X182000D02*
X195000D01*
X189000Y333000D02*
Y335000D01*
Y333000D02*
Y335000D01*
X187000D02*
X189000D01*
X119000Y333000D02*
Y335000D01*
X121000D01*
X119000Y265000D02*
X121000D01*
X119000D02*
Y267000D01*
X188000Y264000D02*
X190000Y266000D01*
X229220Y423380D02*
X231760D01*
X229220Y438620D02*
X231760D01*
X229220Y423380D02*
Y438620D01*
X231760Y423380D02*
Y438620D01*
Y423380D02*
X262240D01*
Y438620D01*
X231760D02*
X262240D01*
X575220Y367380D02*
X577760D01*
X575220Y382620D02*
X577760D01*
X575220Y367380D02*
Y382620D01*
X577760Y367380D02*
Y382620D01*
Y367380D02*
X608240D01*
Y382620D01*
X577760D02*
X608240D01*
X229220Y380380D02*
X231760D01*
X229220Y395620D02*
X231760D01*
X229220Y380380D02*
Y395620D01*
X231760Y380380D02*
Y395620D01*
Y380380D02*
X262240D01*
Y395620D01*
X231760D02*
X262240D01*
X229220Y397380D02*
X231760D01*
X229220Y412620D02*
X231760D01*
X229220Y397380D02*
Y412620D01*
X231760Y397380D02*
Y412620D01*
Y397380D02*
X262240D01*
Y412620D01*
X231760D02*
X262240D01*
X4000Y111000D02*
X36000D01*
X4000Y53000D02*
Y111000D01*
Y53000D02*
X36000D01*
Y111000D01*
X89500Y12500D02*
X99500Y22500D01*
X84500Y12500D02*
X89500D01*
X44500Y22500D02*
X54500Y12500D01*
X59500D01*
X99500Y22500D02*
Y25000D01*
Y67500D01*
X84500D02*
X99500D01*
X44500D02*
X59500D01*
X44500Y22500D02*
Y67500D01*
X91500Y91000D02*
X101500Y101000D01*
X86500Y91000D02*
X91500D01*
X46500Y101000D02*
X56500Y91000D01*
X61500D01*
X101500Y101000D02*
Y103500D01*
Y146000D01*
X86500D02*
X101500D01*
X46500D02*
X61500D01*
X46500Y101000D02*
Y146000D01*
X266000Y436997D02*
Y428666D01*
X267666Y427000D01*
X270998D01*
X272665Y428666D01*
Y436997D01*
X266000Y409997D02*
X272665D01*
X269332D01*
Y400000D01*
X266000Y384000D02*
Y393997D01*
X270998D01*
X272665Y392331D01*
Y388998D01*
X270998Y387332D01*
X266000D01*
X269332D02*
X272665Y384000D01*
X549000Y97664D02*
Y91000D01*
X542336Y97664D01*
X540669D01*
X539003Y95998D01*
Y92666D01*
X540669Y91000D01*
X539003Y107661D02*
Y100997D01*
X544002D01*
X542336Y104329D01*
Y105995D01*
X544002Y107661D01*
X547334D01*
X549000Y105995D01*
Y102663D01*
X547334Y100997D01*
X314000Y93000D02*
Y96332D01*
Y94666D01*
X304003D01*
X305669Y93000D01*
X304003Y107995D02*
X305669Y104663D01*
X309002Y101331D01*
X312334D01*
X314000Y102997D01*
Y106329D01*
X312334Y107995D01*
X310668D01*
X309002Y106329D01*
Y101331D01*
X295000Y219000D02*
Y222332D01*
Y220666D01*
X285003D01*
X286669Y219000D01*
X295000Y232329D02*
X285003D01*
X290002Y227331D01*
Y233995D01*
X397000Y220000D02*
Y223332D01*
Y221666D01*
X387003D01*
X388669Y220000D01*
Y228331D02*
X387003Y229997D01*
Y233329D01*
X388669Y234995D01*
X395334D01*
X397000Y233329D01*
Y229997D01*
X395334Y228331D01*
X388669D01*
X514003Y226665D02*
Y220000D01*
X519002D01*
X517336Y223332D01*
Y224998D01*
X519002Y226665D01*
X522334D01*
X524000Y224998D01*
Y221666D01*
X522334Y220000D01*
X8998Y320000D02*
Y329997D01*
X4000Y324998D01*
X10664D01*
X5000Y353331D02*
X6666Y354997D01*
X9998D01*
X11665Y353331D01*
Y351665D01*
X9998Y349998D01*
X8332D01*
X9998D01*
X11665Y348332D01*
Y346666D01*
X9998Y345000D01*
X6666D01*
X5000Y346666D01*
X76665Y316000D02*
X70000D01*
X76665Y322664D01*
Y324331D01*
X74998Y325997D01*
X71666D01*
X70000Y324331D01*
X40000Y437997D02*
X43332D01*
X41666D01*
Y428000D01*
X40000D01*
X43332D01*
X54995Y436331D02*
X53329Y437997D01*
X49997D01*
X48331Y436331D01*
Y429666D01*
X49997Y428000D01*
X53329D01*
X54995Y429666D01*
X64992Y436331D02*
X63326Y437997D01*
X59994D01*
X58327Y436331D01*
Y434664D01*
X59994Y432998D01*
X63326D01*
X64992Y431332D01*
Y429666D01*
X63326Y428000D01*
X59994D01*
X58327Y429666D01*
X68324Y428000D02*
Y437997D01*
X73323D01*
X74989Y436331D01*
Y432998D01*
X73323Y431332D01*
X68324D01*
X78321Y428000D02*
X81653D01*
X79987D01*
Y437997D01*
X78321Y436331D01*
X56000Y524997D02*
X59332D01*
X57666D01*
Y515000D01*
X56000D01*
X59332D01*
X70995Y523331D02*
X69329Y524997D01*
X65997D01*
X64331Y523331D01*
Y516666D01*
X65997Y515000D01*
X69329D01*
X70995Y516666D01*
X80992Y523331D02*
X79326Y524997D01*
X75993D01*
X74327Y523331D01*
Y521665D01*
X75993Y519998D01*
X79326D01*
X80992Y518332D01*
Y516666D01*
X79326Y515000D01*
X75993D01*
X74327Y516666D01*
X84324Y515000D02*
Y524997D01*
X89323D01*
X90989Y523331D01*
Y519998D01*
X89323Y518332D01*
X84324D01*
X178503Y32000D02*
X186000D01*
X187500Y33500D01*
Y36499D01*
X186000Y37998D01*
X178503D01*
X180002Y46995D02*
X178503Y45496D01*
Y42497D01*
X180002Y40997D01*
X181502D01*
X183001Y42497D01*
Y45496D01*
X184501Y46995D01*
X186000D01*
X187500Y45496D01*
Y42497D01*
X186000Y40997D01*
X178503Y55992D02*
Y49994D01*
X187500D01*
Y55992D01*
X183001Y49994D02*
Y52993D01*
X187500Y58991D02*
X178503D01*
Y63490D01*
X180002Y64989D01*
X183001D01*
X184501Y63490D01*
Y58991D01*
Y61990D02*
X187500Y64989D01*
X579000Y259000D02*
X569003D01*
Y263998D01*
X570669Y265665D01*
X574002D01*
X575668Y263998D01*
Y259000D01*
Y262332D02*
X579000Y265665D01*
X569003Y275661D02*
Y268997D01*
X579000D01*
Y275661D01*
X574002Y268997D02*
Y272329D01*
X570669Y285658D02*
X569003Y283992D01*
Y280660D01*
X570669Y278993D01*
X572336D01*
X574002Y280660D01*
Y283992D01*
X575668Y285658D01*
X577334D01*
X579000Y283992D01*
Y280660D01*
X577334Y278993D01*
X569003Y295655D02*
Y288990D01*
X579000D01*
Y295655D01*
X574002Y288990D02*
Y292323D01*
X569003Y298987D02*
Y305652D01*
Y302319D01*
X579000D01*
X170665Y371997D02*
X167332D01*
X168998D01*
Y363666D01*
X167332Y362000D01*
X165666D01*
X164000Y363666D01*
X173997Y362000D02*
Y371997D01*
X178995D01*
X180661Y370331D01*
Y366998D01*
X178995Y365332D01*
X173997D01*
X183994Y370331D02*
X185660Y371997D01*
X188992D01*
X190658Y370331D01*
Y368665D01*
X188992Y366998D01*
X187326D01*
X188992D01*
X190658Y365332D01*
Y363666D01*
X188992Y362000D01*
X185660D01*
X183994Y363666D01*
X123500Y446000D02*
X126832D01*
X125166D01*
Y455997D01*
X123500Y454331D01*
X26582Y370997D02*
X23916D01*
X25249D01*
Y364333D01*
X23916Y363000D01*
X22583D01*
X21250Y364333D01*
X29247Y363000D02*
Y370997D01*
X33246D01*
X34579Y369664D01*
Y366999D01*
X33246Y365666D01*
X29247D01*
X42576Y363000D02*
X37245D01*
X42576Y368332D01*
Y369664D01*
X41244Y370997D01*
X38578D01*
X37245Y369664D01*
X70000Y344000D02*
X73332D01*
X71666D01*
Y353997D01*
X70000Y352331D01*
X657664Y494997D02*
X654332D01*
X655998D01*
Y486666D01*
X654332Y485000D01*
X652666D01*
X651000Y486666D01*
X660997Y485000D02*
Y494997D01*
X665995D01*
X667661Y493331D01*
Y489998D01*
X665995Y488332D01*
X660997D01*
X670994Y485000D02*
X674326D01*
X672660D01*
Y494997D01*
X670994Y493331D01*
X678750Y471500D02*
X682082D01*
X680416D01*
Y481497D01*
X678750Y479831D01*
X160915Y67248D02*
X158583D01*
X159749D01*
Y61416D01*
X158583Y60250D01*
X157416D01*
X156250Y61416D01*
X163248Y60250D02*
Y67248D01*
X166747D01*
X167913Y66082D01*
Y63749D01*
X166747Y62583D01*
X163248D01*
X173744Y60250D02*
Y67248D01*
X170245Y63749D01*
X174911D01*
X117750Y61750D02*
Y65082D01*
Y63416D01*
X107753D01*
X109419Y61750D01*
X62664Y167997D02*
X59332D01*
X60998D01*
Y159666D01*
X59332Y158000D01*
X57666D01*
X56000Y159666D01*
X65997Y167997D02*
X72661D01*
Y166331D01*
X65997Y159666D01*
Y158000D01*
X100665Y403997D02*
X97332D01*
X98998D01*
Y395666D01*
X97332Y394000D01*
X95666D01*
X94000Y395666D01*
X110661Y403997D02*
X107329Y402331D01*
X103997Y398998D01*
Y395666D01*
X105663Y394000D01*
X108995D01*
X110661Y395666D01*
Y397332D01*
X108995Y398998D01*
X103997D01*
X4750Y378500D02*
X8082D01*
X6416D01*
Y388497D01*
X4750Y386831D01*
X78664Y455997D02*
X75332D01*
X76998D01*
Y447666D01*
X75332Y446000D01*
X73666D01*
X72000Y447666D01*
X88661Y455997D02*
X81997D01*
Y450998D01*
X85329Y452664D01*
X86995D01*
X88661Y450998D01*
Y447666D01*
X86995Y446000D01*
X83663D01*
X81997Y447666D01*
X4750Y463500D02*
X8082D01*
X6416D01*
Y473497D01*
X4750Y471831D01*
X315665Y488997D02*
X312332D01*
X313998D01*
Y480666D01*
X312332Y479000D01*
X310666D01*
X309000Y480666D01*
X323995Y479000D02*
Y488997D01*
X318997Y483998D01*
X325661D01*
X421000Y526000D02*
Y529332D01*
Y527666D01*
X411003D01*
X412669Y526000D01*
X500664Y489997D02*
X497332D01*
X498998D01*
Y481666D01*
X497332Y480000D01*
X495666D01*
X494000Y481666D01*
X503997Y488331D02*
X505663Y489997D01*
X508995D01*
X510661Y488331D01*
Y486665D01*
X508995Y484998D01*
X507329D01*
X508995D01*
X510661Y483332D01*
Y481666D01*
X508995Y480000D01*
X505663D01*
X503997Y481666D01*
X641000Y526000D02*
Y529332D01*
Y527666D01*
X631003D01*
X632669Y526000D01*
X545664Y52997D02*
X542332D01*
X543998D01*
Y44666D01*
X542332Y43000D01*
X540666D01*
X539000Y44666D01*
X555661Y43000D02*
X548997D01*
X555661Y49665D01*
Y51331D01*
X553995Y52997D01*
X550663D01*
X548997Y51331D01*
X508000Y2900D02*
Y6232D01*
Y4566D01*
X498003D01*
X499669Y2900D01*
X420664Y51997D02*
X417332D01*
X418998D01*
Y43666D01*
X417332Y42000D01*
X415666D01*
X414000Y43666D01*
X423997Y42000D02*
X427329D01*
X425663D01*
Y51997D01*
X423997Y50331D01*
X279400Y2900D02*
Y6232D01*
Y4566D01*
X269403D01*
X271069Y2900D01*
D35*
X6750Y314000D02*
X12750D01*
X597000Y241250D02*
Y247250D01*
D51*
X200000Y264000D02*
G03*
X200000Y264000I-1000J0D01*
G01*
D52*
X345164Y403492D02*
X335881Y388495D01*
X345878Y403492D02*
X336595Y388495D01*
Y403492D02*
X335881Y399207D01*
Y403492D01*
X345878D01*
X335881Y388495D02*
X345878D01*
Y392780D01*
X345164Y388495D01*
X352377Y398493D02*
X350234Y397779D01*
X348806Y396350D01*
X348092Y394208D01*
Y392780D01*
X348806Y390637D01*
X350234Y389209D01*
X352377Y388495D01*
X353805D01*
X355948Y389209D01*
X357376Y390637D01*
X358090Y392780D01*
Y394208D01*
X357376Y396350D01*
X355948Y397779D01*
X353805Y398493D01*
X352377D01*
X350949Y397779D01*
X349520Y396350D01*
X348806Y394208D01*
Y392780D01*
X349520Y390637D01*
X350949Y389209D01*
X352377Y388495D01*
X353805D02*
X355233Y389209D01*
X356662Y390637D01*
X357376Y392780D01*
Y394208D01*
X356662Y396350D01*
X355233Y397779D01*
X353805Y398493D01*
X361732Y403492D02*
X366731Y388495D01*
X362446Y403492D02*
X366731Y390637D01*
X371730Y403492D02*
X366731Y388495D01*
X360304Y403492D02*
X364589D01*
X368873D02*
X373158D01*
X377229D02*
X376515Y402778D01*
X377229Y402063D01*
X377943Y402778D01*
X377229Y403492D01*
Y398493D02*
Y388495D01*
X377943Y398493D02*
Y388495D01*
X375086Y398493D02*
X377943D01*
X375086Y388495D02*
X380085D01*
X384941Y398493D02*
Y388495D01*
X385656Y398493D02*
Y388495D01*
Y396350D02*
X387084Y397779D01*
X389226Y398493D01*
X390654D01*
X392797Y397779D01*
X393511Y396350D01*
Y388495D01*
X390654Y398493D02*
X392083Y397779D01*
X392797Y396350D01*
Y388495D01*
X382799Y398493D02*
X385656D01*
X382799Y388495D02*
X387798D01*
X390654D02*
X395653D01*
X401866Y398493D02*
X399724Y397779D01*
X398296Y396350D01*
X397581Y394208D01*
Y392780D01*
X398296Y390637D01*
X399724Y389209D01*
X401866Y388495D01*
X403295D01*
X405437Y389209D01*
X406865Y390637D01*
X407579Y392780D01*
Y394208D01*
X406865Y396350D01*
X405437Y397779D01*
X403295Y398493D01*
X401866D01*
X400438Y397779D01*
X399010Y396350D01*
X398296Y394208D01*
Y392780D01*
X399010Y390637D01*
X400438Y389209D01*
X401866Y388495D01*
X403295D02*
X404723Y389209D01*
X406151Y390637D01*
X406865Y392780D01*
Y394208D01*
X406151Y396350D01*
X404723Y397779D01*
X403295Y398493D01*
X433288Y401349D02*
X434002Y399207D01*
Y403492D01*
X433288Y401349D01*
X431860Y402778D01*
X429717Y403492D01*
X428289D01*
X426147Y402778D01*
X424719Y401349D01*
X424004Y399921D01*
X423290Y397779D01*
Y394208D01*
X424004Y392066D01*
X424719Y390637D01*
X426147Y389209D01*
X428289Y388495D01*
X429717D01*
X431860Y389209D01*
X433288Y390637D01*
X434002Y392066D01*
X428289Y403492D02*
X426861Y402778D01*
X425433Y401349D01*
X424719Y399921D01*
X424004Y397779D01*
Y394208D01*
X424719Y392066D01*
X425433Y390637D01*
X426861Y389209D01*
X428289Y388495D01*
X440429Y398493D02*
X438287Y397779D01*
X436859Y396350D01*
X436145Y394208D01*
Y392780D01*
X436859Y390637D01*
X438287Y389209D01*
X440429Y388495D01*
X441858D01*
X444000Y389209D01*
X445428Y390637D01*
X446143Y392780D01*
Y394208D01*
X445428Y396350D01*
X444000Y397779D01*
X441858Y398493D01*
X440429D01*
X439001Y397779D01*
X437573Y396350D01*
X436859Y394208D01*
Y392780D01*
X437573Y390637D01*
X439001Y389209D01*
X440429Y388495D01*
X441858D02*
X443286Y389209D01*
X444714Y390637D01*
X445428Y392780D01*
Y394208D01*
X444714Y396350D01*
X443286Y397779D01*
X441858Y398493D01*
X450499D02*
Y388495D01*
X451213Y398493D02*
Y388495D01*
Y394208D02*
X451927Y396350D01*
X453355Y397779D01*
X454784Y398493D01*
X456926D01*
X457640Y397779D01*
Y397065D01*
X456926Y396350D01*
X456212Y397065D01*
X456926Y397779D01*
X448356Y398493D02*
X451213D01*
X448356Y388495D02*
X453355D01*
X462068Y398493D02*
Y383496D01*
X462782Y398493D02*
Y383496D01*
Y396350D02*
X464210Y397779D01*
X465638Y398493D01*
X467067D01*
X469209Y397779D01*
X470637Y396350D01*
X471351Y394208D01*
Y392780D01*
X470637Y390637D01*
X469209Y389209D01*
X467067Y388495D01*
X465638D01*
X464210Y389209D01*
X462782Y390637D01*
X467067Y398493D02*
X468495Y397779D01*
X469923Y396350D01*
X470637Y394208D01*
Y392780D01*
X469923Y390637D01*
X468495Y389209D01*
X467067Y388495D01*
X459925Y398493D02*
X462782D01*
X459925Y383496D02*
X464924D01*
X477707Y398493D02*
X475565Y397779D01*
X474137Y396350D01*
X473422Y394208D01*
Y392780D01*
X474137Y390637D01*
X475565Y389209D01*
X477707Y388495D01*
X479135D01*
X481278Y389209D01*
X482706Y390637D01*
X483420Y392780D01*
Y394208D01*
X482706Y396350D01*
X481278Y397779D01*
X479135Y398493D01*
X477707D01*
X476279Y397779D01*
X474851Y396350D01*
X474137Y394208D01*
Y392780D01*
X474851Y390637D01*
X476279Y389209D01*
X477707Y388495D01*
X479135D02*
X480564Y389209D01*
X481992Y390637D01*
X482706Y392780D01*
Y394208D01*
X481992Y396350D01*
X480564Y397779D01*
X479135Y398493D01*
X487776D02*
Y388495D01*
X488491Y398493D02*
Y388495D01*
Y394208D02*
X489205Y396350D01*
X490633Y397779D01*
X492061Y398493D01*
X494204D01*
X494918Y397779D01*
Y397065D01*
X494204Y396350D01*
X493489Y397065D01*
X494204Y397779D01*
X485634Y398493D02*
X488491D01*
X485634Y388495D02*
X490633D01*
X498631Y397065D02*
Y396350D01*
X497917D01*
Y397065D01*
X498631Y397779D01*
X500060Y398493D01*
X502916D01*
X504344Y397779D01*
X505058Y397065D01*
X505773Y395636D01*
Y390637D01*
X506487Y389209D01*
X507201Y388495D01*
X505058Y397065D02*
Y390637D01*
X505773Y389209D01*
X507201Y388495D01*
X507915D01*
X505058Y395636D02*
X504344Y394922D01*
X500060Y394208D01*
X497917Y393494D01*
X497203Y392066D01*
Y390637D01*
X497917Y389209D01*
X500060Y388495D01*
X502202D01*
X503630Y389209D01*
X505058Y390637D01*
X500060Y394208D02*
X498631Y393494D01*
X497917Y392066D01*
Y390637D01*
X498631Y389209D01*
X500060Y388495D01*
X514342D02*
X513628Y389209D01*
X512914Y391352D01*
Y403492D01*
X512200D01*
Y391352D01*
X512914Y389209D01*
X514342Y388495D01*
X515770D01*
X517199Y389209D01*
X517913Y390637D01*
X510057Y398493D02*
X515770D01*
X522483Y403492D02*
X521769Y402778D01*
X522483Y402063D01*
X523197Y402778D01*
X522483Y403492D01*
Y398493D02*
Y388495D01*
X523197Y398493D02*
Y388495D01*
X520341Y398493D02*
X523197D01*
X520341Y388495D02*
X525340D01*
X532338Y398493D02*
X530196Y397779D01*
X528768Y396350D01*
X528054Y394208D01*
Y392780D01*
X528768Y390637D01*
X530196Y389209D01*
X532338Y388495D01*
X533767D01*
X535909Y389209D01*
X537337Y390637D01*
X538051Y392780D01*
Y394208D01*
X537337Y396350D01*
X535909Y397779D01*
X533767Y398493D01*
X532338D01*
X530910Y397779D01*
X529482Y396350D01*
X528768Y394208D01*
Y392780D01*
X529482Y390637D01*
X530910Y389209D01*
X532338Y388495D01*
X533767D02*
X535195Y389209D01*
X536623Y390637D01*
X537337Y392780D01*
Y394208D01*
X536623Y396350D01*
X535195Y397779D01*
X533767Y398493D01*
X542407D02*
Y388495D01*
X543122Y398493D02*
Y388495D01*
Y396350D02*
X544550Y397779D01*
X546692Y398493D01*
X548121D01*
X550263Y397779D01*
X550977Y396350D01*
Y388495D01*
X548121Y398493D02*
X549549Y397779D01*
X550263Y396350D01*
Y388495D01*
X540265Y398493D02*
X543122D01*
X540265Y388495D02*
X545264D01*
X548121D02*
X553120D01*
X387298Y374497D02*
X382299Y359500D01*
X387298Y374497D02*
X392297Y359500D01*
X387298Y372354D02*
X391583Y359500D01*
X383727Y363785D02*
X390154D01*
X380871Y359500D02*
X385156D01*
X389440D02*
X393725D01*
X397796Y369498D02*
Y359500D01*
X398510Y369498D02*
Y359500D01*
Y365213D02*
X399224Y367355D01*
X400652Y368784D01*
X402080Y369498D01*
X404223D01*
X404937Y368784D01*
Y368069D01*
X404223Y367355D01*
X403509Y368069D01*
X404223Y368784D01*
X395653Y369498D02*
X398510D01*
X395653Y359500D02*
X400652D01*
X415792Y374497D02*
Y359500D01*
X416506Y374497D02*
Y359500D01*
X415792Y367355D02*
X414364Y368784D01*
X412935Y369498D01*
X411507D01*
X409365Y368784D01*
X407936Y367355D01*
X407222Y365213D01*
Y363785D01*
X407936Y361642D01*
X409365Y360214D01*
X411507Y359500D01*
X412935D01*
X414364Y360214D01*
X415792Y361642D01*
X411507Y369498D02*
X410079Y368784D01*
X408651Y367355D01*
X407936Y365213D01*
Y363785D01*
X408651Y361642D01*
X410079Y360214D01*
X411507Y359500D01*
X413649Y374497D02*
X416506D01*
X415792Y359500D02*
X418648D01*
X422862Y369498D02*
Y361642D01*
X423576Y360214D01*
X425718Y359500D01*
X427147D01*
X429289Y360214D01*
X430717Y361642D01*
X423576Y369498D02*
Y361642D01*
X424290Y360214D01*
X425718Y359500D01*
X430717Y369498D02*
Y359500D01*
X431431Y369498D02*
Y359500D01*
X420719Y369498D02*
X423576D01*
X428575D02*
X431431D01*
X430717Y359500D02*
X433574D01*
X437644Y374497D02*
X436930Y373783D01*
X437644Y373069D01*
X438358Y373783D01*
X437644Y374497D01*
Y369498D02*
Y359500D01*
X438358Y369498D02*
Y359500D01*
X435502Y369498D02*
X438358D01*
X435502Y359500D02*
X440501D01*
X445357Y369498D02*
Y359500D01*
X446071Y369498D02*
Y359500D01*
Y367355D02*
X447499Y368784D01*
X449642Y369498D01*
X451070D01*
X453212Y368784D01*
X453927Y367355D01*
Y359500D01*
X451070Y369498D02*
X452498Y368784D01*
X453212Y367355D01*
Y359500D01*
X443215Y369498D02*
X446071D01*
X443215Y359500D02*
X448214D01*
X451070D02*
X456069D01*
X462282Y369498D02*
X460140Y368784D01*
X458711Y367355D01*
X457997Y365213D01*
Y363785D01*
X458711Y361642D01*
X460140Y360214D01*
X462282Y359500D01*
X463710D01*
X465853Y360214D01*
X467281Y361642D01*
X467995Y363785D01*
Y365213D01*
X467281Y367355D01*
X465853Y368784D01*
X463710Y369498D01*
X462282D01*
X460854Y368784D01*
X459425Y367355D01*
X458711Y365213D01*
Y363785D01*
X459425Y361642D01*
X460854Y360214D01*
X462282Y359500D01*
X463710D02*
X465138Y360214D01*
X466567Y361642D01*
X467281Y363785D01*
Y365213D01*
X466567Y367355D01*
X465138Y368784D01*
X463710Y369498D01*
X485134Y374497D02*
X490133Y359500D01*
X485848Y374497D02*
X490133Y361642D01*
X495132Y374497D02*
X490133Y359500D01*
X483706Y374497D02*
X487991D01*
X492275D02*
X496560D01*
X498488Y371640D02*
X499917Y372354D01*
X502059Y374497D01*
Y359500D01*
X501345Y373783D02*
Y359500D01*
X498488D02*
X504916D01*
X509629Y374497D02*
Y359500D01*
X510343Y374497D02*
Y359500D01*
X507486Y374497D02*
X512485D01*
X507486Y359500D02*
X512485D01*
X515199Y371640D02*
X516627Y372354D01*
X518770Y374497D01*
Y359500D01*
X518056Y373783D02*
Y359500D01*
X515199D02*
X521626D01*
M02*
