G04 Layer_Physical_Order=2*
G04 Layer_Color=16711680*
%FSLAX44Y44*%
%MOMM*%
G71*
G01*
G75*
%ADD17R,1.9000X1.9000*%
%ADD32C,0.6000*%
%ADD33C,0.2000*%
%ADD34C,1.0000*%
%ADD35C,0.4000*%
%ADD37C,1.9000*%
%ADD38R,1.9000X1.9000*%
%ADD39O,2.0000X1.6000*%
%ADD40R,2.0000X1.6000*%
%ADD41R,1.7000X1.7000*%
%ADD42C,1.7000*%
%ADD43O,1.6000X2.0000*%
%ADD44R,1.6000X2.0000*%
%ADD45C,4.0000*%
G04:AMPARAMS|DCode=46|XSize=2mm|YSize=1.2mm|CornerRadius=0.36mm|HoleSize=0mm|Usage=FLASHONLY|Rotation=0.000|XOffset=0mm|YOffset=0mm|HoleType=Round|Shape=RoundedRectangle|*
%AMROUNDEDRECTD46*
21,1,2.0000,0.4800,0,0,0.0*
21,1,1.2800,1.2000,0,0,0.0*
1,1,0.7200,0.6400,-0.2400*
1,1,0.7200,-0.6400,-0.2400*
1,1,0.7200,-0.6400,0.2400*
1,1,0.7200,0.6400,0.2400*
%
%ADD46ROUNDEDRECTD46*%
%ADD47C,3.2000*%
%ADD48C,7.4000*%
%ADD49C,0.6000*%
%ADD50C,0.5000*%
G36*
X681000Y529000D02*
X681000Y481000D01*
X259000D01*
X256000Y484000D01*
Y531000D01*
X679000D01*
X681000Y529000D01*
D02*
G37*
G36*
X69000Y175000D02*
X76409D01*
X77000Y174883D01*
X77591Y175000D01*
X91000Y175000D01*
Y96000D01*
X84000D01*
X82000Y98000D01*
Y153000D01*
X80000Y155000D01*
X71000D01*
X61000Y165000D01*
Y211000D01*
X58000Y214000D01*
X54000D01*
Y246000D01*
X69000D01*
X69000Y175000D01*
D02*
G37*
G36*
X229000Y105000D02*
Y71000D01*
X231561D01*
X231837Y70587D01*
X232829Y69924D01*
X234000Y69691D01*
X253000D01*
X254170Y69924D01*
X255163Y70587D01*
X255439Y71000D01*
X263000D01*
X282000Y52000D01*
X317409D01*
X318000Y51883D01*
X318591Y52000D01*
X353000D01*
X366437Y38563D01*
X366174Y38170D01*
X365941Y37000D01*
Y15059D01*
X343000D01*
X343000Y38000D01*
X333354D01*
X333072Y38117D01*
X330200Y38495D01*
X327328Y38117D01*
X327046Y38000D01*
X307954D01*
X307672Y38117D01*
X304800Y38495D01*
X301928Y38117D01*
X301646Y38000D01*
X288909D01*
X288570Y38226D01*
X287400Y38459D01*
X271400D01*
X270229Y38226D01*
X269891Y38000D01*
X269000D01*
X258000Y49000D01*
X255296D01*
X255000Y49059D01*
X255000Y49059D01*
X208941D01*
X185000Y73000D01*
X161000D01*
Y96000D01*
X175000Y110000D01*
X224000D01*
X229000Y105000D01*
D02*
G37*
G36*
X49500Y512500D02*
Y509268D01*
X47798Y509044D01*
X45000Y507885D01*
X42598Y506042D01*
X40755Y503640D01*
X39596Y500842D01*
X39201Y497840D01*
X39596Y494838D01*
X40755Y492040D01*
X42598Y489638D01*
X45000Y487795D01*
X47798Y486636D01*
X49500Y486412D01*
Y483868D01*
X47798Y483644D01*
X45000Y482485D01*
X42598Y480642D01*
X40755Y478240D01*
X39596Y475442D01*
X39201Y472440D01*
X39596Y469438D01*
X40755Y466640D01*
X42598Y464238D01*
X45000Y462395D01*
X47798Y461236D01*
X49500Y461012D01*
X49500Y422908D01*
X47798Y422684D01*
X45000Y421525D01*
X42598Y419682D01*
X40755Y417280D01*
X39596Y414482D01*
X39201Y411480D01*
X39596Y408478D01*
X40755Y405680D01*
X42598Y403278D01*
X45000Y401435D01*
X47798Y400276D01*
X49500Y400052D01*
Y397508D01*
X47798Y397284D01*
X45000Y396125D01*
X42598Y394282D01*
X40755Y391880D01*
X39596Y389082D01*
X39201Y386080D01*
X39596Y383078D01*
X40755Y380280D01*
X42598Y377878D01*
X45000Y376035D01*
X47798Y374876D01*
X49500Y374652D01*
Y359959D01*
X45200D01*
X44029Y359726D01*
X43037Y359063D01*
X42374Y358070D01*
X42141Y356900D01*
Y339900D01*
X42374Y338730D01*
X43037Y337737D01*
X44029Y337074D01*
X45200Y336841D01*
X49500D01*
Y333708D01*
X47900Y333045D01*
X45498Y331202D01*
X43655Y328800D01*
X42496Y326002D01*
X42101Y323000D01*
X42496Y319998D01*
X43655Y317200D01*
X45498Y314798D01*
X47900Y312955D01*
X49500Y312292D01*
X49500Y249500D01*
Y170500D01*
X67500Y152500D01*
Y151500D01*
X74500D01*
X77500Y148500D01*
Y92500D01*
X93500D01*
X94500Y91500D01*
X96500Y93500D01*
Y122500D01*
X130000Y122500D01*
Y141730D01*
X130475Y143000D01*
X158000Y143000D01*
Y142000D01*
X158263Y141237D01*
X157756Y121500D01*
X259500Y121500D01*
X300500Y80500D01*
X302682D01*
X302909Y80348D01*
X305250Y79882D01*
X307591Y80348D01*
X307818Y80500D01*
X350500D01*
X365500Y65500D01*
Y63500D01*
X367808D01*
X368409Y63098D01*
X370750Y62632D01*
X373091Y63098D01*
X373692Y63500D01*
X409982D01*
X410348Y61659D01*
X411674Y59674D01*
X413659Y58348D01*
X414500Y58181D01*
Y57000D01*
X444000D01*
X456500Y49500D01*
Y45500D01*
X512500D01*
X543500Y76500D01*
X615500D01*
X620000Y72000D01*
Y34002D01*
X618730Y33571D01*
X617445Y35245D01*
X615147Y37009D01*
X612472Y38117D01*
X609600Y38495D01*
X606728Y38117D01*
X604053Y37009D01*
X601755Y35245D01*
X599991Y32947D01*
X598883Y30272D01*
X598505Y27400D01*
Y23400D01*
X598883Y20528D01*
X599991Y17852D01*
X601755Y15555D01*
X604053Y13792D01*
X606728Y12683D01*
X609600Y12305D01*
X612472Y12683D01*
X615147Y13792D01*
X617445Y15555D01*
X618730Y17229D01*
X620000Y16798D01*
Y5500D01*
X402500D01*
X395500Y12500D01*
Y17652D01*
X396770Y17905D01*
X396791Y17852D01*
X398555Y15555D01*
X400853Y13792D01*
X403528Y12683D01*
X406400Y12305D01*
X409272Y12683D01*
X411947Y13792D01*
X414245Y15555D01*
X416008Y17852D01*
X417117Y20528D01*
X417495Y23400D01*
Y27400D01*
X417117Y30272D01*
X416008Y32947D01*
X414245Y35245D01*
X411947Y37009D01*
X409272Y38117D01*
X406400Y38495D01*
X403528Y38117D01*
X400853Y37009D01*
X398555Y35245D01*
X396791Y32947D01*
X396770Y32895D01*
X395500Y33148D01*
Y38500D01*
X394606D01*
X394163Y39163D01*
X393171Y39826D01*
X392000Y40059D01*
X369064D01*
X368980Y40263D01*
X368767Y40476D01*
X368600Y40726D01*
X355163Y54163D01*
X354170Y54826D01*
X353000Y55059D01*
X353000Y55059D01*
X318591D01*
X318295Y55000D01*
X317705D01*
X317409Y55059D01*
X284941D01*
X269500Y70500D01*
Y73500D01*
X264659D01*
X264171Y73826D01*
X263000Y74059D01*
X263000Y74059D01*
X256500D01*
Y93500D01*
X255500Y94500D01*
X254284D01*
X254170Y94576D01*
X253000Y94809D01*
X234000D01*
X233500Y95219D01*
Y104500D01*
X231819Y106180D01*
X231163Y107163D01*
X231163Y107163D01*
X226163Y112163D01*
X225180Y112819D01*
X224500Y113500D01*
X174500D01*
X173819Y112819D01*
X172837Y112163D01*
X172837Y112163D01*
X158837Y98163D01*
X158174Y97170D01*
X157941Y96000D01*
X157941Y96000D01*
Y73000D01*
X158075Y72329D01*
X157278Y71059D01*
X130059Y71059D01*
X130059Y94000D01*
X129826Y95170D01*
X129500Y95658D01*
Y96500D01*
X128658D01*
X128170Y96826D01*
X127000Y97059D01*
X109000D01*
X107830Y96826D01*
X107341Y96500D01*
X106500D01*
Y95658D01*
X106174Y95170D01*
X105941Y94000D01*
Y90941D01*
X77059Y62059D01*
X5000Y62059D01*
X4770Y62013D01*
X3500Y63017D01*
Y123504D01*
X4770Y123958D01*
X6658Y121658D01*
X10160Y118784D01*
X14156Y116648D01*
X18491Y115333D01*
X23000Y114889D01*
X27509Y115333D01*
X31844Y116648D01*
X35840Y118784D01*
X39342Y121658D01*
X42216Y125160D01*
X44352Y129156D01*
X45667Y133491D01*
X46111Y138000D01*
X45667Y142509D01*
X44352Y146844D01*
X42216Y150840D01*
X39342Y154342D01*
X35840Y157216D01*
X32632Y158931D01*
X32508Y160437D01*
X33102Y160893D01*
X34160Y162271D01*
X34825Y163877D01*
X35052Y165600D01*
Y170400D01*
X34825Y172123D01*
X34160Y173729D01*
X33102Y175107D01*
X31723Y176165D01*
X30118Y176830D01*
X28395Y177057D01*
X15595D01*
X13872Y176830D01*
X12266Y176165D01*
X10888Y175107D01*
X9830Y173729D01*
X9165Y172123D01*
X8938Y170400D01*
Y165600D01*
X9165Y163877D01*
X9830Y162271D01*
X10888Y160893D01*
X12266Y159835D01*
X12468Y159752D01*
X12530Y158483D01*
X10160Y157216D01*
X6658Y154342D01*
X4770Y152042D01*
X3500Y152496D01*
Y512500D01*
X49500Y512500D01*
D02*
G37*
G36*
X233000Y451000D02*
X243000Y441000D01*
X246038D01*
X246439Y440732D01*
X248000Y440422D01*
X298000D01*
X298000Y418000D01*
X214000Y418000D01*
X214000Y441000D01*
X194000Y441000D01*
X185000Y432000D01*
X185000Y406000D01*
X150240D01*
X148000Y406295D01*
X144000D01*
X141760Y406000D01*
X136000D01*
X133000Y403000D01*
X100000D01*
Y431000D01*
X99000Y432000D01*
X100000Y433000D01*
X159000D01*
X160000Y434000D01*
Y452000D01*
X159059D01*
Y453291D01*
X161768Y456000D01*
X228000D01*
X233000Y451000D01*
D02*
G37*
G36*
X95000Y476518D02*
X86958D01*
X86245Y478240D01*
X84402Y480642D01*
X82000Y482485D01*
X79202Y483644D01*
X76200Y484039D01*
X73198Y483644D01*
X70400Y482485D01*
X67998Y480642D01*
X66155Y478240D01*
X64996Y475442D01*
X64601Y472440D01*
X64996Y469438D01*
X66155Y466640D01*
X67998Y464238D01*
X70400Y462395D01*
X73198Y461236D01*
X76200Y460841D01*
X79202Y461236D01*
X82000Y462395D01*
X84402Y464238D01*
X86245Y466640D01*
X86958Y468362D01*
X95000D01*
Y406000D01*
X96941Y404059D01*
Y403000D01*
X97174Y401829D01*
X97837Y400837D01*
X98829Y400174D01*
X100000Y399941D01*
X132683D01*
X133470Y399117D01*
X133612Y398867D01*
X133283Y398072D01*
X132905Y395200D01*
X133283Y392328D01*
X134391Y389652D01*
X136155Y387355D01*
X138453Y385592D01*
X141128Y384483D01*
X144000Y384105D01*
X148000D01*
X150872Y384483D01*
X153547Y385592D01*
X155845Y387355D01*
X157608Y389652D01*
X158717Y392328D01*
X159095Y395200D01*
X158717Y398072D01*
X158030Y399730D01*
X158878Y401000D01*
X188000D01*
Y405704D01*
X188059Y406000D01*
X188059Y430733D01*
X195267Y437941D01*
X210941Y437941D01*
X210941Y418000D01*
X211000Y417705D01*
Y411591D01*
X210882Y411000D01*
X211000Y410409D01*
Y399000D01*
X569000Y399000D01*
X569000Y214913D01*
X566978Y214647D01*
X564303Y213538D01*
X562005Y211775D01*
X560242Y209478D01*
X559133Y206802D01*
X558755Y203930D01*
Y199930D01*
X559133Y197058D01*
X560242Y194382D01*
X562005Y192085D01*
X564303Y190322D01*
X566978Y189213D01*
X569000Y188947D01*
X569000Y157000D01*
X590000Y157000D01*
Y143898D01*
X590000D01*
X590000Y143425D01*
X590662Y142763D01*
X591172Y141705D01*
Y137947D01*
X589703Y137338D01*
X587405Y135575D01*
X585642Y133278D01*
X584533Y130602D01*
X584155Y127730D01*
Y123730D01*
X584533Y120858D01*
X585642Y118182D01*
X587405Y115885D01*
X589703Y114122D01*
X592378Y113013D01*
X595250Y112635D01*
X598122Y113013D01*
X600797Y114122D01*
X615103D01*
X617778Y113013D01*
X620650Y112635D01*
X623522Y113013D01*
X626197Y114122D01*
X628495Y115885D01*
X630258Y118182D01*
X631367Y120858D01*
X631745Y123730D01*
Y127730D01*
X631367Y130602D01*
X630258Y133278D01*
X628495Y135575D01*
X626197Y137338D01*
X624728Y137947D01*
Y157000D01*
X683000Y157000D01*
X683000Y5000D01*
X625000D01*
X623059Y6941D01*
Y16798D01*
X623039Y16897D01*
X623052Y16998D01*
X622923Y17479D01*
X622826Y17968D01*
X622770Y18053D01*
X622743Y18151D01*
X622440Y18546D01*
X622163Y18961D01*
X622079Y19017D01*
X622017Y19097D01*
X622000Y19107D01*
Y31693D01*
X622017Y31702D01*
X622079Y31783D01*
X622163Y31839D01*
X622440Y32254D01*
X622743Y32649D01*
X622770Y32747D01*
X622826Y32832D01*
X622923Y33320D01*
X623052Y33802D01*
X623039Y33903D01*
X623059Y34002D01*
Y72000D01*
X623059Y72000D01*
X622826Y73170D01*
X622163Y74163D01*
X622163Y74163D01*
X622000Y74325D01*
Y81000D01*
X549000D01*
X547000Y83000D01*
X543559Y79559D01*
X543500D01*
X542329Y79326D01*
X541337Y78663D01*
X511674Y49000D01*
X466000D01*
X459000Y56000D01*
X454000Y60000D01*
X444521D01*
X444450Y60025D01*
X444223Y60014D01*
X444000Y60059D01*
X417249D01*
X417000Y60308D01*
Y64000D01*
X413001D01*
X412982Y64096D01*
X412867Y64375D01*
X412808Y64670D01*
X412640Y64921D01*
X412525Y65199D01*
X412312Y65412D01*
X412145Y65663D01*
X411894Y65830D01*
X411681Y66043D01*
X411403Y66158D01*
X411152Y66326D01*
X410857Y66385D01*
X410579Y66500D01*
X410277D01*
X409982Y66559D01*
X373692D01*
X373397Y66500D01*
X373096D01*
X372817Y66385D01*
X372522Y66326D01*
X372271Y66158D01*
X371993Y66043D01*
X371898Y65979D01*
X370750Y65751D01*
X369602Y65979D01*
X369507Y66043D01*
X369229Y66158D01*
X368978Y66326D01*
X368683Y66385D01*
X368405Y66500D01*
X368360D01*
X368326Y66670D01*
X367663Y67663D01*
X367663Y67663D01*
X359000Y76325D01*
Y82000D01*
X353326D01*
X352663Y82663D01*
X351670Y83326D01*
X350500Y83559D01*
X350500Y83559D01*
X307818D01*
X307523Y83500D01*
X307221D01*
X306943Y83385D01*
X306648Y83326D01*
X306548Y83259D01*
X305250Y83001D01*
X303952Y83259D01*
X303852Y83326D01*
X303557Y83385D01*
X303279Y83500D01*
X302977D01*
X302682Y83559D01*
X301767D01*
X261663Y123663D01*
X260670Y124326D01*
X259500Y124559D01*
X259500Y124559D01*
X258441D01*
X257000Y126000D01*
X162000D01*
Y147000D01*
X127500D01*
X126000Y145000D01*
X126000Y127270D01*
X124730Y126000D01*
X95000Y126000D01*
X95000Y171000D01*
X94059Y171217D01*
Y175000D01*
X93826Y176171D01*
X93163Y177163D01*
X92170Y177826D01*
X91000Y178059D01*
X77591Y178059D01*
X77295Y178000D01*
X77006Y178000D01*
X76705Y178000D01*
X76409Y178059D01*
X72059D01*
X72059Y246000D01*
X71826Y247171D01*
X71163Y248163D01*
X70170Y248826D01*
X69000Y249059D01*
X54000D01*
X53982Y249055D01*
X53000Y249861D01*
Y310787D01*
X53700Y311401D01*
X56702Y311796D01*
X59500Y312955D01*
X61902Y314798D01*
X63745Y317200D01*
X64904Y319998D01*
X65299Y323000D01*
X64904Y326002D01*
X63745Y328800D01*
X61902Y331202D01*
X59500Y333045D01*
X56702Y334204D01*
X53700Y334599D01*
X53000Y335213D01*
Y336841D01*
X62200D01*
X63370Y337074D01*
X64363Y337737D01*
X65026Y338730D01*
X65259Y339900D01*
Y356900D01*
X65026Y358070D01*
X64363Y359063D01*
X63370Y359726D01*
X62200Y359959D01*
X53000D01*
Y374770D01*
X53802Y374876D01*
X56600Y376035D01*
X59002Y377878D01*
X60845Y380280D01*
X62004Y383078D01*
X62399Y386080D01*
X62004Y389082D01*
X60845Y391880D01*
X59002Y394282D01*
X56600Y396125D01*
X53802Y397284D01*
X53000Y397390D01*
Y400170D01*
X53802Y400276D01*
X56600Y401435D01*
X59002Y403278D01*
X60845Y405680D01*
X62004Y408478D01*
X62399Y411480D01*
X62004Y414482D01*
X60845Y417280D01*
X59002Y419682D01*
X56600Y421525D01*
X53802Y422684D01*
X53000Y422790D01*
Y461130D01*
X53802Y461236D01*
X56600Y462395D01*
X59002Y464238D01*
X60845Y466640D01*
X62004Y469438D01*
X62399Y472440D01*
X62004Y475442D01*
X60845Y478240D01*
X59002Y480642D01*
X56600Y482485D01*
X53802Y483644D01*
X53000Y483750D01*
Y486530D01*
X53802Y486636D01*
X56600Y487795D01*
X59002Y489638D01*
X60845Y492040D01*
X62004Y494838D01*
X62399Y497840D01*
X62004Y500842D01*
X60845Y503640D01*
X59002Y506042D01*
X56600Y507885D01*
X53802Y509044D01*
X53000Y509150D01*
Y515000D01*
X51158D01*
X50670Y515326D01*
X49500Y515559D01*
X3500Y515559D01*
X3000Y515969D01*
Y530000D01*
X95000D01*
Y476518D01*
D02*
G37*
G36*
X127000Y68000D02*
X185000Y68000D01*
X207000Y46000D01*
X255000D01*
X265000Y36000D01*
Y12000D01*
X369000D01*
Y37000D01*
X392000D01*
Y3000D01*
X174186D01*
X173565Y4108D01*
X175450Y7184D01*
X177860Y13001D01*
X179330Y19123D01*
X179824Y25400D01*
X179330Y31677D01*
X177860Y37799D01*
X175450Y43616D01*
X172161Y48984D01*
X168072Y53772D01*
X163284Y57861D01*
X157916Y61150D01*
X152099Y63560D01*
X145977Y65030D01*
X139700Y65524D01*
X133423Y65030D01*
X127301Y63560D01*
X121484Y61150D01*
X116116Y57861D01*
X111328Y53772D01*
X107239Y48984D01*
X103949Y43616D01*
X101540Y37799D01*
X100070Y31677D01*
X99576Y25400D01*
X100070Y19123D01*
X101540Y13001D01*
X103949Y7184D01*
X105835Y4108D01*
X105214Y3000D01*
X3000D01*
Y57000D01*
X5000Y59000D01*
X109000Y59000D01*
X109000Y94000D01*
X127000D01*
X127000Y68000D01*
D02*
G37*
%LPC*%
G36*
X391160Y521095D02*
X388288Y520717D01*
X385613Y519608D01*
X383315Y517845D01*
X381552Y515547D01*
X380443Y512872D01*
X380065Y510000D01*
Y506000D01*
X380443Y503128D01*
X381552Y500452D01*
X383315Y498155D01*
X385613Y496391D01*
X388288Y495283D01*
X391160Y494905D01*
X394032Y495283D01*
X396707Y496391D01*
X399005Y498155D01*
X400769Y500452D01*
X401877Y503128D01*
X402255Y506000D01*
Y510000D01*
X401877Y512872D01*
X400769Y515547D01*
X399005Y517845D01*
X396707Y519608D01*
X394032Y520717D01*
X391160Y521095D01*
D02*
G37*
G36*
X457200D02*
X454328Y520717D01*
X451653Y519608D01*
X449355Y517845D01*
X447592Y515547D01*
X446483Y512872D01*
X446105Y510000D01*
Y506000D01*
X446483Y503128D01*
X447592Y500452D01*
X449355Y498155D01*
X451653Y496391D01*
X454328Y495283D01*
X457200Y494905D01*
X460072Y495283D01*
X462747Y496391D01*
X465045Y498155D01*
X466809Y500452D01*
X467917Y503128D01*
X468295Y506000D01*
Y510000D01*
X467917Y512872D01*
X466809Y515547D01*
X465045Y517845D01*
X462747Y519608D01*
X460072Y520717D01*
X457200Y521095D01*
D02*
G37*
G36*
X482600D02*
X479728Y520717D01*
X477053Y519608D01*
X474755Y517845D01*
X472991Y515547D01*
X471883Y512872D01*
X471505Y510000D01*
Y506000D01*
X471883Y503128D01*
X472991Y500452D01*
X474755Y498155D01*
X477053Y496391D01*
X479728Y495283D01*
X482600Y494905D01*
X485472Y495283D01*
X488147Y496391D01*
X490445Y498155D01*
X492209Y500452D01*
X493317Y503128D01*
X493695Y506000D01*
Y510000D01*
X493317Y512872D01*
X492209Y515547D01*
X490445Y517845D01*
X488147Y519608D01*
X485472Y520717D01*
X482600Y521095D01*
D02*
G37*
G36*
X365760D02*
X362888Y520717D01*
X360213Y519608D01*
X357915Y517845D01*
X356152Y515547D01*
X355043Y512872D01*
X354665Y510000D01*
Y506000D01*
X355043Y503128D01*
X356152Y500452D01*
X357915Y498155D01*
X360213Y496391D01*
X362888Y495283D01*
X365760Y494905D01*
X368632Y495283D01*
X371307Y496391D01*
X373605Y498155D01*
X375368Y500452D01*
X376477Y503128D01*
X376855Y506000D01*
Y510000D01*
X376477Y512872D01*
X375368Y515547D01*
X373605Y517845D01*
X371307Y519608D01*
X368632Y520717D01*
X365760Y521095D01*
D02*
G37*
G36*
X340360D02*
X337488Y520717D01*
X334813Y519608D01*
X332515Y517845D01*
X330751Y515547D01*
X329643Y512872D01*
X329265Y510000D01*
Y506000D01*
X329643Y503128D01*
X330751Y500452D01*
X332515Y498155D01*
X334813Y496391D01*
X337488Y495283D01*
X340360Y494905D01*
X343232Y495283D01*
X345907Y496391D01*
X348205Y498155D01*
X349968Y500452D01*
X351077Y503128D01*
X351455Y506000D01*
Y510000D01*
X351077Y512872D01*
X349968Y515547D01*
X348205Y517845D01*
X345907Y519608D01*
X343232Y520717D01*
X340360Y521095D01*
D02*
G37*
G36*
X508000D02*
X505128Y520717D01*
X502453Y519608D01*
X500155Y517845D01*
X498391Y515547D01*
X497283Y512872D01*
X496905Y510000D01*
Y506000D01*
X497283Y503128D01*
X498391Y500452D01*
X500155Y498155D01*
X502453Y496391D01*
X505128Y495283D01*
X508000Y494905D01*
X510872Y495283D01*
X513547Y496391D01*
X515845Y498155D01*
X517608Y500452D01*
X518717Y503128D01*
X519095Y506000D01*
Y510000D01*
X518717Y512872D01*
X517608Y515547D01*
X515845Y517845D01*
X513547Y519608D01*
X510872Y520717D01*
X508000Y521095D01*
D02*
G37*
G36*
X424560Y521059D02*
X408560D01*
X407389Y520826D01*
X406397Y520163D01*
X405734Y519170D01*
X405501Y518000D01*
Y498000D01*
X405734Y496829D01*
X406397Y495837D01*
X407389Y495174D01*
X408560Y494941D01*
X424560D01*
X425731Y495174D01*
X426723Y495837D01*
X427386Y496829D01*
X427619Y498000D01*
Y518000D01*
X427386Y519170D01*
X426723Y520163D01*
X425731Y520826D01*
X424560Y521059D01*
D02*
G37*
G36*
X643000D02*
X627000D01*
X625830Y520826D01*
X624837Y520163D01*
X624174Y519170D01*
X623941Y518000D01*
Y498000D01*
X624174Y496829D01*
X624837Y495837D01*
X625830Y495174D01*
X627000Y494941D01*
X643000D01*
X644171Y495174D01*
X645163Y495837D01*
X645826Y496829D01*
X646059Y498000D01*
Y518000D01*
X645826Y519170D01*
X645163Y520163D01*
X644171Y520826D01*
X643000Y521059D01*
D02*
G37*
G36*
X289560Y521095D02*
X286688Y520717D01*
X284013Y519608D01*
X281715Y517845D01*
X279951Y515547D01*
X278843Y512872D01*
X278465Y510000D01*
Y506000D01*
X278719Y504071D01*
X277579Y503002D01*
X277000Y503117D01*
X274659Y502652D01*
X272674Y501326D01*
X271348Y499341D01*
X270882Y497000D01*
X271348Y494659D01*
X272674Y492674D01*
X274659Y491348D01*
X277000Y490882D01*
X277550Y490992D01*
X277939Y490732D01*
X279500Y490422D01*
X279500Y490422D01*
X301460D01*
X301460Y490422D01*
X303021Y490732D01*
X304344Y491616D01*
X309247Y496519D01*
X309413Y496391D01*
X312088Y495283D01*
X314960Y494905D01*
X317832Y495283D01*
X320507Y496391D01*
X322805Y498155D01*
X324568Y500452D01*
X325677Y503128D01*
X326055Y506000D01*
Y510000D01*
X325677Y512872D01*
X324568Y515547D01*
X322805Y517845D01*
X320507Y519608D01*
X317832Y520717D01*
X314960Y521095D01*
X314239Y521000D01*
X314239Y521000D01*
X291000Y521000D01*
D01*
X289770Y521067D01*
X289560Y521095D01*
D02*
G37*
G36*
X609600D02*
X606728Y520717D01*
X604053Y519608D01*
X601755Y517845D01*
X599991Y515547D01*
X598883Y512872D01*
X598505Y510000D01*
Y506000D01*
X598883Y503128D01*
X599991Y500452D01*
X601755Y498155D01*
X604053Y496391D01*
X606728Y495283D01*
X609600Y494905D01*
X612472Y495283D01*
X615147Y496391D01*
X617445Y498155D01*
X619208Y500452D01*
X620317Y503128D01*
X620695Y506000D01*
Y510000D01*
X620317Y512872D01*
X619208Y515547D01*
X617445Y517845D01*
X615147Y519608D01*
X612472Y520717D01*
X609600Y521095D01*
D02*
G37*
G36*
X533400D02*
X530528Y520717D01*
X527853Y519608D01*
X525555Y517845D01*
X523792Y515547D01*
X522683Y512872D01*
X522305Y510000D01*
Y506000D01*
X522683Y503128D01*
X523792Y500452D01*
X525555Y498155D01*
X527853Y496391D01*
X530528Y495283D01*
X533400Y494905D01*
X536272Y495283D01*
X538947Y496391D01*
X541245Y498155D01*
X543008Y500452D01*
X544117Y503128D01*
X544495Y506000D01*
Y510000D01*
X544117Y512872D01*
X543008Y515547D01*
X541245Y517845D01*
X538947Y519608D01*
X536272Y520717D01*
X533400Y521095D01*
D02*
G37*
G36*
X558800D02*
X555928Y520717D01*
X553253Y519608D01*
X550955Y517845D01*
X549192Y515547D01*
X548083Y512872D01*
X547705Y510000D01*
Y506000D01*
X548083Y503128D01*
X549192Y500452D01*
X550955Y498155D01*
X553253Y496391D01*
X555928Y495283D01*
X558800Y494905D01*
X561672Y495283D01*
X564347Y496391D01*
X566645Y498155D01*
X568409Y500452D01*
X569517Y503128D01*
X569895Y506000D01*
Y510000D01*
X569517Y512872D01*
X568409Y515547D01*
X566645Y517845D01*
X564347Y519608D01*
X561672Y520717D01*
X558800Y521095D01*
D02*
G37*
G36*
X584200D02*
X581328Y520717D01*
X578653Y519608D01*
X576355Y517845D01*
X574591Y515547D01*
X573483Y512872D01*
X573105Y510000D01*
Y506000D01*
X573483Y503128D01*
X574591Y500452D01*
X576355Y498155D01*
X578653Y496391D01*
X581328Y495283D01*
X584200Y494905D01*
X587072Y495283D01*
X589747Y496391D01*
X592045Y498155D01*
X593809Y500452D01*
X594917Y503128D01*
X595295Y506000D01*
Y510000D01*
X594917Y512872D01*
X593809Y515547D01*
X592045Y517845D01*
X589747Y519608D01*
X587072Y520717D01*
X584200Y521095D01*
D02*
G37*
G36*
X198500Y94858D02*
X195237Y94428D01*
X192196Y93169D01*
X189585Y91165D01*
X187581Y88554D01*
X186322Y85513D01*
X185892Y82250D01*
X186322Y78987D01*
X187581Y75946D01*
X189585Y73335D01*
X192196Y71331D01*
X195237Y70072D01*
X198500Y69642D01*
X201763Y70072D01*
X204804Y71331D01*
X207415Y73335D01*
X209419Y75946D01*
X210678Y78987D01*
X211108Y82250D01*
X210678Y85513D01*
X209419Y88554D01*
X207415Y91165D01*
X204804Y93169D01*
X201763Y94428D01*
X198500Y94858D01*
D02*
G37*
G36*
X516000Y38459D02*
X500000D01*
X498829Y38226D01*
X497837Y37563D01*
X497174Y36570D01*
X496941Y35400D01*
Y15400D01*
X497174Y14230D01*
X497837Y13237D01*
X498829Y12574D01*
X500000Y12341D01*
X516000D01*
X517170Y12574D01*
X518163Y13237D01*
X518826Y14230D01*
X519059Y15400D01*
Y35400D01*
X518826Y36570D01*
X518163Y37563D01*
X517170Y38226D01*
X516000Y38459D01*
D02*
G37*
G36*
X533400Y38495D02*
X530528Y38117D01*
X527853Y37009D01*
X525555Y35245D01*
X523792Y32947D01*
X522683Y30272D01*
X522305Y27400D01*
Y23400D01*
X522683Y20528D01*
X523792Y17852D01*
X525555Y15555D01*
X527853Y13792D01*
X530528Y12683D01*
X533400Y12305D01*
X536272Y12683D01*
X538947Y13792D01*
X541245Y15555D01*
X543008Y17852D01*
X544117Y20528D01*
X544495Y23400D01*
Y27400D01*
X544117Y30272D01*
X543008Y32947D01*
X541245Y35245D01*
X538947Y37009D01*
X536272Y38117D01*
X533400Y38495D01*
D02*
G37*
G36*
X558800D02*
X555928Y38117D01*
X553253Y37009D01*
X550955Y35245D01*
X549192Y32947D01*
X548083Y30272D01*
X547705Y27400D01*
Y23400D01*
X548083Y20528D01*
X549192Y17852D01*
X550955Y15555D01*
X553253Y13792D01*
X555928Y12683D01*
X558800Y12305D01*
X561672Y12683D01*
X564347Y13792D01*
X566645Y15555D01*
X568409Y17852D01*
X569517Y20528D01*
X569895Y23400D01*
Y27400D01*
X569517Y30272D01*
X568409Y32947D01*
X566645Y35245D01*
X564347Y37009D01*
X561672Y38117D01*
X558800Y38495D01*
D02*
G37*
G36*
X584200D02*
X581328Y38117D01*
X578653Y37009D01*
X576355Y35245D01*
X574591Y32947D01*
X573483Y30272D01*
X573105Y27400D01*
Y23400D01*
X573483Y20528D01*
X574591Y17852D01*
X576355Y15555D01*
X578653Y13792D01*
X581328Y12683D01*
X584200Y12305D01*
X587072Y12683D01*
X589747Y13792D01*
X592045Y15555D01*
X593809Y17852D01*
X594917Y20528D01*
X595295Y23400D01*
Y27400D01*
X594917Y30272D01*
X593809Y32947D01*
X592045Y35245D01*
X589747Y37009D01*
X587072Y38117D01*
X584200Y38495D01*
D02*
G37*
G36*
X457200D02*
X454328Y38117D01*
X451653Y37009D01*
X449355Y35245D01*
X447592Y32947D01*
X446483Y30272D01*
X446105Y27400D01*
Y23400D01*
X446483Y20528D01*
X447592Y17852D01*
X449355Y15555D01*
X451653Y13792D01*
X454328Y12683D01*
X457200Y12305D01*
X460072Y12683D01*
X462747Y13792D01*
X465045Y15555D01*
X466809Y17852D01*
X467917Y20528D01*
X468295Y23400D01*
Y27400D01*
X467917Y30272D01*
X466809Y32947D01*
X465045Y35245D01*
X462747Y37009D01*
X460072Y38117D01*
X457200Y38495D01*
D02*
G37*
G36*
X431800D02*
X428928Y38117D01*
X426253Y37009D01*
X423955Y35245D01*
X422192Y32947D01*
X421083Y30272D01*
X420705Y27400D01*
Y23400D01*
X421083Y20528D01*
X422192Y17852D01*
X423955Y15555D01*
X426253Y13792D01*
X428928Y12683D01*
X431800Y12305D01*
X434672Y12683D01*
X437347Y13792D01*
X439645Y15555D01*
X441409Y17852D01*
X442517Y20528D01*
X442895Y23400D01*
Y27400D01*
X442517Y30272D01*
X441409Y32947D01*
X439645Y35245D01*
X437347Y37009D01*
X434672Y38117D01*
X431800Y38495D01*
D02*
G37*
G36*
X33900Y483999D02*
X16900D01*
X15730Y483766D01*
X14737Y483103D01*
X14074Y482110D01*
X13841Y480940D01*
Y463940D01*
X14074Y462770D01*
X14737Y461777D01*
X15730Y461114D01*
X16900Y460881D01*
X33900D01*
X35071Y461114D01*
X36063Y461777D01*
X36726Y462770D01*
X36959Y463940D01*
Y480940D01*
X36726Y482110D01*
X36063Y483103D01*
X35071Y483766D01*
X33900Y483999D01*
D02*
G37*
G36*
Y397639D02*
X16900D01*
X15730Y397406D01*
X14737Y396743D01*
X14074Y395751D01*
X13841Y394580D01*
Y377580D01*
X14074Y376409D01*
X14737Y375417D01*
X15730Y374754D01*
X16900Y374521D01*
X33900D01*
X35071Y374754D01*
X36063Y375417D01*
X36726Y376409D01*
X36959Y377580D01*
Y394580D01*
X36726Y395751D01*
X36063Y396743D01*
X35071Y397406D01*
X33900Y397639D01*
D02*
G37*
G36*
X28395Y243057D02*
X15595D01*
X13872Y242830D01*
X12266Y242165D01*
X10888Y241107D01*
X9830Y239729D01*
X9165Y238123D01*
X8938Y236400D01*
Y231600D01*
X9165Y229877D01*
X9830Y228272D01*
X10888Y226893D01*
X12266Y225835D01*
X13872Y225170D01*
X15595Y224943D01*
X28395D01*
X30118Y225170D01*
X31723Y225835D01*
X33102Y226893D01*
X34160Y228272D01*
X34825Y229877D01*
X35052Y231600D01*
Y236400D01*
X34825Y238123D01*
X34160Y239729D01*
X33102Y241107D01*
X31723Y242165D01*
X30118Y242830D01*
X28395Y243057D01*
D02*
G37*
G36*
X28300Y359999D02*
X25298Y359604D01*
X22500Y358445D01*
X20098Y356602D01*
X18255Y354200D01*
X17096Y351402D01*
X16701Y348400D01*
X17096Y345398D01*
X18255Y342600D01*
X20098Y340198D01*
X22500Y338355D01*
X25298Y337196D01*
X28300Y336801D01*
X31302Y337196D01*
X34100Y338355D01*
X36502Y340198D01*
X38345Y342600D01*
X39504Y345398D01*
X39899Y348400D01*
X39504Y351402D01*
X38345Y354200D01*
X36502Y356602D01*
X34100Y358445D01*
X31302Y359604D01*
X28300Y359999D01*
D02*
G37*
G36*
Y334599D02*
X25298Y334204D01*
X22500Y333045D01*
X20098Y331202D01*
X18255Y328800D01*
X17096Y326002D01*
X16701Y323000D01*
X17096Y319998D01*
X18255Y317200D01*
X20098Y314798D01*
X22500Y312955D01*
X25298Y311796D01*
X28300Y311401D01*
X31302Y311796D01*
X34100Y312955D01*
X36502Y314798D01*
X38345Y317200D01*
X39504Y319998D01*
X39899Y323000D01*
X39504Y326002D01*
X38345Y328800D01*
X36502Y331202D01*
X34100Y333045D01*
X31302Y334204D01*
X28300Y334599D01*
D02*
G37*
G36*
X148000Y431695D02*
X144000D01*
X141128Y431317D01*
X138453Y430209D01*
X136155Y428445D01*
X134391Y426147D01*
X133283Y423472D01*
X132905Y420600D01*
X133283Y417728D01*
X134391Y415052D01*
X136155Y412755D01*
X138453Y410992D01*
X141128Y409883D01*
X144000Y409505D01*
X148000D01*
X150872Y409883D01*
X153547Y410992D01*
X155845Y412755D01*
X157608Y415052D01*
X158717Y417728D01*
X159095Y420600D01*
X158717Y423472D01*
X157608Y426147D01*
X155845Y428445D01*
X153547Y430209D01*
X150872Y431317D01*
X148000Y431695D01*
D02*
G37*
G36*
X519050Y138825D02*
X516178Y138447D01*
X513503Y137338D01*
X511205Y135575D01*
X509441Y133278D01*
X508333Y130602D01*
X507955Y127730D01*
Y123730D01*
X508333Y120858D01*
X509441Y118182D01*
X511205Y115885D01*
X513503Y114122D01*
X516178Y113013D01*
X519050Y112635D01*
X521922Y113013D01*
X524597Y114122D01*
X526895Y115885D01*
X528658Y118182D01*
X529767Y120858D01*
X530145Y123730D01*
Y127730D01*
X529767Y130602D01*
X528658Y133278D01*
X526895Y135575D01*
X524597Y137338D01*
X521922Y138447D01*
X519050Y138825D01*
D02*
G37*
G36*
X544450D02*
X541578Y138447D01*
X538903Y137338D01*
X536605Y135575D01*
X534841Y133278D01*
X533733Y130602D01*
X533355Y127730D01*
Y123730D01*
X533733Y120858D01*
X534841Y118182D01*
X536605Y115885D01*
X538903Y114122D01*
X541578Y113013D01*
X544450Y112635D01*
X547322Y113013D01*
X549997Y114122D01*
X552295Y115885D01*
X554058Y118182D01*
X555167Y120858D01*
X555545Y123730D01*
Y127730D01*
X555167Y130602D01*
X554058Y133278D01*
X552295Y135575D01*
X549997Y137338D01*
X547322Y138447D01*
X544450Y138825D01*
D02*
G37*
G36*
X569850D02*
X566978Y138447D01*
X564303Y137338D01*
X562005Y135575D01*
X560242Y133278D01*
X559133Y130602D01*
X558755Y127730D01*
Y123730D01*
X559133Y120858D01*
X560242Y118182D01*
X562005Y115885D01*
X564303Y114122D01*
X566978Y113013D01*
X569850Y112635D01*
X572722Y113013D01*
X575397Y114122D01*
X577695Y115885D01*
X579459Y118182D01*
X580567Y120858D01*
X580945Y123730D01*
Y127730D01*
X580567Y130602D01*
X579459Y133278D01*
X577695Y135575D01*
X575397Y137338D01*
X572722Y138447D01*
X569850Y138825D01*
D02*
G37*
G36*
X366650D02*
X363778Y138447D01*
X361103Y137338D01*
X358805Y135575D01*
X357042Y133278D01*
X355933Y130602D01*
X355555Y127730D01*
Y123730D01*
X355933Y120858D01*
X357042Y118182D01*
X358805Y115885D01*
X361103Y114122D01*
X363778Y113013D01*
X366650Y112635D01*
X369522Y113013D01*
X372197Y114122D01*
X374495Y115885D01*
X376259Y118182D01*
X377367Y120858D01*
X377745Y123730D01*
Y127730D01*
X377367Y130602D01*
X376259Y133278D01*
X374495Y135575D01*
X372197Y137338D01*
X369522Y138447D01*
X366650Y138825D01*
D02*
G37*
G36*
X392050D02*
X389178Y138447D01*
X386503Y137338D01*
X384205Y135575D01*
X382441Y133278D01*
X381333Y130602D01*
X380955Y127730D01*
Y123730D01*
X381333Y120858D01*
X382441Y118182D01*
X384205Y115885D01*
X386503Y114122D01*
X389178Y113013D01*
X392050Y112635D01*
X394922Y113013D01*
X397597Y114122D01*
X399895Y115885D01*
X401659Y118182D01*
X402767Y120858D01*
X403145Y123730D01*
Y127730D01*
X402767Y130602D01*
X401659Y133278D01*
X399895Y135575D01*
X397597Y137338D01*
X394922Y138447D01*
X392050Y138825D01*
D02*
G37*
G36*
X417450D02*
X414578Y138447D01*
X411903Y137338D01*
X409605Y135575D01*
X407841Y133278D01*
X406733Y130602D01*
X406355Y127730D01*
Y123730D01*
X406733Y120858D01*
X407841Y118182D01*
X409605Y115885D01*
X411903Y114122D01*
X414578Y113013D01*
X417450Y112635D01*
X420322Y113013D01*
X422997Y114122D01*
X425295Y115885D01*
X427058Y118182D01*
X428167Y120858D01*
X428545Y123730D01*
Y127730D01*
X428167Y130602D01*
X427058Y133278D01*
X425295Y135575D01*
X422997Y137338D01*
X420322Y138447D01*
X417450Y138825D01*
D02*
G37*
G36*
X366650Y215025D02*
X363778Y214647D01*
X361103Y213538D01*
X358805Y211775D01*
X357042Y209478D01*
X355933Y206802D01*
X355555Y203930D01*
Y199930D01*
X355933Y197058D01*
X357042Y194382D01*
X358805Y192085D01*
X361103Y190322D01*
X363778Y189213D01*
X366650Y188835D01*
X369522Y189213D01*
X372197Y190322D01*
X374495Y192085D01*
X376259Y194382D01*
X377367Y197058D01*
X377745Y199930D01*
Y203930D01*
X377367Y206802D01*
X376259Y209478D01*
X374495Y211775D01*
X372197Y213538D01*
X369522Y214647D01*
X366650Y215025D01*
D02*
G37*
G36*
X392050D02*
X389178Y214647D01*
X386503Y213538D01*
X384205Y211775D01*
X382441Y209478D01*
X381333Y206802D01*
X380955Y203930D01*
Y199930D01*
X381333Y197058D01*
X382441Y194382D01*
X384205Y192085D01*
X386503Y190322D01*
X389178Y189213D01*
X392050Y188835D01*
X394922Y189213D01*
X397597Y190322D01*
X399895Y192085D01*
X401659Y194382D01*
X402767Y197058D01*
X403145Y199930D01*
Y203930D01*
X402767Y206802D01*
X401659Y209478D01*
X399895Y211775D01*
X397597Y213538D01*
X394922Y214647D01*
X392050Y215025D01*
D02*
G37*
G36*
X417450D02*
X414578Y214647D01*
X411903Y213538D01*
X409605Y211775D01*
X407841Y209478D01*
X406733Y206802D01*
X406355Y203930D01*
Y199930D01*
X406733Y197058D01*
X407841Y194382D01*
X409605Y192085D01*
X411903Y190322D01*
X414578Y189213D01*
X417450Y188835D01*
X420322Y189213D01*
X422997Y190322D01*
X425295Y192085D01*
X427058Y194382D01*
X428167Y197058D01*
X428545Y199930D01*
Y203930D01*
X428167Y206802D01*
X427058Y209478D01*
X425295Y211775D01*
X422997Y213538D01*
X420322Y214647D01*
X417450Y215025D01*
D02*
G37*
G36*
X468250D02*
X465378Y214647D01*
X462703Y213538D01*
X460405Y211775D01*
X458642Y209478D01*
X457533Y206802D01*
X457155Y203930D01*
Y199930D01*
X457533Y197058D01*
X458642Y194382D01*
X460405Y192085D01*
X462703Y190322D01*
X465378Y189213D01*
X468250Y188835D01*
X471122Y189213D01*
X473797Y190322D01*
X476095Y192085D01*
X477859Y194382D01*
X478967Y197058D01*
X479345Y199930D01*
Y203930D01*
X478967Y206802D01*
X477859Y209478D01*
X476095Y211775D01*
X473797Y213538D01*
X471122Y214647D01*
X468250Y215025D01*
D02*
G37*
G36*
X328500Y187367D02*
X326159Y186902D01*
X324174Y185576D01*
X322848Y183591D01*
X322383Y181250D01*
X322848Y178909D01*
X324174Y176924D01*
X326159Y175598D01*
X328500Y175133D01*
X330841Y175598D01*
X332826Y176924D01*
X334152Y178909D01*
X334618Y181250D01*
X334152Y183591D01*
X332826Y185576D01*
X330841Y186902D01*
X328500Y187367D01*
D02*
G37*
G36*
X341250Y215025D02*
X338378Y214647D01*
X335703Y213538D01*
X333405Y211775D01*
X331642Y209478D01*
X330533Y206802D01*
X330155Y203930D01*
Y199930D01*
X330533Y197058D01*
X331642Y194382D01*
X333405Y192085D01*
X335703Y190322D01*
X338378Y189213D01*
X341250Y188835D01*
X344122Y189213D01*
X346797Y190322D01*
X349095Y192085D01*
X350858Y194382D01*
X351967Y197058D01*
X352345Y199930D01*
Y203930D01*
X351967Y206802D01*
X350858Y209478D01*
X349095Y211775D01*
X346797Y213538D01*
X344122Y214647D01*
X341250Y215025D01*
D02*
G37*
G36*
Y138825D02*
X338378Y138447D01*
X335703Y137338D01*
X333405Y135575D01*
X331642Y133278D01*
X330533Y130602D01*
X330155Y127730D01*
Y123730D01*
X330533Y120858D01*
X331642Y118182D01*
X333405Y115885D01*
X335703Y114122D01*
X338378Y113013D01*
X341250Y112635D01*
X344122Y113013D01*
X346797Y114122D01*
X349095Y115885D01*
X350858Y118182D01*
X351967Y120858D01*
X352345Y123730D01*
Y127730D01*
X351967Y130602D01*
X350858Y133278D01*
X349095Y135575D01*
X346797Y137338D01*
X344122Y138447D01*
X341250Y138825D01*
D02*
G37*
G36*
X635000Y38495D02*
X632128Y38117D01*
X629453Y37009D01*
X627155Y35245D01*
X625392Y32947D01*
X624283Y30272D01*
X623905Y27400D01*
Y23400D01*
X624283Y20528D01*
X625392Y17852D01*
X627155Y15555D01*
X629453Y13792D01*
X632128Y12683D01*
X635000Y12305D01*
X637872Y12683D01*
X640547Y13792D01*
X642845Y15555D01*
X644609Y17852D01*
X645717Y20528D01*
X646095Y23400D01*
Y27400D01*
X645717Y30272D01*
X644609Y32947D01*
X642845Y35245D01*
X640547Y37009D01*
X637872Y38117D01*
X635000Y38495D01*
D02*
G37*
G36*
X290450Y138825D02*
X287578Y138447D01*
X284903Y137338D01*
X282605Y135575D01*
X280842Y133278D01*
X279733Y130602D01*
X279355Y127730D01*
Y123730D01*
X279733Y120858D01*
X280842Y118182D01*
X282605Y115885D01*
X284903Y114122D01*
X287578Y113013D01*
X290450Y112635D01*
X293322Y113013D01*
X295997Y114122D01*
X298295Y115885D01*
X300058Y118182D01*
X301167Y120858D01*
X301545Y123730D01*
Y127730D01*
X301167Y130602D01*
X300058Y133278D01*
X298295Y135575D01*
X295997Y137338D01*
X293322Y138447D01*
X290450Y138825D01*
D02*
G37*
G36*
X315850D02*
X312978Y138447D01*
X310303Y137338D01*
X308005Y135575D01*
X306241Y133278D01*
X305133Y130602D01*
X304755Y127730D01*
Y123730D01*
X305133Y120858D01*
X306241Y118182D01*
X308005Y115885D01*
X310303Y114122D01*
X312978Y113013D01*
X315850Y112635D01*
X318722Y113013D01*
X321397Y114122D01*
X323695Y115885D01*
X325458Y118182D01*
X326567Y120858D01*
X326945Y123730D01*
Y127730D01*
X326567Y130602D01*
X325458Y133278D01*
X323695Y135575D01*
X321397Y137338D01*
X318722Y138447D01*
X315850Y138825D01*
D02*
G37*
G36*
X445225Y160646D02*
X444659Y160533D01*
X444091Y160427D01*
X444074Y160417D01*
X444055Y160413D01*
X443575Y160092D01*
X443090Y159777D01*
X443079Y159761D01*
X443062Y159750D01*
X442741Y159269D01*
X442415Y158793D01*
X442410Y158774D01*
X442399Y158757D01*
X442286Y158191D01*
X442167Y157626D01*
X441941Y140039D01*
X441951Y139988D01*
X441835Y139420D01*
X441195Y138715D01*
X440949Y138575D01*
X439978Y138447D01*
X437303Y137338D01*
X435005Y135575D01*
X433242Y133278D01*
X432133Y130602D01*
X431755Y127730D01*
Y123730D01*
X432133Y120858D01*
X433242Y118182D01*
X435005Y115885D01*
X437303Y114122D01*
X439978Y113013D01*
X442850Y112635D01*
X445722Y113013D01*
X448397Y114122D01*
X450695Y115885D01*
X452458Y118182D01*
X453567Y120858D01*
X453945Y123730D01*
Y127730D01*
X453567Y130602D01*
X452458Y133278D01*
X450939Y135258D01*
X451392Y136528D01*
X471323Y136528D01*
X471381Y136467D01*
X471509Y136088D01*
X471587Y135695D01*
X471699Y135528D01*
X471764Y135337D01*
X472028Y135036D01*
X472250Y134703D01*
X472418Y134591D01*
X472551Y134439D01*
X473914Y133394D01*
X475187Y131735D01*
X475987Y129803D01*
X476286Y127529D01*
Y123931D01*
X475987Y121657D01*
X475187Y119725D01*
X473914Y118066D01*
X472255Y116793D01*
X472243Y116788D01*
X471250Y116125D01*
X470986Y115729D01*
X470587Y115133D01*
X470355Y113962D01*
Y105935D01*
X470587Y104764D01*
X471250Y103772D01*
X471250Y103772D01*
X472925Y102098D01*
X473917Y101435D01*
X475088Y101202D01*
X475088Y101202D01*
X504087D01*
X504088Y101202D01*
X505258Y101435D01*
X506250Y102098D01*
X506576Y102424D01*
X507239Y103416D01*
X507472Y104586D01*
X507472Y104587D01*
Y117678D01*
X507361Y118235D01*
X507261Y118794D01*
X507245Y118820D01*
X507239Y118849D01*
X506924Y119321D01*
X506617Y119799D01*
X506593Y119816D01*
X506576Y119841D01*
X506104Y120157D01*
X505638Y120481D01*
X504896Y120805D01*
X504375Y120919D01*
X504745Y123730D01*
Y127730D01*
X504375Y130541D01*
X504896Y130655D01*
X505638Y130979D01*
X506104Y131303D01*
X506576Y131619D01*
X506593Y131644D01*
X506617Y131661D01*
X506924Y132139D01*
X507239Y132611D01*
X507245Y132640D01*
X507261Y132666D01*
X507361Y133225D01*
X507472Y133782D01*
Y157586D01*
X507239Y158757D01*
X506576Y159749D01*
X505584Y160413D01*
X504413Y160645D01*
X445225Y160646D01*
D02*
G37*
G36*
X113500Y220117D02*
X111159Y219652D01*
X109174Y218326D01*
X107848Y216341D01*
X107382Y214000D01*
X107848Y211659D01*
X109174Y209674D01*
X111159Y208348D01*
X113500Y207882D01*
X113792Y207941D01*
X116866Y204866D01*
X118189Y203982D01*
X118797Y203861D01*
X119215Y202483D01*
X113792Y197059D01*
X113500Y197118D01*
X111159Y196652D01*
X109174Y195326D01*
X107848Y193341D01*
X107382Y191000D01*
X107848Y188659D01*
X109174Y186674D01*
X111159Y185348D01*
X113500Y184883D01*
X115841Y185348D01*
X117826Y186674D01*
X119152Y188659D01*
X119618Y191000D01*
X119559Y191292D01*
X124439Y196172D01*
X153500D01*
X153750Y196221D01*
X154000Y196172D01*
X154250D01*
X155811Y196482D01*
X157134Y197366D01*
X158018Y198689D01*
X158095Y199077D01*
X158384Y199366D01*
X158384Y199366D01*
X159268Y200689D01*
X159307Y200885D01*
X159826Y201232D01*
X161152Y203216D01*
X161618Y205558D01*
X162816Y206045D01*
X164341Y206348D01*
X166326Y207674D01*
X167652Y209659D01*
X168118Y212000D01*
X167652Y214341D01*
X166326Y216326D01*
X164341Y217652D01*
X162000Y218118D01*
X159659Y217652D01*
X157674Y216326D01*
X157547Y216136D01*
X124058D01*
X122497Y215826D01*
X121174Y214942D01*
X121174Y214941D01*
X120800Y214567D01*
X119422Y214985D01*
X119152Y216341D01*
X117826Y218326D01*
X115841Y219652D01*
X113500Y220117D01*
D02*
G37*
G36*
X303500Y232118D02*
X301159Y231652D01*
X299174Y230326D01*
X297848Y228341D01*
X297383Y226000D01*
X297848Y223659D01*
X299174Y221674D01*
X299422Y221509D01*
Y212171D01*
X298152Y211886D01*
X295997Y213538D01*
X293322Y214647D01*
X290450Y215025D01*
X287578Y214647D01*
X284903Y213538D01*
X282605Y211775D01*
X280842Y209478D01*
X279733Y206802D01*
X279355Y203930D01*
Y199930D01*
X279733Y197058D01*
X279756Y197003D01*
X264831Y182078D01*
X249491D01*
X249326Y182326D01*
X247341Y183652D01*
X245000Y184118D01*
X242659Y183652D01*
X240674Y182326D01*
X239348Y180341D01*
X238883Y178000D01*
X239348Y175659D01*
X240674Y173674D01*
X242659Y172348D01*
X245000Y171882D01*
X247341Y172348D01*
X249326Y173674D01*
X249491Y173922D01*
X266520D01*
X266520Y173922D01*
X268081Y174232D01*
X269404Y175116D01*
X284736Y190449D01*
X284903Y190322D01*
X287578Y189213D01*
X290450Y188835D01*
X293322Y189213D01*
X295997Y190322D01*
X298152Y191975D01*
X299422Y191689D01*
Y183325D01*
X298674Y182826D01*
X297348Y180841D01*
X296882Y178500D01*
X297348Y176159D01*
X298674Y174174D01*
X300659Y172848D01*
X303000Y172383D01*
X305341Y172848D01*
X307326Y174174D01*
X308652Y176159D01*
X309118Y178500D01*
X308652Y180841D01*
X307578Y182448D01*
Y190811D01*
X308848Y191437D01*
X310303Y190322D01*
X312978Y189213D01*
X315850Y188835D01*
X318722Y189213D01*
X321397Y190322D01*
X323695Y192085D01*
X325458Y194382D01*
X326567Y197058D01*
X326945Y199930D01*
Y203930D01*
X326567Y206802D01*
X325458Y209478D01*
X323695Y211775D01*
X321397Y213538D01*
X318722Y214647D01*
X315850Y215025D01*
X312978Y214647D01*
X310303Y213538D01*
X308848Y212423D01*
X307578Y213049D01*
Y221509D01*
X307826Y221674D01*
X309152Y223659D01*
X309618Y226000D01*
X309152Y228341D01*
X307826Y230326D01*
X305841Y231652D01*
X303500Y232118D01*
D02*
G37*
G36*
X210500Y218867D02*
X208159Y218402D01*
X206174Y217076D01*
X204848Y215091D01*
X204382Y212750D01*
Y210034D01*
X200716Y206368D01*
X184000D01*
X181659Y205902D01*
X179674Y204576D01*
X178348Y202591D01*
X177882Y200250D01*
X178348Y197909D01*
X179674Y195924D01*
X181659Y194598D01*
X184000Y194132D01*
X203250D01*
X205591Y194598D01*
X207576Y195924D01*
X214826Y203174D01*
X216152Y205159D01*
X216618Y207500D01*
Y212750D01*
X216152Y215091D01*
X214826Y217076D01*
X212841Y218402D01*
X210500Y218867D01*
D02*
G37*
G36*
X493650Y215025D02*
X490778Y214647D01*
X488103Y213538D01*
X485805Y211775D01*
X484041Y209478D01*
X482933Y206802D01*
X482555Y203930D01*
Y199930D01*
X482933Y197058D01*
X484041Y194382D01*
X485805Y192085D01*
X488103Y190322D01*
X490778Y189213D01*
X493650Y188835D01*
X496522Y189213D01*
X499197Y190322D01*
X501495Y192085D01*
X503259Y194382D01*
X504367Y197058D01*
X504745Y199930D01*
Y203930D01*
X504367Y206802D01*
X503259Y209478D01*
X501495Y211775D01*
X499197Y213538D01*
X496522Y214647D01*
X493650Y215025D01*
D02*
G37*
G36*
X519050D02*
X516178Y214647D01*
X513503Y213538D01*
X511205Y211775D01*
X509441Y209478D01*
X508333Y206802D01*
X507955Y203930D01*
Y199930D01*
X508333Y197058D01*
X509441Y194382D01*
X511205Y192085D01*
X513503Y190322D01*
X516178Y189213D01*
X519050Y188835D01*
X521922Y189213D01*
X524597Y190322D01*
X526895Y192085D01*
X528658Y194382D01*
X529767Y197058D01*
X530145Y199930D01*
Y203930D01*
X529767Y206802D01*
X528658Y209478D01*
X526895Y211775D01*
X524597Y213538D01*
X521922Y214647D01*
X519050Y215025D01*
D02*
G37*
G36*
X544450D02*
X541578Y214647D01*
X538903Y213538D01*
X536605Y211775D01*
X534841Y209478D01*
X533733Y206802D01*
X533355Y203930D01*
Y199930D01*
X533733Y197058D01*
X534841Y194382D01*
X536605Y192085D01*
X538903Y190322D01*
X541578Y189213D01*
X544450Y188835D01*
X547322Y189213D01*
X549997Y190322D01*
X552295Y192085D01*
X554058Y194382D01*
X555167Y197058D01*
X555545Y199930D01*
Y203930D01*
X555167Y206802D01*
X554058Y209478D01*
X552295Y211775D01*
X549997Y213538D01*
X547322Y214647D01*
X544450Y215025D01*
D02*
G37*
G36*
X148000Y380895D02*
X144000D01*
X141128Y380517D01*
X138453Y379408D01*
X136155Y377645D01*
X134391Y375348D01*
X133283Y372672D01*
X132905Y369800D01*
X133283Y366928D01*
X134391Y364253D01*
X136155Y361955D01*
X138453Y360191D01*
X141128Y359083D01*
X144000Y358705D01*
X148000D01*
X150872Y359083D01*
X153547Y360191D01*
X155845Y361955D01*
X157608Y364253D01*
X158717Y366928D01*
X159095Y369800D01*
X158717Y372672D01*
X157608Y375348D01*
X155845Y377645D01*
X153547Y379408D01*
X150872Y380517D01*
X148000Y380895D01*
D02*
G37*
G36*
X76200Y397679D02*
X73198Y397284D01*
X70400Y396125D01*
X67998Y394282D01*
X66155Y391880D01*
X64996Y389082D01*
X64601Y386080D01*
X64996Y383078D01*
X66155Y380280D01*
X67998Y377878D01*
X70400Y376035D01*
X73198Y374876D01*
X76200Y374481D01*
X79202Y374876D01*
X82000Y376035D01*
X84402Y377878D01*
X86245Y380280D01*
X87404Y383078D01*
X87799Y386080D01*
X87404Y389082D01*
X86245Y391880D01*
X84402Y394282D01*
X82000Y396125D01*
X79202Y397284D01*
X76200Y397679D01*
D02*
G37*
G36*
X100750Y376367D02*
X98409Y375902D01*
X96424Y374576D01*
X95714Y373512D01*
X94341Y372902D01*
X92000Y373368D01*
X89659Y372902D01*
X87674Y371576D01*
X86348Y369591D01*
X85883Y367250D01*
X86348Y364909D01*
X87674Y362924D01*
X87922Y362759D01*
Y325158D01*
X87424Y324826D01*
X86098Y322841D01*
X85632Y320500D01*
X86098Y318159D01*
X87424Y316174D01*
X89409Y314848D01*
X91750Y314382D01*
X94091Y314848D01*
X95402Y315724D01*
X96672Y315045D01*
Y280993D01*
X94924Y279826D01*
X93598Y277841D01*
X93132Y275500D01*
X93598Y273159D01*
X94924Y271174D01*
X96909Y269848D01*
X99250Y269382D01*
X101591Y269848D01*
X103576Y271174D01*
X104902Y273159D01*
X105367Y275500D01*
X104902Y277841D01*
X104821Y277962D01*
X104828Y278000D01*
X104828Y278000D01*
Y365759D01*
X105076Y365924D01*
X106402Y367909D01*
X106868Y370250D01*
X106402Y372591D01*
X105076Y374576D01*
X103091Y375902D01*
X100750Y376367D01*
D02*
G37*
G36*
X355000Y249118D02*
X352659Y248652D01*
X350674Y247326D01*
X350509Y247078D01*
X299491D01*
X299326Y247326D01*
X297341Y248652D01*
X295000Y249118D01*
X292659Y248652D01*
X290674Y247326D01*
X289348Y245341D01*
X288883Y243000D01*
X289348Y240659D01*
X290674Y238674D01*
X292659Y237348D01*
X295000Y236882D01*
X297341Y237348D01*
X299326Y238674D01*
X299491Y238922D01*
X350509D01*
X350674Y238674D01*
X352659Y237348D01*
X355000Y236882D01*
X357341Y237348D01*
X359326Y238674D01*
X360652Y240659D01*
X361118Y243000D01*
X360652Y245341D01*
X359326Y247326D01*
X357341Y248652D01*
X355000Y249118D01*
D02*
G37*
G36*
X338000Y336118D02*
X335659Y335652D01*
X333674Y334326D01*
X332348Y332341D01*
X331883Y330000D01*
X332348Y327659D01*
X333674Y325674D01*
X333922Y325509D01*
Y272689D01*
X328292Y267059D01*
X328000Y267118D01*
X325659Y266652D01*
X323674Y265326D01*
X322348Y263341D01*
X321883Y261000D01*
X322348Y258659D01*
X323674Y256674D01*
X325659Y255348D01*
X328000Y254883D01*
X330341Y255348D01*
X332326Y256674D01*
X333652Y258659D01*
X334118Y261000D01*
X334059Y261292D01*
X340884Y268116D01*
X340884Y268116D01*
X341768Y269439D01*
X342078Y271000D01*
Y325509D01*
X342326Y325674D01*
X343652Y327659D01*
X344118Y330000D01*
X343652Y332341D01*
X342326Y334326D01*
X340341Y335652D01*
X338000Y336118D01*
D02*
G37*
%LPD*%
G36*
X504413Y157586D02*
Y133782D01*
X503672Y133458D01*
X503143Y133427D01*
X501495Y135575D01*
X499197Y137338D01*
X496522Y138447D01*
X493650Y138825D01*
X490778Y138447D01*
X488103Y137338D01*
X485805Y135575D01*
X484041Y133278D01*
X482933Y130602D01*
X482555Y127730D01*
Y123730D01*
X482933Y120858D01*
X484041Y118182D01*
X485805Y115885D01*
X488103Y114122D01*
X490778Y113013D01*
X493650Y112635D01*
X496522Y113013D01*
X499197Y114122D01*
X501495Y115885D01*
X503143Y118033D01*
X503672Y118002D01*
X504413Y117678D01*
Y104586D01*
X504088Y104261D01*
X475088D01*
X473413Y105935D01*
Y113962D01*
X473797Y114122D01*
X476095Y115885D01*
X477859Y118182D01*
X478967Y120858D01*
X479345Y123730D01*
Y127730D01*
X478967Y130602D01*
X477859Y133278D01*
X476095Y135575D01*
X474413Y136866D01*
Y139587D01*
X446413Y139587D01*
X445228Y139613D01*
X445000Y140000D01*
X445225Y157587D01*
X504413Y157586D01*
D02*
G37*
%LPC*%
G36*
X198500Y29858D02*
X195237Y29428D01*
X192196Y28169D01*
X189585Y26165D01*
X187581Y23554D01*
X186322Y20513D01*
X185892Y17250D01*
X186322Y13987D01*
X187581Y10946D01*
X189585Y8335D01*
X192196Y6331D01*
X195237Y5072D01*
X198500Y4642D01*
X201763Y5072D01*
X204804Y6331D01*
X207415Y8335D01*
X209419Y10946D01*
X210678Y13987D01*
X211108Y17250D01*
X210678Y20513D01*
X209419Y23554D01*
X207415Y26165D01*
X204804Y28169D01*
X201763Y29428D01*
X198500Y29858D01*
D02*
G37*
G36*
X243500D02*
X240237Y29428D01*
X237196Y28169D01*
X234585Y26165D01*
X232581Y23554D01*
X231322Y20513D01*
X230892Y17250D01*
X231322Y13987D01*
X232581Y10946D01*
X234585Y8335D01*
X237196Y6331D01*
X240237Y5072D01*
X243500Y4642D01*
X246763Y5072D01*
X249804Y6331D01*
X252415Y8335D01*
X254419Y10946D01*
X255678Y13987D01*
X256108Y17250D01*
X255678Y20513D01*
X254419Y23554D01*
X252415Y26165D01*
X249804Y28169D01*
X246763Y29428D01*
X243500Y29858D01*
D02*
G37*
%LPD*%
D17*
Y82250D02*
D03*
D32*
X210500Y207500D02*
Y212750D01*
X184000Y200250D02*
X203250D01*
X210500Y207500D01*
D33*
X92000Y320250D02*
Y367250D01*
X303000Y178250D02*
X303500Y178750D01*
X98250Y275500D02*
X100750Y278000D01*
X322000Y433000D02*
X567000D01*
X330000Y419000D02*
X549000D01*
X338000Y271000D02*
Y330000D01*
X328000Y261000D02*
X338000Y271000D01*
X295000Y243000D02*
X355000D01*
X303500Y178750D02*
Y226000D01*
X337500Y330000D02*
X338000D01*
X245000Y178000D02*
X266520D01*
X290450Y201930D01*
X119750Y207750D02*
X124058Y212058D01*
X154000Y200750D02*
X155500Y202250D01*
X124058Y212058D02*
X161942D01*
X162000Y212000D01*
X155500Y202250D02*
Y205558D01*
X217000Y411000D02*
X221000Y407000D01*
X216500Y411000D02*
X217000D01*
X160500Y460500D02*
X232000D01*
X146000Y446000D02*
X160500Y460500D01*
X232000D02*
X248000Y444500D01*
X574942D01*
X76200Y472440D02*
X123560D01*
X146000Y450000D01*
Y446000D02*
Y450000D01*
X643000Y183442D02*
Y242000D01*
X635250Y182763D02*
Y228000D01*
X595250Y142763D02*
X635250Y182763D01*
X595250Y125730D02*
Y142763D01*
X620650Y161092D02*
X643000Y183442D01*
X650250Y235750D02*
X668500Y217500D01*
X667500Y164000D02*
X668500Y165000D01*
Y217500D01*
X613000Y325000D02*
X621000Y317000D01*
Y264000D02*
X643000Y242000D01*
X621000Y264000D02*
Y317000D01*
X611250Y252000D02*
X635250Y228000D01*
X576500Y407000D02*
X585250Y415750D01*
X221000Y407000D02*
X576500D01*
X592000Y467000D02*
X606000Y453000D01*
Y318635D02*
Y453000D01*
Y318635D02*
X611250Y313385D01*
X254360Y467000D02*
X592000D01*
X613000Y325000D02*
Y462000D01*
X600000Y475000D02*
X613000Y462000D01*
X258000Y475000D02*
X600000D01*
X213360Y508000D02*
X254360Y467000D01*
X251750Y481250D02*
X258000Y475000D01*
X251750Y481250D02*
Y518750D01*
X619900Y332100D02*
X650250Y301750D01*
X611250Y252000D02*
Y313385D01*
X619900Y332100D02*
Y441900D01*
X623250Y445250D01*
Y454250D01*
X574942Y444500D02*
X578750Y440692D01*
Y428500D02*
Y440692D01*
X620650Y125730D02*
Y161092D01*
X279500Y494500D02*
X301460D01*
X277000Y497000D02*
X279500Y494500D01*
X301460D02*
X314960Y508000D01*
X122750Y200250D02*
X153500D01*
X91750Y320500D02*
X92000Y320250D01*
X100750Y278000D02*
Y370250D01*
X113500Y214000D02*
X119750Y207750D01*
X154000Y200250D02*
X154250D01*
X113500Y191000D02*
X122750Y200250D01*
X113500Y214000D02*
X113750Y214250D01*
X577500Y427250D02*
X578750Y428500D01*
X205210Y525250D02*
X245250D01*
X251750Y518750D01*
X187960Y508000D02*
X205210Y525250D01*
X187960Y508000D02*
Y510290D01*
X328500Y181250D02*
X329500D01*
X329750Y181500D01*
X303000Y178250D02*
Y178500D01*
X650250Y235750D02*
Y301750D01*
D34*
X595250Y328335D02*
Y440750D01*
X579000Y312085D02*
X595250Y328335D01*
X580000Y456000D02*
X595250Y440750D01*
X222500Y485250D02*
X251750Y456000D01*
X580000D01*
X579000Y223550D02*
Y312085D01*
D35*
X481000Y109000D02*
X481650Y109650D01*
Y132701D02*
X481750Y132801D01*
D37*
X198500Y82250D02*
D03*
Y17250D02*
D03*
X243500D02*
D03*
X598250Y263000D02*
D03*
Y308000D02*
D03*
X663250D02*
D03*
D38*
Y263000D02*
D03*
D39*
X146000Y395200D02*
D03*
Y420600D02*
D03*
Y369800D02*
D03*
X662000Y418200D02*
D03*
Y443600D02*
D03*
D40*
X146000Y446000D02*
D03*
X662000Y469000D02*
D03*
D41*
X53700Y348400D02*
D03*
X25400Y386080D02*
D03*
Y472440D02*
D03*
D42*
X28300Y348400D02*
D03*
X53700Y323000D02*
D03*
X28300D02*
D03*
X76200Y411480D02*
D03*
X50800D02*
D03*
X25400D02*
D03*
X76200Y386080D02*
D03*
X50800D02*
D03*
X76200Y497840D02*
D03*
X50800D02*
D03*
X25400D02*
D03*
X76200Y472440D02*
D03*
X50800D02*
D03*
D43*
X118450Y83250D02*
D03*
X143850D02*
D03*
X187960Y508000D02*
D03*
X213360D02*
D03*
X238760D02*
D03*
X264160D02*
D03*
X289560D02*
D03*
X314960D02*
D03*
X340360D02*
D03*
X365760D02*
D03*
X391160D02*
D03*
X457200D02*
D03*
X482600D02*
D03*
X508000D02*
D03*
X533400D02*
D03*
X558800D02*
D03*
X584200D02*
D03*
X609600D02*
D03*
X635000Y25400D02*
D03*
X609600D02*
D03*
X584200D02*
D03*
X558800D02*
D03*
X533400D02*
D03*
X457200D02*
D03*
X431800D02*
D03*
X406400D02*
D03*
X381000D02*
D03*
X355600D02*
D03*
X330200D02*
D03*
X304800D02*
D03*
X595250Y201930D02*
D03*
X569850D02*
D03*
X544450D02*
D03*
X519050D02*
D03*
X493650D02*
D03*
X468250D02*
D03*
X442850D02*
D03*
X417450D02*
D03*
X392050D02*
D03*
X366650D02*
D03*
X341250D02*
D03*
X315850D02*
D03*
X290450D02*
D03*
X620650Y125730D02*
D03*
X595250D02*
D03*
X569850D02*
D03*
X544450D02*
D03*
X519050D02*
D03*
X493650D02*
D03*
X468250D02*
D03*
X442850D02*
D03*
X417450D02*
D03*
X392050D02*
D03*
X366650D02*
D03*
X341250D02*
D03*
X315850D02*
D03*
X290450D02*
D03*
D44*
X169250Y83250D02*
D03*
X416560Y508000D02*
D03*
X635000D02*
D03*
X508000Y25400D02*
D03*
X279400D02*
D03*
X620650Y201930D02*
D03*
D45*
X21000Y23000D02*
D03*
X23000Y138000D02*
D03*
D46*
X21995Y168000D02*
D03*
Y234000D02*
D03*
D47*
X152400Y508000D02*
D03*
D48*
X660400Y355600D02*
D03*
Y76200D02*
D03*
X139700Y25400D02*
D03*
D49*
X322000Y433000D02*
D03*
X330000Y419000D02*
D03*
X132000Y179000D02*
D03*
X122000Y147000D02*
D03*
X111000D02*
D03*
X100000D02*
D03*
X141000Y171000D02*
D03*
Y178000D02*
D03*
Y185000D02*
D03*
X395000Y491000D02*
D03*
X405000D02*
D03*
X395000Y484000D02*
D03*
X405000D02*
D03*
X406000Y387000D02*
D03*
X396000D02*
D03*
X406000Y394000D02*
D03*
X396000D02*
D03*
X328000Y261000D02*
D03*
X295000Y243000D02*
D03*
X355000D02*
D03*
X338000Y330000D02*
D03*
X245000Y178000D02*
D03*
X613000Y61000D02*
D03*
Y70000D02*
D03*
X451000Y152000D02*
D03*
X423000Y64000D02*
D03*
X319000Y67000D02*
D03*
X106000Y417000D02*
D03*
X113000Y425000D02*
D03*
X155500Y205558D02*
D03*
X162000Y212000D02*
D03*
X77000Y225000D02*
D03*
X180000Y132043D02*
D03*
X207000Y433000D02*
D03*
X217000Y411000D02*
D03*
X567000Y433000D02*
D03*
X549000Y419000D02*
D03*
X659000Y153000D02*
D03*
X667500Y164000D02*
D03*
X565000Y387000D02*
D03*
X481000Y109000D02*
D03*
X605250Y176250D02*
D03*
X60000Y452000D02*
D03*
X75750Y255250D02*
D03*
X79000Y297750D02*
D03*
X277000Y497000D02*
D03*
X294000Y427000D02*
D03*
X169000Y421000D02*
D03*
X154000Y133000D02*
D03*
X441000Y50000D02*
D03*
X141500Y229000D02*
D03*
X150000Y270500D02*
D03*
X172250Y209500D02*
D03*
X195250Y212750D02*
D03*
X242500Y201500D02*
D03*
X258250Y247250D02*
D03*
X185500Y287750D02*
D03*
X218000Y250000D02*
D03*
X216500Y331250D02*
D03*
X265750Y345250D02*
D03*
X191250Y421000D02*
D03*
X49500Y521750D02*
D03*
X678750Y126750D02*
D03*
X467500Y87500D02*
D03*
X458000Y109750D02*
D03*
X416000Y64000D02*
D03*
X391250Y79000D02*
D03*
X401000Y113000D02*
D03*
X370750Y68750D02*
D03*
X305250Y86000D02*
D03*
X194000Y145750D02*
D03*
X210250Y136250D02*
D03*
X233250Y135750D02*
D03*
X77000Y181000D02*
D03*
X227250Y451000D02*
D03*
X112500Y409000D02*
D03*
X9750Y297500D02*
D03*
X41000Y289250D02*
D03*
X291250Y68250D02*
D03*
X318000Y58000D02*
D03*
X460250Y42500D02*
D03*
X91750Y320500D02*
D03*
X92000Y367250D02*
D03*
X99250Y275500D02*
D03*
X100750Y370250D02*
D03*
X210500Y212750D02*
D03*
X184000Y200250D02*
D03*
X86750Y100750D02*
D03*
Y111500D02*
D03*
X58500Y232250D02*
D03*
X59500Y241250D02*
D03*
X113500Y191000D02*
D03*
X113500Y214000D02*
D03*
X577500Y427250D02*
D03*
X585250Y415750D02*
D03*
X222500Y485250D02*
D03*
X623250Y454250D02*
D03*
X328500Y181250D02*
D03*
X303000Y178500D02*
D03*
X303500Y226000D02*
D03*
X447250Y219750D02*
D03*
X476750Y252750D02*
D03*
X399000Y253000D02*
D03*
X102750Y250500D02*
D03*
X111000Y139000D02*
D03*
D50*
X604500Y177000D02*
X605250Y176250D01*
X595000Y177000D02*
X604500D01*
X582550Y189450D02*
X595000Y177000D01*
X579000Y223550D02*
X582550Y220000D01*
Y189450D02*
Y220000D01*
M02*
