G04 Layer_Color=8421504*
%FSLAX44Y44*%
%MOMM*%
G71*
G01*
G75*
%ADD10R,0.6858X0.5588*%
%ADD11R,0.5588X0.6858*%
%ADD12R,1.3000X0.9000*%
%ADD13R,0.9000X1.3000*%
%ADD14R,1.3000X0.7000*%
%ADD15R,0.7000X1.3000*%
%ADD16R,1.4000X1.6000*%
%ADD17R,1.9000X1.9000*%
%ADD18R,1.3500X0.4000*%
%ADD19R,0.9000X0.6000*%
%ADD20R,2.5000X2.6000*%
%ADD21R,2.6000X2.5000*%
%ADD22R,0.5500X1.0000*%
%ADD23R,1.0000X0.5500*%
%ADD24R,0.6000X2.2000*%
%ADD25R,3.5000X2.2000*%
%ADD26R,1.5000X0.5500*%
%ADD27R,0.5500X1.5000*%
%ADD28R,0.8000X0.8000*%
%ADD29R,2.7000X2.0000*%
%ADD31R,1.6000X3.0000*%
D10*
X9750Y306192D02*
D03*
Y281808D02*
D03*
D11*
X629192Y244250D02*
D03*
X604808D02*
D03*
D12*
X218000Y220500D02*
D03*
Y239500D02*
D03*
X195000Y220500D02*
D03*
Y239500D02*
D03*
X216000Y301500D02*
D03*
Y320500D02*
D03*
X172000Y220500D02*
D03*
Y239500D02*
D03*
X23000Y451500D02*
D03*
Y432500D02*
D03*
X635750Y473250D02*
D03*
Y454250D02*
D03*
X114000Y130500D02*
D03*
Y111500D02*
D03*
X305000Y68500D02*
D03*
Y49500D02*
D03*
X357000Y48000D02*
D03*
Y67000D02*
D03*
X216000Y431500D02*
D03*
Y450500D02*
D03*
X230000Y182500D02*
D03*
Y201500D02*
D03*
X233000Y108500D02*
D03*
Y127500D02*
D03*
X648000Y206500D02*
D03*
Y187500D02*
D03*
X210000Y108500D02*
D03*
Y127500D02*
D03*
X207000Y182500D02*
D03*
Y201500D02*
D03*
X441000Y58500D02*
D03*
Y77500D02*
D03*
D13*
X128000Y238250D02*
D03*
X147000D02*
D03*
X238500Y345000D02*
D03*
X257500D02*
D03*
X258500Y237000D02*
D03*
X239500D02*
D03*
X380500Y50000D02*
D03*
X399500D02*
D03*
X583500Y331000D02*
D03*
X602500D02*
D03*
X20500Y522000D02*
D03*
X39500D02*
D03*
X240500Y483000D02*
D03*
X259500D02*
D03*
X462500Y76000D02*
D03*
X481500D02*
D03*
X447500Y230000D02*
D03*
X466500D02*
D03*
X400500Y76000D02*
D03*
X419500D02*
D03*
X400500Y99000D02*
D03*
X419500D02*
D03*
X438500D02*
D03*
X457500D02*
D03*
X409500Y253000D02*
D03*
X428500D02*
D03*
X448000Y252750D02*
D03*
X467000D02*
D03*
X51500Y298500D02*
D03*
X70500D02*
D03*
X669500Y126000D02*
D03*
X650500D02*
D03*
X102750Y239250D02*
D03*
X83750D02*
D03*
X481500Y53000D02*
D03*
X462500D02*
D03*
D14*
X582000Y460500D02*
D03*
Y479500D02*
D03*
X607000D02*
D03*
Y460500D02*
D03*
X172000Y392500D02*
D03*
Y411500D02*
D03*
X91000Y281500D02*
D03*
Y262500D02*
D03*
X216000Y283500D02*
D03*
Y264500D02*
D03*
X636000Y412500D02*
D03*
Y431500D02*
D03*
X329000Y68000D02*
D03*
Y87000D02*
D03*
Y66500D02*
D03*
Y47500D02*
D03*
X272000Y69500D02*
D03*
Y50500D02*
D03*
X252000Y164500D02*
D03*
Y145500D02*
D03*
X29750Y299750D02*
D03*
Y280750D02*
D03*
X670000Y224500D02*
D03*
Y243500D02*
D03*
Y188500D02*
D03*
Y207500D02*
D03*
X648000Y224500D02*
D03*
Y243500D02*
D03*
D15*
X304500Y448000D02*
D03*
X285500D02*
D03*
Y426000D02*
D03*
X304500D02*
D03*
X141500Y215000D02*
D03*
X122500D02*
D03*
X87500Y351000D02*
D03*
X106500D02*
D03*
X86500Y214000D02*
D03*
X105500D02*
D03*
Y191000D02*
D03*
X86500D02*
D03*
Y168000D02*
D03*
X105500D02*
D03*
X363500Y99000D02*
D03*
X382500D02*
D03*
X607250Y227500D02*
D03*
X626250D02*
D03*
X582500Y354000D02*
D03*
X601500D02*
D03*
X429500Y230000D02*
D03*
X410500D02*
D03*
X236500Y452000D02*
D03*
X255500D02*
D03*
X286500Y89000D02*
D03*
X267500D02*
D03*
X12000Y258000D02*
D03*
X31000D02*
D03*
D16*
X46495Y233000D02*
D03*
Y169000D02*
D03*
D17*
X21995Y213000D02*
D03*
Y189000D02*
D03*
D18*
X48745Y214000D02*
D03*
Y207500D02*
D03*
Y201000D02*
D03*
Y194500D02*
D03*
Y188000D02*
D03*
D03*
Y194500D02*
D03*
Y201000D02*
D03*
Y207500D02*
D03*
Y214000D02*
D03*
D19*
X67250Y181000D02*
D03*
Y196000D02*
D03*
X67000Y225250D02*
D03*
Y210250D02*
D03*
D20*
X409500Y285000D02*
D03*
X458500D02*
D03*
D21*
X249000Y315500D02*
D03*
Y266500D02*
D03*
D22*
X650500Y144500D02*
D03*
X669500D02*
D03*
X650500Y171500D02*
D03*
X660000D02*
D03*
X669500D02*
D03*
X70000Y281250D02*
D03*
X51000D02*
D03*
X70000Y254250D02*
D03*
X60500D02*
D03*
X51000D02*
D03*
D23*
X232500Y145500D02*
D03*
Y164500D02*
D03*
X205500Y145500D02*
D03*
Y155000D02*
D03*
Y164500D02*
D03*
X196500Y430500D02*
D03*
Y449500D02*
D03*
X169500Y430500D02*
D03*
Y440000D02*
D03*
Y449500D02*
D03*
D24*
X186400Y116000D02*
D03*
X173700D02*
D03*
X161000D02*
D03*
X148300D02*
D03*
X135600D02*
D03*
D25*
X161000Y178000D02*
D03*
D26*
X196000Y272000D02*
D03*
Y280000D02*
D03*
Y288000D02*
D03*
Y296000D02*
D03*
Y304000D02*
D03*
Y312000D02*
D03*
Y320000D02*
D03*
Y328000D02*
D03*
X112000D02*
D03*
Y320000D02*
D03*
Y312000D02*
D03*
Y304000D02*
D03*
Y296000D02*
D03*
Y288000D02*
D03*
Y280000D02*
D03*
Y272000D02*
D03*
D27*
X182000Y342000D02*
D03*
X174000D02*
D03*
X166000D02*
D03*
X158000D02*
D03*
X150000D02*
D03*
X142000D02*
D03*
X134000D02*
D03*
X126000D02*
D03*
Y258000D02*
D03*
X134000D02*
D03*
X142000D02*
D03*
X150000D02*
D03*
X158000D02*
D03*
X166000D02*
D03*
X174000D02*
D03*
X182000D02*
D03*
D28*
X239000Y431000D02*
D03*
X255000D02*
D03*
X585000Y375000D02*
D03*
X601000D02*
D03*
X239000Y388000D02*
D03*
X255000D02*
D03*
X239000Y405000D02*
D03*
X255000D02*
D03*
D29*
X20000Y98000D02*
D03*
Y66000D02*
D03*
D31*
X72000Y60500D02*
D03*
Y19500D02*
D03*
X74000Y139000D02*
D03*
Y98000D02*
D03*
M02*
