G04 Layer_Color=8388736*
%FSLAX44Y44*%
%MOMM*%
G71*
G01*
G75*
%ADD51C,0.2540*%
%ADD86C,1.0160*%
%ADD87C,0.7000*%
%ADD88C,0.1524*%
%ADD89C,0.3810*%
D51*
X139700Y-181540D02*
Y33780D01*
X0Y-181540D02*
Y-7620D01*
X90163Y-179000D02*
X139700D01*
X0D02*
X41409D01*
X124460Y-173920D02*
X139700Y-179000D01*
X124460Y-184080D02*
X139700Y-179000D01*
X0D02*
X15240Y-184080D01*
X0Y-179000D02*
X15240Y-173920D01*
X152400Y-224540D02*
Y508000D01*
X0Y-224540D02*
Y-7620D01*
X96513Y-222000D02*
X152400D01*
X0D02*
X47759D01*
X137160Y-216920D02*
X152400Y-222000D01*
X137160Y-227080D02*
X152400Y-222000D01*
X0D02*
X15240Y-227080D01*
X0Y-222000D02*
X15240Y-216920D01*
X279400Y-267540D02*
Y25400D01*
X0Y-267540D02*
Y-7620D01*
X165092Y-265000D02*
X279400D01*
X0D02*
X106180D01*
X264160Y-259920D02*
X279400Y-265000D01*
X264160Y-270080D02*
X279400Y-265000D01*
X0D02*
X15240Y-270080D01*
X0Y-265000D02*
X15240Y-259920D01*
X416560Y-310540D02*
Y508000D01*
X0Y-310540D02*
Y-7620D01*
X234941Y-308000D02*
X416560D01*
X0D02*
X173491D01*
X401320Y-302920D02*
X416560Y-308000D01*
X401320Y-313080D02*
X416560Y-308000D01*
X0D02*
X15240Y-313080D01*
X0Y-308000D02*
X15240Y-302920D01*
X508000Y-357856D02*
Y25400D01*
X0Y-357856D02*
Y-7620D01*
X289926Y-355316D02*
X508000D01*
X0D02*
X225936D01*
X492760Y-350236D02*
X508000Y-355316D01*
X492760Y-360396D02*
X508000Y-355316D01*
X0D02*
X15240Y-360396D01*
X0Y-355316D02*
X15240Y-350236D01*
X635000Y-396540D02*
Y508000D01*
X0Y-396540D02*
Y-7620D01*
X345431Y-394000D02*
X635000D01*
X0D02*
X281441D01*
X619760Y-388920D02*
X635000Y-394000D01*
X619760Y-399080D02*
X635000Y-394000D01*
X0D02*
X15240Y-399080D01*
X0Y-394000D02*
X15240Y-388920D01*
X660400Y-439540D02*
Y355600D01*
X0Y-439540D02*
Y-7620D01*
X358131Y-437000D02*
X660400D01*
X0D02*
X294141D01*
X645160Y-431920D02*
X660400Y-437000D01*
X645160Y-442080D02*
X660400Y-437000D01*
X0D02*
X15240Y-442080D01*
X0Y-437000D02*
X15240Y-431920D01*
X685800Y-482540D02*
Y0D01*
X0Y-482540D02*
Y-7620D01*
X370831Y-480000D02*
X685800D01*
X0D02*
X306841D01*
X670560Y-474920D02*
X685800Y-480000D01*
X670560Y-485080D02*
X685800Y-480000D01*
X0D02*
X15240Y-485080D01*
X0Y-480000D02*
X15240Y-474920D01*
X20320Y-52540D02*
Y25400D01*
X0Y-52540D02*
Y-7620D01*
X-25400Y-50000D02*
X0D01*
X20320D02*
X45720D01*
X-15240Y-44920D02*
X0Y-50000D01*
X-15240Y-55080D02*
X0Y-50000D01*
X20320D02*
X35560Y-55080D01*
X20320Y-50000D02*
X35560Y-44920D01*
X25400Y-138540D02*
Y472440D01*
X0Y-138540D02*
Y-7620D01*
X-25400Y-136000D02*
X0D01*
X25400D02*
X50800D01*
X-15240Y-130920D02*
X0Y-136000D01*
X-15240Y-141080D02*
X0Y-136000D01*
X25400D02*
X40640Y-141080D01*
X25400Y-136000D02*
X40640Y-130920D01*
X-42540Y25400D02*
X508000D01*
X-42540Y0D02*
X-7620D01*
X-40000Y-25400D02*
Y0D01*
Y25400D02*
Y50800D01*
X-45080Y-15240D02*
X-40000Y0D01*
X-34920Y-15240D01*
X-40000Y25400D02*
X-34920Y40640D01*
X-45080D02*
X-40000Y25400D01*
X-92540Y76200D02*
X660400D01*
X-92540Y0D02*
X-7620D01*
X-90000Y-25400D02*
Y0D01*
Y76200D02*
Y101600D01*
X-95080Y-15240D02*
X-90000Y0D01*
X-84920Y-15240D01*
X-90000Y76200D02*
X-84920Y91440D01*
X-95080D02*
X-90000Y76200D01*
X-127540Y134620D02*
X20320D01*
X-127540Y0D02*
X-7620D01*
X-125000Y87623D02*
Y134620D01*
Y0D02*
Y38869D01*
X-130080Y119380D02*
X-125000Y134620D01*
X-119920Y119380D01*
X-125000Y0D02*
X-119920Y15240D01*
X-130080D02*
X-125000Y0D01*
X-171707Y234000D02*
X22000D01*
X-171707Y0D02*
X-7620D01*
X-169167Y134774D02*
Y234000D01*
Y0D02*
Y91098D01*
X-174247Y218760D02*
X-169167Y234000D01*
X-164087Y218760D01*
X-169167Y0D02*
X-164087Y15240D01*
X-174247D02*
X-169167Y0D01*
X-215873Y355600D02*
X660400D01*
X-215873Y0D02*
X-7620D01*
X-213333Y204461D02*
Y355600D01*
Y0D02*
Y143011D01*
X-218413Y340360D02*
X-213333Y355600D01*
X-208253Y340360D01*
X-213333Y0D02*
X-208253Y15240D01*
X-218413D02*
X-213333Y0D01*
X-260040Y386080D02*
X25400D01*
X-260040Y0D02*
X-7620D01*
X-257500Y219701D02*
Y386080D01*
Y0D02*
Y158251D01*
X-262580Y370840D02*
X-257500Y386080D01*
X-252420Y370840D01*
X-257500Y0D02*
X-252420Y15240D01*
X-262580D02*
X-257500Y0D01*
X-304207Y472440D02*
X25400D01*
X-304207Y0D02*
X-7620D01*
X-301667Y262881D02*
Y472440D01*
Y0D02*
Y201431D01*
X-306747Y457200D02*
X-301667Y472440D01*
X-296587Y457200D01*
X-301667Y0D02*
X-296587Y15240D01*
X-306747D02*
X-301667Y0D01*
X-348373Y505995D02*
X664167D01*
X-348373Y-2005D02*
X29167D01*
X-345833Y279926D02*
Y505995D01*
Y-2005D02*
Y215936D01*
X-350913Y490755D02*
X-345833Y505995D01*
X-340753Y490755D01*
X-345833Y-2005D02*
X-340753Y13235D01*
X-350913D02*
X-345833Y-2005D01*
X-392540Y533400D02*
X0D01*
X-392540Y0D02*
X-7620D01*
X-390000Y293361D02*
Y533400D01*
Y0D02*
Y231911D01*
X-395080Y518160D02*
X-390000Y533400D01*
X-384920Y518160D01*
X-390000Y0D02*
X-384920Y15240D01*
X-395080D02*
X-390000Y0D01*
D86*
X676400Y355600D02*
G03*
X676400Y355600I-16000J0D01*
G01*
Y76200D02*
G03*
X676400Y76200I-16000J0D01*
G01*
X155700Y25400D02*
G03*
X155700Y25400I-16000J0D01*
G01*
X168400Y508000D02*
G03*
X168400Y508000I-16000J0D01*
G01*
X0Y0D02*
X685800D01*
X686000Y200D01*
Y533000D01*
X-0D02*
X686000D01*
X-0D02*
X0Y533000D01*
Y0D02*
Y533000D01*
D87*
X47000Y756842D02*
Y791831D01*
X58663Y780168D01*
X70326Y791831D01*
Y756842D01*
X99483D02*
X87820D01*
X81989Y762674D01*
Y774337D01*
X87820Y780168D01*
X99483D01*
X105315Y774337D01*
Y768505D01*
X81989D01*
X140303Y780168D02*
X122809D01*
X116977Y774337D01*
Y762674D01*
X122809Y756842D01*
X140303D01*
X151966Y791831D02*
Y756842D01*
Y774337D01*
X157798Y780168D01*
X169460D01*
X175292Y774337D01*
Y756842D01*
X192786Y780168D02*
X204449D01*
X210281Y774337D01*
Y756842D01*
X192786D01*
X186955Y762674D01*
X192786Y768505D01*
X210281D01*
X221943Y756842D02*
Y780168D01*
X239438D01*
X245269Y774337D01*
Y756842D01*
X256932D02*
X268595D01*
X262764D01*
Y780168D01*
X256932D01*
X309415D02*
X291921D01*
X286089Y774337D01*
Y762674D01*
X291921Y756842D01*
X309415D01*
X326910Y780168D02*
X338573D01*
X344404Y774337D01*
Y756842D01*
X326910D01*
X321078Y762674D01*
X326910Y768505D01*
X344404D01*
X356067Y756842D02*
X367730D01*
X361898D01*
Y791831D01*
X356067D01*
X420213D02*
Y756842D01*
X437707D01*
X443539Y762674D01*
Y786000D01*
X437707Y791831D01*
X420213D01*
X455201Y780168D02*
Y756842D01*
Y768505D01*
X461033Y774337D01*
X466864Y780168D01*
X472696D01*
X496022D02*
X507685D01*
X513516Y774337D01*
Y756842D01*
X496022D01*
X490190Y762674D01*
X496022Y768505D01*
X513516D01*
X525179Y780168D02*
Y762674D01*
X531010Y756842D01*
X536842Y762674D01*
X542673Y756842D01*
X548505Y762674D01*
Y780168D01*
X560168Y756842D02*
X571830D01*
X565999D01*
Y780168D01*
X560168D01*
X589325Y756842D02*
Y780168D01*
X606819D01*
X612651Y774337D01*
Y756842D01*
X635976Y745180D02*
X641808D01*
X647639Y751011D01*
Y780168D01*
X630145D01*
X624314Y774337D01*
Y762674D01*
X630145Y756842D01*
X647639D01*
X157797Y686393D02*
Y709719D01*
X169460Y721382D01*
X181123Y709719D01*
Y686393D01*
Y703887D01*
X157797D01*
X192786Y709719D02*
Y686393D01*
Y698056D01*
X198618Y703887D01*
X204449Y709719D01*
X210281D01*
X251101Y721382D02*
Y686393D01*
X233606D01*
X227775Y692225D01*
Y703887D01*
X233606Y709719D01*
X251101D01*
X262764D02*
Y692225D01*
X268595Y686393D01*
X286089D01*
Y709719D01*
X297752Y686393D02*
X309415D01*
X303584D01*
Y709719D01*
X297752D01*
X326910Y686393D02*
Y709719D01*
X344404D01*
X350235Y703887D01*
Y686393D01*
X367730D02*
X379393D01*
X385224Y692225D01*
Y703887D01*
X379393Y709719D01*
X367730D01*
X361898Y703887D01*
Y692225D01*
X367730Y686393D01*
X431876Y721382D02*
Y698056D01*
X443539Y686393D01*
X455201Y698056D01*
Y721382D01*
X466864Y686393D02*
X478527D01*
X472696D01*
Y721382D01*
X466864Y715550D01*
X496022Y721382D02*
X507685D01*
X501853D01*
Y686393D01*
X496022D01*
X507685D01*
X525179D02*
X536842D01*
X531010D01*
Y721382D01*
X525179Y715550D01*
D88*
X55629Y-172906D02*
X45473D01*
Y-180524D01*
X50551Y-177985D01*
X53090D01*
X55629Y-180524D01*
Y-185602D01*
X53090Y-188142D01*
X48012D01*
X45473Y-185602D01*
X70864Y-172906D02*
X60708D01*
Y-180524D01*
X65786Y-177985D01*
X68325D01*
X70864Y-180524D01*
Y-185602D01*
X68325Y-188142D01*
X63247D01*
X60708Y-185602D01*
X75943Y-175446D02*
X78482Y-172906D01*
X83560D01*
X86099Y-175446D01*
Y-185602D01*
X83560Y-188142D01*
X78482D01*
X75943Y-185602D01*
Y-175446D01*
X61979Y-215907D02*
X56901Y-218446D01*
X51823Y-223524D01*
Y-228602D01*
X54362Y-231142D01*
X59440D01*
X61979Y-228602D01*
Y-226063D01*
X59440Y-223524D01*
X51823D01*
X67058Y-218446D02*
X69597Y-215907D01*
X74675D01*
X77214Y-218446D01*
Y-228602D01*
X74675Y-231142D01*
X69597D01*
X67058Y-228602D01*
Y-218446D01*
X82293D02*
X84832Y-215907D01*
X89910D01*
X92449Y-218446D01*
Y-228602D01*
X89910Y-231142D01*
X84832D01*
X82293Y-228602D01*
Y-218446D01*
X110244Y-274142D02*
X115323D01*
X112783D01*
Y-258906D01*
X110244Y-261446D01*
X122940Y-274142D02*
X128019D01*
X125479D01*
Y-258906D01*
X122940Y-261446D01*
X135636D02*
X138175Y-258906D01*
X143253D01*
X145793Y-261446D01*
Y-271602D01*
X143253Y-274142D01*
X138175D01*
X135636Y-271602D01*
Y-261446D01*
X150871D02*
X153410Y-258906D01*
X158489D01*
X161028Y-261446D01*
Y-271602D01*
X158489Y-274142D01*
X153410D01*
X150871Y-271602D01*
Y-261446D01*
X177555Y-317142D02*
X182633D01*
X180094D01*
Y-301907D01*
X177555Y-304446D01*
X200407Y-301907D02*
X195329Y-304446D01*
X190250Y-309524D01*
Y-314602D01*
X192790Y-317142D01*
X197868D01*
X200407Y-314602D01*
Y-312063D01*
X197868Y-309524D01*
X190250D01*
X213103Y-317142D02*
Y-301907D01*
X205486Y-309524D01*
X215642D01*
X220721Y-304446D02*
X223260Y-301907D01*
X228338D01*
X230877Y-304446D01*
Y-314602D01*
X228338Y-317142D01*
X223260D01*
X220721Y-314602D01*
Y-304446D01*
X240157Y-355316D02*
X230000D01*
X240157Y-345159D01*
Y-342620D01*
X237617Y-340080D01*
X232539D01*
X230000Y-342620D01*
X245235D02*
X247774Y-340080D01*
X252853D01*
X255392Y-342620D01*
Y-352776D01*
X252853Y-355316D01*
X247774D01*
X245235Y-352776D01*
Y-342620D01*
X260470D02*
X263009Y-340080D01*
X268088D01*
X270627Y-342620D01*
Y-352776D01*
X268088Y-355316D01*
X263009D01*
X260470Y-352776D01*
Y-342620D01*
X275705D02*
X278244Y-340080D01*
X283323D01*
X285862Y-342620D01*
Y-352776D01*
X283323Y-355316D01*
X278244D01*
X275705Y-352776D01*
Y-342620D01*
X295662Y-403142D02*
X285505D01*
X295662Y-392985D01*
Y-390446D01*
X293123Y-387906D01*
X288044D01*
X285505Y-390446D01*
X310897Y-387906D02*
X300740D01*
Y-395524D01*
X305819Y-392985D01*
X308358D01*
X310897Y-395524D01*
Y-400602D01*
X308358Y-403142D01*
X303279D01*
X300740Y-400602D01*
X315975Y-390446D02*
X318514Y-387906D01*
X323593D01*
X326132Y-390446D01*
Y-400602D01*
X323593Y-403142D01*
X318514D01*
X315975Y-400602D01*
Y-390446D01*
X331210D02*
X333749Y-387906D01*
X338828D01*
X341367Y-390446D01*
Y-400602D01*
X338828Y-403142D01*
X333749D01*
X331210Y-400602D01*
Y-390446D01*
X308362Y-446142D02*
X298205D01*
X308362Y-435985D01*
Y-433446D01*
X305823Y-430906D01*
X300744D01*
X298205Y-433446D01*
X323597Y-430906D02*
X318519Y-433446D01*
X313440Y-438524D01*
Y-443602D01*
X315979Y-446142D01*
X321058D01*
X323597Y-443602D01*
Y-441063D01*
X321058Y-438524D01*
X313440D01*
X328675Y-433446D02*
X331214Y-430906D01*
X336293D01*
X338832Y-433446D01*
Y-443602D01*
X336293Y-446142D01*
X331214D01*
X328675Y-443602D01*
Y-433446D01*
X343910D02*
X346449Y-430906D01*
X351528D01*
X354067Y-433446D01*
Y-443602D01*
X351528Y-446142D01*
X346449D01*
X343910Y-443602D01*
Y-433446D01*
X321062Y-489142D02*
X310905D01*
X321062Y-478985D01*
Y-476446D01*
X318523Y-473907D01*
X313444D01*
X310905Y-476446D01*
X326140Y-473907D02*
X336297D01*
Y-476446D01*
X326140Y-486602D01*
Y-489142D01*
X341375Y-476446D02*
X343915Y-473907D01*
X348993D01*
X351532Y-476446D01*
Y-486602D01*
X348993Y-489142D01*
X343915D01*
X341375Y-486602D01*
Y-476446D01*
X356610D02*
X359150Y-473907D01*
X364228D01*
X366767Y-476446D01*
Y-486602D01*
X364228Y-489142D01*
X359150D01*
X356610Y-486602D01*
Y-476446D01*
X48260Y-46446D02*
X50799Y-43907D01*
X55878D01*
X58417Y-46446D01*
Y-48985D01*
X55878Y-51524D01*
X58417Y-54063D01*
Y-56603D01*
X55878Y-59142D01*
X50799D01*
X48260Y-56603D01*
Y-54063D01*
X50799Y-51524D01*
X48260Y-48985D01*
Y-46446D01*
X50799Y-51524D02*
X55878D01*
X63495Y-46446D02*
X66034Y-43907D01*
X71113D01*
X73652Y-46446D01*
Y-56603D01*
X71113Y-59142D01*
X66034D01*
X63495Y-56603D01*
Y-46446D01*
X53340Y-145142D02*
X58418D01*
X55879D01*
Y-129907D01*
X53340Y-132446D01*
X66036D02*
X68575Y-129907D01*
X73653D01*
X76193Y-132446D01*
Y-142602D01*
X73653Y-145142D01*
X68575D01*
X66036Y-142602D01*
Y-132446D01*
X81271D02*
X83810Y-129907D01*
X88889D01*
X91428Y-132446D01*
Y-142602D01*
X88889Y-145142D01*
X83810D01*
X81271Y-142602D01*
Y-132446D01*
X-30859Y-69076D02*
Y-63997D01*
Y-66536D01*
X-46094D01*
X-43554Y-69076D01*
Y-56380D02*
X-46094Y-53841D01*
Y-48762D01*
X-43554Y-46223D01*
X-33398D01*
X-30859Y-48762D01*
Y-53841D01*
X-33398Y-56380D01*
X-43554D01*
Y-41145D02*
X-46094Y-38605D01*
Y-33527D01*
X-43554Y-30988D01*
X-33398D01*
X-30859Y-33527D01*
Y-38605D01*
X-33398Y-41145D01*
X-43554D01*
X-92696Y-102142D02*
X-95235Y-99602D01*
Y-94524D01*
X-92696Y-91985D01*
X-90157D01*
X-87618Y-94524D01*
Y-97063D01*
Y-94524D01*
X-85078Y-91985D01*
X-82539D01*
X-80000Y-94524D01*
Y-99602D01*
X-82539Y-102142D01*
X-92696Y-86907D02*
X-95235Y-84367D01*
Y-79289D01*
X-92696Y-76750D01*
X-82539D01*
X-80000Y-79289D01*
Y-84367D01*
X-82539Y-86907D01*
X-92696D01*
Y-71672D02*
X-95235Y-69132D01*
Y-64054D01*
X-92696Y-61515D01*
X-82539D01*
X-80000Y-64054D01*
Y-69132D01*
X-82539Y-71672D01*
X-92696D01*
X-131094Y53089D02*
Y42933D01*
X-123476D01*
X-126015Y48011D01*
Y50550D01*
X-123476Y53089D01*
X-118398D01*
X-115858Y50550D01*
Y45472D01*
X-118398Y42933D01*
X-128554Y58168D02*
X-131094Y60707D01*
Y65785D01*
X-128554Y68324D01*
X-126015D01*
X-123476Y65785D01*
Y63246D01*
Y65785D01*
X-120937Y68324D01*
X-118398D01*
X-115858Y65785D01*
Y60707D01*
X-118398Y58168D01*
X-128554Y73403D02*
X-131094Y75942D01*
Y81020D01*
X-128554Y83559D01*
X-118398D01*
X-115858Y81020D01*
Y75942D01*
X-118398Y73403D01*
X-128554D01*
X-162564Y95162D02*
X-160025Y97701D01*
Y102779D01*
X-162564Y105318D01*
X-172721D01*
X-175260Y102779D01*
Y97701D01*
X-172721Y95162D01*
X-170182D01*
X-167643Y97701D01*
Y105318D01*
X-160025Y120554D02*
Y110397D01*
X-170182Y120554D01*
X-172721D01*
X-175260Y118014D01*
Y112936D01*
X-172721Y110397D01*
X-160025Y125632D02*
Y130710D01*
Y128171D01*
X-175260D01*
X-172721Y125632D01*
X-204192Y147075D02*
Y152153D01*
Y149614D01*
X-219427D01*
X-216888Y147075D01*
X-204192Y167388D02*
X-219427D01*
X-211809Y159770D01*
Y169927D01*
X-216888Y175006D02*
X-219427Y177545D01*
Y182623D01*
X-216888Y185162D01*
X-206731D01*
X-204192Y182623D01*
Y177545D01*
X-206731Y175006D01*
X-216888D01*
Y190241D02*
X-219427Y192780D01*
Y197858D01*
X-216888Y200397D01*
X-206731D01*
X-204192Y197858D01*
Y192780D01*
X-206731Y190241D01*
X-216888D01*
X-248358Y162315D02*
Y167393D01*
Y164854D01*
X-263594D01*
X-261054Y162315D01*
X-263594Y185167D02*
Y175011D01*
X-255976D01*
X-258515Y180089D01*
Y182628D01*
X-255976Y185167D01*
X-250898D01*
X-248358Y182628D01*
Y177550D01*
X-250898Y175011D01*
X-248358Y200402D02*
Y190246D01*
X-258515Y200402D01*
X-261054D01*
X-263594Y197863D01*
Y192785D01*
X-261054Y190246D01*
Y205481D02*
X-263594Y208020D01*
Y213098D01*
X-261054Y215637D01*
X-250898D01*
X-248358Y213098D01*
Y208020D01*
X-250898Y205481D01*
X-261054D01*
X-292525Y205495D02*
Y210573D01*
Y208034D01*
X-307760D01*
X-305221Y205495D01*
Y218190D02*
X-307760Y220730D01*
Y225808D01*
X-305221Y228347D01*
X-302682D01*
X-300143Y225808D01*
X-297603Y228347D01*
X-295064D01*
X-292525Y225808D01*
Y220730D01*
X-295064Y218190D01*
X-297603D01*
X-300143Y220730D01*
X-302682Y218190D01*
X-305221D01*
X-300143Y220730D02*
Y225808D01*
X-307760Y243582D02*
X-305221Y238504D01*
X-300143Y233426D01*
X-295064D01*
X-292525Y235965D01*
Y241043D01*
X-295064Y243582D01*
X-297603D01*
X-300143Y241043D01*
Y233426D01*
X-305221Y248661D02*
X-307760Y251200D01*
Y256278D01*
X-305221Y258817D01*
X-295064D01*
X-292525Y256278D01*
Y251200D01*
X-295064Y248661D01*
X-305221D01*
X-336692Y230157D02*
Y220000D01*
X-346848Y230157D01*
X-349388D01*
X-351927Y227617D01*
Y222539D01*
X-349388Y220000D01*
Y235235D02*
X-351927Y237774D01*
Y242853D01*
X-349388Y245392D01*
X-339231D01*
X-336692Y242853D01*
Y237774D01*
X-339231Y235235D01*
X-349388D01*
Y250470D02*
X-351927Y253009D01*
Y258088D01*
X-349388Y260627D01*
X-339231D01*
X-336692Y258088D01*
Y253009D01*
X-339231Y250470D01*
X-349388D01*
Y265705D02*
X-351927Y268244D01*
Y273323D01*
X-349388Y275862D01*
X-339231D01*
X-336692Y273323D01*
Y268244D01*
X-339231Y265705D01*
X-349388D01*
X-380858Y246131D02*
Y235975D01*
X-391015Y246131D01*
X-393554D01*
X-396093Y243592D01*
Y238514D01*
X-393554Y235975D01*
X-380858Y251210D02*
Y256288D01*
Y253749D01*
X-396093D01*
X-393554Y251210D01*
Y263906D02*
X-396093Y266445D01*
Y271523D01*
X-393554Y274062D01*
X-383398D01*
X-380858Y271523D01*
Y266445D01*
X-383398Y263906D01*
X-393554D01*
Y279141D02*
X-396093Y281680D01*
Y286758D01*
X-393554Y289297D01*
X-383398D01*
X-380858Y286758D01*
Y281680D01*
X-383398Y279141D01*
X-393554D01*
D89*
X-336458Y-213072D02*
X-339843Y-209687D01*
X-346614D01*
X-350000Y-213072D01*
Y-216458D01*
X-346614Y-219843D01*
X-339843D01*
X-336458Y-223229D01*
Y-226614D01*
X-339843Y-230000D01*
X-346614D01*
X-350000Y-226614D01*
X-316144Y-216458D02*
X-326301D01*
X-329687Y-219843D01*
Y-226614D01*
X-326301Y-230000D01*
X-316144D01*
X-305988Y-216458D02*
X-299216D01*
X-295831Y-219843D01*
Y-230000D01*
X-305988D01*
X-309373Y-226614D01*
X-305988Y-223229D01*
X-295831D01*
X-289060Y-230000D02*
X-282289D01*
X-285674D01*
Y-209687D01*
X-289060D01*
X-261975Y-230000D02*
X-268746D01*
X-272132Y-226614D01*
Y-219843D01*
X-268746Y-216458D01*
X-261975D01*
X-258590Y-219843D01*
Y-223229D01*
X-272132D01*
X-251819Y-216458D02*
X-248433D01*
Y-219843D01*
X-251819D01*
Y-216458D01*
Y-226614D02*
X-248433D01*
Y-230000D01*
X-251819D01*
Y-226614D01*
X-214577Y-230000D02*
X-207806D01*
X-211192D01*
Y-209687D01*
X-214577Y-213072D01*
X-197649Y-216458D02*
X-194264D01*
Y-219843D01*
X-197649D01*
Y-216458D01*
Y-226614D02*
X-194264D01*
Y-230000D01*
X-197649D01*
Y-226614D01*
X-180721Y-230000D02*
X-173950D01*
X-177336D01*
Y-209687D01*
X-180721Y-213072D01*
X-350000Y-165542D02*
Y-182470D01*
X-346614Y-185856D01*
X-339843D01*
X-336458Y-182470D01*
Y-165542D01*
X-329687Y-185856D02*
Y-172313D01*
X-319530D01*
X-316144Y-175699D01*
Y-185856D01*
X-309373D02*
X-302602D01*
X-305988D01*
Y-172313D01*
X-309373D01*
X-289060Y-168928D02*
Y-172313D01*
X-292445D01*
X-285674D01*
X-289060D01*
Y-182470D01*
X-285674Y-185856D01*
X-275517D02*
X-265361D01*
X-261975Y-182470D01*
X-265361Y-179084D01*
X-272132D01*
X-275517Y-175699D01*
X-272132Y-172313D01*
X-261975D01*
X-255204D02*
X-251818D01*
Y-175699D01*
X-255204D01*
Y-172313D01*
Y-182470D02*
X-251818D01*
Y-185856D01*
X-255204D01*
Y-182470D01*
X-217963Y-185856D02*
Y-165542D01*
X-211192Y-172313D01*
X-204420Y-165542D01*
Y-185856D01*
X-197649D02*
X-190878D01*
X-194264D01*
Y-172313D01*
X-197649D01*
X-180721Y-185856D02*
X-173950D01*
X-177336D01*
Y-165542D01*
X-180721D01*
X-163794Y-185856D02*
X-153637D01*
X-150251Y-182470D01*
X-153637Y-179084D01*
X-160408D01*
X-163794Y-175699D01*
X-160408Y-172313D01*
X-150251D01*
M02*
