G04 Layer_Color=16777215*
%FSLAX44Y44*%
%MOMM*%
G71*
G01*
G75*
%ADD50C,0.5000*%
%ADD51C,0.2540*%
D50*
X691000Y-281010D02*
Y-301003D01*
X700997Y-311000D01*
X710993Y-301003D01*
Y-281010D01*
X720990Y-311000D02*
X730987D01*
X725989D01*
Y-281010D01*
X720990Y-286008D01*
X745982Y-281010D02*
X755979D01*
X750981D01*
Y-311000D01*
X745982D01*
X755979D01*
X770974D02*
X780971D01*
X775973D01*
Y-281010D01*
X770974Y-286008D01*
X-29000Y-311000D02*
Y-291007D01*
X-19003Y-281010D01*
X-9007Y-291007D01*
Y-311000D01*
Y-296005D01*
X-29000D01*
X990Y-291007D02*
Y-311000D01*
Y-301003D01*
X5989Y-296005D01*
X10987Y-291007D01*
X15985D01*
X50974Y-281010D02*
Y-311000D01*
X35979D01*
X30981Y-306002D01*
Y-296005D01*
X35979Y-291007D01*
X50974D01*
X60971D02*
Y-306002D01*
X65969Y-311000D01*
X80964D01*
Y-291007D01*
X90961Y-311000D02*
X100958D01*
X95960D01*
Y-291007D01*
X90961D01*
X115953Y-311000D02*
Y-291007D01*
X130948D01*
X135947Y-296005D01*
Y-311000D01*
X150942D02*
X160938D01*
X165937Y-306002D01*
Y-296005D01*
X160938Y-291007D01*
X150942D01*
X145943Y-296005D01*
Y-306002D01*
X150942Y-311000D01*
D51*
X-84000Y-536000D02*
X841000D01*
Y-535250D02*
Y-435250D01*
X-84000Y-535250D02*
Y-435250D01*
Y-436000D02*
X841000D01*
X-84000D02*
Y-261000D01*
X316000Y-436000D02*
Y-336000D01*
X666000D02*
Y-261000D01*
X-84000Y-336000D02*
X841000D01*
Y-436000D02*
Y-261000D01*
X-84000D02*
X841000D01*
X-189000Y966696D02*
X-178843Y956539D01*
X-189000D02*
X-178843Y966696D01*
X-189000Y961618D02*
X-178843D01*
X-183922Y956539D02*
Y966696D01*
X-173765Y954000D02*
Y956539D01*
X-171226D01*
Y954000D01*
X-173765D01*
X-150912Y966696D02*
X-153451Y969235D01*
X-158530D01*
X-161069Y966696D01*
Y956539D01*
X-158530Y954000D01*
X-153451D01*
X-150912Y956539D01*
Y961618D01*
X-155991D01*
X-145834Y954000D02*
Y969235D01*
X-140756Y964157D01*
X-135677Y969235D01*
Y954000D01*
X-130599Y966696D02*
X-128060Y969235D01*
X-122981D01*
X-120442Y966696D01*
Y964157D01*
X-122981Y961618D01*
X-125521D01*
X-122981D01*
X-120442Y959078D01*
Y956539D01*
X-122981Y954000D01*
X-128060D01*
X-130599Y956539D01*
X-100129Y961618D02*
X-89972D01*
X-69659Y954000D02*
Y969235D01*
X-64580Y964157D01*
X-59502Y969235D01*
Y954000D01*
X-51884Y964157D02*
X-46806D01*
X-44267Y961618D01*
Y954000D01*
X-51884D01*
X-54424Y956539D01*
X-51884Y959078D01*
X-44267D01*
X-39188Y954000D02*
Y964157D01*
X-31571D01*
X-29032Y961618D01*
Y954000D01*
X-23953Y964157D02*
Y956539D01*
X-21414Y954000D01*
X-13797D01*
Y964157D01*
X-6179Y954000D02*
Y966696D01*
Y961618D01*
X-8718D01*
X-3640D01*
X-6179D01*
Y966696D01*
X-3640Y969235D01*
X6517Y964157D02*
X11595D01*
X14134Y961618D01*
Y954000D01*
X6517D01*
X3977Y956539D01*
X6517Y959078D01*
X14134D01*
X29369Y964157D02*
X21752D01*
X19213Y961618D01*
Y956539D01*
X21752Y954000D01*
X29369D01*
X36987Y966696D02*
Y964157D01*
X34448D01*
X39526D01*
X36987D01*
Y956539D01*
X39526Y954000D01*
X47144Y964157D02*
Y956539D01*
X49683Y954000D01*
X57300D01*
Y964157D01*
X62379D02*
Y954000D01*
Y959078D01*
X64918Y961618D01*
X67457Y964157D01*
X69996D01*
X77614Y954000D02*
X82692D01*
X80153D01*
Y964157D01*
X77614D01*
X90310Y954000D02*
Y964157D01*
X97927D01*
X100466Y961618D01*
Y954000D01*
X110623Y948922D02*
X113162D01*
X115701Y951461D01*
Y964157D01*
X108084D01*
X105545Y961618D01*
Y956539D01*
X108084Y954000D01*
X115701D01*
X136015D02*
Y969235D01*
X146172Y954000D01*
Y969235D01*
X153789Y954000D02*
X158867D01*
X161407Y956539D01*
Y961618D01*
X158867Y964157D01*
X153789D01*
X151250Y961618D01*
Y956539D01*
X153789Y954000D01*
X169024Y966696D02*
Y964157D01*
X166485D01*
X171563D01*
X169024D01*
Y956539D01*
X171563Y954000D01*
X186798D02*
X181720D01*
X179181Y956539D01*
Y961618D01*
X181720Y964157D01*
X186798D01*
X189338Y961618D01*
Y959078D01*
X179181D01*
X194416Y954000D02*
X202034D01*
X204573Y956539D01*
X202034Y959078D01*
X196955D01*
X194416Y961618D01*
X196955Y964157D01*
X204573D01*
X366000Y-395765D02*
Y-411000D01*
Y-403382D01*
X368539Y-400843D01*
X373618D01*
X376157Y-403382D01*
Y-411000D01*
X383774Y-398304D02*
Y-400843D01*
X381235D01*
X386313D01*
X383774D01*
Y-408461D01*
X386313Y-411000D01*
X396470Y-398304D02*
Y-400843D01*
X393931D01*
X399009D01*
X396470D01*
Y-408461D01*
X399009Y-411000D01*
X406627Y-416078D02*
Y-400843D01*
X414244D01*
X416784Y-403382D01*
Y-408461D01*
X414244Y-411000D01*
X406627D01*
X421862Y-400843D02*
X424401D01*
Y-403382D01*
X421862D01*
Y-400843D01*
Y-408461D02*
X424401D01*
Y-411000D01*
X421862D01*
Y-408461D01*
X434558Y-411000D02*
X444715Y-400843D01*
X449793Y-411000D02*
X459950Y-400843D01*
X465028D02*
Y-408461D01*
X467567Y-411000D01*
X470106Y-408461D01*
X472645Y-411000D01*
X475185Y-408461D01*
Y-400843D01*
X480263D02*
Y-408461D01*
X482802Y-411000D01*
X485341Y-408461D01*
X487881Y-411000D01*
X490420Y-408461D01*
Y-400843D01*
X495498D02*
Y-408461D01*
X498037Y-411000D01*
X500576Y-408461D01*
X503116Y-411000D01*
X505655Y-408461D01*
Y-400843D01*
X510733Y-411000D02*
Y-408461D01*
X513272D01*
Y-411000D01*
X510733D01*
X523429Y-400843D02*
X533586D01*
X523429Y-411000D01*
X533586D01*
X541203D02*
X546282D01*
X548821Y-408461D01*
Y-403382D01*
X546282Y-400843D01*
X541203D01*
X538664Y-403382D01*
Y-408461D01*
X541203Y-411000D01*
X553899Y-400843D02*
X558978Y-411000D01*
X564056Y-400843D01*
X569134Y-411000D02*
X574213D01*
X571674D01*
Y-400843D01*
X569134D01*
X581830Y-411000D02*
Y-400843D01*
X589448D01*
X591987Y-403382D01*
Y-411000D01*
X599604D02*
X604683D01*
X607222Y-408461D01*
Y-403382D01*
X604683Y-400843D01*
X599604D01*
X597065Y-403382D01*
Y-408461D01*
X599604Y-411000D01*
X612300D02*
Y-408461D01*
X614840D01*
Y-411000D01*
X612300D01*
X635153Y-400843D02*
X627535D01*
X624996Y-403382D01*
Y-408461D01*
X627535Y-411000D01*
X635153D01*
X642770D02*
X647849D01*
X650388Y-408461D01*
Y-403382D01*
X647849Y-400843D01*
X642770D01*
X640231Y-403382D01*
Y-408461D01*
X642770Y-411000D01*
X655466D02*
Y-400843D01*
X658006D01*
X660545Y-403382D01*
Y-411000D01*
Y-403382D01*
X663084Y-400843D01*
X665623Y-403382D01*
Y-411000D01*
X366000Y-370765D02*
Y-386000D01*
X373618D01*
X376157Y-383461D01*
Y-373304D01*
X373618Y-370765D01*
X366000D01*
X388853Y-386000D02*
X383774D01*
X381235Y-383461D01*
Y-378382D01*
X383774Y-375843D01*
X388853D01*
X391392Y-378382D01*
Y-380922D01*
X381235D01*
X396470Y-386000D02*
X404088D01*
X406627Y-383461D01*
X404088Y-380922D01*
X399009D01*
X396470Y-378382D01*
X399009Y-375843D01*
X406627D01*
X411705Y-386000D02*
X416784D01*
X414244D01*
Y-375843D01*
X411705D01*
X429479Y-391078D02*
X432019D01*
X434558Y-388539D01*
Y-375843D01*
X426940D01*
X424401Y-378382D01*
Y-383461D01*
X426940Y-386000D01*
X434558D01*
X439636D02*
Y-375843D01*
X447254D01*
X449793Y-378382D01*
Y-386000D01*
X462489D02*
X457410D01*
X454871Y-383461D01*
Y-378382D01*
X457410Y-375843D01*
X462489D01*
X465028Y-378382D01*
Y-380922D01*
X454871D01*
X480263Y-370765D02*
Y-386000D01*
X472645D01*
X470106Y-383461D01*
Y-378382D01*
X472645Y-375843D01*
X480263D01*
X500577Y-370765D02*
Y-386000D01*
X508194D01*
X510733Y-383461D01*
Y-380922D01*
Y-378382D01*
X508194Y-375843D01*
X500577D01*
X515812D02*
Y-383461D01*
X518351Y-386000D01*
X525968D01*
Y-388539D01*
X523429Y-391078D01*
X520890D01*
X525968Y-386000D02*
Y-375843D01*
X546282Y-370765D02*
X556438D01*
Y-373304D01*
X546282Y-383461D01*
Y-386000D01*
X556438D01*
X564056Y-375843D02*
X569134D01*
X571674Y-378382D01*
Y-386000D01*
X564056D01*
X561517Y-383461D01*
X564056Y-380922D01*
X571674D01*
X576752Y-386000D02*
Y-370765D01*
Y-380922D02*
X584369Y-375843D01*
X576752Y-380922D02*
X584369Y-386000D01*
X594526Y-375843D02*
X599604D01*
X602144Y-378382D01*
Y-386000D01*
X594526D01*
X591987Y-383461D01*
X594526Y-380922D01*
X602144D01*
X607222Y-375843D02*
Y-386000D01*
Y-380922D01*
X609761Y-378382D01*
X612300Y-375843D01*
X614840D01*
X622457Y-386000D02*
X627535D01*
X624996D01*
Y-375843D01*
X622457D01*
X637692D02*
X642770D01*
X645310Y-378382D01*
Y-386000D01*
X637692D01*
X635153Y-383461D01*
X637692Y-380922D01*
X645310D01*
X675780Y-370765D02*
X665623D01*
Y-386000D01*
X675780D01*
X665623Y-378382D02*
X670701D01*
X680858Y-370765D02*
Y-386000D01*
X691015D01*
X711328Y-370765D02*
Y-386000D01*
Y-380922D01*
X721485Y-370765D01*
X713867Y-378382D01*
X721485Y-386000D01*
X726563Y-370765D02*
Y-386000D01*
Y-378382D01*
X736720D01*
Y-370765D01*
Y-386000D01*
X741798D02*
Y-375843D01*
X746877Y-370765D01*
X751955Y-375843D01*
Y-386000D01*
Y-378382D01*
X741798D01*
X767190Y-373304D02*
X764651Y-370765D01*
X759573D01*
X757033Y-373304D01*
Y-383461D01*
X759573Y-386000D01*
X764651D01*
X767190Y-383461D01*
X772269Y-370765D02*
Y-386000D01*
Y-378382D01*
X782425D01*
Y-370765D01*
Y-386000D01*
X787504Y-370765D02*
X792582D01*
X790043D01*
Y-386000D01*
X787504D01*
X792582D01*
X800200D02*
Y-370765D01*
X810356Y-386000D01*
Y-370765D01*
X-34000Y-395765D02*
X-23843D01*
Y-398304D01*
X-34000Y-408461D01*
Y-411000D01*
X-23843D01*
X-16226D02*
X-11147D01*
X-8608Y-408461D01*
Y-403382D01*
X-11147Y-400843D01*
X-16226D01*
X-18765Y-403382D01*
Y-408461D01*
X-16226Y-411000D01*
X-3530Y-395765D02*
Y-405922D01*
X1549Y-411000D01*
X6627Y-405922D01*
Y-395765D01*
X11705Y-411000D02*
X16784D01*
X14244D01*
Y-400843D01*
X11705D01*
X24401Y-411000D02*
Y-400843D01*
X32019D01*
X34558Y-403382D01*
Y-411000D01*
X42175D02*
X47254D01*
X49793Y-408461D01*
Y-403382D01*
X47254Y-400843D01*
X42175D01*
X39636Y-403382D01*
Y-408461D01*
X42175Y-411000D01*
X80263Y-398304D02*
X77724Y-395765D01*
X72646D01*
X70106Y-398304D01*
Y-408461D01*
X72646Y-411000D01*
X77724D01*
X80263Y-408461D01*
X87881Y-411000D02*
X92959D01*
X95498Y-408461D01*
Y-403382D01*
X92959Y-400843D01*
X87881D01*
X85341Y-403382D01*
Y-408461D01*
X87881Y-411000D01*
X100576Y-400843D02*
Y-411000D01*
Y-405922D01*
X103116Y-403382D01*
X105655Y-400843D01*
X108194D01*
X115812Y-416078D02*
Y-400843D01*
X123429D01*
X125968Y-403382D01*
Y-408461D01*
X123429Y-411000D01*
X115812D01*
X133586D02*
X138664D01*
X141203Y-408461D01*
Y-403382D01*
X138664Y-400843D01*
X133586D01*
X131047Y-403382D01*
Y-408461D01*
X133586Y-411000D01*
X146282Y-400843D02*
Y-411000D01*
Y-405922D01*
X148821Y-403382D01*
X151360Y-400843D01*
X153899D01*
X164056D02*
X169134D01*
X171674Y-403382D01*
Y-411000D01*
X164056D01*
X161517Y-408461D01*
X164056Y-405922D01*
X171674D01*
X179291Y-398304D02*
Y-400843D01*
X176752D01*
X181830D01*
X179291D01*
Y-408461D01*
X181830Y-411000D01*
X189448D02*
X194526D01*
X191987D01*
Y-400843D01*
X189448D01*
X204683Y-411000D02*
X209761D01*
X212300Y-408461D01*
Y-403382D01*
X209761Y-400843D01*
X204683D01*
X202144Y-403382D01*
Y-408461D01*
X204683Y-411000D01*
X217379D02*
Y-400843D01*
X224996D01*
X227535Y-403382D01*
Y-411000D01*
X-23843Y-373304D02*
X-26382Y-370765D01*
X-31461D01*
X-34000Y-373304D01*
Y-383461D01*
X-31461Y-386000D01*
X-26382D01*
X-23843Y-383461D01*
X-16226Y-386000D02*
X-11147D01*
X-8608Y-383461D01*
Y-378382D01*
X-11147Y-375843D01*
X-16226D01*
X-18765Y-378382D01*
Y-383461D01*
X-16226Y-386000D01*
X-3530Y-391078D02*
Y-375843D01*
X4088D01*
X6627Y-378382D01*
Y-383461D01*
X4088Y-386000D01*
X-3530D01*
X11705Y-375843D02*
Y-383461D01*
X14244Y-386000D01*
X21862D01*
Y-388539D01*
X19323Y-391078D01*
X16784D01*
X21862Y-386000D02*
Y-375843D01*
X26940D02*
Y-386000D01*
Y-380922D01*
X29479Y-378382D01*
X32019Y-375843D01*
X34558D01*
X42175Y-386000D02*
X47254D01*
X44715D01*
Y-375843D01*
X42175D01*
X59950Y-391078D02*
X62489D01*
X65028Y-388539D01*
Y-375843D01*
X57410D01*
X54871Y-378382D01*
Y-383461D01*
X57410Y-386000D01*
X65028D01*
X70106Y-370765D02*
Y-386000D01*
Y-378382D01*
X72646Y-375843D01*
X77724D01*
X80263Y-378382D01*
Y-386000D01*
X87881Y-373304D02*
Y-375843D01*
X85341D01*
X90420D01*
X87881D01*
Y-383461D01*
X90420Y-386000D01*
X123429D02*
X113272D01*
X123429Y-375843D01*
Y-373304D01*
X120890Y-370765D01*
X115812D01*
X113272Y-373304D01*
X128507D02*
X131047Y-370765D01*
X136125D01*
X138664Y-373304D01*
Y-383461D01*
X136125Y-386000D01*
X131047D01*
X128507Y-383461D01*
Y-373304D01*
X153899Y-386000D02*
X143743D01*
X153899Y-375843D01*
Y-373304D01*
X151360Y-370765D01*
X146282D01*
X143743Y-373304D01*
X158978D02*
X161517Y-370765D01*
X166595D01*
X169134Y-373304D01*
Y-383461D01*
X166595Y-386000D01*
X161517D01*
X158978Y-383461D01*
Y-373304D01*
X194526Y-386000D02*
X189448Y-380922D01*
Y-375843D01*
X194526Y-370765D01*
X212300Y-373304D02*
X209761Y-370765D01*
X204683D01*
X202144Y-373304D01*
Y-383461D01*
X204683Y-386000D01*
X209761D01*
X212300Y-383461D01*
X217379Y-386000D02*
X222457Y-380922D01*
Y-375843D01*
X217379Y-370765D01*
X116000Y-475843D02*
X126157D01*
X116000Y-486000D01*
X126157D01*
X133774Y-475843D02*
X138853D01*
X141392Y-478382D01*
Y-486000D01*
X133774D01*
X131235Y-483461D01*
X133774Y-480922D01*
X141392D01*
X146470Y-486000D02*
Y-470765D01*
Y-480922D02*
X154088Y-475843D01*
X146470Y-480922D02*
X154088Y-486000D01*
X164244Y-475843D02*
X169323D01*
X171862Y-478382D01*
Y-486000D01*
X164244D01*
X161705Y-483461D01*
X164244Y-480922D01*
X171862D01*
X176940Y-475843D02*
Y-486000D01*
Y-480922D01*
X179480Y-478382D01*
X182019Y-475843D01*
X184558D01*
X192175Y-486000D02*
X197254D01*
X194715D01*
Y-475843D01*
X192175D01*
X207411D02*
X212489D01*
X215028Y-478382D01*
Y-486000D01*
X207411D01*
X204871Y-483461D01*
X207411Y-480922D01*
X215028D01*
X227724Y-486000D02*
X222645D01*
X220106Y-483461D01*
Y-478382D01*
X222645Y-475843D01*
X227724D01*
X230263Y-478382D01*
Y-480922D01*
X220106D01*
X235341Y-486000D02*
X240420D01*
X237881D01*
Y-470765D01*
X235341D01*
X248037Y-486000D02*
Y-470765D01*
Y-480922D02*
X255655Y-475843D01*
X248037Y-480922D02*
X255655Y-486000D01*
X263272Y-470765D02*
Y-486000D01*
Y-478382D01*
X265812Y-475843D01*
X270890D01*
X273429Y-478382D01*
Y-486000D01*
X281047Y-475843D02*
X286125D01*
X288664Y-478382D01*
Y-486000D01*
X281047D01*
X278507Y-483461D01*
X281047Y-480922D01*
X288664D01*
X303899Y-475843D02*
X296282D01*
X293743Y-478382D01*
Y-483461D01*
X296282Y-486000D01*
X303899D01*
X308978Y-470765D02*
Y-486000D01*
Y-478382D01*
X311517Y-475843D01*
X316595D01*
X319134Y-478382D01*
Y-486000D01*
X324213D02*
X329291D01*
X326752D01*
Y-475843D01*
X324213D01*
X336908Y-486000D02*
Y-475843D01*
X344526D01*
X347065Y-478382D01*
Y-486000D01*
X359761Y-480922D02*
Y-478382D01*
X357222D01*
Y-480922D01*
X359761D01*
X362300Y-478382D01*
Y-473304D01*
X359761Y-470765D01*
X354683D01*
X352144Y-473304D01*
Y-483461D01*
X354683Y-486000D01*
X362300D01*
X372457Y-491078D02*
X374996D01*
X377535Y-488539D01*
Y-475843D01*
X369918D01*
X367379Y-478382D01*
Y-483461D01*
X369918Y-486000D01*
X377535D01*
X382614D02*
Y-475843D01*
X385153D01*
X387692Y-478382D01*
Y-486000D01*
Y-478382D01*
X390231Y-475843D01*
X392771Y-478382D01*
Y-486000D01*
X400388Y-475843D02*
X405466D01*
X408006Y-478382D01*
Y-486000D01*
X400388D01*
X397849Y-483461D01*
X400388Y-480922D01*
X408006D01*
X413084Y-486000D02*
X418162D01*
X415623D01*
Y-475843D01*
X413084D01*
X425780Y-486000D02*
X430858D01*
X428319D01*
Y-470765D01*
X425780D01*
X438476Y-486000D02*
Y-483461D01*
X441015D01*
Y-486000D01*
X438476D01*
X461328Y-475843D02*
X453711D01*
X451172Y-478382D01*
Y-483461D01*
X453711Y-486000D01*
X461328D01*
X468946D02*
X474024D01*
X476563Y-483461D01*
Y-478382D01*
X474024Y-475843D01*
X468946D01*
X466407Y-478382D01*
Y-483461D01*
X468946Y-486000D01*
X481642D02*
Y-475843D01*
X484181D01*
X486720Y-478382D01*
Y-486000D01*
Y-478382D01*
X489259Y-475843D01*
X491798Y-478382D01*
Y-486000D01*
X-23843Y-473304D02*
X-26382Y-470765D01*
X-31461D01*
X-34000Y-473304D01*
Y-483461D01*
X-31461Y-486000D01*
X-26382D01*
X-23843Y-483461D01*
X-16226Y-486000D02*
X-11147D01*
X-8608Y-483461D01*
Y-478382D01*
X-11147Y-475843D01*
X-16226D01*
X-18765Y-478382D01*
Y-483461D01*
X-16226Y-486000D01*
X-3530D02*
Y-475843D01*
X4088D01*
X6627Y-478382D01*
Y-486000D01*
X14244Y-473304D02*
Y-475843D01*
X11705D01*
X16784D01*
X14244D01*
Y-483461D01*
X16784Y-486000D01*
X26940Y-475843D02*
X32019D01*
X34558Y-478382D01*
Y-486000D01*
X26940D01*
X24401Y-483461D01*
X26940Y-480922D01*
X34558D01*
X49793Y-475843D02*
X42175D01*
X39636Y-478382D01*
Y-483461D01*
X42175Y-486000D01*
X49793D01*
X57410Y-473304D02*
Y-475843D01*
X54871D01*
X59950D01*
X57410D01*
Y-483461D01*
X59950Y-486000D01*
X67567Y-475843D02*
X70106D01*
Y-478382D01*
X67567D01*
Y-475843D01*
Y-483461D02*
X70106D01*
Y-486000D01*
X67567D01*
Y-483461D01*
X-189000Y941696D02*
X-178843Y931539D01*
X-189000D02*
X-178843Y941696D01*
X-189000Y936618D02*
X-178843D01*
X-183922Y931539D02*
Y941696D01*
X-173765Y929000D02*
Y931539D01*
X-171226D01*
Y929000D01*
X-173765D01*
X-150912Y941696D02*
X-153451Y944235D01*
X-158530D01*
X-161069Y941696D01*
Y931539D01*
X-158530Y929000D01*
X-153451D01*
X-150912Y931539D01*
Y936618D01*
X-155991D01*
X-145834Y929000D02*
Y944235D01*
X-140756Y939157D01*
X-135677Y944235D01*
Y929000D01*
X-122981D02*
Y944235D01*
X-130599Y936618D01*
X-120442D01*
X-100129D02*
X-89972D01*
X-69659Y944235D02*
Y929000D01*
X-59502D01*
X-54424D02*
X-49345D01*
X-51884D01*
Y939157D01*
X-54424D01*
X-31571D02*
X-39188D01*
X-41728Y936618D01*
Y931539D01*
X-39188Y929000D01*
X-31571D01*
X-18875D02*
X-23953D01*
X-26493Y931539D01*
Y936618D01*
X-23953Y939157D01*
X-18875D01*
X-16336Y936618D01*
Y934078D01*
X-26493D01*
X-11257Y929000D02*
Y939157D01*
X-3640D01*
X-1101Y936618D01*
Y929000D01*
X14134Y939157D02*
X6517D01*
X3977Y936618D01*
Y931539D01*
X6517Y929000D01*
X14134D01*
X26830D02*
X21752D01*
X19213Y931539D01*
Y936618D01*
X21752Y939157D01*
X26830D01*
X29369Y936618D01*
Y934078D01*
X19213D01*
X-189000Y991696D02*
X-178843Y981539D01*
X-189000D02*
X-178843Y991696D01*
X-189000Y986618D02*
X-178843D01*
X-183922Y981539D02*
Y991696D01*
X-173765Y979000D02*
Y981539D01*
X-171226D01*
Y979000D01*
X-173765D01*
X-150912Y991696D02*
X-153451Y994235D01*
X-158530D01*
X-161069Y991696D01*
Y981539D01*
X-158530Y979000D01*
X-153451D01*
X-150912Y981539D01*
Y986618D01*
X-155991D01*
X-145834Y979000D02*
Y994235D01*
X-140756Y989157D01*
X-135677Y994235D01*
Y979000D01*
X-120442D02*
X-130599D01*
X-120442Y989157D01*
Y991696D01*
X-122981Y994235D01*
X-128060D01*
X-130599Y991696D01*
X-100129Y986618D02*
X-89972D01*
X-69659Y979000D02*
Y994235D01*
X-64580Y989157D01*
X-59502Y994235D01*
Y979000D01*
X-46806D02*
X-51884D01*
X-54424Y981539D01*
Y986618D01*
X-51884Y989157D01*
X-46806D01*
X-44267Y986618D01*
Y984078D01*
X-54424D01*
X-29032Y989157D02*
X-36649D01*
X-39188Y986618D01*
Y981539D01*
X-36649Y979000D01*
X-29032D01*
X-23953Y994235D02*
Y979000D01*
Y986618D01*
X-21414Y989157D01*
X-16336D01*
X-13797Y986618D01*
Y979000D01*
X-6179Y989157D02*
X-1101D01*
X1438Y986618D01*
Y979000D01*
X-6179D01*
X-8718Y981539D01*
X-6179Y984078D01*
X1438D01*
X6517Y979000D02*
Y989157D01*
X14134D01*
X16673Y986618D01*
Y979000D01*
X21752D02*
X26830D01*
X24291D01*
Y989157D01*
X21752D01*
X44604D02*
X36987D01*
X34448Y986618D01*
Y981539D01*
X36987Y979000D01*
X44604D01*
X52222Y989157D02*
X57300D01*
X59840Y986618D01*
Y979000D01*
X52222D01*
X49683Y981539D01*
X52222Y984078D01*
X59840D01*
X64918Y979000D02*
X69996D01*
X67457D01*
Y994235D01*
X64918D01*
X92849D02*
Y979000D01*
X100466D01*
X103006Y981539D01*
Y991696D01*
X100466Y994235D01*
X92849D01*
X108084Y989157D02*
Y979000D01*
Y984078D01*
X110623Y986618D01*
X113162Y989157D01*
X115701D01*
X125858D02*
X130936D01*
X133476Y986618D01*
Y979000D01*
X125858D01*
X123319Y981539D01*
X125858Y984078D01*
X133476D01*
X138554Y989157D02*
Y981539D01*
X141093Y979000D01*
X143632Y981539D01*
X146172Y979000D01*
X148711Y981539D01*
Y989157D01*
X153789Y979000D02*
X158867D01*
X156328D01*
Y989157D01*
X153789D01*
X166485Y979000D02*
Y989157D01*
X174102D01*
X176642Y986618D01*
Y979000D01*
X186798Y973922D02*
X189338D01*
X191877Y976461D01*
Y989157D01*
X184259D01*
X181720Y986618D01*
Y981539D01*
X184259Y979000D01*
X191877D01*
X-189000Y1016696D02*
X-178843Y1006539D01*
X-189000D02*
X-178843Y1016696D01*
X-189000Y1011618D02*
X-178843D01*
X-183922Y1006539D02*
Y1016696D01*
X-173765Y1004000D02*
Y1006539D01*
X-171226D01*
Y1004000D01*
X-173765D01*
X-150912Y1016696D02*
X-153451Y1019235D01*
X-158530D01*
X-161069Y1016696D01*
Y1006539D01*
X-158530Y1004000D01*
X-153451D01*
X-150912Y1006539D01*
Y1011618D01*
X-155991D01*
X-145834Y1019235D02*
Y1004000D01*
X-138216D01*
X-135677Y1006539D01*
Y1009078D01*
X-138216Y1011618D01*
X-145834D01*
X-138216D01*
X-135677Y1014157D01*
Y1016696D01*
X-138216Y1019235D01*
X-145834D01*
X-122981D02*
X-128060D01*
X-130599Y1016696D01*
Y1006539D01*
X-128060Y1004000D01*
X-122981D01*
X-120442Y1006539D01*
Y1016696D01*
X-122981Y1019235D01*
X-100129Y1011618D02*
X-89972D01*
X-69659Y1019235D02*
Y1004000D01*
X-62041D01*
X-59502Y1006539D01*
Y1009078D01*
X-62041Y1011618D01*
X-69659D01*
X-62041D01*
X-59502Y1014157D01*
Y1016696D01*
X-62041Y1019235D01*
X-69659D01*
X-51884Y1004000D02*
X-46806D01*
X-44267Y1006539D01*
Y1011618D01*
X-46806Y1014157D01*
X-51884D01*
X-54424Y1011618D01*
Y1006539D01*
X-51884Y1004000D01*
X-36649Y1016696D02*
Y1014157D01*
X-39188D01*
X-34110D01*
X-36649D01*
Y1006539D01*
X-34110Y1004000D01*
X-23953Y1016696D02*
Y1014157D01*
X-26493D01*
X-21414D01*
X-23953D01*
Y1006539D01*
X-21414Y1004000D01*
X-11257D02*
X-6179D01*
X-3640Y1006539D01*
Y1011618D01*
X-6179Y1014157D01*
X-11257D01*
X-13797Y1011618D01*
Y1006539D01*
X-11257Y1004000D01*
X1438D02*
Y1014157D01*
X3977D01*
X6517Y1011618D01*
Y1004000D01*
Y1011618D01*
X9056Y1014157D01*
X11595Y1011618D01*
Y1004000D01*
X39526Y1019235D02*
X34448D01*
X31909Y1016696D01*
Y1006539D01*
X34448Y1004000D01*
X39526D01*
X42065Y1006539D01*
Y1016696D01*
X39526Y1019235D01*
X47144Y1014157D02*
X52222Y1004000D01*
X57300Y1014157D01*
X69996Y1004000D02*
X64918D01*
X62379Y1006539D01*
Y1011618D01*
X64918Y1014157D01*
X69996D01*
X72535Y1011618D01*
Y1009078D01*
X62379D01*
X77614Y1014157D02*
Y1004000D01*
Y1009078D01*
X80153Y1011618D01*
X82692Y1014157D01*
X85231D01*
X92849Y1004000D02*
X97927D01*
X95388D01*
Y1019235D01*
X92849D01*
X108084Y1014157D02*
X113162D01*
X115701Y1011618D01*
Y1004000D01*
X108084D01*
X105545Y1006539D01*
X108084Y1009078D01*
X115701D01*
X120780Y1014157D02*
Y1006539D01*
X123319Y1004000D01*
X130936D01*
Y1001461D01*
X128397Y998922D01*
X125858D01*
X130936Y1004000D02*
Y1014157D01*
X-189000Y1041696D02*
X-178843Y1031539D01*
X-189000D02*
X-178843Y1041696D01*
X-189000Y1036618D02*
X-178843D01*
X-183922Y1031539D02*
Y1041696D01*
X-173765Y1029000D02*
Y1031539D01*
X-171226D01*
Y1029000D01*
X-173765D01*
X-150912Y1041696D02*
X-153451Y1044235D01*
X-158530D01*
X-161069Y1041696D01*
Y1031539D01*
X-158530Y1029000D01*
X-153451D01*
X-150912Y1031539D01*
Y1036618D01*
X-155991D01*
X-145834Y1044235D02*
Y1029000D01*
X-138216D01*
X-135677Y1031539D01*
Y1034078D01*
X-138216Y1036618D01*
X-145834D01*
X-138216D01*
X-135677Y1039157D01*
Y1041696D01*
X-138216Y1044235D01*
X-145834D01*
X-120442Y1041696D02*
X-122981Y1044235D01*
X-128060D01*
X-130599Y1041696D01*
Y1039157D01*
X-128060Y1036618D01*
X-122981D01*
X-120442Y1034078D01*
Y1031539D01*
X-122981Y1029000D01*
X-128060D01*
X-130599Y1031539D01*
X-100129Y1036618D02*
X-89972D01*
X-69659Y1044235D02*
Y1029000D01*
X-62041D01*
X-59502Y1031539D01*
Y1034078D01*
X-62041Y1036618D01*
X-69659D01*
X-62041D01*
X-59502Y1039157D01*
Y1041696D01*
X-62041Y1044235D01*
X-69659D01*
X-51884Y1029000D02*
X-46806D01*
X-44267Y1031539D01*
Y1036618D01*
X-46806Y1039157D01*
X-51884D01*
X-54424Y1036618D01*
Y1031539D01*
X-51884Y1029000D01*
X-36649Y1041696D02*
Y1039157D01*
X-39188D01*
X-34110D01*
X-36649D01*
Y1031539D01*
X-34110Y1029000D01*
X-23953Y1041696D02*
Y1039157D01*
X-26493D01*
X-21414D01*
X-23953D01*
Y1031539D01*
X-21414Y1029000D01*
X-11257D02*
X-6179D01*
X-3640Y1031539D01*
Y1036618D01*
X-6179Y1039157D01*
X-11257D01*
X-13797Y1036618D01*
Y1031539D01*
X-11257Y1029000D01*
X1438D02*
Y1039157D01*
X3977D01*
X6517Y1036618D01*
Y1029000D01*
Y1036618D01*
X9056Y1039157D01*
X11595Y1036618D01*
Y1029000D01*
X42065Y1041696D02*
X39526Y1044235D01*
X34448D01*
X31909Y1041696D01*
Y1039157D01*
X34448Y1036618D01*
X39526D01*
X42065Y1034078D01*
Y1031539D01*
X39526Y1029000D01*
X34448D01*
X31909Y1031539D01*
X49683Y1029000D02*
X54761D01*
X57300Y1031539D01*
Y1036618D01*
X54761Y1039157D01*
X49683D01*
X47144Y1036618D01*
Y1031539D01*
X49683Y1029000D01*
X62379D02*
X67457D01*
X64918D01*
Y1044235D01*
X62379D01*
X85231D02*
Y1029000D01*
X77614D01*
X75075Y1031539D01*
Y1036618D01*
X77614Y1039157D01*
X85231D01*
X97927Y1029000D02*
X92849D01*
X90310Y1031539D01*
Y1036618D01*
X92849Y1039157D01*
X97927D01*
X100466Y1036618D01*
Y1034078D01*
X90310D01*
X105545Y1039157D02*
Y1029000D01*
Y1034078D01*
X108084Y1036618D01*
X110623Y1039157D01*
X113162D01*
X-189000Y1066696D02*
X-178843Y1056539D01*
X-189000D02*
X-178843Y1066696D01*
X-189000Y1061618D02*
X-178843D01*
X-183922Y1056539D02*
Y1066696D01*
X-173765Y1054000D02*
Y1056539D01*
X-171226D01*
Y1054000D01*
X-173765D01*
X-150912Y1066696D02*
X-153451Y1069235D01*
X-158530D01*
X-161069Y1066696D01*
Y1056539D01*
X-158530Y1054000D01*
X-153451D01*
X-150912Y1056539D01*
Y1061618D01*
X-155991D01*
X-145834Y1069235D02*
Y1054000D01*
X-138216D01*
X-135677Y1056539D01*
Y1059078D01*
X-138216Y1061618D01*
X-145834D01*
X-138216D01*
X-135677Y1064157D01*
Y1066696D01*
X-138216Y1069235D01*
X-145834D01*
X-130599D02*
Y1054000D01*
X-120442D01*
X-100129Y1061618D02*
X-89972D01*
X-69659Y1069235D02*
Y1054000D01*
X-59502D01*
X-44267D02*
X-54424D01*
X-44267Y1064157D01*
Y1066696D01*
X-46806Y1069235D01*
X-51884D01*
X-54424Y1066696D01*
X-18875Y1054000D02*
X-23953Y1059078D01*
Y1064157D01*
X-18875Y1069235D01*
X-11257Y1054000D02*
Y1069235D01*
X-3640D01*
X-1101Y1066696D01*
Y1061618D01*
X-3640Y1059078D01*
X-11257D01*
X6517Y1054000D02*
X11595D01*
X14134Y1056539D01*
Y1061618D01*
X11595Y1064157D01*
X6517D01*
X3977Y1061618D01*
Y1056539D01*
X6517Y1054000D01*
X19213D02*
X26830D01*
X29369Y1056539D01*
X26830Y1059078D01*
X21752D01*
X19213Y1061618D01*
X21752Y1064157D01*
X29369D01*
X34448Y1054000D02*
X39526D01*
X36987D01*
Y1064157D01*
X34448D01*
X49683Y1066696D02*
Y1064157D01*
X47144D01*
X52222D01*
X49683D01*
Y1056539D01*
X52222Y1054000D01*
X59840D02*
X64918D01*
X62379D01*
Y1064157D01*
X59840D01*
X72535D02*
X77614Y1054000D01*
X82692Y1064157D01*
X95388Y1054000D02*
X90310D01*
X87770Y1056539D01*
Y1061618D01*
X90310Y1064157D01*
X95388D01*
X97927Y1061618D01*
Y1059078D01*
X87770D01*
X103006Y1054000D02*
X108084Y1059078D01*
Y1064157D01*
X103006Y1069235D01*
X-189000Y1091696D02*
X-178843Y1081539D01*
X-189000D02*
X-178843Y1091696D01*
X-189000Y1086618D02*
X-178843D01*
X-183922Y1081539D02*
Y1091696D01*
X-173765Y1079000D02*
Y1081539D01*
X-171226D01*
Y1079000D01*
X-173765D01*
X-150912Y1091696D02*
X-153451Y1094235D01*
X-158530D01*
X-161069Y1091696D01*
Y1081539D01*
X-158530Y1079000D01*
X-153451D01*
X-150912Y1081539D01*
Y1086618D01*
X-155991D01*
X-145834Y1094235D02*
X-135677D01*
X-140756D01*
Y1079000D01*
X-130599Y1094235D02*
Y1079000D01*
X-120442D01*
X-100129Y1086618D02*
X-89972D01*
X-69659Y1094235D02*
Y1079000D01*
X-59502D01*
X-54424D02*
X-49345D01*
X-51884D01*
Y1094235D01*
X-54424Y1091696D01*
X-21414Y1079000D02*
X-26493Y1084078D01*
Y1089157D01*
X-21414Y1094235D01*
X-13797Y1079000D02*
Y1094235D01*
X-6179D01*
X-3640Y1091696D01*
Y1086618D01*
X-6179Y1084078D01*
X-13797D01*
X3977Y1079000D02*
X9056D01*
X11595Y1081539D01*
Y1086618D01*
X9056Y1089157D01*
X3977D01*
X1438Y1086618D01*
Y1081539D01*
X3977Y1079000D01*
X16673D02*
X24291D01*
X26830Y1081539D01*
X24291Y1084078D01*
X19213D01*
X16673Y1086618D01*
X19213Y1089157D01*
X26830D01*
X31909Y1079000D02*
X36987D01*
X34448D01*
Y1089157D01*
X31909D01*
X47144Y1091696D02*
Y1089157D01*
X44604D01*
X49683D01*
X47144D01*
Y1081539D01*
X49683Y1079000D01*
X57300D02*
X62379D01*
X59840D01*
Y1089157D01*
X57300D01*
X69996D02*
X75075Y1079000D01*
X80153Y1089157D01*
X92849Y1079000D02*
X87770D01*
X85231Y1081539D01*
Y1086618D01*
X87770Y1089157D01*
X92849D01*
X95388Y1086618D01*
Y1084078D01*
X85231D01*
X100466Y1079000D02*
X105545Y1084078D01*
Y1089157D01*
X100466Y1094235D01*
X-189000Y1116696D02*
X-178843Y1106539D01*
X-189000D02*
X-178843Y1116696D01*
X-189000Y1111618D02*
X-178843D01*
X-183922Y1106539D02*
Y1116696D01*
X-173765Y1104000D02*
Y1106539D01*
X-171226D01*
Y1104000D01*
X-173765D01*
X-150912Y1116696D02*
X-153451Y1119235D01*
X-158530D01*
X-161069Y1116696D01*
Y1106539D01*
X-158530Y1104000D01*
X-153451D01*
X-150912Y1106539D01*
Y1111618D01*
X-155991D01*
X-145834Y1119235D02*
X-135677D01*
X-140756D01*
Y1104000D01*
X-120442Y1116696D02*
X-122981Y1119235D01*
X-128060D01*
X-130599Y1116696D01*
Y1114157D01*
X-128060Y1111618D01*
X-122981D01*
X-120442Y1109078D01*
Y1106539D01*
X-122981Y1104000D01*
X-128060D01*
X-130599Y1106539D01*
X-100129Y1111618D02*
X-89972D01*
X-69659Y1119235D02*
X-59502D01*
X-64580D01*
Y1104000D01*
X-51884D02*
X-46806D01*
X-44267Y1106539D01*
Y1111618D01*
X-46806Y1114157D01*
X-51884D01*
X-54424Y1111618D01*
Y1106539D01*
X-51884Y1104000D01*
X-39188Y1098922D02*
Y1114157D01*
X-31571D01*
X-29032Y1111618D01*
Y1106539D01*
X-31571Y1104000D01*
X-39188D01*
X1438Y1116696D02*
X-1101Y1119235D01*
X-6179D01*
X-8718Y1116696D01*
Y1114157D01*
X-6179Y1111618D01*
X-1101D01*
X1438Y1109078D01*
Y1106539D01*
X-1101Y1104000D01*
X-6179D01*
X-8718Y1106539D01*
X9056Y1104000D02*
X14134D01*
X16673Y1106539D01*
Y1111618D01*
X14134Y1114157D01*
X9056D01*
X6517Y1111618D01*
Y1106539D01*
X9056Y1104000D01*
X21752D02*
X26830D01*
X24291D01*
Y1119235D01*
X21752D01*
X44604D02*
Y1104000D01*
X36987D01*
X34448Y1106539D01*
Y1111618D01*
X36987Y1114157D01*
X44604D01*
X57300Y1104000D02*
X52222D01*
X49683Y1106539D01*
Y1111618D01*
X52222Y1114157D01*
X57300D01*
X59840Y1111618D01*
Y1109078D01*
X49683D01*
X64918Y1114157D02*
Y1104000D01*
Y1109078D01*
X67457Y1111618D01*
X69996Y1114157D01*
X72535D01*
X-189000Y1141696D02*
X-178843Y1131539D01*
X-189000D02*
X-178843Y1141696D01*
X-189000Y1136618D02*
X-178843D01*
X-183922Y1131539D02*
Y1141696D01*
X-173765Y1129000D02*
Y1131539D01*
X-171226D01*
Y1129000D01*
X-173765D01*
X-150912Y1141696D02*
X-153451Y1144235D01*
X-158530D01*
X-161069Y1141696D01*
Y1131539D01*
X-158530Y1129000D01*
X-153451D01*
X-150912Y1131539D01*
Y1136618D01*
X-155991D01*
X-145834Y1144235D02*
X-135677D01*
X-140756D01*
Y1129000D01*
X-130599D02*
Y1144235D01*
X-122981D01*
X-120442Y1141696D01*
Y1136618D01*
X-122981Y1134078D01*
X-130599D01*
X-100129Y1136618D02*
X-89972D01*
X-69659Y1144235D02*
X-59502D01*
X-64580D01*
Y1129000D01*
X-51884D02*
X-46806D01*
X-44267Y1131539D01*
Y1136618D01*
X-46806Y1139157D01*
X-51884D01*
X-54424Y1136618D01*
Y1131539D01*
X-51884Y1129000D01*
X-39188Y1123922D02*
Y1139157D01*
X-31571D01*
X-29032Y1136618D01*
Y1131539D01*
X-31571Y1129000D01*
X-39188D01*
X-8718D02*
Y1144235D01*
X-1101D01*
X1438Y1141696D01*
Y1136618D01*
X-1101Y1134078D01*
X-8718D01*
X9056Y1139157D02*
X14134D01*
X16673Y1136618D01*
Y1129000D01*
X9056D01*
X6517Y1131539D01*
X9056Y1134078D01*
X16673D01*
X21752Y1129000D02*
X29369D01*
X31909Y1131539D01*
X29369Y1134078D01*
X24291D01*
X21752Y1136618D01*
X24291Y1139157D01*
X31909D01*
X39526Y1141696D02*
Y1139157D01*
X36987D01*
X42065D01*
X39526D01*
Y1131539D01*
X42065Y1129000D01*
X57300D02*
X52222D01*
X49683Y1131539D01*
Y1136618D01*
X52222Y1139157D01*
X57300D01*
X59840Y1136618D01*
Y1134078D01*
X49683D01*
X-189000Y1166696D02*
X-178843Y1156539D01*
X-189000D02*
X-178843Y1166696D01*
X-189000Y1161618D02*
X-178843D01*
X-183922Y1156539D02*
Y1166696D01*
X-173765Y1154000D02*
Y1156539D01*
X-171226D01*
Y1154000D01*
X-173765D01*
X-150912Y1166696D02*
X-153451Y1169235D01*
X-158530D01*
X-161069Y1166696D01*
Y1156539D01*
X-158530Y1154000D01*
X-153451D01*
X-150912Y1156539D01*
Y1161618D01*
X-155991D01*
X-145834Y1169235D02*
X-135677D01*
X-140756D01*
Y1154000D01*
X-122981Y1169235D02*
X-128060D01*
X-130599Y1166696D01*
Y1156539D01*
X-128060Y1154000D01*
X-122981D01*
X-120442Y1156539D01*
Y1166696D01*
X-122981Y1169235D01*
X-100129Y1161618D02*
X-89972D01*
X-69659Y1169235D02*
X-59502D01*
X-64580D01*
Y1154000D01*
X-51884D02*
X-46806D01*
X-44267Y1156539D01*
Y1161618D01*
X-46806Y1164157D01*
X-51884D01*
X-54424Y1161618D01*
Y1156539D01*
X-51884Y1154000D01*
X-39188Y1148922D02*
Y1164157D01*
X-31571D01*
X-29032Y1161618D01*
Y1156539D01*
X-31571Y1154000D01*
X-39188D01*
X-1101Y1169235D02*
X-6179D01*
X-8718Y1166696D01*
Y1156539D01*
X-6179Y1154000D01*
X-1101D01*
X1438Y1156539D01*
Y1166696D01*
X-1101Y1169235D01*
X6517Y1164157D02*
X11595Y1154000D01*
X16673Y1164157D01*
X29369Y1154000D02*
X24291D01*
X21752Y1156539D01*
Y1161618D01*
X24291Y1164157D01*
X29369D01*
X31909Y1161618D01*
Y1159078D01*
X21752D01*
X36987Y1164157D02*
Y1154000D01*
Y1159078D01*
X39526Y1161618D01*
X42065Y1164157D01*
X44604D01*
X52222Y1154000D02*
X57300D01*
X54761D01*
Y1169235D01*
X52222D01*
X67457Y1164157D02*
X72535D01*
X75075Y1161618D01*
Y1154000D01*
X67457D01*
X64918Y1156539D01*
X67457Y1159078D01*
X75075D01*
X80153Y1164157D02*
Y1156539D01*
X82692Y1154000D01*
X90310D01*
Y1151461D01*
X87770Y1148922D01*
X85231D01*
X90310Y1154000D02*
Y1164157D01*
X-178843Y1194235D02*
X-189000D01*
Y1186618D01*
X-183922D01*
X-189000D01*
Y1179000D01*
X-173765D02*
X-168687D01*
X-171226D01*
Y1189157D01*
X-173765D01*
X-161069Y1179000D02*
X-155991D01*
X-158530D01*
Y1194235D01*
X-161069D01*
X-140756Y1179000D02*
X-145834D01*
X-148373Y1181539D01*
Y1186618D01*
X-145834Y1189157D01*
X-140756D01*
X-138216Y1186618D01*
Y1184078D01*
X-148373D01*
X-133138Y1179000D02*
X-125521D01*
X-122981Y1181539D01*
X-125521Y1184078D01*
X-130599D01*
X-133138Y1186618D01*
X-130599Y1189157D01*
X-122981D01*
X-92511Y1194235D02*
X-102668D01*
Y1186618D01*
X-97590D01*
X-102668D01*
Y1179000D01*
X-84894D02*
X-79815D01*
X-77276Y1181539D01*
Y1186618D01*
X-79815Y1189157D01*
X-84894D01*
X-87433Y1186618D01*
Y1181539D01*
X-84894Y1179000D01*
X-72198Y1189157D02*
Y1179000D01*
Y1184078D01*
X-69659Y1186618D01*
X-67119Y1189157D01*
X-64580D01*
X-56963Y1179000D02*
Y1189157D01*
X-54424D01*
X-51884Y1186618D01*
Y1179000D01*
Y1186618D01*
X-49345Y1189157D01*
X-46806Y1186618D01*
Y1179000D01*
X-39188Y1189157D02*
X-34110D01*
X-31571Y1186618D01*
Y1179000D01*
X-39188D01*
X-41728Y1181539D01*
X-39188Y1184078D01*
X-31571D01*
X-23953Y1191696D02*
Y1189157D01*
X-26493D01*
X-21414D01*
X-23953D01*
Y1181539D01*
X-21414Y1179000D01*
X-13797D02*
X-6179D01*
X-3640Y1181539D01*
X-6179Y1184078D01*
X-11257D01*
X-13797Y1186618D01*
X-11257Y1189157D01*
X-3640D01*
X1438D02*
X3977D01*
Y1186618D01*
X1438D01*
Y1189157D01*
Y1181539D02*
X3977D01*
Y1179000D01*
X1438D01*
Y1181539D01*
X-189000Y916696D02*
X-178843Y906539D01*
X-189000D02*
X-178843Y916696D01*
X-189000Y911618D02*
X-178843D01*
X-183922Y906539D02*
Y916696D01*
X-173765Y904000D02*
Y906539D01*
X-171226D01*
Y904000D01*
X-173765D01*
X-150912Y916696D02*
X-153451Y919235D01*
X-158530D01*
X-161069Y916696D01*
Y906539D01*
X-158530Y904000D01*
X-153451D01*
X-150912Y906539D01*
Y911618D01*
X-155991D01*
X-145834Y904000D02*
Y919235D01*
X-140756Y914157D01*
X-135677Y919235D01*
Y904000D01*
X-120442D02*
X-130599D01*
X-120442Y914157D01*
Y916696D01*
X-122981Y919235D01*
X-128060D01*
X-130599Y916696D01*
X-115364D02*
X-112825Y919235D01*
X-107746D01*
X-105207Y916696D01*
Y914157D01*
X-107746Y911618D01*
X-105207Y909078D01*
Y906539D01*
X-107746Y904000D01*
X-112825D01*
X-115364Y906539D01*
Y909078D01*
X-112825Y911618D01*
X-115364Y914157D01*
Y916696D01*
X-112825Y911618D02*
X-107746D01*
X-84894D02*
X-74737D01*
X-54424Y919235D02*
Y904000D01*
X-46806D01*
X-44267Y906539D01*
Y909078D01*
X-46806Y911618D01*
X-54424D01*
X-46806D01*
X-44267Y914157D01*
Y916696D01*
X-46806Y919235D01*
X-54424D01*
X-36649Y904000D02*
X-31571D01*
X-29032Y906539D01*
Y911618D01*
X-31571Y914157D01*
X-36649D01*
X-39188Y911618D01*
Y906539D01*
X-36649Y904000D01*
X-21414Y914157D02*
X-16336D01*
X-13797Y911618D01*
Y904000D01*
X-21414D01*
X-23953Y906539D01*
X-21414Y909078D01*
X-13797D01*
X-8718Y914157D02*
Y904000D01*
Y909078D01*
X-6179Y911618D01*
X-3640Y914157D01*
X-1101D01*
X16673Y919235D02*
Y904000D01*
X9056D01*
X6517Y906539D01*
Y911618D01*
X9056Y914157D01*
X16673D01*
X44604Y919235D02*
X39526D01*
X36987Y916696D01*
Y906539D01*
X39526Y904000D01*
X44604D01*
X47144Y906539D01*
Y916696D01*
X44604Y919235D01*
X52222Y914157D02*
Y906539D01*
X54761Y904000D01*
X62379D01*
Y914157D01*
X69996Y916696D02*
Y914157D01*
X67457D01*
X72535D01*
X69996D01*
Y906539D01*
X72535Y904000D01*
X80153D02*
X85231D01*
X82692D01*
Y919235D01*
X80153D01*
X92849Y904000D02*
X97927D01*
X95388D01*
Y914157D01*
X92849D01*
X105545Y904000D02*
Y914157D01*
X113162D01*
X115701Y911618D01*
Y904000D01*
X128397D02*
X123319D01*
X120780Y906539D01*
Y911618D01*
X123319Y914157D01*
X128397D01*
X130936Y911618D01*
Y909078D01*
X120780D01*
X876000Y761618D02*
X886157D01*
X906470Y754000D02*
Y769235D01*
X914088D01*
X916627Y766696D01*
Y761618D01*
X914088Y759078D01*
X906470D01*
X921705Y769235D02*
Y754000D01*
X931862D01*
X936940D02*
Y764157D01*
X942019Y769235D01*
X947097Y764157D01*
Y754000D01*
Y761618D01*
X936940D01*
X962332Y766696D02*
X959793Y769235D01*
X954715D01*
X952175Y766696D01*
Y756539D01*
X954715Y754000D01*
X959793D01*
X962332Y756539D01*
X977567Y769235D02*
X967410D01*
Y754000D01*
X977567D01*
X967410Y761618D02*
X972489D01*
X1005498Y769235D02*
X1000420D01*
X997881Y766696D01*
Y756539D01*
X1000420Y754000D01*
X1005498D01*
X1008037Y756539D01*
Y766696D01*
X1005498Y769235D01*
X1013116Y754000D02*
Y769235D01*
X1023272Y754000D01*
Y769235D01*
X1038507D02*
X1028351D01*
Y754000D01*
X1038507D01*
X1028351Y761618D02*
X1033429D01*
X1068978Y769235D02*
X1058821D01*
Y761618D01*
X1063899D01*
X1058821D01*
Y754000D01*
X1074056Y769235D02*
X1079134D01*
X1076595D01*
Y754000D01*
X1074056D01*
X1079134D01*
X1086752Y769235D02*
Y754000D01*
X1094369D01*
X1096908Y756539D01*
Y766696D01*
X1094369Y769235D01*
X1086752D01*
X1101987D02*
Y756539D01*
X1104526Y754000D01*
X1109604D01*
X1112144Y756539D01*
Y769235D01*
X1127379Y766696D02*
X1124839Y769235D01*
X1119761D01*
X1117222Y766696D01*
Y756539D01*
X1119761Y754000D01*
X1124839D01*
X1127379Y756539D01*
X1132457Y769235D02*
X1137535D01*
X1134996D01*
Y754000D01*
X1132457D01*
X1137535D01*
X1145153D02*
Y764157D01*
X1150231Y769235D01*
X1155310Y764157D01*
Y754000D01*
Y761618D01*
X1145153D01*
X1160388Y769235D02*
Y754000D01*
X1170545D01*
X1190858Y769235D02*
X1195937D01*
X1193397D01*
Y754000D01*
X1190858D01*
X1195937D01*
X1203554D02*
Y769235D01*
X1213711Y754000D01*
Y769235D01*
X1218789D02*
X1228946D01*
X1223867D01*
Y754000D01*
X1241642Y769235D02*
X1236563D01*
X1234024Y766696D01*
Y756539D01*
X1236563Y754000D01*
X1241642D01*
X1244181Y756539D01*
Y766696D01*
X1241642Y769235D01*
X1274651D02*
X1264494D01*
Y754000D01*
X1274651D01*
X1264494Y761618D02*
X1269573D01*
X1279729Y754000D02*
Y764157D01*
X1284808Y769235D01*
X1289886Y764157D01*
Y754000D01*
Y761618D01*
X1279729D01*
X1305121Y766696D02*
X1302582Y769235D01*
X1297504D01*
X1294964Y766696D01*
Y756539D01*
X1297504Y754000D01*
X1302582D01*
X1305121Y756539D01*
X1310199Y769235D02*
Y754000D01*
Y761618D01*
X1320356D01*
Y769235D01*
Y754000D01*
X1340670D02*
Y769235D01*
X1348287D01*
X1350826Y766696D01*
Y761618D01*
X1348287Y759078D01*
X1340670D01*
X1355905Y754000D02*
Y764157D01*
X1360983Y769235D01*
X1366062Y764157D01*
Y754000D01*
Y761618D01*
X1355905D01*
X1371140Y754000D02*
Y769235D01*
X1381297Y754000D01*
Y769235D01*
X1396532D02*
X1386375D01*
Y754000D01*
X1396532D01*
X1386375Y761618D02*
X1391453D01*
X1401610Y769235D02*
Y754000D01*
X1411767D01*
X1442237Y766696D02*
X1439698Y769235D01*
X1434619D01*
X1432080Y766696D01*
Y756539D01*
X1434619Y754000D01*
X1439698D01*
X1442237Y756539D01*
X1454933Y769235D02*
X1449854D01*
X1447315Y766696D01*
Y756539D01*
X1449854Y754000D01*
X1454933D01*
X1457472Y756539D01*
Y766696D01*
X1454933Y769235D01*
X1462550Y754000D02*
Y769235D01*
X1470168D01*
X1472707Y766696D01*
Y761618D01*
X1470168Y759078D01*
X1462550D01*
X1467629D02*
X1472707Y754000D01*
X1477785D02*
Y769235D01*
X1487942Y754000D01*
Y769235D01*
X1503177D02*
X1493020D01*
Y754000D01*
X1503177D01*
X1493020Y761618D02*
X1498099D01*
X1508255Y754000D02*
Y769235D01*
X1515873D01*
X1518412Y766696D01*
Y761618D01*
X1515873Y759078D01*
X1508255D01*
X1513334D02*
X1518412Y754000D01*
X1543804D02*
X1538726Y759078D01*
Y764157D01*
X1543804Y769235D01*
X1561578D02*
X1551422D01*
Y761618D01*
X1556500D01*
X1551422D01*
Y754000D01*
X1574274Y769235D02*
X1569196D01*
X1566657Y766696D01*
Y756539D01*
X1569196Y754000D01*
X1574274D01*
X1576813Y756539D01*
Y766696D01*
X1574274Y769235D01*
X1581892D02*
Y756539D01*
X1584431Y754000D01*
X1589509D01*
X1592048Y756539D01*
Y769235D01*
X1597127Y754000D02*
Y769235D01*
X1604744D01*
X1607283Y766696D01*
Y761618D01*
X1604744Y759078D01*
X1597127D01*
X1602205D02*
X1607283Y754000D01*
X1635214Y769235D02*
X1630136D01*
X1627597Y766696D01*
Y756539D01*
X1630136Y754000D01*
X1635214D01*
X1637754Y756539D01*
Y766696D01*
X1635214Y769235D01*
X1642832Y754000D02*
Y769235D01*
X1652989Y754000D01*
Y769235D01*
X1673302D02*
X1683459D01*
X1678380D01*
Y754000D01*
X1688537Y769235D02*
Y754000D01*
Y761618D01*
X1698694D01*
Y769235D01*
Y754000D01*
X1713929Y769235D02*
X1703772D01*
Y754000D01*
X1713929D01*
X1703772Y761618D02*
X1708851D01*
X1734242Y769235D02*
X1744399D01*
X1739321D01*
Y754000D01*
X1757095Y769235D02*
X1752017D01*
X1749477Y766696D01*
Y756539D01*
X1752017Y754000D01*
X1757095D01*
X1759634Y756539D01*
Y766696D01*
X1757095Y769235D01*
X1764713Y754000D02*
Y769235D01*
X1772330D01*
X1774869Y766696D01*
Y761618D01*
X1772330Y759078D01*
X1764713D01*
X1795183Y769235D02*
Y754000D01*
X1805339D01*
X1810418D02*
Y764157D01*
X1815496Y769235D01*
X1820574Y764157D01*
Y754000D01*
Y761618D01*
X1810418D01*
X1825653Y769235D02*
Y766696D01*
X1830731Y761618D01*
X1835809Y766696D01*
Y769235D01*
X1830731Y761618D02*
Y754000D01*
X1851045Y769235D02*
X1840888D01*
Y754000D01*
X1851045D01*
X1840888Y761618D02*
X1845966D01*
X1856123Y754000D02*
Y769235D01*
X1863741D01*
X1866280Y766696D01*
Y761618D01*
X1863741Y759078D01*
X1856123D01*
X1861201D02*
X1866280Y754000D01*
X1871358D02*
X1876436Y759078D01*
Y764157D01*
X1871358Y769235D01*
X876000Y786618D02*
X886157D01*
X906470Y791696D02*
X909009Y794235D01*
X914088D01*
X916627Y791696D01*
Y789157D01*
X914088Y786618D01*
X911548D01*
X914088D01*
X916627Y784078D01*
Y781539D01*
X914088Y779000D01*
X909009D01*
X906470Y781539D01*
X947097Y794235D02*
X936940D01*
Y786618D01*
X942019D01*
X936940D01*
Y779000D01*
X952175Y794235D02*
X957254D01*
X954715D01*
Y779000D01*
X952175D01*
X957254D01*
X964871Y794235D02*
Y779000D01*
X972489D01*
X975028Y781539D01*
Y791696D01*
X972489Y794235D01*
X964871D01*
X980106D02*
Y781539D01*
X982645Y779000D01*
X987724D01*
X990263Y781539D01*
Y794235D01*
X1005498Y791696D02*
X1002959Y794235D01*
X997881D01*
X995341Y791696D01*
Y781539D01*
X997881Y779000D01*
X1002959D01*
X1005498Y781539D01*
X1010576Y794235D02*
X1015655D01*
X1013116D01*
Y779000D01*
X1010576D01*
X1015655D01*
X1023272D02*
Y789157D01*
X1028351Y794235D01*
X1033429Y789157D01*
Y779000D01*
Y786618D01*
X1023272D01*
X1038507Y794235D02*
Y779000D01*
X1048664D01*
X1063899Y791696D02*
X1061360Y794235D01*
X1056282D01*
X1053743Y791696D01*
Y789157D01*
X1056282Y786618D01*
X1061360D01*
X1063899Y784078D01*
Y781539D01*
X1061360Y779000D01*
X1056282D01*
X1053743Y781539D01*
X1094369Y791696D02*
X1091830Y794235D01*
X1086752D01*
X1084213Y791696D01*
Y789157D01*
X1086752Y786618D01*
X1091830D01*
X1094369Y784078D01*
Y781539D01*
X1091830Y779000D01*
X1086752D01*
X1084213Y781539D01*
X1099448Y794235D02*
Y779000D01*
Y786618D01*
X1109604D01*
Y794235D01*
Y779000D01*
X1122300Y794235D02*
X1117222D01*
X1114683Y791696D01*
Y781539D01*
X1117222Y779000D01*
X1122300D01*
X1124839Y781539D01*
Y791696D01*
X1122300Y794235D01*
X1129918D02*
Y781539D01*
X1132457Y779000D01*
X1137535D01*
X1140075Y781539D01*
Y794235D01*
X1145153D02*
Y779000D01*
X1155310D01*
X1160388Y794235D02*
Y779000D01*
X1168006D01*
X1170545Y781539D01*
Y791696D01*
X1168006Y794235D01*
X1160388D01*
X1190858D02*
Y779000D01*
X1201015D01*
X1206093Y794235D02*
X1211171D01*
X1208632D01*
Y779000D01*
X1206093D01*
X1211171D01*
X1228946Y794235D02*
X1218789D01*
Y779000D01*
X1228946D01*
X1218789Y786618D02*
X1223867D01*
X1256877Y794235D02*
X1251798D01*
X1249259Y791696D01*
Y781539D01*
X1251798Y779000D01*
X1256877D01*
X1259416Y781539D01*
Y791696D01*
X1256877Y794235D01*
X1264494Y779000D02*
Y794235D01*
X1274651Y779000D01*
Y794235D01*
X1294964D02*
X1305121D01*
X1300043D01*
Y779000D01*
X1310199Y794235D02*
Y779000D01*
X1315278Y784078D01*
X1320356Y779000D01*
Y794235D01*
X1333052D02*
X1327974D01*
X1325435Y791696D01*
Y781539D01*
X1327974Y779000D01*
X1333052D01*
X1335591Y781539D01*
Y791696D01*
X1333052Y794235D01*
X1355905D02*
Y779000D01*
X1366062D01*
X1371140Y794235D02*
X1376218D01*
X1373679D01*
Y779000D01*
X1371140D01*
X1376218D01*
X1383836D02*
Y794235D01*
X1393992Y779000D01*
Y794235D01*
X1409227D02*
X1399071D01*
Y779000D01*
X1409227D01*
X1399071Y786618D02*
X1404149D01*
X1424463Y791696D02*
X1421923Y794235D01*
X1416845D01*
X1414306Y791696D01*
Y789157D01*
X1416845Y786618D01*
X1421923D01*
X1424463Y784078D01*
Y781539D01*
X1421923Y779000D01*
X1416845D01*
X1414306Y781539D01*
X1444776Y794235D02*
X1454933D01*
X1449854D01*
Y779000D01*
X1460011Y794235D02*
Y779000D01*
Y786618D01*
X1470168D01*
Y794235D01*
Y779000D01*
X1475246D02*
Y789157D01*
X1480325Y794235D01*
X1485403Y789157D01*
Y779000D01*
Y786618D01*
X1475246D01*
X1490481Y794235D02*
X1500638D01*
X1495560D01*
Y779000D01*
X1520951Y794235D02*
X1526030D01*
X1523490D01*
Y779000D01*
X1520951D01*
X1526030D01*
X1533647D02*
Y794235D01*
X1543804Y779000D01*
Y794235D01*
X1548882D02*
X1559039D01*
X1553961D01*
Y779000D01*
X1574274Y794235D02*
X1564117D01*
Y779000D01*
X1574274D01*
X1564117Y786618D02*
X1569196D01*
X1579352Y779000D02*
Y794235D01*
X1586970D01*
X1589509Y791696D01*
Y786618D01*
X1586970Y784078D01*
X1579352D01*
X1584431D02*
X1589509Y779000D01*
X1604744Y791696D02*
X1602205Y794235D01*
X1597127D01*
X1594588Y791696D01*
Y789157D01*
X1597127Y786618D01*
X1602205D01*
X1604744Y784078D01*
Y781539D01*
X1602205Y779000D01*
X1597127D01*
X1594588Y781539D01*
X1619979Y794235D02*
X1609823D01*
Y779000D01*
X1619979D01*
X1609823Y786618D02*
X1614901D01*
X1635214Y791696D02*
X1632675Y794235D01*
X1627597D01*
X1625058Y791696D01*
Y781539D01*
X1627597Y779000D01*
X1632675D01*
X1635214Y781539D01*
X1640293Y794235D02*
X1650450D01*
X1645371D01*
Y779000D01*
X1670763D02*
Y789157D01*
X1675841Y794235D01*
X1680920Y789157D01*
Y779000D01*
Y786618D01*
X1670763D01*
X1685998Y794235D02*
X1696155D01*
X1691076D01*
Y779000D01*
X1716468D02*
Y789157D01*
X1721546Y794235D01*
X1726625Y789157D01*
Y779000D01*
Y786618D01*
X1716468D01*
X1746938Y779000D02*
Y794235D01*
X1754556D01*
X1757095Y791696D01*
Y786618D01*
X1754556Y784078D01*
X1746938D01*
X1752017D02*
X1757095Y779000D01*
X1762173Y794235D02*
X1767252D01*
X1764713D01*
Y779000D01*
X1762173D01*
X1767252D01*
X1785026Y791696D02*
X1782487Y794235D01*
X1777408D01*
X1774869Y791696D01*
Y781539D01*
X1777408Y779000D01*
X1782487D01*
X1785026Y781539D01*
Y786618D01*
X1779948D01*
X1790104Y794235D02*
Y779000D01*
Y786618D01*
X1800261D01*
Y794235D01*
Y779000D01*
X1805339Y794235D02*
X1815496D01*
X1810418D01*
Y779000D01*
X1835809D02*
Y789157D01*
X1840888Y794235D01*
X1845966Y789157D01*
Y779000D01*
Y786618D01*
X1835809D01*
X1851045Y779000D02*
Y794235D01*
X1861201Y779000D01*
Y794235D01*
X1876436Y791696D02*
X1873897Y794235D01*
X1868819D01*
X1866280Y791696D01*
Y781539D01*
X1868819Y779000D01*
X1873897D01*
X1876436Y781539D01*
Y786618D01*
X1871358D01*
X1881515Y794235D02*
Y779000D01*
X1891671D01*
X1906906Y794235D02*
X1896750D01*
Y779000D01*
X1906906D01*
X1896750Y786618D02*
X1901828D01*
X876000Y811618D02*
X886157D01*
X906470Y804000D02*
Y819235D01*
X911548Y814157D01*
X916627Y819235D01*
Y804000D01*
X921705Y819235D02*
X926784D01*
X924244D01*
Y804000D01*
X921705D01*
X926784D01*
X934401D02*
Y819235D01*
X944558Y804000D01*
Y819235D01*
X949636D02*
X954715D01*
X952175D01*
Y804000D01*
X949636D01*
X954715D01*
X962332D02*
Y819235D01*
X967410Y814157D01*
X972489Y819235D01*
Y804000D01*
X977567Y819235D02*
Y806539D01*
X980106Y804000D01*
X985185D01*
X987724Y806539D01*
Y819235D01*
X992802Y804000D02*
Y819235D01*
X997880Y814157D01*
X1002959Y819235D01*
Y804000D01*
X1030890D02*
Y819235D01*
X1023272Y811618D01*
X1033429D01*
X1038507Y804000D02*
Y819235D01*
X1043586Y814157D01*
X1048664Y819235D01*
Y804000D01*
X1053743D02*
Y819235D01*
X1058821Y814157D01*
X1063899Y819235D01*
Y804000D01*
X1084213Y819235D02*
Y804000D01*
X1091830D01*
X1094369Y806539D01*
Y816696D01*
X1091830Y819235D01*
X1084213D01*
X1099448D02*
X1104526D01*
X1101987D01*
Y804000D01*
X1099448D01*
X1104526D01*
X1122300Y816696D02*
X1119761Y819235D01*
X1114683D01*
X1112144Y816696D01*
Y814157D01*
X1114683Y811618D01*
X1119761D01*
X1122300Y809078D01*
Y806539D01*
X1119761Y804000D01*
X1114683D01*
X1112144Y806539D01*
X1127379Y819235D02*
X1137535D01*
X1132457D01*
Y804000D01*
X1142614D02*
Y814157D01*
X1147692Y819235D01*
X1152770Y814157D01*
Y804000D01*
Y811618D01*
X1142614D01*
X1157849Y804000D02*
Y819235D01*
X1168006Y804000D01*
Y819235D01*
X1183241Y816696D02*
X1180701Y819235D01*
X1175623D01*
X1173084Y816696D01*
Y806539D01*
X1175623Y804000D01*
X1180701D01*
X1183241Y806539D01*
X1198476Y819235D02*
X1188319D01*
Y804000D01*
X1198476D01*
X1188319Y811618D02*
X1193397D01*
X1228946Y819235D02*
X1218789D01*
Y811618D01*
X1223867D01*
X1218789D01*
Y804000D01*
X1234024D02*
Y819235D01*
X1241642D01*
X1244181Y816696D01*
Y811618D01*
X1241642Y809078D01*
X1234024D01*
X1239102D02*
X1244181Y804000D01*
X1256877Y819235D02*
X1251798D01*
X1249259Y816696D01*
Y806539D01*
X1251798Y804000D01*
X1256877D01*
X1259416Y806539D01*
Y816696D01*
X1256877Y819235D01*
X1264494Y804000D02*
Y819235D01*
X1269573Y814157D01*
X1274651Y819235D01*
Y804000D01*
X1294964Y819235D02*
X1305121D01*
X1300043D01*
Y804000D01*
X1310199Y819235D02*
Y804000D01*
Y811618D01*
X1320356D01*
Y819235D01*
Y804000D01*
X1335591Y819235D02*
X1325435D01*
Y804000D01*
X1335591D01*
X1325435Y811618D02*
X1330513D01*
X1355905Y804000D02*
Y819235D01*
X1363522D01*
X1366062Y816696D01*
Y811618D01*
X1363522Y809078D01*
X1355905D01*
X1371140Y804000D02*
Y814157D01*
X1376218Y819235D01*
X1381297Y814157D01*
Y804000D01*
Y811618D01*
X1371140D01*
X1386375Y804000D02*
Y819235D01*
X1396532Y804000D01*
Y819235D01*
X1411767D02*
X1401610D01*
Y804000D01*
X1411767D01*
X1401610Y811618D02*
X1406688D01*
X1416845Y819235D02*
Y804000D01*
X1427002D01*
X1457472Y819235D02*
X1447315D01*
Y804000D01*
X1457472D01*
X1447315Y811618D02*
X1452393D01*
X1462550Y819235D02*
Y804000D01*
X1470168D01*
X1472707Y806539D01*
Y816696D01*
X1470168Y819235D01*
X1462550D01*
X1487942Y816696D02*
X1485403Y819235D01*
X1480325D01*
X1477785Y816696D01*
Y806539D01*
X1480325Y804000D01*
X1485403D01*
X1487942Y806539D01*
Y811618D01*
X1482864D01*
X1503177Y819235D02*
X1493020D01*
Y804000D01*
X1503177D01*
X1493020Y811618D02*
X1498099D01*
X876000Y836618D02*
X886157D01*
X916627Y844235D02*
X906470D01*
Y836618D01*
X911548D01*
X906470D01*
Y829000D01*
X921705Y844235D02*
X926784D01*
X924244D01*
Y829000D01*
X921705D01*
X926784D01*
X934401Y844235D02*
Y829000D01*
X942019D01*
X944558Y831539D01*
Y841696D01*
X942019Y844235D01*
X934401D01*
X949636D02*
Y831539D01*
X952175Y829000D01*
X957254D01*
X959793Y831539D01*
Y844235D01*
X975028Y841696D02*
X972489Y844235D01*
X967410D01*
X964871Y841696D01*
Y831539D01*
X967410Y829000D01*
X972489D01*
X975028Y831539D01*
X980106Y844235D02*
X985185D01*
X982645D01*
Y829000D01*
X980106D01*
X985185D01*
X992802D02*
Y839157D01*
X997880Y844235D01*
X1002959Y839157D01*
Y829000D01*
Y836618D01*
X992802D01*
X1008037Y844235D02*
Y829000D01*
X1018194D01*
X1038507Y844235D02*
Y829000D01*
X1046125D01*
X1048664Y831539D01*
Y841696D01*
X1046125Y844235D01*
X1038507D01*
X1053743D02*
X1058821D01*
X1056282D01*
Y829000D01*
X1053743D01*
X1058821D01*
X1066438D02*
Y839157D01*
X1071517Y844235D01*
X1076595Y839157D01*
Y829000D01*
Y836618D01*
X1066438D01*
X1081673Y829000D02*
Y844235D01*
X1086752Y839157D01*
X1091830Y844235D01*
Y829000D01*
X1096908Y844235D02*
X1107065D01*
X1101987D01*
Y829000D01*
X1122300Y844235D02*
X1112144D01*
Y829000D01*
X1122300D01*
X1112144Y836618D02*
X1117222D01*
X1127379Y829000D02*
Y844235D01*
X1134996D01*
X1137535Y841696D01*
Y836618D01*
X1134996Y834078D01*
X1127379D01*
X1132457D02*
X1137535Y829000D01*
X1157849D02*
X1162927D01*
X1160388D01*
Y844235D01*
X1157849Y841696D01*
X1170545Y836618D02*
X1180701D01*
X1185780Y829000D02*
X1190858D01*
X1188319D01*
Y844235D01*
X1185780Y841696D01*
X1198476Y829000D02*
Y831539D01*
X1201015D01*
Y829000D01*
X1198476D01*
X1221328Y844235D02*
X1211171D01*
Y836618D01*
X1216250Y839157D01*
X1218789D01*
X1221328Y836618D01*
Y831539D01*
X1218789Y829000D01*
X1213711D01*
X1211171Y831539D01*
X1226407Y829000D02*
Y844235D01*
X1231485Y839157D01*
X1236563Y844235D01*
Y829000D01*
X1241642D02*
Y844235D01*
X1246720Y839157D01*
X1251798Y844235D01*
Y829000D01*
X1259416Y826461D02*
X1261955Y829000D01*
Y831539D01*
X1259416D01*
Y829000D01*
X1261955D01*
X1259416Y826461D01*
X1256877Y823922D01*
X1297504Y841696D02*
X1294964Y844235D01*
X1289886D01*
X1287347Y841696D01*
Y839157D01*
X1289886Y836618D01*
X1294964D01*
X1297504Y834078D01*
Y831539D01*
X1294964Y829000D01*
X1289886D01*
X1287347Y831539D01*
X1310199Y844235D02*
X1305121D01*
X1302582Y841696D01*
Y831539D01*
X1305121Y829000D01*
X1310199D01*
X1312739Y831539D01*
Y841696D01*
X1310199Y844235D01*
X1317817D02*
Y829000D01*
X1327974D01*
X1333052Y844235D02*
Y829000D01*
X1340670D01*
X1343209Y831539D01*
Y841696D01*
X1340670Y844235D01*
X1333052D01*
X1358444D02*
X1348287D01*
Y829000D01*
X1358444D01*
X1348287Y836618D02*
X1353365D01*
X1363522Y829000D02*
Y844235D01*
X1371140D01*
X1373679Y841696D01*
Y836618D01*
X1371140Y834078D01*
X1363522D01*
X1368601D02*
X1373679Y829000D01*
X1393992D02*
Y844235D01*
X1399071Y839157D01*
X1404149Y844235D01*
Y829000D01*
X1409227D02*
Y839157D01*
X1414306Y844235D01*
X1419384Y839157D01*
Y829000D01*
Y836618D01*
X1409227D01*
X1434619Y841696D02*
X1432080Y844235D01*
X1427002D01*
X1424462Y841696D01*
Y839157D01*
X1427002Y836618D01*
X1432080D01*
X1434619Y834078D01*
Y831539D01*
X1432080Y829000D01*
X1427002D01*
X1424462Y831539D01*
X1439698Y844235D02*
Y829000D01*
Y834078D01*
X1449854Y844235D01*
X1442237Y836618D01*
X1449854Y829000D01*
X1477785Y844235D02*
X1472707D01*
X1470168Y841696D01*
Y831539D01*
X1472707Y829000D01*
X1477785D01*
X1480325Y831539D01*
Y841696D01*
X1477785Y844235D01*
X1485403Y829000D02*
Y844235D01*
X1493020D01*
X1495560Y841696D01*
Y836618D01*
X1493020Y834078D01*
X1485403D01*
X1510795Y844235D02*
X1500638D01*
Y829000D01*
X1510795D01*
X1500638Y836618D02*
X1505716D01*
X1515873Y829000D02*
Y844235D01*
X1526030Y829000D01*
Y844235D01*
X1531108D02*
X1536186D01*
X1533647D01*
Y829000D01*
X1531108D01*
X1536186D01*
X1543804D02*
Y844235D01*
X1553961Y829000D01*
Y844235D01*
X1569196Y841696D02*
X1566656Y844235D01*
X1561578D01*
X1559039Y841696D01*
Y831539D01*
X1561578Y829000D01*
X1566656D01*
X1569196Y831539D01*
Y836618D01*
X1564117D01*
X1589509Y829000D02*
Y839157D01*
X1594588Y844235D01*
X1599666Y839157D01*
Y829000D01*
Y836618D01*
X1589509D01*
X1604744Y844235D02*
X1614901D01*
X1609823D01*
Y829000D01*
X1635214Y844235D02*
Y829000D01*
X1645371D01*
X1660606Y844235D02*
X1650449D01*
Y829000D01*
X1660606D01*
X1650449Y836618D02*
X1655528D01*
X1665685Y829000D02*
Y839157D01*
X1670763Y844235D01*
X1675841Y839157D01*
Y829000D01*
Y836618D01*
X1665685D01*
X1691076Y841696D02*
X1688537Y844235D01*
X1683459D01*
X1680920Y841696D01*
Y839157D01*
X1683459Y836618D01*
X1688537D01*
X1691076Y834078D01*
Y831539D01*
X1688537Y829000D01*
X1683459D01*
X1680920Y831539D01*
X1696155Y844235D02*
X1706311D01*
X1701233D01*
Y829000D01*
X1726625D02*
X1731703D01*
X1729164D01*
Y844235D01*
X1726625Y841696D01*
X1739321Y829000D02*
Y844235D01*
X1744399Y839157D01*
X1749477Y844235D01*
Y829000D01*
X1754556D02*
Y844235D01*
X1759634Y839157D01*
X1764713Y844235D01*
Y829000D01*
X1795183Y841696D02*
X1792643Y844235D01*
X1787565D01*
X1785026Y841696D01*
Y831539D01*
X1787565Y829000D01*
X1792643D01*
X1795183Y831539D01*
Y836618D01*
X1790104D01*
X1800261Y829000D02*
Y844235D01*
X1807879D01*
X1810418Y841696D01*
Y836618D01*
X1807879Y834078D01*
X1800261D01*
X1805339D02*
X1810418Y829000D01*
X1825653Y844235D02*
X1815496D01*
Y829000D01*
X1825653D01*
X1815496Y836618D02*
X1820574D01*
X1830731Y829000D02*
Y839157D01*
X1835809Y844235D01*
X1840888Y839157D01*
Y829000D01*
Y836618D01*
X1830731D01*
X1845966Y844235D02*
X1856123D01*
X1851044D01*
Y829000D01*
X1871358Y844235D02*
X1861201D01*
Y829000D01*
X1871358D01*
X1861201Y836618D02*
X1866280D01*
X1876436Y829000D02*
Y844235D01*
X1884054D01*
X1886593Y841696D01*
Y836618D01*
X1884054Y834078D01*
X1876436D01*
X1881515D02*
X1886593Y829000D01*
X1906906Y844235D02*
X1917063D01*
X1911985D01*
Y829000D01*
X1922142Y844235D02*
Y829000D01*
Y836618D01*
X1932298D01*
Y844235D01*
Y829000D01*
X1937377D02*
Y839157D01*
X1942455Y844235D01*
X1947533Y839157D01*
Y829000D01*
Y836618D01*
X1937377D01*
X1952612Y829000D02*
Y844235D01*
X1962768Y829000D01*
Y844235D01*
X1993239D02*
X1983082D01*
Y836618D01*
X1988160D01*
X1983082D01*
Y829000D01*
X1998317Y844235D02*
X2003395D01*
X2000856D01*
Y829000D01*
X1998317D01*
X2003395D01*
X2011013Y844235D02*
Y829000D01*
X2018630D01*
X2021169Y831539D01*
Y841696D01*
X2018630Y844235D01*
X2011013D01*
X2026248D02*
Y831539D01*
X2028787Y829000D01*
X2033865D01*
X2036405Y831539D01*
Y844235D01*
X2051640Y841696D02*
X2049100Y844235D01*
X2044022D01*
X2041483Y841696D01*
Y831539D01*
X2044022Y829000D01*
X2049100D01*
X2051640Y831539D01*
X2056718Y844235D02*
X2061796D01*
X2059257D01*
Y829000D01*
X2056718D01*
X2061796D01*
X2069414D02*
Y839157D01*
X2074492Y844235D01*
X2079571Y839157D01*
Y829000D01*
Y836618D01*
X2069414D01*
X2084649Y844235D02*
Y829000D01*
X2094806D01*
X836157Y869235D02*
X826000D01*
Y861618D01*
X831078Y864157D01*
X833617D01*
X836157Y861618D01*
Y856539D01*
X833617Y854000D01*
X828539D01*
X826000Y856539D01*
X841235Y854000D02*
Y856539D01*
X843774D01*
Y854000D01*
X841235D01*
X869166D02*
Y869235D01*
X876784D01*
X879323Y866696D01*
Y861618D01*
X876784Y859078D01*
X869166D01*
X884401Y854000D02*
Y864157D01*
X889480Y869235D01*
X894558Y864157D01*
Y854000D01*
Y861618D01*
X884401D01*
X899636Y854000D02*
Y869235D01*
X909793Y854000D01*
Y869235D01*
X925028D02*
X914871D01*
Y854000D01*
X925028D01*
X914871Y861618D02*
X919950D01*
X930106Y869235D02*
Y854000D01*
X940263D01*
X945341Y869235D02*
X950420D01*
X947881D01*
Y854000D01*
X945341D01*
X950420D01*
X958037Y869235D02*
X968194D01*
Y866696D01*
X958037Y856539D01*
Y854000D01*
X968194D01*
X983429Y869235D02*
X973272D01*
Y854000D01*
X983429D01*
X973272Y861618D02*
X978351D01*
X1003743Y869235D02*
X1013899D01*
X1008821D01*
Y854000D01*
X1018978Y869235D02*
Y854000D01*
Y861618D01*
X1029134D01*
Y869235D01*
Y854000D01*
X1044369Y869235D02*
X1034213D01*
Y854000D01*
X1044369D01*
X1034213Y861618D02*
X1039291D01*
X1064683Y869235D02*
Y854000D01*
X1072300D01*
X1074839Y856539D01*
Y859078D01*
X1072300Y861618D01*
X1064683D01*
X1072300D01*
X1074839Y864157D01*
Y866696D01*
X1072300Y869235D01*
X1064683D01*
X1087535D02*
X1082457D01*
X1079918Y866696D01*
Y856539D01*
X1082457Y854000D01*
X1087535D01*
X1090075Y856539D01*
Y866696D01*
X1087535Y869235D01*
X1095153Y854000D02*
Y864157D01*
X1100231Y869235D01*
X1105310Y864157D01*
Y854000D01*
Y861618D01*
X1095153D01*
X1110388Y854000D02*
Y869235D01*
X1118006D01*
X1120545Y866696D01*
Y861618D01*
X1118006Y859078D01*
X1110388D01*
X1115466D02*
X1120545Y854000D01*
X1125623Y869235D02*
Y854000D01*
X1133241D01*
X1135780Y856539D01*
Y866696D01*
X1133241Y869235D01*
X1125623D01*
X1161172Y854000D02*
X1156093Y859078D01*
Y864157D01*
X1161172Y869235D01*
X1176407Y854000D02*
Y869235D01*
X1168789Y861618D01*
X1178946D01*
X1184024Y854000D02*
Y869235D01*
X1191642D01*
X1194181Y866696D01*
Y861618D01*
X1191642Y859078D01*
X1184024D01*
X1209416Y866696D02*
X1206877Y869235D01*
X1201798D01*
X1199259Y866696D01*
Y856539D01*
X1201798Y854000D01*
X1206877D01*
X1209416Y856539D01*
X1224651Y866696D02*
X1222112Y869235D01*
X1217033D01*
X1214494Y866696D01*
Y864157D01*
X1217033Y861618D01*
X1222112D01*
X1224651Y859078D01*
Y856539D01*
X1222112Y854000D01*
X1217033D01*
X1214494Y856539D01*
X1244965Y854000D02*
Y869235D01*
X1252582D01*
X1255121Y866696D01*
Y861618D01*
X1252582Y859078D01*
X1244965D01*
X1270356Y869235D02*
X1260200D01*
Y854000D01*
X1270356D01*
X1260200Y861618D02*
X1265278D01*
X1275435Y854000D02*
Y869235D01*
X1283052D01*
X1285591Y866696D01*
Y861618D01*
X1283052Y859078D01*
X1275435D01*
X1280513D02*
X1285591Y854000D01*
X1305905D02*
Y869235D01*
X1313522D01*
X1316062Y866696D01*
Y861618D01*
X1313522Y859078D01*
X1305905D01*
X1321140Y854000D02*
Y864157D01*
X1326218Y869235D01*
X1331297Y864157D01*
Y854000D01*
Y861618D01*
X1321140D01*
X1336375Y854000D02*
Y869235D01*
X1346532Y854000D01*
Y869235D01*
X1361767D02*
X1351610D01*
Y854000D01*
X1361767D01*
X1351610Y861618D02*
X1356688D01*
X1366845Y869235D02*
Y854000D01*
X1377002D01*
X1382080D02*
X1387159Y859078D01*
Y864157D01*
X1382080Y869235D01*
X1394776Y854000D02*
Y856539D01*
X1397315D01*
Y854000D01*
X1394776D01*
X1422707D02*
Y869235D01*
X1430325D01*
X1432864Y866696D01*
Y861618D01*
X1430325Y859078D01*
X1422707D01*
X1437942Y869235D02*
Y854000D01*
X1448099D01*
X1453177D02*
Y864157D01*
X1458255Y869235D01*
X1463334Y864157D01*
Y854000D01*
Y861618D01*
X1453177D01*
X1478569Y866696D02*
X1476030Y869235D01*
X1470951D01*
X1468412Y866696D01*
Y856539D01*
X1470951Y854000D01*
X1476030D01*
X1478569Y856539D01*
X1493804Y869235D02*
X1483647D01*
Y854000D01*
X1493804D01*
X1483647Y861618D02*
X1488726D01*
X1524274Y869235D02*
X1514117D01*
Y861618D01*
X1519196D01*
X1514117D01*
Y854000D01*
X1529353Y869235D02*
X1534431D01*
X1531892D01*
Y854000D01*
X1529353D01*
X1534431D01*
X1542048Y869235D02*
Y854000D01*
X1549666D01*
X1552205Y856539D01*
Y866696D01*
X1549666Y869235D01*
X1542048D01*
X1557283D02*
Y856539D01*
X1559823Y854000D01*
X1564901D01*
X1567440Y856539D01*
Y869235D01*
X1582675Y866696D02*
X1580136Y869235D01*
X1575058D01*
X1572518Y866696D01*
Y856539D01*
X1575058Y854000D01*
X1580136D01*
X1582675Y856539D01*
X1587754Y869235D02*
X1592832D01*
X1590293D01*
Y854000D01*
X1587754D01*
X1592832D01*
X1600450D02*
Y864157D01*
X1605528Y869235D01*
X1610606Y864157D01*
Y854000D01*
Y861618D01*
X1600450D01*
X1615685Y869235D02*
Y854000D01*
X1625841D01*
X1641076Y866696D02*
X1638537Y869235D01*
X1633459D01*
X1630920Y866696D01*
Y864157D01*
X1633459Y861618D01*
X1638537D01*
X1641076Y859078D01*
Y856539D01*
X1638537Y854000D01*
X1633459D01*
X1630920Y856539D01*
X1669007Y869235D02*
X1663929D01*
X1661390Y866696D01*
Y856539D01*
X1663929Y854000D01*
X1669007D01*
X1671546Y856539D01*
Y866696D01*
X1669007Y869235D01*
X1676625Y854000D02*
Y869235D01*
X1686781Y854000D01*
Y869235D01*
X1707095D02*
X1717252D01*
X1712173D01*
Y854000D01*
X1722330Y869235D02*
Y854000D01*
Y861618D01*
X1732487D01*
Y869235D01*
Y854000D01*
X1747722Y869235D02*
X1737565D01*
Y854000D01*
X1747722D01*
X1737565Y861618D02*
X1742643D01*
X1768035Y854000D02*
Y869235D01*
X1775653D01*
X1778192Y866696D01*
Y861618D01*
X1775653Y859078D01*
X1768035D01*
X1783270Y854000D02*
Y864157D01*
X1788349Y869235D01*
X1793427Y864157D01*
Y854000D01*
Y861618D01*
X1783270D01*
X1798505Y854000D02*
Y869235D01*
X1808662Y854000D01*
Y869235D01*
X1823897D02*
X1813741D01*
Y854000D01*
X1823897D01*
X1813741Y861618D02*
X1818819D01*
X1828976Y869235D02*
Y854000D01*
X1839132D01*
X1869602Y866696D02*
X1867063Y869235D01*
X1861985D01*
X1859446Y866696D01*
Y864157D01*
X1861985Y861618D01*
X1867063D01*
X1869602Y859078D01*
Y856539D01*
X1867063Y854000D01*
X1861985D01*
X1859446Y856539D01*
X1874681Y869235D02*
X1884837D01*
X1879759D01*
Y854000D01*
X1889916D02*
Y869235D01*
X1897533D01*
X1900073Y866696D01*
Y861618D01*
X1897533Y859078D01*
X1889916D01*
X1894994D02*
X1900073Y854000D01*
X1905151Y869235D02*
X1910229D01*
X1907690D01*
Y854000D01*
X1905151D01*
X1910229D01*
X1917847D02*
Y869235D01*
X1925464D01*
X1928004Y866696D01*
Y861618D01*
X1925464Y859078D01*
X1917847D01*
X1943239Y866696D02*
X1940699Y869235D01*
X1935621D01*
X1933082Y866696D01*
Y864157D01*
X1935621Y861618D01*
X1940699D01*
X1943239Y859078D01*
Y856539D01*
X1940699Y854000D01*
X1935621D01*
X1933082Y856539D01*
X1963552Y854000D02*
Y864157D01*
X1968630Y869235D01*
X1973709Y864157D01*
Y854000D01*
Y861618D01*
X1963552D01*
X1988944Y866696D02*
X1986405Y869235D01*
X1981326D01*
X1978787Y866696D01*
Y864157D01*
X1981326Y861618D01*
X1986405D01*
X1988944Y859078D01*
Y856539D01*
X1986405Y854000D01*
X1981326D01*
X1978787Y856539D01*
X2019414Y869235D02*
X2009257D01*
Y861618D01*
X2014336D01*
X2009257D01*
Y854000D01*
X2032110Y869235D02*
X2027032D01*
X2024492Y866696D01*
Y856539D01*
X2027032Y854000D01*
X2032110D01*
X2034649Y856539D01*
Y866696D01*
X2032110Y869235D01*
X2039727D02*
Y854000D01*
X2049884D01*
X2054962Y869235D02*
Y854000D01*
X2065119D01*
X2077815Y869235D02*
X2072737D01*
X2070197Y866696D01*
Y856539D01*
X2072737Y854000D01*
X2077815D01*
X2080354Y856539D01*
Y866696D01*
X2077815Y869235D01*
X2085433D02*
Y854000D01*
X2090511Y859078D01*
X2095589Y854000D01*
Y869235D01*
X2110824Y866696D02*
X2108285Y869235D01*
X2103207D01*
X2100668Y866696D01*
Y864157D01*
X2103207Y861618D01*
X2108285D01*
X2110824Y859078D01*
Y856539D01*
X2108285Y854000D01*
X2103207D01*
X2100668Y856539D01*
X2115903Y864157D02*
X2118442D01*
Y861618D01*
X2115903D01*
Y864157D01*
Y856539D02*
X2118442D01*
Y854000D01*
X2115903D01*
Y856539D01*
X826000Y1194235D02*
Y1179000D01*
X833617D01*
X836157Y1181539D01*
Y1184078D01*
X833617Y1186618D01*
X826000D01*
X833617D01*
X836157Y1189157D01*
Y1191696D01*
X833617Y1194235D01*
X826000D01*
X843774Y1179000D02*
X848853D01*
X851392Y1181539D01*
Y1186618D01*
X848853Y1189157D01*
X843774D01*
X841235Y1186618D01*
Y1181539D01*
X843774Y1179000D01*
X859009Y1189157D02*
X864088D01*
X866627Y1186618D01*
Y1179000D01*
X859009D01*
X856470Y1181539D01*
X859009Y1184078D01*
X866627D01*
X871705Y1189157D02*
Y1179000D01*
Y1184078D01*
X874244Y1186618D01*
X876784Y1189157D01*
X879323D01*
X897097Y1194235D02*
Y1179000D01*
X889480D01*
X886940Y1181539D01*
Y1186618D01*
X889480Y1189157D01*
X897097D01*
X917410Y1179000D02*
X922489D01*
X919950D01*
Y1189157D01*
X917410D01*
X930106Y1179000D02*
Y1189157D01*
X937724D01*
X940263Y1186618D01*
Y1179000D01*
X947881D02*
Y1191696D01*
Y1186618D01*
X945341D01*
X950420D01*
X947881D01*
Y1191696D01*
X950420Y1194235D01*
X960576Y1179000D02*
X965655D01*
X968194Y1181539D01*
Y1186618D01*
X965655Y1189157D01*
X960576D01*
X958037Y1186618D01*
Y1181539D01*
X960576Y1179000D01*
X826000Y1154000D02*
Y1169235D01*
X831078Y1164157D01*
X836157Y1169235D01*
Y1154000D01*
X841235D02*
X846313D01*
X843774D01*
Y1164157D01*
X841235D01*
X853931Y1154000D02*
Y1164157D01*
X861548D01*
X864088Y1161618D01*
Y1154000D01*
X869166D02*
X874244D01*
X871705D01*
Y1164157D01*
X869166D01*
X881862Y1154000D02*
Y1164157D01*
X884401D01*
X886940Y1161618D01*
Y1154000D01*
Y1161618D01*
X889480Y1164157D01*
X892019Y1161618D01*
Y1154000D01*
X897097Y1164157D02*
Y1156539D01*
X899636Y1154000D01*
X907254D01*
Y1164157D01*
X912332Y1154000D02*
Y1164157D01*
X914871D01*
X917410Y1161618D01*
Y1154000D01*
Y1161618D01*
X919950Y1164157D01*
X922489Y1161618D01*
Y1154000D01*
X942802Y1169235D02*
X952959D01*
X947881D01*
Y1154000D01*
X958037Y1164157D02*
Y1154000D01*
Y1159078D01*
X960576Y1161618D01*
X963116Y1164157D01*
X965655D01*
X975811D02*
X980890D01*
X983429Y1161618D01*
Y1154000D01*
X975811D01*
X973272Y1156539D01*
X975811Y1159078D01*
X983429D01*
X998664Y1164157D02*
X991047D01*
X988507Y1161618D01*
Y1156539D01*
X991047Y1154000D01*
X998664D01*
X1003743D02*
Y1169235D01*
Y1159078D02*
X1011360Y1164157D01*
X1003743Y1159078D02*
X1011360Y1154000D01*
X1018978Y1164157D02*
X1021517D01*
Y1161618D01*
X1018978D01*
Y1164157D01*
Y1156539D02*
X1021517D01*
Y1154000D01*
X1018978D01*
Y1156539D01*
X1057065Y1154000D02*
X1046908D01*
X1057065Y1164157D01*
Y1166696D01*
X1054526Y1169235D01*
X1049448D01*
X1046908Y1166696D01*
X1062144D02*
X1064683Y1169235D01*
X1069761D01*
X1072300Y1166696D01*
Y1156539D01*
X1069761Y1154000D01*
X1064683D01*
X1062144Y1156539D01*
Y1166696D01*
X1077379D02*
X1079918Y1169235D01*
X1084996D01*
X1087535Y1166696D01*
Y1156539D01*
X1084996Y1154000D01*
X1079918D01*
X1077379Y1156539D01*
Y1166696D01*
X1092614Y1164157D02*
Y1156539D01*
X1095153Y1154000D01*
X1102770D01*
Y1164157D01*
X1107849Y1154000D02*
Y1164157D01*
X1110388D01*
X1112927Y1161618D01*
Y1154000D01*
Y1161618D01*
X1115466Y1164157D01*
X1118006Y1161618D01*
Y1154000D01*
X826000Y1129000D02*
Y1144235D01*
X831078Y1139157D01*
X836157Y1144235D01*
Y1129000D01*
X841235D02*
X846313D01*
X843774D01*
Y1139157D01*
X841235D01*
X853931Y1129000D02*
Y1139157D01*
X861548D01*
X864088Y1136618D01*
Y1129000D01*
X869166D02*
X874244D01*
X871705D01*
Y1139157D01*
X869166D01*
X881862Y1129000D02*
Y1139157D01*
X884401D01*
X886940Y1136618D01*
Y1129000D01*
Y1136618D01*
X889480Y1139157D01*
X892019Y1136618D01*
Y1129000D01*
X897097Y1139157D02*
Y1131539D01*
X899636Y1129000D01*
X907254D01*
Y1139157D01*
X912332Y1129000D02*
Y1139157D01*
X914871D01*
X917410Y1136618D01*
Y1129000D01*
Y1136618D01*
X919950Y1139157D01*
X922489Y1136618D01*
Y1129000D01*
X952959Y1141696D02*
X950420Y1144235D01*
X945341D01*
X942802Y1141696D01*
Y1131539D01*
X945341Y1129000D01*
X950420D01*
X952959Y1131539D01*
Y1136618D01*
X947881D01*
X960576Y1139157D02*
X965655D01*
X968194Y1136618D01*
Y1129000D01*
X960576D01*
X958037Y1131539D01*
X960576Y1134078D01*
X968194D01*
X973272Y1123922D02*
Y1139157D01*
X980890D01*
X983429Y1136618D01*
Y1131539D01*
X980890Y1129000D01*
X973272D01*
X988507Y1139157D02*
X991047D01*
Y1136618D01*
X988507D01*
Y1139157D01*
Y1131539D02*
X991047D01*
Y1129000D01*
X988507D01*
Y1131539D01*
X1026595Y1129000D02*
X1016438D01*
X1026595Y1139157D01*
Y1141696D01*
X1024056Y1144235D01*
X1018978D01*
X1016438Y1141696D01*
X1031674D02*
X1034213Y1144235D01*
X1039291D01*
X1041830Y1141696D01*
Y1131539D01*
X1039291Y1129000D01*
X1034213D01*
X1031674Y1131539D01*
Y1141696D01*
X1046908D02*
X1049448Y1144235D01*
X1054526D01*
X1057065Y1141696D01*
Y1131539D01*
X1054526Y1129000D01*
X1049448D01*
X1046908Y1131539D01*
Y1141696D01*
X1062144Y1139157D02*
Y1131539D01*
X1064683Y1129000D01*
X1072300D01*
Y1139157D01*
X1077379Y1129000D02*
Y1139157D01*
X1079918D01*
X1082457Y1136618D01*
Y1129000D01*
Y1136618D01*
X1084996Y1139157D01*
X1087535Y1136618D01*
Y1129000D01*
X826000Y1104000D02*
Y1119235D01*
X831078Y1114157D01*
X836157Y1119235D01*
Y1104000D01*
X841235D02*
X846313D01*
X843774D01*
Y1114157D01*
X841235D01*
X853931Y1104000D02*
Y1114157D01*
X861548D01*
X864088Y1111618D01*
Y1104000D01*
X869166D02*
X874244D01*
X871705D01*
Y1114157D01*
X869166D01*
X881862Y1104000D02*
Y1114157D01*
X884401D01*
X886940Y1111618D01*
Y1104000D01*
Y1111618D01*
X889480Y1114157D01*
X892019Y1111618D01*
Y1104000D01*
X897097Y1114157D02*
Y1106539D01*
X899636Y1104000D01*
X907254D01*
Y1114157D01*
X912332Y1104000D02*
Y1114157D01*
X914871D01*
X917410Y1111618D01*
Y1104000D01*
Y1111618D01*
X919950Y1114157D01*
X922489Y1111618D01*
Y1104000D01*
X942802Y1119235D02*
X952959D01*
X947881D01*
Y1104000D01*
X958037Y1119235D02*
Y1104000D01*
Y1111618D01*
X960576Y1114157D01*
X965655D01*
X968194Y1111618D01*
Y1104000D01*
X973272Y1114157D02*
Y1104000D01*
Y1109078D01*
X975811Y1111618D01*
X978351Y1114157D01*
X980890D01*
X991047Y1104000D02*
X996125D01*
X998664Y1106539D01*
Y1111618D01*
X996125Y1114157D01*
X991047D01*
X988507Y1111618D01*
Y1106539D01*
X991047Y1104000D01*
X1003743Y1114157D02*
Y1106539D01*
X1006282Y1104000D01*
X1013899D01*
Y1114157D01*
X1024056Y1098922D02*
X1026595D01*
X1029134Y1101461D01*
Y1114157D01*
X1021517D01*
X1018978Y1111618D01*
Y1106539D01*
X1021517Y1104000D01*
X1029134D01*
X1034213Y1119235D02*
Y1104000D01*
Y1111618D01*
X1036752Y1114157D01*
X1041830D01*
X1044369Y1111618D01*
Y1104000D01*
X1064683Y1119235D02*
Y1104000D01*
Y1111618D01*
X1074839D01*
Y1119235D01*
Y1104000D01*
X1082457D02*
X1087535D01*
X1090075Y1106539D01*
Y1111618D01*
X1087535Y1114157D01*
X1082457D01*
X1079918Y1111618D01*
Y1106539D01*
X1082457Y1104000D01*
X1095153D02*
X1100231D01*
X1097692D01*
Y1119235D01*
X1095153D01*
X1115466Y1104000D02*
X1110388D01*
X1107849Y1106539D01*
Y1111618D01*
X1110388Y1114157D01*
X1115466D01*
X1118006Y1111618D01*
Y1109078D01*
X1107849D01*
X1138319Y1119235D02*
Y1109078D01*
X1143397Y1104000D01*
X1148476Y1109078D01*
Y1119235D01*
X1153554D02*
X1158632D01*
X1156093D01*
Y1104000D01*
X1153554D01*
X1158632D01*
X1166250D02*
Y1114157D01*
X1171328Y1119235D01*
X1176407Y1114157D01*
Y1104000D01*
Y1111618D01*
X1166250D01*
X1181485Y1114157D02*
X1184024D01*
Y1111618D01*
X1181485D01*
Y1114157D01*
Y1106539D02*
X1184024D01*
Y1104000D01*
X1181485D01*
Y1106539D01*
X1209416Y1116696D02*
X1211955Y1119235D01*
X1217033D01*
X1219573Y1116696D01*
Y1106539D01*
X1217033Y1104000D01*
X1211955D01*
X1209416Y1106539D01*
Y1116696D01*
X1224651Y1104000D02*
Y1106539D01*
X1227190D01*
Y1104000D01*
X1224651D01*
X1247504Y1119235D02*
X1242425Y1116696D01*
X1237347Y1111618D01*
Y1106539D01*
X1239886Y1104000D01*
X1244964D01*
X1247504Y1106539D01*
Y1109078D01*
X1244964Y1111618D01*
X1237347D01*
X1252582Y1104000D02*
Y1114157D01*
X1255121D01*
X1257660Y1111618D01*
Y1104000D01*
Y1111618D01*
X1260200Y1114157D01*
X1262739Y1111618D01*
Y1104000D01*
X1267817D02*
Y1114157D01*
X1270356D01*
X1272895Y1111618D01*
Y1104000D01*
Y1111618D01*
X1275435Y1114157D01*
X1277974Y1111618D01*
Y1104000D01*
X1303365D02*
X1298287Y1109078D01*
Y1114157D01*
X1303365Y1119235D01*
X1310983Y1098922D02*
Y1114157D01*
X1318601D01*
X1321140Y1111618D01*
Y1106539D01*
X1318601Y1104000D01*
X1310983D01*
X1328757Y1114157D02*
X1333836D01*
X1336375Y1111618D01*
Y1104000D01*
X1328757D01*
X1326218Y1106539D01*
X1328757Y1109078D01*
X1336375D01*
X1351610Y1119235D02*
Y1104000D01*
X1343992D01*
X1341453Y1106539D01*
Y1111618D01*
X1343992Y1114157D01*
X1351610D01*
X1356688Y1104000D02*
X1361767Y1109078D01*
Y1114157D01*
X1356688Y1119235D01*
X1384619Y1104000D02*
X1394776Y1114157D01*
X1415089Y1116696D02*
X1417629Y1119235D01*
X1422707D01*
X1425246Y1116696D01*
Y1106539D01*
X1422707Y1104000D01*
X1417629D01*
X1415089Y1106539D01*
Y1116696D01*
X1430325Y1104000D02*
Y1106539D01*
X1432864D01*
Y1104000D01*
X1430325D01*
X1443020Y1116696D02*
X1445560Y1119235D01*
X1450638D01*
X1453177Y1116696D01*
Y1114157D01*
X1450638Y1111618D01*
X1448099D01*
X1450638D01*
X1453177Y1109078D01*
Y1106539D01*
X1450638Y1104000D01*
X1445560D01*
X1443020Y1106539D01*
X1458255Y1104000D02*
Y1114157D01*
X1460795D01*
X1463334Y1111618D01*
Y1104000D01*
Y1111618D01*
X1465873Y1114157D01*
X1468412Y1111618D01*
Y1104000D01*
X1473490D02*
Y1114157D01*
X1476030D01*
X1478569Y1111618D01*
Y1104000D01*
Y1111618D01*
X1481108Y1114157D01*
X1483647Y1111618D01*
Y1104000D01*
X1509039D02*
X1503961Y1109078D01*
Y1114157D01*
X1509039Y1119235D01*
X1526813D02*
Y1104000D01*
X1519196D01*
X1516656Y1106539D01*
Y1111618D01*
X1519196Y1114157D01*
X1526813D01*
X1531892D02*
Y1104000D01*
Y1109078D01*
X1534431Y1111618D01*
X1536970Y1114157D01*
X1539509D01*
X1547127Y1104000D02*
X1552205D01*
X1549666D01*
Y1114157D01*
X1547127D01*
X1559823Y1104000D02*
X1564901D01*
X1562362D01*
Y1119235D01*
X1559823D01*
X1572518Y1104000D02*
X1577597D01*
X1575058D01*
Y1119235D01*
X1572518D01*
X1585214Y1104000D02*
X1590293Y1109078D01*
Y1114157D01*
X1585214Y1119235D01*
X1597910Y1104000D02*
Y1106539D01*
X1600449D01*
Y1104000D01*
X1597910D01*
X1625841Y1119235D02*
Y1104000D01*
X1633459D01*
X1635998Y1106539D01*
Y1116696D01*
X1633459Y1119235D01*
X1625841D01*
X1641076Y1114157D02*
Y1104000D01*
Y1109078D01*
X1643615Y1111618D01*
X1646155Y1114157D01*
X1648694D01*
X1656311Y1104000D02*
X1661390D01*
X1658851D01*
Y1114157D01*
X1656311D01*
X1669007Y1104000D02*
X1674086D01*
X1671546D01*
Y1119235D01*
X1669007D01*
X1681703Y1104000D02*
X1686781D01*
X1684242D01*
Y1119235D01*
X1681703D01*
X1694399Y1104000D02*
X1699477D01*
X1696938D01*
Y1114157D01*
X1694399D01*
X1707095Y1104000D02*
Y1114157D01*
X1714712D01*
X1717252Y1111618D01*
Y1104000D01*
X1727408Y1098922D02*
X1729948D01*
X1732487Y1101461D01*
Y1114157D01*
X1724869D01*
X1722330Y1111618D01*
Y1106539D01*
X1724869Y1104000D01*
X1732487D01*
X1737565Y1114157D02*
X1740104D01*
Y1111618D01*
X1737565D01*
Y1114157D01*
Y1106539D02*
X1740104D01*
Y1104000D01*
X1737565D01*
Y1106539D01*
X1765496Y1119235D02*
Y1104000D01*
X1775653D01*
X1780731D02*
X1785809D01*
X1783270D01*
Y1119235D01*
X1780731Y1116696D01*
X1793427Y1111618D02*
X1803584D01*
X1808662Y1119235D02*
Y1104000D01*
X1818819D01*
X1834054D02*
X1823897D01*
X1834054Y1114157D01*
Y1116696D01*
X1831515Y1119235D01*
X1826436D01*
X1823897Y1116696D01*
X826000Y1054000D02*
X831078D01*
X828539D01*
Y1069235D01*
X826000Y1066696D01*
X838696Y1054000D02*
Y1056539D01*
X841235D01*
Y1054000D01*
X838696D01*
X876784Y1069235D02*
X866627D01*
Y1061618D01*
X871705D01*
X866627D01*
Y1054000D01*
X881862Y1069235D02*
X886940D01*
X884401D01*
Y1054000D01*
X881862D01*
X886940D01*
X894558D02*
Y1069235D01*
X904715Y1054000D01*
Y1069235D01*
X909793D02*
X914871D01*
X912332D01*
Y1054000D01*
X909793D01*
X914871D01*
X932645Y1066696D02*
X930106Y1069235D01*
X925028D01*
X922489Y1066696D01*
Y1064157D01*
X925028Y1061618D01*
X930106D01*
X932645Y1059078D01*
Y1056539D01*
X930106Y1054000D01*
X925028D01*
X922489Y1056539D01*
X937724Y1069235D02*
Y1054000D01*
Y1061618D01*
X947881D01*
Y1069235D01*
Y1054000D01*
X963116Y1069235D02*
X952959D01*
Y1054000D01*
X963116D01*
X952959Y1061618D02*
X958037D01*
X968194Y1069235D02*
Y1054000D01*
X975811D01*
X978351Y1056539D01*
Y1066696D01*
X975811Y1069235D01*
X968194D01*
X998664Y1054000D02*
Y1069235D01*
X1006282D01*
X1008821Y1066696D01*
Y1061618D01*
X1006282Y1059078D01*
X998664D01*
X1013899Y1054000D02*
Y1064157D01*
X1018978Y1069235D01*
X1024056Y1064157D01*
Y1054000D01*
Y1061618D01*
X1013899D01*
X1029134Y1054000D02*
Y1069235D01*
X1039291Y1054000D01*
Y1069235D01*
X1054526D02*
X1044369D01*
Y1054000D01*
X1054526D01*
X1044369Y1061618D02*
X1049448D01*
X1059604Y1069235D02*
Y1054000D01*
X1069761D01*
X1090075Y1069235D02*
X1100231D01*
X1095153D01*
Y1054000D01*
X1105310Y1069235D02*
Y1054000D01*
Y1061618D01*
X1115466D01*
Y1069235D01*
Y1054000D01*
X1120545Y1069235D02*
X1125623D01*
X1123084D01*
Y1054000D01*
X1120545D01*
X1125623D01*
X1143397Y1066696D02*
X1140858Y1069235D01*
X1135780D01*
X1133241Y1066696D01*
Y1056539D01*
X1135780Y1054000D01*
X1140858D01*
X1143397Y1056539D01*
X1148476Y1069235D02*
Y1054000D01*
Y1059078D01*
X1158632Y1069235D01*
X1151015Y1061618D01*
X1158632Y1054000D01*
X1163711D02*
Y1069235D01*
X1173867Y1054000D01*
Y1069235D01*
X1189102D02*
X1178946D01*
Y1054000D01*
X1189102D01*
X1178946Y1061618D02*
X1184024D01*
X1204338Y1066696D02*
X1201798Y1069235D01*
X1196720D01*
X1194181Y1066696D01*
Y1064157D01*
X1196720Y1061618D01*
X1201798D01*
X1204338Y1059078D01*
Y1056539D01*
X1201798Y1054000D01*
X1196720D01*
X1194181Y1056539D01*
X1219573Y1066696D02*
X1217033Y1069235D01*
X1211955D01*
X1209416Y1066696D01*
Y1064157D01*
X1211955Y1061618D01*
X1217033D01*
X1219573Y1059078D01*
Y1056539D01*
X1217033Y1054000D01*
X1211955D01*
X1209416Y1056539D01*
X1239886Y1069235D02*
X1244964D01*
X1242425D01*
Y1054000D01*
X1239886D01*
X1244964D01*
X1262739Y1066696D02*
X1260200Y1069235D01*
X1255121D01*
X1252582Y1066696D01*
Y1064157D01*
X1255121Y1061618D01*
X1260200D01*
X1262739Y1059078D01*
Y1056539D01*
X1260200Y1054000D01*
X1255121D01*
X1252582Y1056539D01*
X1283052Y1054000D02*
Y1069235D01*
X1293209Y1054000D01*
Y1069235D01*
X1305905D02*
X1300826D01*
X1298287Y1066696D01*
Y1056539D01*
X1300826Y1054000D01*
X1305905D01*
X1308444Y1056539D01*
Y1066696D01*
X1305905Y1069235D01*
X1313522D02*
X1323679D01*
X1318601D01*
Y1054000D01*
X1354149Y1066696D02*
X1351610Y1069235D01*
X1346532D01*
X1343992Y1066696D01*
Y1056539D01*
X1346532Y1054000D01*
X1351610D01*
X1354149Y1056539D01*
X1359227Y1054000D02*
Y1069235D01*
X1366845D01*
X1369384Y1066696D01*
Y1061618D01*
X1366845Y1059078D01*
X1359227D01*
X1364306D02*
X1369384Y1054000D01*
X1374463Y1069235D02*
X1379541D01*
X1377002D01*
Y1054000D01*
X1374463D01*
X1379541D01*
X1387158Y1069235D02*
X1397315D01*
X1392237D01*
Y1054000D01*
X1402393Y1069235D02*
X1407472D01*
X1404933D01*
Y1054000D01*
X1402393D01*
X1407472D01*
X1425246Y1066696D02*
X1422707Y1069235D01*
X1417629D01*
X1415089Y1066696D01*
Y1056539D01*
X1417629Y1054000D01*
X1422707D01*
X1425246Y1056539D01*
X1430325Y1054000D02*
Y1064157D01*
X1435403Y1069235D01*
X1440481Y1064157D01*
Y1054000D01*
Y1061618D01*
X1430325D01*
X1445560Y1069235D02*
Y1054000D01*
X1455716D01*
X1460795Y1064157D02*
X1463334D01*
Y1061618D01*
X1460795D01*
Y1064157D01*
Y1056539D02*
X1463334D01*
Y1054000D01*
X1460795D01*
Y1056539D01*
X1488726Y1069235D02*
X1498882D01*
X1493804D01*
Y1054000D01*
X1511578Y1069235D02*
X1506500D01*
X1503961Y1066696D01*
Y1056539D01*
X1506500Y1054000D01*
X1511578D01*
X1514117Y1056539D01*
Y1066696D01*
X1511578Y1069235D01*
X1534431D02*
Y1054000D01*
X1542048D01*
X1544588Y1056539D01*
Y1059078D01*
X1542048Y1061618D01*
X1534431D01*
X1542048D01*
X1544588Y1064157D01*
Y1066696D01*
X1542048Y1069235D01*
X1534431D01*
X1559823D02*
X1549666D01*
Y1054000D01*
X1559823D01*
X1549666Y1061618D02*
X1554744D01*
X1580136Y1054000D02*
Y1064157D01*
X1585214Y1069235D01*
X1590293Y1064157D01*
Y1054000D01*
Y1061618D01*
X1580136D01*
X1595371Y1054000D02*
Y1069235D01*
X1602989D01*
X1605528Y1066696D01*
Y1061618D01*
X1602989Y1059078D01*
X1595371D01*
X1610606Y1054000D02*
Y1069235D01*
X1618224D01*
X1620763Y1066696D01*
Y1061618D01*
X1618224Y1059078D01*
X1610606D01*
X1625841Y1054000D02*
Y1069235D01*
X1633459D01*
X1635998Y1066696D01*
Y1061618D01*
X1633459Y1059078D01*
X1625841D01*
X1630920D02*
X1635998Y1054000D01*
X1648694Y1069235D02*
X1643616D01*
X1641076Y1066696D01*
Y1056539D01*
X1643616Y1054000D01*
X1648694D01*
X1651233Y1056539D01*
Y1066696D01*
X1648694Y1069235D01*
X1656311D02*
X1666468Y1054000D01*
Y1069235D02*
X1656311Y1054000D01*
X1671546Y1069235D02*
X1676625D01*
X1674086D01*
Y1054000D01*
X1671546D01*
X1676625D01*
X1684242D02*
Y1069235D01*
X1689321Y1064157D01*
X1694399Y1069235D01*
Y1054000D01*
X1699477D02*
Y1064157D01*
X1704556Y1069235D01*
X1709634Y1064157D01*
Y1054000D01*
Y1061618D01*
X1699477D01*
X1714713Y1069235D02*
X1724869D01*
X1719791D01*
Y1054000D01*
X1740104Y1069235D02*
X1729948D01*
Y1054000D01*
X1740104D01*
X1729948Y1061618D02*
X1735026D01*
X1745183Y1069235D02*
Y1054000D01*
X1755339D01*
X1760418Y1069235D02*
Y1066696D01*
X1765496Y1061618D01*
X1770574Y1066696D01*
Y1069235D01*
X1765496Y1061618D02*
Y1054000D01*
X1790888D02*
X1795966D01*
X1793427D01*
Y1069235D01*
X1790888Y1066696D01*
X1803584Y1054000D02*
Y1056539D01*
X1806123D01*
Y1054000D01*
X1803584D01*
X1826436Y1069235D02*
X1821358Y1066696D01*
X1816280Y1061618D01*
Y1056539D01*
X1818819Y1054000D01*
X1823897D01*
X1826436Y1056539D01*
Y1059078D01*
X1823897Y1061618D01*
X1816280D01*
X1831515Y1054000D02*
Y1064157D01*
X1834054D01*
X1836593Y1061618D01*
Y1054000D01*
Y1061618D01*
X1839132Y1064157D01*
X1841671Y1061618D01*
Y1054000D01*
X1846750D02*
Y1064157D01*
X1849289D01*
X1851828Y1061618D01*
Y1054000D01*
Y1061618D01*
X1854367Y1064157D01*
X1856906Y1061618D01*
Y1054000D01*
X836157Y1004000D02*
X826000D01*
X836157Y1014157D01*
Y1016696D01*
X833617Y1019235D01*
X828539D01*
X826000Y1016696D01*
X841235Y1004000D02*
Y1006539D01*
X843774D01*
Y1004000D01*
X841235D01*
X869166Y1019235D02*
Y1004000D01*
X876784D01*
X879323Y1006539D01*
Y1009078D01*
X876784Y1011618D01*
X869166D01*
X876784D01*
X879323Y1014157D01*
Y1016696D01*
X876784Y1019235D01*
X869166D01*
X892019D02*
X886940D01*
X884401Y1016696D01*
Y1006539D01*
X886940Y1004000D01*
X892019D01*
X894558Y1006539D01*
Y1016696D01*
X892019Y1019235D01*
X899636Y1004000D02*
Y1014157D01*
X904715Y1019235D01*
X909793Y1014157D01*
Y1004000D01*
Y1011618D01*
X899636D01*
X914871Y1004000D02*
Y1019235D01*
X922489D01*
X925028Y1016696D01*
Y1011618D01*
X922489Y1009078D01*
X914871D01*
X919950D02*
X925028Y1004000D01*
X930106Y1019235D02*
Y1004000D01*
X937724D01*
X940263Y1006539D01*
Y1016696D01*
X937724Y1019235D01*
X930106D01*
X970733D02*
X960576D01*
Y1011618D01*
X965655D01*
X960576D01*
Y1004000D01*
X975811Y1019235D02*
X980890D01*
X978351D01*
Y1004000D01*
X975811D01*
X980890D01*
X988507D02*
Y1019235D01*
X998664Y1004000D01*
Y1019235D01*
X1003743D02*
X1008821D01*
X1006282D01*
Y1004000D01*
X1003743D01*
X1008821D01*
X1026595Y1016696D02*
X1024056Y1019235D01*
X1018978D01*
X1016438Y1016696D01*
Y1014157D01*
X1018978Y1011618D01*
X1024056D01*
X1026595Y1009078D01*
Y1006539D01*
X1024056Y1004000D01*
X1018978D01*
X1016438Y1006539D01*
X1031674Y1019235D02*
Y1004000D01*
Y1011618D01*
X1041830D01*
Y1019235D01*
Y1004000D01*
X1046908Y1014157D02*
X1049448D01*
Y1011618D01*
X1046908D01*
Y1014157D01*
Y1006539D02*
X1049448D01*
Y1004000D01*
X1046908D01*
Y1006539D01*
X1074839Y1019235D02*
X1079918D01*
X1077379D01*
Y1004000D01*
X1074839D01*
X1079918D01*
X1087535D02*
Y1019235D01*
X1092614Y1014157D01*
X1097692Y1019235D01*
Y1004000D01*
X1102770D02*
Y1019235D01*
X1107849Y1014157D01*
X1112927Y1019235D01*
Y1004000D01*
X1128162Y1019235D02*
X1118006D01*
Y1004000D01*
X1128162D01*
X1118006Y1011618D02*
X1123084D01*
X1133241Y1004000D02*
Y1019235D01*
X1140858D01*
X1143397Y1016696D01*
Y1011618D01*
X1140858Y1009078D01*
X1133241D01*
X1138319D02*
X1143397Y1004000D01*
X1158632Y1016696D02*
X1156093Y1019235D01*
X1151015D01*
X1148476Y1016696D01*
Y1014157D01*
X1151015Y1011618D01*
X1156093D01*
X1158632Y1009078D01*
Y1006539D01*
X1156093Y1004000D01*
X1151015D01*
X1148476Y1006539D01*
X1163711Y1019235D02*
X1168789D01*
X1166250D01*
Y1004000D01*
X1163711D01*
X1168789D01*
X1184024Y1019235D02*
X1178946D01*
X1176407Y1016696D01*
Y1006539D01*
X1178946Y1004000D01*
X1184024D01*
X1186563Y1006539D01*
Y1016696D01*
X1184024Y1019235D01*
X1191642Y1004000D02*
Y1019235D01*
X1201798Y1004000D01*
Y1019235D01*
X1222112Y1004000D02*
Y1014157D01*
X1227190Y1019235D01*
X1232269Y1014157D01*
Y1004000D01*
Y1011618D01*
X1222112D01*
X1237347Y1014157D02*
Y1006539D01*
X1239886Y1004000D01*
X1247504D01*
Y1014157D01*
X1252582Y1004000D02*
X1262739Y1014157D01*
X1277974Y1019235D02*
X1267817D01*
Y1004000D01*
X1277974D01*
X1267817Y1011618D02*
X1272895D01*
X1283052Y1019235D02*
Y1004000D01*
X1293209D01*
X1308444Y1019235D02*
X1298287D01*
Y1004000D01*
X1308444D01*
X1298287Y1011618D02*
X1303365D01*
X1323679Y1016696D02*
X1321140Y1019235D01*
X1316062D01*
X1313522Y1016696D01*
Y1006539D01*
X1316062Y1004000D01*
X1321140D01*
X1323679Y1006539D01*
X1328757Y1019235D02*
X1338914D01*
X1333836D01*
Y1004000D01*
X1343992D02*
Y1019235D01*
X1351610D01*
X1354149Y1016696D01*
Y1011618D01*
X1351610Y1009078D01*
X1343992D01*
X1349071D02*
X1354149Y1004000D01*
X1366845Y1019235D02*
X1361767D01*
X1359227Y1016696D01*
Y1006539D01*
X1361767Y1004000D01*
X1366845D01*
X1369384Y1006539D01*
Y1016696D01*
X1366845Y1019235D01*
X1374463D02*
Y1004000D01*
X1384619D01*
X1399854Y1019235D02*
X1389698D01*
Y1004000D01*
X1399854D01*
X1389698Y1011618D02*
X1394776D01*
X1415089Y1016696D02*
X1412550Y1019235D01*
X1407472D01*
X1404933Y1016696D01*
Y1014157D01*
X1407472Y1011618D01*
X1412550D01*
X1415089Y1009078D01*
Y1006539D01*
X1412550Y1004000D01*
X1407472D01*
X1404933Y1006539D01*
X1430325Y1016696D02*
X1427785Y1019235D01*
X1422707D01*
X1420168Y1016696D01*
Y1014157D01*
X1422707Y1011618D01*
X1427785D01*
X1430325Y1009078D01*
Y1006539D01*
X1427785Y1004000D01*
X1422707D01*
X1420168Y1006539D01*
X1450638Y1004000D02*
Y1019235D01*
X1460795Y1004000D01*
Y1019235D01*
X1465873Y1004000D02*
X1470951D01*
X1468412D01*
Y1014157D01*
X1465873D01*
X1478569Y1011618D02*
Y1014157D01*
X1481108D01*
Y1011618D01*
X1478569D01*
Y1006539D02*
X1481108D01*
Y1004000D01*
X1478569Y1001461D01*
X1481108Y1004000D02*
X1478569D01*
Y1006539D01*
X1506500Y1016696D02*
X1509039Y1019235D01*
X1514117D01*
X1516657Y1016696D01*
Y1006539D01*
X1514117Y1004000D01*
X1509039D01*
X1506500Y1006539D01*
Y1016696D01*
X1521735Y1004000D02*
Y1006539D01*
X1524274D01*
Y1004000D01*
X1521735D01*
X1534431Y1016696D02*
X1536970Y1019235D01*
X1542048D01*
X1544588Y1016696D01*
Y1006539D01*
X1542048Y1004000D01*
X1536970D01*
X1534431Y1006539D01*
Y1016696D01*
X1559823Y1019235D02*
X1549666D01*
Y1011618D01*
X1554744Y1014157D01*
X1557283D01*
X1559823Y1011618D01*
Y1006539D01*
X1557283Y1004000D01*
X1552205D01*
X1549666Y1006539D01*
X1564901Y1011618D02*
X1575058D01*
X1580136Y1016696D02*
X1582675Y1019235D01*
X1587753D01*
X1590293Y1016696D01*
Y1006539D01*
X1587753Y1004000D01*
X1582675D01*
X1580136Y1006539D01*
Y1016696D01*
X1595371Y1004000D02*
Y1006539D01*
X1597910D01*
Y1004000D01*
X1595371D01*
X1608067D02*
X1613145D01*
X1610606D01*
Y1019235D01*
X1608067Y1016696D01*
X1630920Y1004000D02*
X1620763D01*
X1630920Y1014157D01*
Y1016696D01*
X1628380Y1019235D01*
X1623302D01*
X1620763Y1016696D01*
X1651233Y1014157D02*
Y1006539D01*
X1653772Y1004000D01*
X1661390D01*
Y1014157D01*
X1666468Y1004000D02*
Y1014157D01*
X1669007D01*
X1671546Y1011618D01*
Y1004000D01*
Y1011618D01*
X1674086Y1014157D01*
X1676625Y1011618D01*
Y1004000D01*
X1707095Y1016696D02*
X1704556Y1019235D01*
X1699477D01*
X1696938Y1016696D01*
Y1006539D01*
X1699477Y1004000D01*
X1704556D01*
X1707095Y1006539D01*
Y1011618D01*
X1702017D01*
X1719791Y1019235D02*
X1714713D01*
X1712173Y1016696D01*
Y1006539D01*
X1714713Y1004000D01*
X1719791D01*
X1722330Y1006539D01*
Y1016696D01*
X1719791Y1019235D01*
X1727408D02*
Y1004000D01*
X1737565D01*
X1742643Y1019235D02*
Y1004000D01*
X1750261D01*
X1752800Y1006539D01*
Y1016696D01*
X1750261Y1019235D01*
X1742643D01*
X1757879Y1011618D02*
Y1014157D01*
X1760418D01*
Y1011618D01*
X1757879D01*
Y1006539D02*
X1760418D01*
Y1004000D01*
X1757879Y1001461D01*
X1760418Y1004000D02*
X1757879D01*
Y1006539D01*
X1785809Y1016696D02*
X1788349Y1019235D01*
X1793427D01*
X1795966Y1016696D01*
Y1014157D01*
X1793427Y1011618D01*
X1790888D01*
X1793427D01*
X1795966Y1009078D01*
Y1006539D01*
X1793427Y1004000D01*
X1788349D01*
X1785809Y1006539D01*
X1801044Y1011618D02*
X1811201D01*
X1826436Y1019235D02*
X1821358Y1016696D01*
X1816280Y1011618D01*
Y1006539D01*
X1818819Y1004000D01*
X1823897D01*
X1826436Y1006539D01*
Y1009078D01*
X1823897Y1011618D01*
X1816280D01*
X1831515Y1014157D02*
Y1006539D01*
X1834054Y1004000D01*
X1841671D01*
Y1014157D01*
X1846750Y1004000D02*
Y1014157D01*
X1849289D01*
X1851828Y1011618D01*
Y1004000D01*
Y1011618D01*
X1854367Y1014157D01*
X1856906Y1011618D01*
Y1004000D01*
X1877220D02*
Y1019235D01*
X1887377Y1004000D01*
Y1019235D01*
X1892455D02*
X1897533D01*
X1894994D01*
Y1004000D01*
X1892455D01*
X1897533D01*
X1915308Y1016696D02*
X1912768Y1019235D01*
X1907690D01*
X1905151Y1016696D01*
Y1006539D01*
X1907690Y1004000D01*
X1912768D01*
X1915308Y1006539D01*
X1920386Y1019235D02*
Y1004000D01*
Y1009078D01*
X1930543Y1019235D01*
X1922925Y1011618D01*
X1930543Y1004000D01*
X1945778Y1019235D02*
X1935621D01*
Y1004000D01*
X1945778D01*
X1935621Y1011618D02*
X1940699D01*
X1950856Y1019235D02*
Y1004000D01*
X1961013D01*
X826000Y966696D02*
X828539Y969235D01*
X833617D01*
X836157Y966696D01*
Y964157D01*
X833617Y961618D01*
X831078D01*
X833617D01*
X836157Y959078D01*
Y956539D01*
X833617Y954000D01*
X828539D01*
X826000Y956539D01*
X841235Y954000D02*
Y956539D01*
X843774D01*
Y954000D01*
X841235D01*
X879323Y966696D02*
X876784Y969235D01*
X871705D01*
X869166Y966696D01*
Y964157D01*
X871705Y961618D01*
X876784D01*
X879323Y959078D01*
Y956539D01*
X876784Y954000D01*
X871705D01*
X869166Y956539D01*
X892019Y969235D02*
X886940D01*
X884401Y966696D01*
Y956539D01*
X886940Y954000D01*
X892019D01*
X894558Y956539D01*
Y966696D01*
X892019Y969235D01*
X899636D02*
Y954000D01*
X909793D01*
X914871Y969235D02*
Y954000D01*
X922489D01*
X925028Y956539D01*
Y966696D01*
X922489Y969235D01*
X914871D01*
X940263D02*
X930106D01*
Y954000D01*
X940263D01*
X930106Y961618D02*
X935185D01*
X945341Y954000D02*
Y969235D01*
X952959D01*
X955498Y966696D01*
Y961618D01*
X952959Y959078D01*
X945341D01*
X950420D02*
X955498Y954000D01*
X975811D02*
Y969235D01*
X983429D01*
X985968Y966696D01*
Y961618D01*
X983429Y959078D01*
X975811D01*
X980890D02*
X985968Y954000D01*
X1001203Y969235D02*
X991047D01*
Y954000D01*
X1001203D01*
X991047Y961618D02*
X996125D01*
X1016438Y966696D02*
X1013899Y969235D01*
X1008821D01*
X1006282Y966696D01*
Y964157D01*
X1008821Y961618D01*
X1013899D01*
X1016438Y959078D01*
Y956539D01*
X1013899Y954000D01*
X1008821D01*
X1006282Y956539D01*
X1021517Y969235D02*
X1026595D01*
X1024056D01*
Y954000D01*
X1021517D01*
X1026595D01*
X1044369Y966696D02*
X1041830Y969235D01*
X1036752D01*
X1034213Y966696D01*
Y964157D01*
X1036752Y961618D01*
X1041830D01*
X1044369Y959078D01*
Y956539D01*
X1041830Y954000D01*
X1036752D01*
X1034213Y956539D01*
X1049448Y969235D02*
X1059604D01*
X1054526D01*
Y954000D01*
X1064683Y964157D02*
X1067222D01*
Y961618D01*
X1064683D01*
Y964157D01*
Y956539D02*
X1067222D01*
Y954000D01*
X1064683D01*
Y956539D01*
X1092614Y954000D02*
Y964157D01*
X1097692Y969235D01*
X1102770Y964157D01*
Y954000D01*
Y961618D01*
X1092614D01*
X1107849Y954000D02*
Y969235D01*
X1115466D01*
X1118006Y966696D01*
Y961618D01*
X1115466Y959078D01*
X1107849D01*
X1123084Y954000D02*
Y969235D01*
X1130701D01*
X1133241Y966696D01*
Y961618D01*
X1130701Y959078D01*
X1123084D01*
X1138319Y969235D02*
Y954000D01*
X1148476D01*
X1153554Y969235D02*
Y966696D01*
X1158632Y961618D01*
X1163711Y966696D01*
Y969235D01*
X1158632Y961618D02*
Y954000D01*
X1184024Y969235D02*
X1194181D01*
X1189102D01*
Y954000D01*
X1206877Y969235D02*
X1201798D01*
X1199259Y966696D01*
Y956539D01*
X1201798Y954000D01*
X1206877D01*
X1209416Y956539D01*
Y966696D01*
X1206877Y969235D01*
X1229729D02*
Y954000D01*
X1237347D01*
X1239886Y956539D01*
Y959078D01*
X1237347Y961618D01*
X1229729D01*
X1237347D01*
X1239886Y964157D01*
Y966696D01*
X1237347Y969235D01*
X1229729D01*
X1252582D02*
X1247504D01*
X1244965Y966696D01*
Y956539D01*
X1247504Y954000D01*
X1252582D01*
X1255121Y956539D01*
Y966696D01*
X1252582Y969235D01*
X1260200D02*
X1270356D01*
X1265278D01*
Y954000D01*
X1275435Y969235D02*
Y954000D01*
Y961618D01*
X1285591D01*
Y969235D01*
Y954000D01*
X1316062Y966696D02*
X1313522Y969235D01*
X1308444D01*
X1305905Y966696D01*
Y964157D01*
X1308444Y961618D01*
X1313522D01*
X1316062Y959078D01*
Y956539D01*
X1313522Y954000D01*
X1308444D01*
X1305905Y956539D01*
X1321140Y969235D02*
X1326218D01*
X1323679D01*
Y954000D01*
X1321140D01*
X1326218D01*
X1333836Y969235D02*
Y954000D01*
X1341453D01*
X1343992Y956539D01*
Y966696D01*
X1341453Y969235D01*
X1333836D01*
X1359227D02*
X1349071D01*
Y954000D01*
X1359227D01*
X1349071Y961618D02*
X1354149D01*
X1374463Y966696D02*
X1371923Y969235D01*
X1366845D01*
X1364306Y966696D01*
Y964157D01*
X1366845Y961618D01*
X1371923D01*
X1374463Y959078D01*
Y956539D01*
X1371923Y954000D01*
X1366845D01*
X1364306Y956539D01*
X1404933Y966696D02*
X1402393Y969235D01*
X1397315D01*
X1394776Y966696D01*
Y956539D01*
X1397315Y954000D01*
X1402393D01*
X1404933Y956539D01*
X1417629Y969235D02*
X1412550D01*
X1410011Y966696D01*
Y956539D01*
X1412550Y954000D01*
X1417629D01*
X1420168Y956539D01*
Y966696D01*
X1417629Y969235D01*
X1425246D02*
Y954000D01*
X1435403D01*
X1448099Y969235D02*
X1443020D01*
X1440481Y966696D01*
Y956539D01*
X1443020Y954000D01*
X1448099D01*
X1450638Y956539D01*
Y966696D01*
X1448099Y969235D01*
X1455716D02*
Y956539D01*
X1458255Y954000D01*
X1463334D01*
X1465873Y956539D01*
Y969235D01*
X1470951Y954000D02*
Y969235D01*
X1478569D01*
X1481108Y966696D01*
Y961618D01*
X1478569Y959078D01*
X1470951D01*
X1476030D02*
X1481108Y954000D01*
X1501422Y961618D02*
X1511578D01*
X1531892Y969235D02*
Y954000D01*
X1539509D01*
X1542048Y956539D01*
Y959078D01*
X1539509Y961618D01*
X1531892D01*
X1539509D01*
X1542048Y964157D01*
Y966696D01*
X1539509Y969235D01*
X1531892D01*
X1547127D02*
Y954000D01*
X1557283D01*
X1562362D02*
Y964157D01*
X1567440Y969235D01*
X1572518Y964157D01*
Y954000D01*
Y961618D01*
X1562362D01*
X1587754Y966696D02*
X1585214Y969235D01*
X1580136D01*
X1577597Y966696D01*
Y956539D01*
X1580136Y954000D01*
X1585214D01*
X1587754Y956539D01*
X1592832Y969235D02*
Y954000D01*
Y959078D01*
X1602989Y969235D01*
X1595371Y961618D01*
X1602989Y954000D01*
X833617Y904000D02*
Y919235D01*
X826000Y911618D01*
X836157D01*
X841235Y904000D02*
Y906539D01*
X843774D01*
Y904000D01*
X841235D01*
X879323Y916696D02*
X876784Y919235D01*
X871705D01*
X869166Y916696D01*
Y906539D01*
X871705Y904000D01*
X876784D01*
X879323Y906539D01*
X892019Y919235D02*
X886940D01*
X884401Y916696D01*
Y906539D01*
X886940Y904000D01*
X892019D01*
X894558Y906539D01*
Y916696D01*
X892019Y919235D01*
X899636Y904000D02*
Y919235D01*
X904715Y914157D01*
X909793Y919235D01*
Y904000D01*
X914871D02*
Y919235D01*
X922489D01*
X925028Y916696D01*
Y911618D01*
X922489Y909078D01*
X914871D01*
X937724Y919235D02*
X932645D01*
X930106Y916696D01*
Y906539D01*
X932645Y904000D01*
X937724D01*
X940263Y906539D01*
Y916696D01*
X937724Y919235D01*
X945341Y904000D02*
Y919235D01*
X955498Y904000D01*
Y919235D01*
X970733D02*
X960576D01*
Y904000D01*
X970733D01*
X960576Y911618D02*
X965655D01*
X975811Y904000D02*
Y919235D01*
X985968Y904000D01*
Y919235D01*
X991047D02*
X1001203D01*
X996125D01*
Y904000D01*
X1021517Y919235D02*
X1026595D01*
X1024056D01*
Y904000D01*
X1021517D01*
X1026595D01*
X1034213Y919235D02*
Y904000D01*
X1041830D01*
X1044369Y906539D01*
Y916696D01*
X1041830Y919235D01*
X1034213D01*
X1059604D02*
X1049448D01*
Y904000D01*
X1059604D01*
X1049448Y911618D02*
X1054526D01*
X1064683Y904000D02*
Y919235D01*
X1074839Y904000D01*
Y919235D01*
X1079918D02*
X1090075D01*
X1084996D01*
Y904000D01*
X1095153Y914157D02*
X1097692D01*
Y911618D01*
X1095153D01*
Y914157D01*
Y906539D02*
X1097692D01*
Y904000D01*
X1095153D01*
Y906539D01*
X1133241Y916696D02*
X1130701Y919235D01*
X1125623D01*
X1123084Y916696D01*
Y906539D01*
X1125623Y904000D01*
X1130701D01*
X1133241Y906539D01*
X1145937Y919235D02*
X1140858D01*
X1138319Y916696D01*
Y906539D01*
X1140858Y904000D01*
X1145937D01*
X1148476Y906539D01*
Y916696D01*
X1145937Y919235D01*
X1153554D02*
Y904000D01*
X1163711D01*
X1176407Y919235D02*
X1171328D01*
X1168789Y916696D01*
Y906539D01*
X1171328Y904000D01*
X1176407D01*
X1178946Y906539D01*
Y916696D01*
X1176407Y919235D01*
X1184024D02*
Y906539D01*
X1186563Y904000D01*
X1191642D01*
X1194181Y906539D01*
Y919235D01*
X1199259Y904000D02*
Y919235D01*
X1206877D01*
X1209416Y916696D01*
Y911618D01*
X1206877Y909078D01*
X1199259D01*
X1204338D02*
X1209416Y904000D01*
X1229729Y919235D02*
X1239886D01*
X1234808D01*
Y904000D01*
X1252582Y919235D02*
X1247504D01*
X1244965Y916696D01*
Y906539D01*
X1247504Y904000D01*
X1252582D01*
X1255121Y906539D01*
Y916696D01*
X1252582Y919235D01*
X1275435D02*
Y904000D01*
X1283052D01*
X1285591Y906539D01*
Y909078D01*
X1283052Y911618D01*
X1275435D01*
X1283052D01*
X1285591Y914157D01*
Y916696D01*
X1283052Y919235D01*
X1275435D01*
X1300826D02*
X1290670D01*
Y904000D01*
X1300826D01*
X1290670Y911618D02*
X1295748D01*
X1321140Y919235D02*
Y904000D01*
X1326218Y909078D01*
X1331297Y904000D01*
Y919235D01*
X1336375D02*
Y904000D01*
Y911618D01*
X1346532D01*
Y919235D01*
Y904000D01*
X1351610Y919235D02*
X1356688D01*
X1354149D01*
Y904000D01*
X1351610D01*
X1356688D01*
X1364306Y919235D02*
X1374463D01*
X1369384D01*
Y904000D01*
X1389698Y919235D02*
X1379541D01*
Y904000D01*
X1389698D01*
X1379541Y911618D02*
X1384619D01*
M02*
