G04 Layer_Physical_Order=1*
G04 Layer_Color=255*
%FSLAX44Y44*%
%MOMM*%
G71*
G01*
G75*
%ADD10R,0.6858X0.5588*%
%ADD11R,0.5588X0.6858*%
%ADD12R,1.3000X0.9000*%
%ADD13R,0.9000X1.3000*%
%ADD14R,1.3000X0.7000*%
%ADD15R,0.7000X1.3000*%
%ADD16R,1.4000X1.6000*%
%ADD17R,1.9000X1.9000*%
%ADD18R,1.3500X0.4000*%
%ADD19R,0.9000X0.6000*%
%ADD20R,2.5000X2.6000*%
%ADD21R,2.6000X2.5000*%
%ADD22R,0.5500X1.0000*%
%ADD23R,1.0000X0.5500*%
%ADD24R,0.6000X2.2000*%
%ADD25R,3.5000X2.2000*%
%ADD26R,1.5000X0.5500*%
%ADD27R,0.5500X1.5000*%
%ADD28R,0.8000X0.8000*%
%ADD29R,2.7000X2.0000*%
%ADD30C,1.0160*%
%ADD31R,1.6000X3.0000*%
%ADD32C,0.6000*%
%ADD33C,0.2000*%
%ADD34C,1.0000*%
%ADD35C,0.4000*%
%ADD36C,0.8000*%
%ADD37C,1.9000*%
%ADD38R,1.9000X1.9000*%
%ADD39O,2.0000X1.6000*%
%ADD40R,2.0000X1.6000*%
%ADD41R,1.7000X1.7000*%
%ADD42C,1.7000*%
%ADD43O,1.6000X2.0000*%
%ADD44R,1.6000X2.0000*%
%ADD45C,4.0000*%
G04:AMPARAMS|DCode=46|XSize=2mm|YSize=1.2mm|CornerRadius=0.36mm|HoleSize=0mm|Usage=FLASHONLY|Rotation=0.000|XOffset=0mm|YOffset=0mm|HoleType=Round|Shape=RoundedRectangle|*
%AMROUNDEDRECTD46*
21,1,2.0000,0.4800,0,0,0.0*
21,1,1.2800,1.2000,0,0,0.0*
1,1,0.7200,0.6400,-0.2400*
1,1,0.7200,-0.6400,-0.2400*
1,1,0.7200,-0.6400,0.2400*
1,1,0.7200,0.6400,0.2400*
%
%ADD46ROUNDEDRECTD46*%
%ADD47C,3.2000*%
%ADD48C,7.4000*%
%ADD49C,0.6000*%
G36*
X482000Y112000D02*
X487000Y107000D01*
X487000Y46000D01*
X475000D01*
X475000Y111102D01*
X475898Y112000D01*
X482000Y112000D01*
D02*
G37*
G36*
X428000Y82000D02*
X450000D01*
Y71000D01*
X414000D01*
Y111000D01*
X405000Y120000D01*
Y138000D01*
X428000D01*
Y82000D01*
D02*
G37*
G36*
X153409Y127000D02*
X154000Y126882D01*
X154000Y106000D01*
X151000Y103000D01*
X130000D01*
X127000Y100000D01*
Y72000D01*
X107000Y72000D01*
X107000Y119000D01*
X130000D01*
Y127000D01*
X153409Y127000D01*
D02*
G37*
G36*
X365000Y15000D02*
X347000D01*
Y39000D01*
X343000Y43000D01*
X322059D01*
X322059Y51733D01*
X324267Y53941D01*
X339000D01*
X339296Y54000D01*
X365000D01*
Y15000D01*
D02*
G37*
G36*
X38000Y36000D02*
X39000Y35000D01*
X82000D01*
Y2000D01*
X3000D01*
X3000Y76000D01*
X38000D01*
X38000Y36000D01*
D02*
G37*
G36*
X430000Y39000D02*
X431000Y38000D01*
X443000D01*
Y15000D01*
X440000Y12000D01*
X396000D01*
Y66000D01*
X430000D01*
X430000Y39000D01*
D02*
G37*
G36*
X339000Y74000D02*
Y57000D01*
X323000D01*
X319000Y53000D01*
X319000Y14000D01*
X296000Y14000D01*
Y57000D01*
X309000Y57000D01*
X316000Y64000D01*
Y70000D01*
X321000Y75000D01*
X339000D01*
Y74000D01*
D02*
G37*
G36*
X200000Y117000D02*
X218000D01*
X219000Y116000D01*
Y103000D01*
X186000D01*
X178000Y95000D01*
X178000Y73000D01*
X161000D01*
Y101941D01*
X164000D01*
X164295Y102000D01*
X170000D01*
X170000Y124719D01*
X171206Y125926D01*
X180000D01*
X180374Y126000D01*
X191000Y126000D01*
X200000Y117000D01*
D02*
G37*
G36*
X643000Y419000D02*
X643000Y406000D01*
X681000Y406000D01*
X681000Y301000D01*
X679870Y299870D01*
X679000Y299000D01*
Y299000D01*
X679000Y299000D01*
X591000Y299000D01*
X591000Y324204D01*
X591059Y324500D01*
Y337500D01*
X591000Y337796D01*
Y339730D01*
X591000Y341000D01*
X592270Y341000D01*
X612000D01*
Y382000D01*
X605295D01*
X605000Y382059D01*
X597000D01*
X596704Y382000D01*
X591000D01*
Y371270D01*
X591000Y370000D01*
X589730Y370000D01*
X579000D01*
X579000Y382000D01*
X568000Y382000D01*
X560808D01*
X560808Y392000D01*
X629000Y392000D01*
X629000Y418102D01*
X629898Y419000D01*
X643000Y419000D01*
D02*
G37*
G36*
X408560Y494941D02*
X410000D01*
Y383000D01*
X391000D01*
Y494765D01*
X391160Y494905D01*
X391881Y495000D01*
X408265D01*
X408560Y494941D01*
D02*
G37*
G36*
X108000Y440000D02*
X119102Y440000D01*
X120000Y439102D01*
Y428000D01*
Y403000D01*
X101000D01*
Y405000D01*
X82000Y424000D01*
X44000D01*
X35000Y415000D01*
X35000Y401898D01*
X34102Y401000D01*
X15000Y401000D01*
Y438730D01*
X15652Y440000D01*
X108000Y440000D01*
D02*
G37*
G36*
X178000Y167965D02*
X177035Y167000D01*
X144000D01*
X143000Y166000D01*
Y158000D01*
X99000Y158000D01*
X99000Y178000D01*
Y181000D01*
X128000D01*
X136000Y189000D01*
X178000D01*
Y167965D01*
D02*
G37*
G36*
X53073Y242927D02*
X52848Y242591D01*
X52382Y240250D01*
Y232250D01*
X52848Y229909D01*
X53402Y229080D01*
Y224612D01*
X52790Y224000D01*
X42000D01*
X36000Y218000D01*
Y190000D01*
X40337D01*
X40824Y189674D01*
X41995Y189441D01*
X54917D01*
Y173505D01*
X54917Y173505D01*
X55176Y172203D01*
X55227Y171944D01*
X56000Y170788D01*
Y158000D01*
X127000Y158000D01*
X127000Y127296D01*
X126941Y127000D01*
Y122059D01*
X107000D01*
X105829Y121826D01*
X104837Y121163D01*
X104174Y120170D01*
X103941Y119000D01*
X103941Y72000D01*
X104117Y71117D01*
X101000Y68000D01*
X186000D01*
Y91000D01*
X192000Y97000D01*
X211000D01*
Y3000D01*
X94000D01*
Y40000D01*
X93000Y41000D01*
X61000D01*
X59000Y43000D01*
Y78000D01*
X60941Y79941D01*
X66000D01*
X66000Y79941D01*
X82000D01*
X82000Y79941D01*
X83000D01*
X83000Y79941D01*
X83295Y80000D01*
X93000D01*
Y89704D01*
X93059Y90000D01*
X93059Y90000D01*
X93059Y115000D01*
X93000Y115295D01*
Y119000D01*
X61000D01*
Y111059D01*
X4000Y111059D01*
Y244000D01*
X52000D01*
X53073Y242927D01*
D02*
G37*
G36*
X90000Y90000D02*
X83000Y83000D01*
X3000Y83000D01*
Y108000D01*
X66000Y108000D01*
Y115000D01*
X90000D01*
X90000Y90000D01*
D02*
G37*
G36*
X377829Y89674D02*
X378449Y89551D01*
X385000Y83000D01*
Y65000D01*
Y58000D01*
X388000D01*
X390000Y56000D01*
Y13000D01*
X375000D01*
X374000Y14000D01*
Y47000D01*
X377000Y50000D01*
X377000Y82000D01*
X323000Y82000D01*
Y90000D01*
X358342D01*
X358829Y89674D01*
X360000Y89441D01*
X367000D01*
X368171Y89674D01*
X368658Y90000D01*
X377342D01*
X377829Y89674D01*
D02*
G37*
D10*
X9750Y306192D02*
D03*
Y281808D02*
D03*
D11*
X629192Y244250D02*
D03*
X604808D02*
D03*
D12*
X218000Y220500D02*
D03*
Y239500D02*
D03*
X195000Y220500D02*
D03*
Y239500D02*
D03*
X216000Y301500D02*
D03*
Y320500D02*
D03*
X172000Y220500D02*
D03*
Y239500D02*
D03*
X23000Y451500D02*
D03*
Y432500D02*
D03*
X635750Y473250D02*
D03*
Y454250D02*
D03*
X114000Y130500D02*
D03*
Y111500D02*
D03*
X305000Y68500D02*
D03*
Y49500D02*
D03*
X357000Y48000D02*
D03*
Y67000D02*
D03*
X216000Y431500D02*
D03*
Y450500D02*
D03*
X230000Y182500D02*
D03*
Y201500D02*
D03*
X233000Y108500D02*
D03*
Y127500D02*
D03*
X648000Y206500D02*
D03*
Y187500D02*
D03*
X210000Y108500D02*
D03*
Y127500D02*
D03*
X207000Y182500D02*
D03*
Y201500D02*
D03*
X441000Y58500D02*
D03*
Y77500D02*
D03*
D13*
X128000Y238250D02*
D03*
X147000D02*
D03*
X238500Y345000D02*
D03*
X257500D02*
D03*
X258500Y237000D02*
D03*
X239500D02*
D03*
X380500Y50000D02*
D03*
X399500D02*
D03*
X583500Y331000D02*
D03*
X602500D02*
D03*
X20500Y522000D02*
D03*
X39500D02*
D03*
X240500Y483000D02*
D03*
X259500D02*
D03*
X462500Y76000D02*
D03*
X481500D02*
D03*
X447500Y230000D02*
D03*
X466500D02*
D03*
X400500Y76000D02*
D03*
X419500D02*
D03*
X400500Y99000D02*
D03*
X419500D02*
D03*
X438500D02*
D03*
X457500D02*
D03*
X409500Y253000D02*
D03*
X428500D02*
D03*
X448000Y252750D02*
D03*
X467000D02*
D03*
X51500Y298500D02*
D03*
X70500D02*
D03*
X669500Y126000D02*
D03*
X650500D02*
D03*
X102750Y239250D02*
D03*
X83750D02*
D03*
X481500Y53000D02*
D03*
X462500D02*
D03*
D14*
X582000Y460500D02*
D03*
Y479500D02*
D03*
X607000D02*
D03*
Y460500D02*
D03*
X172000Y392500D02*
D03*
Y411500D02*
D03*
X91000Y281500D02*
D03*
Y262500D02*
D03*
X216000Y283500D02*
D03*
Y264500D02*
D03*
X636000Y412500D02*
D03*
Y431500D02*
D03*
X329000Y68000D02*
D03*
Y87000D02*
D03*
Y66500D02*
D03*
Y47500D02*
D03*
X272000Y69500D02*
D03*
Y50500D02*
D03*
X252000Y164500D02*
D03*
Y145500D02*
D03*
X29750Y299750D02*
D03*
Y280750D02*
D03*
X670000Y224500D02*
D03*
Y243500D02*
D03*
Y188500D02*
D03*
Y207500D02*
D03*
X648000Y224500D02*
D03*
Y243500D02*
D03*
D15*
X304500Y448000D02*
D03*
X285500D02*
D03*
Y426000D02*
D03*
X304500D02*
D03*
X141500Y215000D02*
D03*
X122500D02*
D03*
X87500Y351000D02*
D03*
X106500D02*
D03*
X86500Y214000D02*
D03*
X105500D02*
D03*
Y191000D02*
D03*
X86500D02*
D03*
Y168000D02*
D03*
X105500D02*
D03*
X363500Y99000D02*
D03*
X382500D02*
D03*
X607250Y227500D02*
D03*
X626250D02*
D03*
X582500Y354000D02*
D03*
X601500D02*
D03*
X429500Y230000D02*
D03*
X410500D02*
D03*
X236500Y452000D02*
D03*
X255500D02*
D03*
X286500Y89000D02*
D03*
X267500D02*
D03*
X12000Y258000D02*
D03*
X31000D02*
D03*
D16*
X46495Y233000D02*
D03*
Y169000D02*
D03*
D17*
X21995Y213000D02*
D03*
Y189000D02*
D03*
X243500Y82250D02*
D03*
D18*
X48745Y214000D02*
D03*
Y207500D02*
D03*
Y201000D02*
D03*
Y194500D02*
D03*
Y188000D02*
D03*
D03*
Y194500D02*
D03*
Y201000D02*
D03*
Y207500D02*
D03*
Y214000D02*
D03*
D19*
X67250Y181000D02*
D03*
Y196000D02*
D03*
X67000Y225250D02*
D03*
Y210250D02*
D03*
D20*
X409500Y285000D02*
D03*
X458500D02*
D03*
D21*
X249000Y315500D02*
D03*
Y266500D02*
D03*
D22*
X650500Y144500D02*
D03*
X669500D02*
D03*
X650500Y171500D02*
D03*
X660000D02*
D03*
X669500D02*
D03*
X70000Y281250D02*
D03*
X51000D02*
D03*
X70000Y254250D02*
D03*
X60500D02*
D03*
X51000D02*
D03*
D23*
X232500Y145500D02*
D03*
Y164500D02*
D03*
X205500Y145500D02*
D03*
Y155000D02*
D03*
Y164500D02*
D03*
X196500Y430500D02*
D03*
Y449500D02*
D03*
X169500Y430500D02*
D03*
Y440000D02*
D03*
Y449500D02*
D03*
D24*
X186400Y116000D02*
D03*
X173700D02*
D03*
X161000D02*
D03*
X148300D02*
D03*
X135600D02*
D03*
D25*
X161000Y178000D02*
D03*
D26*
X196000Y272000D02*
D03*
Y280000D02*
D03*
Y288000D02*
D03*
Y296000D02*
D03*
Y304000D02*
D03*
Y312000D02*
D03*
Y320000D02*
D03*
Y328000D02*
D03*
X112000D02*
D03*
Y320000D02*
D03*
Y312000D02*
D03*
Y304000D02*
D03*
Y296000D02*
D03*
Y288000D02*
D03*
Y280000D02*
D03*
Y272000D02*
D03*
D27*
X182000Y342000D02*
D03*
X174000D02*
D03*
X166000D02*
D03*
X158000D02*
D03*
X150000D02*
D03*
X142000D02*
D03*
X134000D02*
D03*
X126000D02*
D03*
Y258000D02*
D03*
X134000D02*
D03*
X142000D02*
D03*
X150000D02*
D03*
X158000D02*
D03*
X166000D02*
D03*
X174000D02*
D03*
X182000D02*
D03*
D28*
X239000Y431000D02*
D03*
X255000D02*
D03*
X585000Y375000D02*
D03*
X601000D02*
D03*
X239000Y388000D02*
D03*
X255000D02*
D03*
X239000Y405000D02*
D03*
X255000D02*
D03*
D29*
X20000Y98000D02*
D03*
Y66000D02*
D03*
D30*
X222000Y49000D02*
D03*
X668000Y15000D02*
D03*
X671000Y510000D02*
D03*
X106250Y517750D02*
D03*
D31*
X72000Y60500D02*
D03*
Y19500D02*
D03*
X74000Y139000D02*
D03*
Y98000D02*
D03*
D32*
X227250Y450500D02*
X228750Y452000D01*
X216000Y450500D02*
X227250D01*
X41000Y289250D02*
X51500D01*
X50750Y277250D02*
Y282250D01*
X650000Y171500D02*
Y179000D01*
X400500Y99000D02*
Y113000D01*
X357000Y68500D02*
X370500D01*
X70500Y298000D02*
X78750D01*
X39500Y522000D02*
X49500D01*
X69750Y255250D02*
X75750D01*
X140500Y180750D02*
X143250Y178000D01*
X136750Y177000D02*
X140500Y180750D01*
X210375Y212875D02*
X218000Y220500D01*
X295000Y426000D02*
X304500D01*
X294000Y427000D02*
X295000Y426000D01*
X304500D02*
Y448000D01*
X132000Y179000D02*
X134750D01*
X136750Y177000D01*
X179750Y196000D02*
X184000Y200250D01*
X145500Y196000D02*
X179750D01*
X141500Y200000D02*
X145500Y196000D01*
X174000Y283000D02*
X182000Y275000D01*
Y258000D02*
Y275000D01*
X165000Y159000D02*
X177686D01*
X145000Y139000D02*
X165000Y159000D01*
X145000Y130000D02*
Y139000D01*
X177000Y144000D02*
X195500Y162500D01*
X163100Y144000D02*
X177000D01*
X154000Y134900D02*
X163100Y144000D01*
X10058Y306192D02*
X16500Y299750D01*
X9750Y306192D02*
X10058D01*
X9750Y297500D02*
Y306192D01*
X174000Y293000D02*
X177000Y296000D01*
X174000Y283000D02*
Y293000D01*
X177000Y296000D02*
X196000D01*
X161000Y124371D02*
X168672Y132043D01*
X161000Y116000D02*
Y124371D01*
X60000Y268000D02*
X74314D01*
X79814Y262500D01*
X91000D01*
X195000Y239500D02*
Y248000D01*
X185000Y258000D02*
X195000Y248000D01*
X182000Y258000D02*
X185000D01*
X183500Y212064D02*
X192000Y203564D01*
X183500Y212064D02*
Y213929D01*
X180571Y230000D02*
X183500Y227071D01*
X183500D01*
X183500Y227071D02*
X183500Y227071D01*
X183500Y213929D02*
Y227071D01*
X172000Y237407D02*
X179407Y230000D01*
X180571D01*
X67250Y225000D02*
X77000D01*
X67000Y225250D02*
X67250Y225000D01*
X145000Y130000D02*
X148300Y126700D01*
Y116000D02*
Y126700D01*
X168672Y132043D02*
X180000D01*
X195500Y162500D02*
Y171000D01*
X192000Y196936D02*
Y203564D01*
X187000Y191936D02*
X192000Y196936D01*
X187000Y168314D02*
Y191936D01*
X177686Y159000D02*
X187000Y168314D01*
X207000Y433000D02*
X208500Y431500D01*
X650500Y161500D02*
X659000Y153000D01*
X650500Y161500D02*
Y171500D01*
X650000D02*
X650500D01*
X648000Y181000D02*
X650000Y179000D01*
X648000Y181000D02*
Y187500D01*
X23500Y452000D02*
X60000D01*
X23000Y451500D02*
X23500Y452000D01*
X78750Y298000D02*
X79000Y297750D01*
X208500Y431500D02*
X216000D01*
X169000Y419500D02*
Y421000D01*
Y419500D02*
X172000Y416500D01*
X154000Y133000D02*
Y134900D01*
X441000Y50000D02*
Y58500D01*
X150000Y258000D02*
Y270500D01*
X172250Y209500D02*
Y220250D01*
X172000Y220500D02*
X172250Y220250D01*
X195000Y213000D02*
X195250Y212750D01*
X195000Y213000D02*
Y220500D01*
X242500Y201500D02*
X242500Y201500D01*
X230000Y201500D02*
X242500D01*
X258250Y247250D02*
X258500Y247000D01*
Y237000D02*
Y247000D01*
X185500Y287750D02*
X185750Y288000D01*
X196000D01*
Y296000D02*
X206250D01*
X211750Y301500D01*
X216000D01*
X218000Y239500D02*
Y250000D01*
X216000Y330750D02*
X216500Y331250D01*
X216000Y320500D02*
Y330750D01*
X265500Y345000D02*
X265750Y345250D01*
X257500Y345000D02*
X265500D01*
X259500Y483000D02*
Y489750D01*
X264160Y494410D01*
Y508000D01*
X186500Y421000D02*
X191250D01*
X177000Y430500D02*
X186500Y421000D01*
X169500Y430500D02*
X177000D01*
X49500Y521750D02*
Y522000D01*
X646000Y185500D02*
X648000Y187500D01*
X678000Y126000D02*
X678750Y126750D01*
X669500Y126000D02*
X678000D01*
X462500Y82500D02*
X467500Y87500D01*
X462500Y76000D02*
Y82500D01*
X458000Y99500D02*
Y109750D01*
X457500Y99000D02*
X458000Y99500D01*
X468250Y118000D02*
Y125730D01*
X391250Y79000D02*
X394250Y76000D01*
X400500D01*
X400500Y113000D02*
X401000D01*
X370500Y68500D02*
X370750Y68750D01*
X305000Y85750D02*
X305250Y86000D01*
X305000Y68500D02*
Y85750D01*
X194000Y145750D02*
X194250Y145500D01*
X205500D01*
X195500Y171000D02*
X207000Y182500D01*
X210250Y136000D02*
Y136250D01*
X210000Y135750D02*
X210250Y136000D01*
X210000Y127500D02*
Y135750D01*
X233000Y135500D02*
X233250Y135750D01*
X233000Y127500D02*
Y135500D01*
X67250Y181000D02*
X77000D01*
X25400Y497840D02*
Y506600D01*
X20500Y511500D02*
X25400Y506600D01*
X20500Y511500D02*
Y522000D01*
X228750Y452000D02*
X236500D01*
X215000Y449500D02*
X216000Y450500D01*
X196500Y449500D02*
X215000D01*
X172000Y411500D02*
Y416500D01*
X51500Y289250D02*
Y298000D01*
Y283000D02*
Y289250D01*
X50750Y277250D02*
X60000Y268000D01*
X50750Y282250D02*
X51500Y283000D01*
X207000Y182500D02*
X207000Y182500D01*
X232500Y167000D02*
Y172250D01*
X230000Y174750D02*
X232500Y172250D01*
X230000Y174750D02*
Y182500D01*
X272000Y50500D02*
X282000D01*
X291250Y59750D01*
Y68250D01*
X460250Y42500D02*
X462500Y44750D01*
Y53000D01*
X122500Y215000D02*
X123000D01*
X128000Y220000D01*
Y238250D01*
X184000Y200250D02*
Y200250D01*
X141500Y200000D02*
Y215000D01*
X207000Y201500D02*
X208000Y202500D01*
Y210500D01*
X212250Y220500D02*
X218000D01*
X207250Y225500D02*
X212250Y220500D01*
X207250Y225500D02*
Y231250D01*
X199000Y239500D02*
X207250Y231250D01*
X195000Y239500D02*
X199000D01*
X172000D02*
X174000Y241500D01*
Y258000D01*
X172000Y237407D02*
Y239500D01*
X20000Y98000D02*
X20000Y98000D01*
X74000D02*
X76750Y100750D01*
X86750D01*
X58500Y232250D02*
Y240250D01*
X59500Y241250D01*
X222500Y485250D02*
X238250D01*
X240500Y483000D02*
Y506260D01*
X238760Y508000D02*
X240500Y506260D01*
X238250Y485250D02*
X240500Y483000D01*
X447500Y220000D02*
Y230000D01*
X447250Y219750D02*
X447500Y220000D01*
X467000Y252750D02*
X476750D01*
X399000Y253000D02*
X409500D01*
X102750Y239250D02*
Y250500D01*
X16500Y299750D02*
X29750D01*
X30500D01*
X143250Y178000D02*
X161000D01*
X86750Y100750D02*
Y111500D01*
D33*
X289250Y507690D02*
X306000Y490940D01*
X359500Y103000D02*
X363500Y99000D01*
X277750Y103000D02*
X359500D01*
X262000Y118750D02*
X277750Y103000D01*
X672000Y243500D02*
Y247750D01*
X151400Y408063D02*
Y420600D01*
X91750Y320000D02*
X112000D01*
X27300Y347700D02*
X39300Y335700D01*
X604125Y482375D02*
X629750Y508000D01*
X409500Y231000D02*
X428500Y250000D01*
X290450Y204000D02*
X296500D01*
X604600Y507100D02*
X609600D01*
X672000Y188000D02*
Y188500D01*
X669500Y185500D02*
X672000Y188000D01*
X304250Y226000D02*
Y284250D01*
X69750Y282250D02*
X92000D01*
X102250Y272000D01*
X60250Y255250D02*
X62000Y253500D01*
X70500Y241000D02*
X84000D01*
X50750Y255250D02*
X60250D01*
X93000Y499500D02*
Y505750D01*
X82000Y516750D02*
X93000Y505750D01*
X69710Y516750D02*
X82000D01*
X93000Y499500D02*
X126750Y465750D01*
X27300Y318700D02*
Y322300D01*
X39300Y335700D02*
X64771D01*
X88471Y312000D01*
X36200Y309800D02*
X76142D01*
X27300Y318700D02*
X36200Y309800D01*
X76142D02*
X85500Y300442D01*
X274000Y448000D02*
X285500D01*
X268000Y442000D02*
X274000Y448000D01*
X268000Y418000D02*
Y442000D01*
X255000Y405000D02*
X268000Y418000D01*
X274500Y402250D02*
Y417000D01*
X283500Y426000D02*
X285500D01*
X274500Y417000D02*
X283500Y426000D01*
X279000Y372000D02*
X322000Y415000D01*
Y433000D01*
X290750Y362750D02*
X330000Y402000D01*
Y419000D01*
X166550Y350550D02*
X222000Y406000D01*
X238000D02*
X239000Y405000D01*
X222000Y406000D02*
X238000D01*
X506000Y68000D02*
Y137750D01*
Y68000D02*
X520000Y54000D01*
X544450Y125730D02*
X546000Y124180D01*
Y82000D02*
Y124180D01*
Y82000D02*
X548150Y79850D01*
X555550Y72450D02*
X559250Y68750D01*
X548150Y79850D02*
Y79850D01*
X569850Y125730D02*
X574000Y121580D01*
Y35600D02*
Y121580D01*
Y35600D02*
X584200Y25400D01*
X282000Y462000D02*
X289250Y469250D01*
X182000Y462000D02*
X282000D01*
X169500Y449500D02*
X182000Y462000D01*
X521000Y434000D02*
X566750Y479750D01*
X521000Y225380D02*
Y434000D01*
Y225380D02*
X544450Y201930D01*
X507000Y437000D02*
X558800Y488800D01*
X507000Y213980D02*
Y437000D01*
Y213980D02*
X519050Y201930D01*
X493650Y450650D02*
X533250Y490250D01*
X493650Y201930D02*
Y450650D01*
X483000Y483000D02*
X508000Y508000D01*
X483000Y346000D02*
Y483000D01*
X458500Y321500D02*
X483000Y346000D01*
X347000Y376000D02*
Y475960D01*
X283000Y312000D02*
X347000Y376000D01*
X283000Y219814D02*
Y312000D01*
X360000Y372000D02*
Y483000D01*
X295000Y307000D02*
X360000Y372000D01*
X295000Y243000D02*
Y307000D01*
X340360Y502640D02*
X360000Y483000D01*
X340360Y502640D02*
Y508000D01*
X365760D02*
X371000Y502760D01*
Y363000D02*
Y502760D01*
X338000Y330000D02*
X371000Y363000D01*
X382000Y498840D02*
X391160Y508000D01*
X382000Y362000D02*
Y498840D01*
X304250Y284250D02*
X382000Y362000D01*
X415000Y366000D02*
X428000Y379000D01*
X404000Y366000D02*
X415000D01*
X314000Y276000D02*
X404000Y366000D01*
X416560Y508000D02*
X428000Y496560D01*
Y379000D02*
Y496560D01*
X466000Y491400D02*
X482600Y508000D01*
X466000Y355000D02*
Y491400D01*
X450000Y339000D02*
X466000Y355000D01*
X314960Y508000D02*
X347000Y475960D01*
X72500Y361000D02*
X75250Y358250D01*
X37750Y361000D02*
X72500D01*
X25400Y373350D02*
X37750Y361000D01*
X75321Y366000D02*
X80500Y360821D01*
X48250Y366000D02*
X75321D01*
X38800Y375450D02*
X48250Y366000D01*
X314000Y221500D02*
Y276000D01*
X444000Y371000D02*
Y494800D01*
X425000Y352000D02*
X444000Y371000D01*
X409000Y352000D02*
X425000D01*
X321500Y264500D02*
X409000Y352000D01*
X321500Y207580D02*
Y264500D01*
X414000Y339000D02*
X450000D01*
X347000Y272000D02*
X414000Y339000D01*
X347000Y207680D02*
Y272000D01*
X588000Y118480D02*
X595250Y125730D01*
X588000Y47000D02*
Y118480D01*
Y47000D02*
X609600Y25400D01*
X506000Y137750D02*
X514000Y145750D01*
X520000Y13000D02*
Y54000D01*
X513500Y6500D02*
X520000Y13000D01*
X514000Y145750D02*
X649250D01*
X349100Y6500D02*
X513500D01*
X493650Y125730D02*
X498000Y121380D01*
Y35400D02*
Y121380D01*
Y35400D02*
X508000Y25400D01*
X315850Y201930D02*
X321500Y207580D01*
X262000Y222050D02*
X272000Y232050D01*
X262000Y118750D02*
Y222050D01*
X278000Y214814D02*
X283000Y219814D01*
X278000Y118250D02*
Y214814D01*
Y118250D02*
X284020Y112230D01*
X344750Y129230D02*
Y183750D01*
X341250Y125730D02*
X344750Y129230D01*
X328000Y261000D02*
X328500Y260500D01*
Y181250D02*
Y260500D01*
X355000Y194000D02*
Y243000D01*
X344750Y183750D02*
X355000Y194000D01*
X162000Y245450D02*
X166000Y249450D01*
Y258000D01*
X12000Y258000D02*
Y268750D01*
X9750Y271000D02*
X12000Y268750D01*
X9750Y271000D02*
Y281808D01*
X49250Y256000D02*
X51000Y254250D01*
X33000Y256000D02*
X49250D01*
X31000Y258000D02*
X33000Y256000D01*
X366650Y275650D02*
X412500Y321500D01*
X366650Y201930D02*
Y275650D01*
X412500Y321500D02*
X458500D01*
X341250Y201930D02*
X347000Y207680D01*
X444000Y494800D02*
X457200Y508000D01*
X337000Y390000D02*
Y440000D01*
X272000Y325000D02*
X337000Y390000D01*
X272000Y232050D02*
Y325000D01*
X306000Y471000D02*
Y490940D01*
Y471000D02*
X337000Y440000D01*
X289250Y507690D02*
X289560Y508000D01*
X252000Y164500D02*
Y171000D01*
X245000Y178000D02*
X252000Y171000D01*
Y145500D02*
X255000D01*
X232500D02*
X252000D01*
X533250Y490250D02*
Y507850D01*
X555000Y268500D02*
Y404750D01*
Y268500D02*
X596000Y227500D01*
X544000Y403558D02*
X560000Y419558D01*
X544000Y253180D02*
Y403558D01*
Y253180D02*
X595250Y201930D01*
X534000Y432000D02*
X581500Y479500D01*
X534000Y241000D02*
Y432000D01*
Y241000D02*
X569850Y205150D01*
X555000Y404750D02*
X577500Y427250D01*
X602000Y107080D02*
X620650Y125730D01*
X602000Y58400D02*
Y107080D01*
Y58400D02*
X635000Y25400D01*
X268500Y467250D02*
X277000Y475750D01*
X180179Y467250D02*
X268500D01*
X453000Y279500D02*
X458500Y285000D01*
X453000Y257750D02*
Y279500D01*
X448000Y252750D02*
X453000Y257750D01*
X428500Y253000D02*
Y278500D01*
X422000Y285000D02*
X428500Y278500D01*
X409500Y285000D02*
X422000D01*
X212800Y388000D02*
X239000D01*
X174000Y342000D02*
Y349200D01*
X212800Y388000D01*
X625100Y443600D02*
X662000D01*
X597000Y415500D02*
X625100Y443600D01*
X607000Y452000D02*
Y460500D01*
X588750Y433750D02*
X607000Y452000D01*
X567750Y433750D02*
X588750D01*
X296500Y204000D02*
X314000Y221500D01*
X569850Y201930D02*
Y205150D01*
X559250Y25850D02*
Y68750D01*
X548150Y79850D02*
X555550Y72450D01*
X519050Y125730D02*
X527000Y117780D01*
Y75000D02*
Y117780D01*
Y75000D02*
X535250Y66750D01*
X87000Y307000D02*
X90000Y304000D01*
X86400Y307000D02*
X87000D01*
X71600Y321800D02*
X86400Y307000D01*
X62200Y321800D02*
X71600D01*
X88471Y312000D02*
X112000D01*
X219000Y372000D02*
X279000D01*
X189000Y342000D02*
X219000Y372000D01*
X182000Y342000D02*
X189000D01*
X225250Y362750D02*
X290750D01*
X277000Y475750D02*
Y497000D01*
X122050Y447000D02*
X134550Y434500D01*
X76240Y447000D02*
X122050D01*
X157450Y434500D02*
X159500Y436550D01*
X134550Y434500D02*
X157450D01*
X50800Y472440D02*
X76240Y447000D01*
X38800Y375450D02*
Y397000D01*
X45000Y403200D01*
Y405680D01*
X50800Y411480D01*
X655500Y206500D02*
X660000Y202000D01*
Y171500D02*
Y202000D01*
X670000Y243500D02*
X672000D01*
X648000D02*
X670000D01*
X334500Y525000D02*
X340360Y519140D01*
X233750Y525000D02*
X334500D01*
X225750Y517000D02*
X233750Y525000D01*
X155500Y246021D02*
X158000Y248521D01*
X155500Y205558D02*
X156250Y204808D01*
X162000Y212000D02*
Y245450D01*
X155500Y205558D02*
Y246021D01*
X204250Y411000D02*
X217000D01*
X185750Y392500D02*
X204250Y411000D01*
X166550Y342550D02*
Y350550D01*
X672000Y188000D02*
X672500Y188500D01*
X573308Y448500D02*
X585500D01*
X560000Y419558D02*
Y435192D01*
X573308Y448500D01*
X567000Y433000D02*
X567750Y433750D01*
X595000Y467500D02*
X607000Y479500D01*
X595000Y458000D02*
Y467500D01*
X585500Y448500D02*
X595000Y458000D01*
X604125Y482375D02*
X607000Y479500D01*
X549000Y436000D02*
X573000Y460000D01*
X549000Y419000D02*
Y436000D01*
X667500Y164000D02*
Y169500D01*
X618750Y176250D02*
X649250Y145750D01*
X85500Y298950D02*
Y300442D01*
Y298950D02*
X88950Y295500D01*
X111500D01*
X90000Y304000D02*
X112000D01*
X87721Y328750D02*
X111250D01*
X84200Y332271D02*
X87721Y328750D01*
X87550Y336000D02*
X112500D01*
X80500Y343050D02*
X87550Y336000D01*
X196500Y430500D02*
X203750Y423250D01*
X239500Y237000D02*
Y249500D01*
X249000Y259000D01*
Y266500D01*
X196000Y333500D02*
X225250Y362750D01*
X196000Y328000D02*
Y333500D01*
X249000Y315500D02*
Y322250D01*
X238500Y332750D02*
X249000Y322250D01*
X238500Y332750D02*
Y345000D01*
X126750Y465750D02*
X171608D01*
X114500Y460250D02*
X173179D01*
X171608Y465750D02*
X178108Y472250D01*
X90000Y484750D02*
X114500Y460250D01*
X173179D02*
X180179Y467250D01*
X596500Y416000D02*
X597000Y415500D01*
X596250Y415750D02*
X596500Y416000D01*
X585250Y415750D02*
X596250D01*
X618750Y200030D02*
X620650Y201930D01*
X618750Y176250D02*
Y200030D01*
X221750Y122800D02*
X233000Y111550D01*
X221750Y122800D02*
Y144000D01*
X210750Y155000D02*
X221750Y144000D01*
X205500Y155000D02*
X210750D01*
X158000Y248521D02*
Y258000D01*
X85500Y353000D02*
X87500Y351000D01*
X85500Y353000D02*
Y368500D01*
X81750Y372250D02*
X85500Y368500D01*
X92000Y367250D02*
Y377500D01*
X57750Y372250D02*
X81750D01*
X92000Y377500D02*
X94500Y380000D01*
X137937D01*
X101200Y369800D02*
X146000D01*
X118250Y341750D02*
X125750D01*
X112500Y336000D02*
X118250Y341750D01*
X125750D02*
X126000Y342000D01*
X137937Y380000D02*
X141637Y383700D01*
X100750Y370250D02*
X101200Y369800D01*
X141637Y383700D02*
X152763D01*
X159500Y390437D01*
Y399963D01*
X151400Y408063D02*
X159500Y399963D01*
X116000Y395250D02*
X145950D01*
X150000Y353750D02*
X172000Y375750D01*
Y392500D01*
X146000Y420600D02*
X151400D01*
X58995Y173505D02*
X64500Y168000D01*
X58995Y173505D02*
Y191450D01*
X64500Y168000D02*
X86500D01*
X55945Y194500D02*
X58995Y191450D01*
X48745Y194500D02*
X55945D01*
X48745Y201000D02*
X56516D01*
X61516Y196000D01*
X67250D01*
X205500Y155000D02*
Y164500D01*
X233000Y108500D02*
Y111550D01*
Y108500D02*
X255500D01*
X267500Y96500D01*
Y89000D02*
Y96500D01*
X286500Y74250D02*
Y89000D01*
X281750Y69500D02*
X286500Y74250D01*
X272000Y69500D02*
X281750D01*
X263750D02*
X272000D01*
X251000Y82250D02*
X263750Y69500D01*
X243500Y82250D02*
X251000D01*
X243500Y17250D02*
Y82250D01*
X382500Y104000D02*
X392050Y113550D01*
X382500Y99000D02*
Y104000D01*
X392050Y113550D02*
Y125730D01*
X76500Y214000D02*
X86500D01*
X72750Y210250D02*
X76500Y214000D01*
X105500Y191000D02*
X113500D01*
X105500Y214000D02*
X113500D01*
X85750Y191750D02*
X86500Y191000D01*
X78250Y191750D02*
X85750D01*
X74000Y196000D02*
X78250Y191750D01*
X67250Y196000D02*
X74000D01*
X67000Y210250D02*
X72750D01*
X59750D02*
X67000D01*
X57000Y207500D02*
X59750Y210250D01*
X48745Y207500D02*
X57000D01*
X9750Y281808D02*
X29442D01*
X102250Y272000D02*
X112000D01*
X166000Y342000D02*
X166550Y342550D01*
X239000Y430500D02*
Y431000D01*
X231750Y423250D02*
X239000Y430500D01*
X203750Y423250D02*
X231750D01*
X111500Y295500D02*
X112000Y296000D01*
X79200Y330200D02*
X89400Y320000D01*
X79200Y330200D02*
Y330208D01*
X84200Y332271D02*
Y332279D01*
X80500Y343050D02*
Y360821D01*
X75250Y341229D02*
X84200Y332279D01*
X75250Y341229D02*
Y358250D01*
X62208Y347200D02*
X79200Y330208D01*
X62200Y347200D02*
X62208D01*
X50800Y379200D02*
X57750Y372250D01*
X111250Y328750D02*
X112000Y328000D01*
X25400Y373350D02*
Y386080D01*
X50800Y379200D02*
Y386080D01*
X145950Y395250D02*
X146000Y395200D01*
X106830Y386080D02*
X116000Y395250D01*
X76200Y386080D02*
X106830D01*
X289250Y469250D02*
Y507690D01*
X197500Y472250D02*
X225750Y500500D01*
X178108Y472250D02*
X197500D01*
X163000Y449500D02*
X169500D01*
X159500Y446000D02*
X163000Y449500D01*
X159500Y436550D02*
Y446000D01*
X225750Y500500D02*
Y517000D01*
X40750Y484750D02*
X90000D01*
X28440Y472440D02*
X40750Y484750D01*
X25400Y472440D02*
X28440D01*
X340360Y508000D02*
Y519140D01*
X50800Y497840D02*
X69710Y516750D01*
X232500Y145500D02*
X232500Y145500D01*
X255000Y431000D02*
X255500Y431500D01*
Y452000D01*
X260250Y388000D02*
X274500Y402250D01*
X255000Y388000D02*
X260250D01*
X216000Y283500D02*
X224250D01*
X228500Y287750D01*
Y295000D01*
X249000Y315500D01*
X247000Y264500D02*
X249000Y266500D01*
X216000Y264500D02*
X247000D01*
X206500D02*
X216000D01*
X199000Y272000D02*
X206500Y264500D01*
X196000Y272000D02*
X199000D01*
X196000Y280000D02*
X205500D01*
X209000Y283500D01*
X216000D01*
X409500Y231000D02*
X410500Y230000D01*
X428500Y250000D02*
Y253000D01*
X429500Y230000D02*
Y234250D01*
X448000Y252750D01*
X417450Y201930D02*
Y202450D01*
X429500Y214500D01*
Y230000D01*
X392050Y201930D02*
X410500Y220380D01*
Y230000D01*
X648000Y206500D02*
X655500D01*
X648000D02*
Y224500D01*
X629192Y244250D02*
X629942Y243500D01*
X648000D01*
X601000Y354500D02*
X601500Y354000D01*
X601000Y354500D02*
Y375000D01*
X659800Y418200D02*
X662000D01*
X646500Y431500D02*
X659800Y418200D01*
X636000Y431500D02*
X646500D01*
X661750Y468750D02*
X662000Y469000D01*
X649750Y468750D02*
X661750D01*
X645250Y473250D02*
X649750Y468750D01*
X635750Y473250D02*
X645250D01*
X596000Y227500D02*
X607250D01*
Y218500D02*
Y227500D01*
Y218500D02*
X620650Y205100D01*
Y201930D02*
Y205100D01*
X649250Y145750D02*
X650500Y144500D01*
X330200Y25400D02*
X349100Y6500D01*
X150000Y342000D02*
Y353750D01*
X172000Y392500D02*
X185750D01*
X573000Y460000D02*
X581500D01*
X582000Y460500D01*
X169500Y440000D02*
Y449500D01*
X669500Y171500D02*
Y185500D01*
X667500Y169500D02*
X669500Y171500D01*
X623250Y454250D02*
X635750D01*
X315850Y125730D02*
Y168600D01*
X328500Y181250D01*
X290450Y201930D02*
Y204000D01*
X303500Y226000D02*
X304250D01*
X290450Y125730D02*
Y159950D01*
X303000Y172500D01*
Y178500D01*
X284020Y112230D02*
X346013D01*
X352750Y118967D01*
Y119250D01*
X359230Y125730D01*
X366650D01*
X558800Y25400D02*
X559250Y25850D01*
X533400Y25400D02*
X535250Y27250D01*
Y66750D01*
X629750Y508000D02*
X635000D01*
X582000Y484500D02*
X604600Y507100D01*
X582000Y479500D02*
Y484500D01*
X581500Y479500D02*
X582000D01*
X566750Y479750D02*
Y490550D01*
X558800Y488800D02*
Y508000D01*
X566750Y490550D02*
X584200Y508000D01*
X533250Y507850D02*
X533400Y508000D01*
X598250Y263000D02*
X663250D01*
Y256500D02*
Y263000D01*
Y256500D02*
X672000Y247750D01*
X134000Y342000D02*
Y350750D01*
X131750Y353000D02*
X134000Y350750D01*
X121800Y353000D02*
X131750D01*
X119800Y351000D02*
X121800Y353000D01*
X106500Y351000D02*
X119800D01*
X62000Y249500D02*
Y253500D01*
Y249500D02*
X70500Y241000D01*
D34*
X443122Y125730D02*
Y126002D01*
X613000Y70000D02*
Y94000D01*
Y61000D02*
Y70000D01*
Y94000D02*
X645000Y126000D01*
X492519Y175399D02*
X604399D01*
X443122Y126002D02*
X492519Y175399D01*
X451000Y152000D02*
Y163000D01*
X451000Y163000D02*
X451000Y163000D01*
X442850Y110850D02*
Y125730D01*
X438500Y106500D02*
X442850Y110850D01*
X438500Y99000D02*
Y106500D01*
X442850Y125730D02*
X443122D01*
X468250Y180250D02*
Y201930D01*
X451000Y163000D02*
X468250Y180250D01*
X466500Y203680D02*
X468250Y201930D01*
X466500Y203680D02*
Y230000D01*
D35*
X419500Y76000D02*
X421000Y77500D01*
X441000D01*
X681000Y224500D02*
Y286000D01*
Y207000D02*
Y224500D01*
Y159000D02*
Y207000D01*
X680500Y207500D02*
X681000Y207000D01*
X670000Y207500D02*
X680500D01*
X669500Y147500D02*
X681000Y159000D01*
X670000Y224500D02*
X681000D01*
X669500Y144500D02*
Y147500D01*
X128000Y238250D02*
X130343D01*
X142000Y249907D02*
Y258000D01*
X130343Y238250D02*
X142000Y249907D01*
X128000Y238250D02*
X128000Y238250D01*
X48745Y214000D02*
X50000D01*
X58500Y222500D01*
Y232250D01*
D36*
X573000Y354000D02*
X580000D01*
X568000Y349000D02*
X573000Y354000D01*
X568000Y331000D02*
Y349000D01*
Y292000D02*
Y331000D01*
Y269750D02*
Y292000D01*
X568250Y291750D01*
X568000Y331000D02*
X583500D01*
X568000Y269750D02*
X593500Y244250D01*
X568250Y291750D02*
X675250D01*
X681000Y286000D01*
X650500Y128265D02*
X666735Y144500D01*
X650500Y126000D02*
Y128265D01*
X593500Y244250D02*
X604808D01*
X609500D01*
X624875Y228875D01*
X207000Y182500D02*
X230000D01*
D37*
X198500Y82250D02*
D03*
Y17250D02*
D03*
X243500D02*
D03*
X598250Y263000D02*
D03*
Y308000D02*
D03*
X663250D02*
D03*
D38*
Y263000D02*
D03*
D39*
X146000Y395200D02*
D03*
Y420600D02*
D03*
Y369800D02*
D03*
X662000Y418200D02*
D03*
Y443600D02*
D03*
D40*
X146000Y446000D02*
D03*
X662000Y469000D02*
D03*
D41*
X53700Y348400D02*
D03*
X25400Y386080D02*
D03*
Y472440D02*
D03*
D42*
X28300Y348400D02*
D03*
X53700Y323000D02*
D03*
X28300D02*
D03*
X76200Y411480D02*
D03*
X50800D02*
D03*
X25400D02*
D03*
X76200Y386080D02*
D03*
X50800D02*
D03*
X76200Y497840D02*
D03*
X50800D02*
D03*
X25400D02*
D03*
X76200Y472440D02*
D03*
X50800D02*
D03*
D43*
X118450Y83250D02*
D03*
X143850D02*
D03*
X187960Y508000D02*
D03*
X213360D02*
D03*
X238760D02*
D03*
X264160D02*
D03*
X289560D02*
D03*
X314960D02*
D03*
X340360D02*
D03*
X365760D02*
D03*
X391160D02*
D03*
X457200D02*
D03*
X482600D02*
D03*
X508000D02*
D03*
X533400D02*
D03*
X558800D02*
D03*
X584200D02*
D03*
X609600D02*
D03*
X635000Y25400D02*
D03*
X609600D02*
D03*
X584200D02*
D03*
X558800D02*
D03*
X533400D02*
D03*
X457200D02*
D03*
X431800D02*
D03*
X406400D02*
D03*
X381000D02*
D03*
X355600D02*
D03*
X330200D02*
D03*
X304800D02*
D03*
X595250Y201930D02*
D03*
X569850D02*
D03*
X544450D02*
D03*
X519050D02*
D03*
X493650D02*
D03*
X468250D02*
D03*
X442850D02*
D03*
X417450D02*
D03*
X392050D02*
D03*
X366650D02*
D03*
X341250D02*
D03*
X315850D02*
D03*
X290450D02*
D03*
X620650Y125730D02*
D03*
X595250D02*
D03*
X569850D02*
D03*
X544450D02*
D03*
X519050D02*
D03*
X493650D02*
D03*
X468250D02*
D03*
X442850D02*
D03*
X417450D02*
D03*
X392050D02*
D03*
X366650D02*
D03*
X341250D02*
D03*
X315850D02*
D03*
X290450D02*
D03*
D44*
X169250Y83250D02*
D03*
X416560Y508000D02*
D03*
X635000D02*
D03*
X508000Y25400D02*
D03*
X279400D02*
D03*
X620650Y201930D02*
D03*
D45*
X21000Y23000D02*
D03*
X23000Y138000D02*
D03*
D46*
X21995Y168000D02*
D03*
Y234000D02*
D03*
D47*
X152400Y508000D02*
D03*
D48*
X660400Y355600D02*
D03*
Y76200D02*
D03*
X139700Y25400D02*
D03*
D49*
X322000Y433000D02*
D03*
X330000Y419000D02*
D03*
X132000Y179000D02*
D03*
X122000Y147000D02*
D03*
X111000D02*
D03*
X100000D02*
D03*
X141000Y171000D02*
D03*
Y178000D02*
D03*
Y185000D02*
D03*
X395000Y491000D02*
D03*
X405000D02*
D03*
X395000Y484000D02*
D03*
X405000D02*
D03*
X406000Y387000D02*
D03*
X396000D02*
D03*
X406000Y394000D02*
D03*
X396000D02*
D03*
X328000Y261000D02*
D03*
X295000Y243000D02*
D03*
X355000D02*
D03*
X338000Y330000D02*
D03*
X245000Y178000D02*
D03*
X613000Y61000D02*
D03*
Y70000D02*
D03*
X451000Y152000D02*
D03*
X423000Y64000D02*
D03*
X319000Y67000D02*
D03*
X106000Y417000D02*
D03*
X113000Y425000D02*
D03*
X155500Y205558D02*
D03*
X162000Y212000D02*
D03*
X77000Y225000D02*
D03*
X180000Y132043D02*
D03*
X207000Y433000D02*
D03*
X217000Y411000D02*
D03*
X567000Y433000D02*
D03*
X549000Y419000D02*
D03*
X659000Y153000D02*
D03*
X667500Y164000D02*
D03*
X565000Y387000D02*
D03*
X481000Y109000D02*
D03*
X605250Y176250D02*
D03*
X60000Y452000D02*
D03*
X75750Y255250D02*
D03*
X79000Y297750D02*
D03*
X277000Y497000D02*
D03*
X294000Y427000D02*
D03*
X169000Y421000D02*
D03*
X154000Y133000D02*
D03*
X441000Y50000D02*
D03*
X141500Y229000D02*
D03*
X150000Y270500D02*
D03*
X172250Y209500D02*
D03*
X195250Y212750D02*
D03*
X242500Y201500D02*
D03*
X258250Y247250D02*
D03*
X185500Y287750D02*
D03*
X218000Y250000D02*
D03*
X216500Y331250D02*
D03*
X265750Y345250D02*
D03*
X191250Y421000D02*
D03*
X49500Y521750D02*
D03*
X678750Y126750D02*
D03*
X467500Y87500D02*
D03*
X458000Y109750D02*
D03*
X416000Y64000D02*
D03*
X391250Y79000D02*
D03*
X401000Y113000D02*
D03*
X370750Y68750D02*
D03*
X305250Y86000D02*
D03*
X194000Y145750D02*
D03*
X210250Y136250D02*
D03*
X233250Y135750D02*
D03*
X77000Y181000D02*
D03*
X227250Y451000D02*
D03*
X112500Y409000D02*
D03*
X9750Y297500D02*
D03*
X41000Y289250D02*
D03*
X291250Y68250D02*
D03*
X318000Y58000D02*
D03*
X460250Y42500D02*
D03*
X91750Y320500D02*
D03*
X92000Y367250D02*
D03*
X99250Y275500D02*
D03*
X100750Y370250D02*
D03*
X210500Y212750D02*
D03*
X184000Y200250D02*
D03*
X86750Y100750D02*
D03*
Y111500D02*
D03*
X58500Y232250D02*
D03*
X59500Y241250D02*
D03*
X113500Y191000D02*
D03*
X113500Y214000D02*
D03*
X577500Y427250D02*
D03*
X585250Y415750D02*
D03*
X222500Y485250D02*
D03*
X623250Y454250D02*
D03*
X328500Y181250D02*
D03*
X303000Y178500D02*
D03*
X303500Y226000D02*
D03*
X447250Y219750D02*
D03*
X476750Y252750D02*
D03*
X399000Y253000D02*
D03*
X102750Y250500D02*
D03*
X111000Y139000D02*
D03*
M02*
