M48
;Layer_Color=9474304
;FILE_FORMAT=4:4
METRIC,LZ
;TYPE=PLATED
T1F00S00C0.3000
T3F00S00C1.0000
T4F00S00C1.1000
T5F00S00C1.5000
T6F00S00C3.2000
;TYPE=NON_PLATED
T7F00S00C3.2000
%
T01
X0008675Y0010075
Y001115
X001Y00147
X00111
Y00139
X00122Y00147
X00132Y00179
X00141Y00178
Y00171
Y00185
X001135Y00191
X001135Y00214
X001415Y00229
X001555Y00205558
X00162Y00212
X0017225Y002095
X00184Y0020025
X0019525Y0021275
X002105
X002425Y002015
X00245Y00178
X0023325Y0013575
X0021025Y0013625
X00194Y0014575
X0018Y00132043
X00154Y00133
X00077Y00181
Y00225
X000585Y0023225
X000595Y0024125
X0007575Y0025525
X0010275Y002505
X0009925Y002755
X00079Y0029775
X0009175Y003205
X00041Y0028925
X0000975Y002975
X0015Y002705
X001855Y0028775
X00218Y0025
X0025825Y0024725
X00295Y00243
X003035Y00226
X00303Y001785
X003285Y0018125
X00328Y00261
X00355Y00243
X00338Y0033
X0026575Y0034525
X002165Y0033125
X0030525Y00086
X0029125Y0006825
X00319Y00067
X00318Y00058
X0037075Y0006875
X0039125Y00079
X00416Y00064
X00423
X00441Y0005
X0046025Y000425
X004675Y000875
X00458Y0010975
X00481Y00109
X00451Y00152
X0044725Y0021975
X0047675Y0025275
X00399Y00253
X00401Y00113
X00613Y0007
Y00061
X0060525Y0017625
X006675Y00164
X00659Y00153
X0067875Y0012675
X00565Y00387
X00549Y00419
X00567Y00433
X005775Y0042725
X0058525Y0041575
X0062325Y0045425
X00405Y00484
Y00491
X00395
Y00484
X00396Y00394
Y00387
X00406
Y00394
X0033Y00419
X00322Y00433
X00294Y00427
X00277Y00497
X002225Y0048525
X0022725Y00451
X00207Y00433
X0019125Y00421
X00169
X00217Y00411
X001125Y00409
X00106Y00417
X00113Y00425
X0010075Y0037025
X00092Y0036725
X0006Y00452
X000495Y0052175
T03
X001985Y0001725
X002435
Y0008225
X001985
X0059825Y00263
Y00308
X0066325
Y00263
T04
X0011845Y0008325
X0014385
X0016925
X0029045Y0012573
X0031585
X0034125
Y0020193
X0031585
X0029045
X002794Y000254
X003048
X003302
X003556
X000537Y00323
Y003484
X000283
Y00323
X0036665Y0020193
X0039205
X0041745
X0044285
X0046825
X0049365
X0051905
X0054445
X0056985
X0059525
X0062065
Y0012573
X0059525
X0056985
X0054445
X0051905
X0049365
X0046825
X0044285
X0041745
X0039205
X0036665
X00381Y000254
X004064
X004318
X004572
X00508
X005334
X005588
X005842
X006096
X00635
X00662Y004182
Y004436
Y00469
X00635Y00508
X006096
X005842
X005588
X005334
X00508
X004826
X004572
X0041656
X0039116
X0036576
X0034036
X0031496
X0028956
X0026416
X0023876
X0021336
X0018796
X00146Y00446
Y004206
Y003952
Y003698
X000762Y0038608
Y0041148
X000508
X000254
Y0038608
X000508
Y0047244
Y0049784
X000762
Y0047244
X000254
Y0049784
T05
X00021Y00023
X00023Y00138
T06
X001397Y000254
X006604Y000762
Y003556
T07
X001524Y00508
M30
